<?xml version="1.0" encoding="utf-8"?>
<!-- Generator: Adobe Illustrator 23.0.3, SVG Export Plug-In . SVG Version: 6.00 Build 0)  -->
<svg version="1.1" id="Capa_1" xmlns="http://www.w3.org/2000/svg" xmlns:xlink="http://www.w3.org/1999/xlink" x="0px" y="0px"
	 viewBox="0 0 400 400" style="enable-background:new 0 0 400 400;" xml:space="preserve">
<style type="text/css">
	.st0{opacity:0.24;fill:#003F6C;enable-background:new    ;}
	.st1{opacity:0.65;}
	.st2{fill:url(#SVGID_1_);}
	.st3{opacity:0.25;fill:#63AC53;enable-background:new    ;}
	.st4{fill:#E8B942;}
	.st5{fill:#75BD72;}
	.st6{opacity:0.3;enable-background:new    ;}
	.st7{opacity:0.1;enable-background:new    ;}
	.st8{opacity:0.2;enable-background:new    ;}
	.st9{fill:#37474F;}
	.st10{fill:#263238;}
	.st11{fill:#455A64;}
	.st12{opacity:8.000000e-02;fill:#213B2C;enable-background:new    ;}
	.st13{fill:#E0E0E0;}
	.st14{fill:#335441;}
	.st15{fill:#213B2C;}
	.st16{fill:#AED9B4;}
	.st17{fill:#8ECC93;}
	.st18{fill:#FAFAFA;}
	.st19{fill:#F0F0F0;}
	.st20{fill:#2C4C39;}
	.st21{fill:#27DEBF;}
	.st22{opacity:0.8;fill:#FFFFFF;enable-background:new    ;}
	.st23{clip-path:url(#SVGID_3_);}
	.st24{fill:#EBEBEB;}
	.st25{clip-path:url(#SVGID_5_);}
	.st26{opacity:0.1;fill:#8ECC93;enable-background:new    ;}
	.st27{clip-path:url(#SVGID_7_);}
	.st28{fill:#63AC53;}
	.st29{fill:#D7A333;}
	.st30{fill:#CDD4CE;}
	.st31{fill:#DBE2DC;}
	.st32{fill:#D3EBD8;}
	.st33{fill:#86E0C1;}
	.st34{fill:#75C9A9;}
	.st35{fill:#67B394;}
	.st36{fill:#FFFFFF;}
	.st37{fill:#FDF951;}
</style>
<path class="st0" d="M20,244c30.5,52,48.4,67.6,60.9,71.6c14.7,4.7,16.9,24.8,25.9,35.4c27.6,32.4,68.6,47.1,118.4,42.4
	c23.8-2.2,49.2-8.8,73.4-19l0.4-0.2c4.4-1.6,27.7-10.7,49.5-28.3c34.1-27.5,48.4-62,41.3-99.8c-6.3-33.7-21.3-60.6-36.6-84.7
	c-3.5-5.5-7.1-11.1-10.7-16.5c-3.6-5.5-7.3-11.1-10.9-16.8C317.5,106.2,245.9,8.4,123.9,35C-23.6,67.2-4.3,202.6,20,244z"/>
<g class="st1">
	<g>
		<linearGradient id="SVGID_1_" gradientUnits="userSpaceOnUse" x1="2.9783" y1="211.3704" x2="393.3866" y2="211.3704">
			<stop  offset="0" style="stop-color:#003F6C"/>
			<stop  offset="1" style="stop-color:#009444"/>
		</linearGradient>
		<path class="st2" d="M276.2,45.8c-98.7,0.6-179.6,6.4-245.9,90.3C-36,220,35.5,322.5,66,344.2c44.9,31.9,135.4,63.6,264.2-25
			C442.6,241.9,392.9,45,276.2,45.8z"/>
	</g>
</g>
<ellipse id="Shadow_3_" class="st3" cx="250.7" cy="131.9" rx="25.3" ry="14.6"/>
<ellipse id="Shadow_1_" class="st3" cx="337.2" cy="192.7" rx="24.3" ry="14"/>
<g id="Pine_4_">
	<g id="XMLID_97_">
		<g id="XMLID_106_">
			<path id="XMLID_107_" class="st4" d="M256.6,60.9v70.9c0,0.9-0.6,1.7-1.7,2.4c-2.2,1.3-5.9,1.3-8.1,0c-1.1-0.6-1.7-1.5-1.7-2.4
				V60.9H256.6z"/>
		</g>
		<path id="XMLID_105_" class="st5" d="M212.7,97.5l35.6-86.1h5L289,97.5c1.1,2.7-0.5,5.7-3.3,6.2l-0.6,0.1c-2.3,0.5-3.9,2.7-3.6,5
			l0,0c0.4,3.3-2.7,5.9-5.9,4.9l-1.8-0.5c-2.2-0.7-4.5,0.4-5.5,2.5l-1.8,3.9c-1.1,2.5-4.1,3.4-6.5,2l-6.9-4.1
			c-1.4-0.8-3.2-0.8-4.6,0l-6.9,4.1c-2.3,1.4-5.4,0.4-6.5-2l-1.8-3.9c-0.9-2.1-3.3-3.2-5.5-2.5l-1.8,0.5c-3.2,1-6.3-1.6-5.9-4.9l0,0
			c0.3-2.4-1.3-4.6-3.6-5l-0.6-0.1C213.2,103.2,211.6,100.2,212.7,97.5z"/>
		<path id="XMLID_104_" class="st6" d="M212.7,97.5l35.6-86.1h5L289,97.5c1.1,2.7-0.5,5.7-3.3,6.2l-0.6,0.1c-2.3,0.5-3.9,2.7-3.6,5
			l0,0c0.4,3.3-2.7,5.9-5.9,4.9l-1.8-0.5c-2.2-0.7-4.5,0.4-5.5,2.5l-1.8,3.9c-1.1,2.5-4.1,3.4-6.5,2l-6.9-4.1
			c-1.4-0.8-3.2-0.8-4.6,0l-6.9,4.1c-2.3,1.4-5.4,0.4-6.5-2l-1.8-3.9c-0.9-2.1-3.3-3.2-5.5-2.5l-1.8,0.5c-3.2,1-6.3-1.6-5.9-4.9l0,0
			c0.3-2.4-1.3-4.6-3.6-5l-0.6-0.1C213.2,103.2,211.6,100.2,212.7,97.5z"/>
		<path id="XMLID_103_" class="st7" d="M257.3,21.1l-4-9h-5l-6.6,15.3l-21.5,52c0.2,1.1,1,1.9,2.2,2.1l0,0c1.8,0.3,3.1,2,2.9,3.8
			l-0.1,0.7c-0.3,2.6,2.2,4.5,4.6,3.6l1.8-0.7c1.7-0.7,3.6,0.2,4.4,1.8l2.2,4.9c0.8,1.9,3.1,2.6,4.9,1.6l5.9-3.9
			c1.1-0.7,2.4-0.7,3.5,0l6.6,3.9c1.8,1.1,4.1,0.3,4.9-1.6l2.2-4.9c0.7-1.7,2.7-2.5,4.4-1.8l1.8,0.7c2.4,0.9,5-1.1,4.6-3.6l-0.1-0.7
			c-0.2-1.8,1-3.5,2.9-3.8c0.9-0.2,1.5-0.6,1.9-1.3L257.3,21.1z"/>
		<path id="XMLID_102_" class="st5" d="M220.6,72.5L248.3,8h5l28.4,64.5c1,2.1,0.4,4.6-1.8,4.9c-1.8,0.3-3.1,2-2.9,3.8l0.1,0.7
			c0.3,2.6-2.2,4.5-4.6,3.6l-1.8-0.7c-1.7-0.7-3.6,0.2-4.4,1.8l-2.2,4.9c-0.8,1.9-3.1,2.6-4.9,1.6l-6.6-3.9c-1.1-0.7-2.4-0.7-3.5,0
			l-5.9,3.9c-1.8,1.1-4.1,0.3-4.9-1.6l-2.2-4.9c-0.7-1.7-2.7-2.5-4.4-1.8l-1.8,0.7c-2.4,0.9-4.9-1.1-4.6-3.6l0.1-0.7
			c0.2-1.8-1.1-3.5-2.9-3.8l0,0C220.2,77,219.6,74.6,220.6,72.5z"/>
		<path id="XMLID_101_" class="st8" d="M220.6,72.5L248.3,8h5l28.4,64.5c1,2.1,0.4,4.6-1.8,4.9c-1.8,0.3-3.1,2-2.9,3.8l0.1,0.7
			c0.3,2.6-2.2,4.5-4.6,3.6l-1.8-0.7c-1.7-0.7-3.6,0.2-4.4,1.8l-2.2,4.9c-0.8,1.9-3.1,2.6-4.9,1.6l-6.6-3.9c-1.1-0.7-2.4-0.7-3.5,0
			l-5.9,3.9c-1.8,1.1-4.1,0.3-4.9-1.6l-2.2-4.9c-0.7-1.7-2.7-2.5-4.4-1.8l-1.8,0.7c-2.4,0.9-4.9-1.1-4.6-3.6l0.1-0.7
			c0.2-1.8-1.1-3.5-2.9-3.8l0,0C220.2,77,219.6,74.6,220.6,72.5z"/>
		<path id="XMLID_100_" class="st7" d="M253.3,8h-5l-20.2,47c0.1,0.1,0.3,0.2,0.5,0.4l0.1,0.1c1.1,0.6,1.7,1.8,1.6,3l0,0
			c-0.2,2.1,1.8,3.8,3.9,3.3l1.2-0.3c1.4-0.4,2.9,0.3,3.5,1.5l1.6,3.1c0.8,1.5,2.7,2.1,4.2,1.3l4.6-2.4c0.9-0.5,2-0.5,2.9,0l4.6,2.4
			c1.5,0.8,3.4,0.2,4.2-1.3l1.6-3.1c0.7-1.3,2.1-1.9,3.5-1.5l1.2,0.3c2.1,0.5,4.1-1.1,3.9-3.3c-0.1-1.2,0.5-2.4,1.6-3l0.1-0.1
			c0.3-0.2,0.6-0.4,0.9-0.7L253.3,8z"/>
		<path id="XMLID_99_" class="st5" d="M227.5,47.1l20.8-43.8l0.2-0.3c0.5-0.8,1.3-1.3,2.3-1.3s1.8,0.5,2.3,1.3l0.2,0.3l20.8,43.8
			c0.9,1.5,0.4,3.5-1.1,4.3l-0.1,0.1c-1.1,0.6-1.7,1.8-1.6,3c0.2,2.1-1.8,3.8-3.9,3.3l-1.2-0.3c-1.4-0.4-2.9,0.3-3.5,1.5l-1.6,3.1
			c-0.8,1.5-2.7,2.1-4.2,1.3l-4.6-2.4c-0.9-0.5-2-0.5-2.9,0l-4.6,2.4c-1.5,0.8-3.4,0.2-4.2-1.3L239,59c-0.7-1.3-2.1-1.9-3.5-1.5
			l-1.2,0.3c-2.1,0.5-4.1-1.1-3.9-3.3l0,0c0.1-1.2-0.5-2.4-1.6-3l-0.1-0.1C227.1,50.6,226.6,48.6,227.5,47.1z"/>
		<path id="XMLID_98_" class="st7" d="M227.5,47.1l20.8-43.8l0.2-0.3c0.5-0.8,1.3-1.3,2.3-1.3s1.8,0.5,2.3,1.3l0.2,0.3l20.8,43.8
			c0.9,1.5,0.4,3.5-1.1,4.3l-0.1,0.1c-1.1,0.6-1.7,1.8-1.6,3c0.2,2.1-1.8,3.8-3.9,3.3l-1.2-0.3c-1.4-0.4-2.9,0.3-3.5,1.5l-1.6,3.1
			c-0.8,1.5-2.7,2.1-4.2,1.3l-4.6-2.4c-0.9-0.5-2-0.5-2.9,0l-4.6,2.4c-1.5,0.8-3.4,0.2-4.2-1.3L239,59c-0.7-1.3-2.1-1.9-3.5-1.5
			l-1.2,0.3c-2.1,0.5-4.1-1.1-3.9-3.3l0,0c0.1-1.2-0.5-2.4-1.6-3l-0.1-0.1C227.1,50.6,226.6,48.6,227.5,47.1z"/>
	</g>
	<g id="XMLID_87_">
		<g id="XMLID_94_">
			<path id="XMLID_96_" class="st9" d="M253.6,133.9c0.1-1.9,1.6-3.4,3.5-3.4c1.9,0,3.5,1.5,3.5,3.4c0,0,0,0.1,0,0.1
				c0,0,0,0.1,0,0.1c0,0.5-0.4,1-1,1.4c-1.4,0.8-3.6,0.8-5,0c-0.6-0.4-1-0.9-1-1.4c0,0,0-0.1,0-0.1C253.6,134,253.6,134,253.6,133.9
				z"/>
			<path id="XMLID_95_" class="st10" d="M254.6,135.5c-0.6-0.4-1-0.9-1-1.4c0,0,0-0.1,0-0.1c0,0,0-0.1,0-0.1c0-1.3,0.8-2.4,1.8-3
				c0,0-1.8,2.2-0.5,3.7c0.9,1,3.9,1.2,5.3,0.4c-0.2,0.2-0.4,0.3-0.6,0.5C258.2,136.3,256,136.3,254.6,135.5z"/>
		</g>
		<g id="XMLID_91_">
			<path id="XMLID_93_" class="st11" d="M259.3,135.7c0-1.3,1.1-2.4,2.5-2.4s2.5,1.1,2.5,2.4c0,0,0,0.1,0,0.1s0,0.1,0,0.1
				c0,0.4-0.3,0.7-0.7,0.9c-1,0.6-2.6,0.6-3.5,0c-0.5-0.3-0.7-0.6-0.7-0.9C259.3,135.8,259.3,135.8,259.3,135.7
				C259.3,135.8,259.3,135.8,259.3,135.7z"/>
			<path id="XMLID_92_" class="st9" d="M260,136.8c-0.5-0.3-0.7-0.6-0.7-0.9c0,0,0-0.1,0-0.1s0-0.1,0-0.1c0-0.3,0.1-0.6,0.2-0.8
				c-0.1,1.1,0.5,1.7,2,1.9c1.6,0.2,2.6-0.5,2.7-0.7c-0.1,0.3-0.3,0.5-0.7,0.7C262.6,137.4,261,137.4,260,136.8z"/>
		</g>
		<g id="XMLID_88_">
			<path id="XMLID_90_" class="st11" d="M241,133.2c0-1.3,1.1-2.4,2.5-2.4c1.4,0,2.4,1.1,2.5,2.4c0,0,0,0.1,0,0.1s0,0.1,0,0.1
				c0,0.3-0.3,0.7-0.7,0.9c-1,0.6-2.5,0.6-3.5,0c-0.4-0.3-0.7-0.6-0.7-0.9C241,133.3,241,133.3,241,133.2
				C241,133.3,241,133.2,241,133.2z"/>
			<path id="XMLID_89_" class="st9" d="M241.7,134.3c-0.4-0.3-0.7-0.6-0.7-0.9c0,0,0-0.1,0-0.1s0-0.1,0-0.1c0-0.3,0.1-0.6,0.2-0.8
				c-0.1,1.1,0.4,1.7,2,1.9c1.6,0.2,2.6-0.5,2.7-0.7c-0.1,0.3-0.3,0.5-0.7,0.7C244.3,134.9,242.7,134.9,241.7,134.3z"/>
		</g>
	</g>
</g>
<g id="Pine_2_">
	<g id="XMLID_76_">
		<g id="XMLID_85_">
			<path id="XMLID_86_" class="st4" d="M332.3,129.5V193c0,0.8,0.5,1.5,1.5,2.1c2,1.2,5.3,1.2,7.3,0c1-0.6,1.5-1.3,1.5-2.1v-63.5
				H332.3z"/>
		</g>
		<path id="XMLID_84_" class="st5" d="M371.7,162.4l-32-77.2h-4.5l-32,77.2c-1,2.4,0.5,5.1,3,5.6l0.5,0.1c2.1,0.4,3.5,2.4,3.3,4.5
			l0,0c-0.4,2.9,2.4,5.3,5.2,4.4l1.6-0.5c2-0.6,4.1,0.3,4.9,2.2l1.6,3.5c1,2.2,3.7,3.1,5.8,1.8l6.2-3.7c1.3-0.8,2.9-0.8,4.2,0
			l6.2,3.7c2.1,1.2,4.8,0.4,5.8-1.8l1.6-3.5c0.9-1.9,3-2.8,4.9-2.2l1.6,0.5c2.8,0.9,5.6-1.5,5.2-4.4l0,0c-0.3-2.1,1.1-4.1,3.3-4.5
			l0.5-0.1C371.2,167.4,372.7,164.8,371.7,162.4z"/>
		<path id="XMLID_83_" class="st6" d="M371.7,162.4l-32-77.2h-4.5l-32,77.2c-1,2.4,0.5,5.1,3,5.6l0.5,0.1c2.1,0.4,3.5,2.4,3.3,4.5
			l0,0c-0.4,2.9,2.4,5.3,5.2,4.4l1.6-0.5c2-0.6,4.1,0.3,4.9,2.2l1.6,3.5c1,2.2,3.7,3.1,5.8,1.8l6.2-3.7c1.3-0.8,2.9-0.8,4.2,0
			l6.2,3.7c2.1,1.2,4.8,0.4,5.8-1.8l1.6-3.5c0.9-1.9,3-2.8,4.9-2.2l1.6,0.5c2.8,0.9,5.6-1.5,5.2-4.4l0,0c-0.3-2.1,1.1-4.1,3.3-4.5
			l0.5-0.1C371.2,167.4,372.7,164.8,371.7,162.4z"/>
		<path id="XMLID_82_" class="st7" d="M331.7,93.8l3.6-8.1h4.5l5.9,13.8l19.3,46.6c-0.2,1-0.9,1.7-2,1.9l0,0
			c-1.6,0.3-2.8,1.8-2.6,3.4l0.1,0.6c0.3,2.3-2,4.1-4.2,3.2l-1.6-0.6c-1.5-0.6-3.2,0.1-3.9,1.6l-2,4.4c-0.8,1.7-2.8,2.3-4.4,1.4
			l-5.3-3.5c-1-0.6-2.2-0.6-3.2,0L330,162c-1.6,0.9-3.6,0.3-4.4-1.4l-2-4.4c-0.7-1.5-2.4-2.2-3.9-1.6l-1.6,0.6
			c-2.2,0.8-4.4-0.9-4.2-3.2l0.1-0.6c0.2-1.6-0.9-3.1-2.6-3.4c-0.8-0.1-1.4-0.6-1.7-1.1L331.7,93.8z"/>
		<path id="XMLID_81_" class="st5" d="M364.6,139.9l-24.8-57.8h-4.5l-25.5,57.8c-0.9,1.9-0.4,4.1,1.6,4.4c1.6,0.3,2.8,1.8,2.6,3.4
			l-0.1,0.6c-0.3,2.3,2,4.1,4.2,3.2l1.6-0.6c1.5-0.6,3.2,0.1,3.9,1.6l2,4.4c0.8,1.7,2.8,2.3,4.4,1.4l5.9-3.5c1-0.6,2.2-0.6,3.2,0
			l5.3,3.5c1.6,0.9,3.6,0.3,4.4-1.4l2-4.4c0.7-1.5,2.4-2.2,3.9-1.6l1.6,0.6c2.2,0.8,4.4-0.9,4.2-3.2l-0.1-0.6
			c-0.2-1.6,0.9-3.1,2.6-3.4l0,0C365,144,365.5,141.8,364.6,139.9z"/>
		<path id="XMLID_80_" class="st8" d="M364.6,139.9l-24.8-57.8h-4.5l-25.5,57.8c-0.9,1.9-0.4,4.1,1.6,4.4c1.6,0.3,2.8,1.8,2.6,3.4
			l-0.1,0.6c-0.3,2.3,2,4.1,4.2,3.2l1.6-0.6c1.5-0.6,3.2,0.1,3.9,1.6l2,4.4c0.8,1.7,2.8,2.3,4.4,1.4l5.9-3.5c1-0.6,2.2-0.6,3.2,0
			l5.3,3.5c1.6,0.9,3.6,0.3,4.4-1.4l2-4.4c0.7-1.5,2.4-2.2,3.9-1.6l1.6,0.6c2.2,0.8,4.4-0.9,4.2-3.2l-0.1-0.6
			c-0.2-1.6,0.9-3.1,2.6-3.4l0,0C365,144,365.5,141.8,364.6,139.9z"/>
		<path id="XMLID_79_" class="st7" d="M335.3,82.1h4.5l18.1,42.1c-0.1,0.1-0.3,0.2-0.5,0.3l-0.1,0.1c-1,0.5-1.5,1.6-1.4,2.7l0,0
			c0.2,1.9-1.6,3.4-3.5,2.9l-1.1-0.3c-1.2-0.3-2.5,0.2-3.2,1.4l-1.5,2.8c-0.7,1.3-2.4,1.9-3.7,1.1l-4.1-2.1c-0.8-0.4-1.8-0.4-2.6,0
			l-4.1,2.1c-1.4,0.7-3,0.2-3.7-1.1l-1.5-2.8c-0.6-1.1-1.9-1.7-3.2-1.4l-1.1,0.3c-1.9,0.5-3.6-1-3.5-2.9c0.1-1.1-0.5-2.1-1.4-2.7
			l-0.1-0.1c-0.3-0.2-0.5-0.4-0.8-0.6L335.3,82.1z"/>
		<path id="XMLID_78_" class="st5" d="M358.4,117.2l-18.7-39.2l-0.1-0.2c-0.4-0.7-1.2-1.2-2.1-1.2s-1.6,0.5-2.1,1.2l-0.1,0.2
			l-18.7,39.2c-0.8,1.3-0.4,3.1,1,3.9l0.1,0.1c1,0.5,1.5,1.6,1.4,2.7c-0.2,1.9,1.6,3.4,3.5,2.9l1.1-0.3c1.2-0.3,2.5,0.2,3.2,1.4
			l1.5,2.8c0.7,1.3,2.4,1.9,3.7,1.1l4.1-2.1c0.8-0.4,1.8-0.4,2.6,0l4.1,2.1c1.4,0.7,3,0.2,3.7-1.1l1.5-2.8c0.6-1.1,1.9-1.7,3.2-1.4
			l1.1,0.3c1.9,0.5,3.6-1,3.5-2.9l0,0c-0.1-1.1,0.5-2.1,1.4-2.7l0.1-0.1C358.8,120.3,359.2,118.5,358.4,117.2z"/>
		<path id="XMLID_77_" class="st7" d="M358.4,117.2l-18.7-39.2l-0.1-0.2c-0.4-0.7-1.2-1.2-2.1-1.2s-1.6,0.5-2.1,1.2l-0.1,0.2
			l-18.7,39.2c-0.8,1.3-0.4,3.1,1,3.9l0.1,0.1c1,0.5,1.5,1.6,1.4,2.7c-0.2,1.9,1.6,3.4,3.5,2.9l1.1-0.3c1.2-0.3,2.5,0.2,3.2,1.4
			l1.5,2.8c0.7,1.3,2.4,1.9,3.7,1.1l4.1-2.1c0.8-0.4,1.8-0.4,2.6,0l4.1,2.1c1.4,0.7,3,0.2,3.7-1.1l1.5-2.8c0.6-1.1,1.9-1.7,3.2-1.4
			l1.1,0.3c1.9,0.5,3.6-1,3.5-2.9l0,0c-0.1-1.1,0.5-2.1,1.4-2.7l0.1-0.1C358.8,120.3,359.2,118.5,358.4,117.2z"/>
	</g>
	<g id="XMLID_66_">
		<g id="XMLID_73_">
			<path id="XMLID_75_" class="st9" d="M335,195c0-1.7-1.5-3.1-3.2-3.1s-3.1,1.4-3.2,3.1c0,0,0,0.1,0,0.1s0,0.1,0,0.1
				c0,0.4,0.3,0.9,0.9,1.2c1.2,0.7,3.2,0.7,4.5,0c0.6-0.3,0.9-0.8,0.9-1.2C335,195.2,335,195.1,335,195C335,195.1,335,195,335,195z"
				/>
			<path id="XMLID_74_" class="st10" d="M334.1,196.4c0.6-0.3,0.9-0.8,0.9-1.2c0,0,0-0.1,0-0.1s0-0.1,0-0.1c0-1.2-0.7-2.2-1.6-2.7
				c0,0,1.6,2,0.4,3.3c-0.8,0.9-3.5,1.1-4.7,0.4c0.1,0.1,0.3,0.3,0.5,0.4C330.8,197.1,332.9,197.1,334.1,196.4z"/>
		</g>
		<g id="XMLID_70_">
			<path id="XMLID_72_" class="st11" d="M329.9,196.6c0-1.2-1-2.2-2.2-2.2s-2.2,1-2.2,2.2c0,0,0,0,0,0.1s0,0,0,0.1
				c0,0.3,0.2,0.6,0.6,0.9c0.9,0.5,2.3,0.5,3.2,0c0.4-0.2,0.6-0.5,0.6-0.9C329.9,196.7,329.9,196.7,329.9,196.6
				C329.9,196.6,329.9,196.6,329.9,196.6z"/>
			<path id="XMLID_71_" class="st9" d="M329.2,197.6c0.4-0.2,0.6-0.5,0.6-0.9c0,0,0,0,0-0.1s0,0,0-0.1c0-0.3-0.1-0.5-0.1-0.7
				c0.1,1-0.4,1.5-1.8,1.7c-1.5,0.2-2.3-0.4-2.5-0.6c0.1,0.2,0.3,0.4,0.6,0.6C326.9,198.1,328.4,198.1,329.2,197.6z"/>
		</g>
		<g id="XMLID_67_">
			<path id="XMLID_69_" class="st11" d="M346.3,194.4c0-1.2-1-2.2-2.2-2.2s-2.2,1-2.2,2.2c0,0,0,0,0,0.1s0,0,0,0.1
				c0,0.3,0.2,0.6,0.6,0.9c0.9,0.5,2.3,0.5,3.1,0c0.4-0.2,0.6-0.5,0.6-0.9C346.3,194.5,346.3,194.4,346.3,194.4
				C346.3,194.4,346.3,194.4,346.3,194.4z"/>
			<path id="XMLID_68_" class="st9" d="M345.6,195.3c0.4-0.2,0.6-0.5,0.6-0.9c0,0,0,0,0-0.1s0,0,0-0.1c0-0.3-0.1-0.5-0.1-0.7
				c0,0.9-0.4,1.5-1.8,1.7c-1.5,0.2-2.3-0.4-2.4-0.6c0.1,0.2,0.3,0.4,0.6,0.6C343.4,195.8,344.8,195.8,345.6,195.3z"/>
		</g>
	</g>
</g>
<path id="Shadow_10_" class="st12" d="M60.2,339.6l47.5-27.4c0.5-0.3,0.5-0.8,0-1.1l-3.4-2c-0.5-0.3-1.4-0.3-1.9,0l-19.3,11.1
	c-0.5,0.3-1.4,0.3-1.9,0L46.1,300c-0.5-0.3-1.4-0.3-1.9,0l-1.7,1c-0.5,0.3-0.5,0.8,0,1.1l35.2,20.3c0.5,0.3,0.5,0.8,0,1.1L55,336.5
	c-0.5,0.3-0.5,0.8,0,1.1l3.4,2C58.9,339.9,59.7,339.9,60.2,339.6z"/>
<path id="Shadow_35_" class="st13" d="M121.9,330.3c3.3,1.8,3.3,4.8,0,6.6s-8.6,1.8-11.9,0s-3.3-4.8,0-6.6
	C113.3,328.5,118.6,328.5,121.9,330.3z"/>
<g id="Canvas">
	<g id="XMLID_9628_">
		<polygon id="XMLID_9639_" class="st14" points="91.8,303.3 91.8,302.1 69.8,314.8 70.9,315.5 		"/>
		<g id="XMLID_9636_">
			<path id="XMLID_9638_" class="st14" d="M64.4,219.5c0.1,0.1,0.2,0.2,0.1,0.3l-18.2,81l-0.5,2.3c-0.3,0-0.5,0-0.7-0.1c0,0,0,0,0,0
				l-1.2-0.7c-0.1-0.1-0.2-0.2-0.1-0.3l18.7-83.1c0-0.2,0.3-0.3,0.4-0.2L64.4,219.5z"/>
			<path id="XMLID_9637_" class="st15" d="M66.7,218.4l-18.8,83.5c0,0.1-0.1,0.2-0.2,0.3l-1.2,0.7c-0.2,0.1-0.4,0.1-0.6,0.1l0.5-2.3
				l18.3-81.2L66.7,218.4z"/>
		</g>
		<g id="XMLID_9633_">
			<path id="XMLID_9635_" class="st14" d="M68.8,331v2.4c-0.2,0-0.5,0-0.7-0.1c0,0,0,0,0,0l-1.1-0.7c-0.2-0.1-0.3-0.2-0.3-0.4
				l0-72.5l2.1,1.2L68.8,331z"/>
			<path id="XMLID_9634_" class="st15" d="M70.9,259.6l0,72.5v0c0,0.1-0.1,0.3-0.3,0.4l-1.1,0.7c-0.2,0.1-0.4,0.2-0.7,0.2V331
				l0-70.1L70.9,259.6z"/>
		</g>
		<g id="XMLID_9630_">
			<path id="XMLID_9632_" class="st14" d="M96,317.7c-0.1,0-0.4,0-0.7-0.2l-1.2-0.7c-0.2-0.1-0.3-0.2-0.3-0.4l-12.5-65.2l2.1,1.2
				l12.1,62.9L96,317.7z"/>
			<path id="XMLID_9631_" class="st15" d="M98.1,316.4C98.1,316.5,98.1,316.5,98.1,316.4c0,0.2-0.1,0.3-0.3,0.4l-1.1,0.6l-0.1,0
				c-0.2,0.1-0.4,0.2-0.7,0.2l-0.4-2.4l-12.1-62.9l2.1-1.2L98.1,316.4C98,316.4,98,316.4,98.1,316.4L98.1,316.4z"/>
		</g>
		<polygon id="XMLID_9629_" class="st15" points="70.1,318.3 93.9,304.5 93.9,302.1 70.1,315.9 		"/>
	</g>
	<g id="XMLID_9581_">
		<g id="XMLID_9624_">
			<path id="XMLID_9627_" class="st16" d="M50.7,274.6v0.9c0,0.4,0.3,1,0.7,1.2l7,4.1c0.4,0.2,1,0.2,1.3,0l32.2-18.6
				c0.4-0.2,0.7-0.7,0.7-1.2v-0.9c0-0.4-0.3-1-0.7-1.2l-7-4.1c-0.4-0.2-1-0.2-1.3,0l-32.2,18.6C51,273.7,50.7,274.2,50.7,274.6z"/>
			<path id="XMLID_9626_" class="st17" d="M51.4,274.2l7,4.1c0.4,0.2,1,0.2,1.3,0l32.2-18.6c0.4-0.2,0.4-0.6,0-0.8l-7-4.1
				c-0.4-0.2-1-0.2-1.3,0l-32.2,18.6C51,273.7,51,274,51.4,274.2z"/>
			<path id="XMLID_9625_" class="st5" d="M59.1,278.5v2.4c-0.2,0-0.5-0.1-0.7-0.2l-7-4.1c-0.4-0.2-0.7-0.7-0.7-1.2v-0.9
				c0-0.4,0.2-0.8,0.5-1.1c-0.2,0.2-0.2,0.5,0.1,0.7l7,4.1C58.6,278.4,58.9,278.5,59.1,278.5z"/>
		</g>
		<g id="XMLID_9620_">
			<path id="XMLID_9623_" class="st13" d="M48.9,280.9l-2-1.1c-0.6-0.4-1.2-1.2-1.2-1.9l-4-70c0-0.7,0.4-1.6,1-1.9l46-26.5
				c0.6-0.4,1.6-0.4,2.2,0l2,1.1c0.6,0.4,1.2,1.2,1.2,1.9l4,70c0,0.7-0.4,1.6-1,1.9l-46,26.5C50.5,281.2,49.5,281.2,48.9,280.9z"/>
			<path id="XMLID_9622_" class="st18" d="M94,182.2c-0.1-0.6-0.6-0.8-1.2-0.4l-46,26.5c-0.3,0.2-0.6,0.5-0.8,0.8l-4.2-2.4
				c0.2-0.4,0.5-0.7,0.8-0.8l46-26.5c0.6-0.4,1.6-0.4,2.2,0l2,1.1C93.4,180.8,93.9,181.6,94,182.2z"/>
			<path id="XMLID_9621_" class="st19" d="M45.9,210.2l4,70c0,0.7,0.6,1,1.2,0.6l46-26.5c0.6-0.4,1.1-1.2,1-1.9l-4-70
				c0-0.7-0.6-1-1.2-0.6l-46,26.5C46.3,208.6,45.8,209.5,45.9,210.2z"/>
		</g>
	</g>
	<path class="st16" d="M59.9,195.9l4.2,2.4c0.3,0.2,0.8,0.2,1.1,0l11.2-6.5c0.3-0.2,0.6-0.6,0.6-1v-0.7c0-0.4-0.2-0.8-0.6-1
		l-4.2-2.4c-0.3-0.2-0.8-0.2-1.1,0l-11.2,6.5c-0.3,0.2-0.6,0.6-0.6,1v0.7C59.3,195.3,59.6,195.8,59.9,195.9z"/>
	<path class="st17" d="M59.9,193.9l4.2,2.4c0.3,0.2,0.8,0.2,1.1,0l11.2-6.5c0.3-0.2,0.3-0.5,0-0.6l-4.2-2.4c-0.3-0.2-0.8-0.2-1.1,0
		l-11.2,6.5C59.6,193.4,59.6,193.7,59.9,193.9z"/>
	<path class="st5" d="M64.5,196.4v2c-0.2,0-0.4,0-0.5-0.1l-4.2-2.4c-0.3-0.2-0.6-0.6-0.6-1v-0.7c0-0.3,0.2-0.7,0.5-0.9
		c-0.2,0.2-0.2,0.4,0.1,0.6l4.2,2.4C64.2,196.4,64.3,196.4,64.5,196.4z"/>
	<g>
		<path class="st20" d="M60.9,172.6c0-0.3,0.2-0.7,0.4-0.8c0.7-0.4,1.9-1.1,2.6-1.5c0.3-0.1,0.7-0.1,0.9,0l1.1,0.6
			c0.3,0.1,0.5,0.5,0.5,0.8l1.7,16.8l-5.3,3.1L60.9,172.6z"/>
		<path class="st14" d="M64.6,190.5l-1.8,1l-1.9-18.9c0-0.1,0-0.3,0.1-0.5l2,1.1c-0.1,0.1-0.1,0.3-0.1,0.5L64.6,190.5z"/>
		<path class="st15" d="M62.9,173.8c0-0.3,0.2-0.7,0.4-0.8l2.6-1.5c0.3-0.1,0.5,0,0.5,0.3l1.7,16.8l-3.5,2L62.9,173.8z"/>
	</g>
</g>
<g id="Penciles_1_">
	<g id="Pencil_Can_1_">
		<g id="Can_1_">
			<path id="XMLID_5826_" class="st21" d="M123.2,316.1h-16l1.8,14.7h0c0.1,0.9,0.7,1.7,1.8,2.3c2.4,1.4,6.4,1.4,8.8,0
				c1.1-0.6,1.7-1.5,1.8-2.3h0L123.2,316.1z"/>
			<path id="XMLID_5825_" class="st17" d="M123.2,316.1h-16l1.8,14.7h0c0.1,0.9,0.7,1.7,1.8,2.3c2.4,1.4,6.4,1.4,8.8,0
				c1.1-0.6,1.7-1.5,1.8-2.3h0L123.2,316.1z"/>
			<path id="XMLID_5824_" class="st21" d="M109.6,312.9c3.1-1.8,8.2-1.8,11.3,0c3.1,1.8,3.1,4.7,0,6.5c-3.1,1.8-8.2,1.8-11.3,0
				C106.5,317.6,106.5,314.7,109.6,312.9z"/>
			<path id="XMLID_5823_" class="st22" d="M109.6,312.9c3.1-1.8,8.2-1.8,11.3,0c3.1,1.8,3.1,4.7,0,6.5c-3.1,1.8-8.2,1.8-11.3,0
				C106.5,317.6,106.5,314.7,109.6,312.9z"/>
			<path id="XMLID_5822_" class="st10" d="M115.2,319.8c-2,0-3.8-0.4-5.2-1.2c-1.2-0.7-1.9-1.6-1.9-2.5s0.7-1.8,1.9-2.5
				c1.4-0.8,3.2-1.2,5.2-1.2c2,0,3.8,0.4,5.2,1.2c1.2,0.7,1.9,1.6,1.9,2.5s-0.7,1.8-1.9,2.5C119.1,319.4,117.2,319.8,115.2,319.8z"
				/>
		</g>
		<g id="XMLID_824_">
			<g>
				<defs>
					<path id="SVGID_2_" d="M115,319.8c-1.7,0-3.9-0.6-5-1.2c-1.2-0.7-1.9-1.5-1.9-2.5c0-0.7-3.7-19.4-3.7-19.4l10.3-11.7l14.2,10.9
						c0,0-2,13.3-2.5,18c-0.1,0.9-4.3,2-4.3,2.2c0,1.5-1.5,2.3-2.6,2.8C118.6,319.5,116.8,319.9,115,319.8z"/>
				</defs>
				<clipPath id="SVGID_3_">
					<use xlink:href="#SVGID_2_"  style="overflow:visible;"/>
				</clipPath>
				<g id="XMLID_754_" class="st23">
					<g id="Brush_2_">
						<g id="XMLID_814_">
							<path id="XMLID_816_" class="st17" d="M110.9,305.2L110.9,305.2c0,0,1.4,5.3,2.2,10.7c0.8,5.3,0.6,11.2,0.5,12.2v0v0l0,0
								c0,0.1-0.1,0.2-0.2,0.3c-0.2,0.1-0.4,0-0.6-0.1c0,0,0,0,0-0.1l0,0c0,0-2.3-6.6-3-11.8c-0.7-5.2-0.8-10.8-0.8-10.8l0,0
								c0-0.1,0.1-0.3,0.2-0.4c0.3-0.3,1-0.4,1.4-0.2C110.7,305,110.8,305.1,110.9,305.2z"/>
							<path id="XMLID_815_" class="st7" d="M112.8,328.2C112.8,328.2,112.8,328.2,112.8,328.2L112.8,328.2c0-0.1-2.3-6.7-3-11.9
								c-0.5-3.5-0.7-7.2-0.8-9.2l1.2,0c0,0,2.8,21.3,3.1,21.2C113.2,328.5,112.9,328.4,112.8,328.2z"/>
						</g>
						<g>
							<path id="XMLID_813_" class="st11" d="M109.8,304.9c-0.2-0.3-1.4-1.9-1.3-3.3c0.2,0,0.3-0.1,0.5-0.2c0.6-0.4,0.5-0.9,0.9-1.3
								c0.4-0.3,1.1,0.4,1.1,0.4l0,0c0.3,0.7,0.7,1.4,0.6,2.5c-0.1,1.4-0.9,2.3-0.9,2.3l-1.9,0.3l0,0L109.8,304.9z"/>
						</g>
						<path id="XMLID_805_" class="st9" d="M107.2,302c0.3-0.5,0.8-0.4,1.3-0.5c-0.1,1.4,1.1,3,1.3,3.3l-0.9,0.6
							c-0.1-0.2-0.3-0.3-0.5-0.5c0,0-0.1-0.1-0.1-0.1c-0.1-0.1-0.2-0.2-0.2-0.3c-0.1-0.2-0.2-0.4-0.3-0.5c-0.1-0.1-0.1-0.3-0.2-0.4
							c-0.1-0.3-0.2-0.6-0.3-1C107.2,302.4,107.2,302.2,107.2,302z"/>
						<g>
							<path class="st17" d="M107.2,302c0-0.1,0-0.2,0-0.3c0,0,0,0,0,0c0-0.1,0-0.1,0-0.2c0,0,0,0,0-0.1c0,0,0,0,0-0.1
								c0,0,0-0.1,0-0.1c0,0,0-0.1,0-0.1c0-0.1,0.1-0.2,0.1-0.3s0.1-0.2,0.1-0.2c0-0.1,0.1-0.2,0.1-0.2c0.3-0.5,0.8-1,1.1-1.2
								c0,0,0.1,0,0.1-0.1c0,0,0,0,0,0c0,0,0.1,0,0.1-0.1c0.3-0.2,0.5-0.3,0.8-0.4c0.1,0,0.2-0.1,0.3-0.1s0.2,0,0.3-0.1
								c0,0,0.1,0,0.1,0s0.1,0,0.1,0c0.1,0,0.1,0,0.2,0c0.1,0,0.2,0,0.2,0s-0.4,0.5-0.2,1.5c0.1,0.2,0.1,0.4,0.2,0.6
								c0,0-0.7-0.7-1.1-0.4c-0.4,0.3-0.3,0.9-0.9,1.3c-0.2,0.1-0.4,0.2-0.5,0.2C108,301.6,107.6,301.5,107.2,302L107.2,302z"/>
							<path id="XMLID_804_" class="st7" d="M111.1,298.5c0,0-1.5,0.5-2.3,2.4c-0.1,0.2-0.2,0.5-0.2,0.7c-0.5,0.1-1,0-1.3,0.5v0
								c0-0.1,0-0.2,0-0.3c0,0,0,0,0,0c0-0.1,0-0.1,0-0.2c0,0,0,0,0-0.1c0,0,0,0,0-0.1c0,0,0-0.1,0-0.1c0,0,0-0.1,0-0.1
								c0-0.1,0.1-0.2,0.1-0.3s0.1-0.2,0.1-0.2c0-0.1,0.1-0.2,0.1-0.2c0.3-0.5,0.8-1,1.1-1.2c0,0,0.1,0,0.1-0.1c0,0,0,0,0,0
								c0,0,0.1,0,0.1-0.1c0.3-0.2,0.5-0.3,0.8-0.4c0.1,0,0.2-0.1,0.3-0.1s0.2,0,0.3-0.1c0,0,0.1,0,0.1,0s0.1,0,0.1,0
								c0.1,0,0.1,0,0.2,0C111,298.5,111.1,298.5,111.1,298.5L111.1,298.5z"/>
						</g>
						<g id="XMLID_799_">
							<path id="XMLID_803_" class="st24" d="M108.9,305.5c0-0.1,0.1-0.3,0.2-0.4c0.3-0.3,1-0.4,1.4-0.2c0.2,0.1,0.3,0.2,0.3,0.3
								c0.2,0.7,0.4,1.5,0.6,2.4c0-0.2-0.2-0.3-0.4-0.4c-0.5-0.2-1.3-0.1-1.7,0.2c-0.2,0.2-0.3,0.4-0.3,0.5
								C109,307,108.9,306.1,108.9,305.5z"/>
							<path id="XMLID_802_" class="st13" d="M110.2,307.1c-0.3,0-0.7,0.1-0.9,0.3c-0.2,0.2-0.3,0.4-0.3,0.5c0-1-0.1-1.9-0.1-2.5
								c0-0.1,0.1-0.3,0.2-0.4c0.2-0.1,0.4-0.2,0.7-0.3l0,0L110.2,307.1L110.2,307.1z"/>
						</g>
					</g>
				</g>
			</g>
			<g>
				<defs>
					<path id="SVGID_4_" d="M115,319.8c-1.7,0-3.9-0.6-5-1.2c-1.2-0.7-1.9-1.5-1.9-2.5c0-0.7-3.7-19.4-3.7-19.4l10.3-11.7l14.2,10.9
						c0,0-2,13.3-2.5,18c-0.1,0.9-4.3,2-4.3,2.2c0,1.5-1.5,2.3-2.6,2.8C118.6,319.5,116.8,319.9,115,319.8z"/>
				</defs>
				<clipPath id="SVGID_5_">
					<use xlink:href="#SVGID_4_"  style="overflow:visible;"/>
				</clipPath>
				<g id="XMLID_790_" class="st25">
					<g id="Brush_3_">
						<g id="XMLID_821_">
							<path id="XMLID_823_" class="st17" d="M116,294.4L116,294.4c0,0,0.8,17.5,0.9,22.9c0.1,5.4-0.9,11.2-1.1,12.1v0v0l0,0
								c0,0.1-0.1,0.2-0.2,0.3c-0.2,0.1-0.4,0-0.5-0.2c0,0,0-0.1,0-0.1l0,0c0,0-1.4-6.9-1.5-12.1c-0.1-5.3,0.5-22.9,0.5-22.9l0,0
								c0-0.1,0.1-0.3,0.3-0.4c0.4-0.2,1-0.2,1.4,0C115.8,294.1,115.9,294.2,116,294.4z"/>
							<path id="XMLID_822_" class="st26" d="M115,329.5C115,329.5,115,329.4,115,329.5L115,329.5c0-0.1-1.4-6.9-1.5-12.2
								c0-3.5,0.1-19.3,0.3-21.3l1.2,0.2c0,0,0.1,33.5,0.4,33.5C115.3,329.8,115.1,329.7,115,329.5z"/>
						</g>
						<g>
							<path id="XMLID_820_" class="st11" d="M115,293.9c-0.2-0.3-1.1-2-0.8-3.4c0.2,0,0.3,0,0.5-0.1c0.7-0.3,0.6-0.9,1.1-1.1
								c0.5-0.3,1.1,0.5,1.1,0.5l0,0c0.2,0.7,0.5,1.5,0.3,2.5c-0.3,1.4-1.2,2.1-1.2,2.1l-1.9,0l0,0L115,293.9z"/>
						</g>
						<path id="XMLID_819_" class="st9" d="M112.8,290.7c0.4-0.5,0.8-0.3,1.4-0.3c-0.3,1.4,0.7,3.1,0.8,3.4l-1,0.5
							c-0.1-0.2-0.3-0.4-0.4-0.6c0,0-0.1-0.1-0.1-0.2c-0.1-0.1-0.1-0.2-0.2-0.3c-0.1-0.2-0.2-0.4-0.3-0.6c-0.1-0.1-0.1-0.3-0.1-0.4
							c-0.1-0.3-0.1-0.6-0.2-1C112.8,291.1,112.8,290.9,112.8,290.7z"/>
						<g>
							<path class="st17" d="M112.8,290.7c0-0.1,0-0.2,0.1-0.2c0,0,0,0,0,0c0-0.1,0-0.1,0.1-0.2c0,0,0,0,0-0.1c0,0,0,0,0,0
								c0,0,0-0.1,0-0.1c0,0,0-0.1,0.1-0.1c0-0.1,0.1-0.2,0.1-0.2c0.1-0.1,0.1-0.2,0.2-0.2s0.1-0.1,0.2-0.2c0.4-0.5,0.9-0.9,1.3-1.1
								c0,0,0.1,0,0.1-0.1c0,0,0,0,0,0c0,0,0.1,0,0.1-0.1c0.3-0.1,0.6-0.2,0.8-0.3c0.1,0,0.2,0,0.3-0.1s0.2,0,0.3,0
								c0.1,0,0.1,0,0.1,0s0.1,0,0.1,0c0.1,0,0.1,0,0.2,0c0.1,0,0.2,0,0.2,0s-0.5,0.5-0.4,1.4c0,0.2,0.1,0.4,0.2,0.6
								c0,0-0.6-0.8-1.1-0.5c-0.5,0.3-0.4,0.9-1.1,1.1c-0.2,0.1-0.4,0.1-0.5,0.1C113.6,290.4,113.2,290.2,112.8,290.7
								C112.8,290.7,112.8,290.7,112.8,290.7z"/>
							<path id="XMLID_818_" class="st16" d="M117,287.7c0,0-1.5,0.3-2.6,2c-0.1,0.2-0.2,0.5-0.3,0.7c-0.5,0-1-0.2-1.4,0.3v0
								c0-0.1,0-0.2,0.1-0.2c0,0,0,0,0,0c0-0.1,0-0.1,0.1-0.2c0,0,0,0,0-0.1c0,0,0,0,0,0c0,0,0-0.1,0-0.1c0,0,0-0.1,0.1-0.1
								c0-0.1,0.1-0.2,0.1-0.2c0.1-0.1,0.1-0.2,0.2-0.2s0.1-0.1,0.2-0.2c0.4-0.5,0.9-0.9,1.3-1.1c0,0,0.1,0,0.1-0.1c0,0,0,0,0,0
								c0,0,0.1,0,0.1-0.1c0.3-0.1,0.6-0.2,0.8-0.3c0.1,0,0.2,0,0.3-0.1c0.1,0,0.2,0,0.3,0c0.1,0,0.1,0,0.1,0s0.1,0,0.1,0
								c0.1,0,0.1,0,0.2,0C117,287.7,117,287.7,117,287.7L117,287.7z"/>
						</g>
						<g id="XMLID_795_">
							<path id="XMLID_817_" class="st24" d="M114,294.4c0-0.1,0.1-0.2,0.3-0.4c0.4-0.2,1-0.2,1.4,0c0.2,0.1,0.3,0.2,0.3,0.4
								c0.1,0.8,0.2,1.6,0.3,2.5c0-0.2-0.1-0.3-0.4-0.5c-0.5-0.3-1.3-0.3-1.7,0c-0.2,0.1-0.3,0.3-0.3,0.5
								C113.9,295.9,113.9,295,114,294.4z"/>
							<path id="XMLID_798_" class="st13" d="M115.1,296.2c-0.3,0-0.7,0.1-1,0.2c-0.2,0.1-0.3,0.3-0.3,0.5c0.1-1,0.2-1.9,0.2-2.5
								c0-0.1,0.1-0.2,0.3-0.4c0.2-0.1,0.4-0.2,0.7-0.2l0,0L115.1,296.2L115.1,296.2z"/>
						</g>
					</g>
				</g>
			</g>
			<g>
				<defs>
					<path id="SVGID_6_" d="M115,319.8c-1.7,0-3.9-0.6-5-1.2c-1.2-0.7-1.9-1.5-1.9-2.5c0-0.7-3.7-19.4-3.7-19.4l10.3-11.7l14.2,10.9
						c0,0-2,13.3-2.5,18c-0.1,0.9-4.3,2-4.3,2.2c0,1.5-1.5,2.3-2.6,2.8C118.6,319.5,116.8,319.9,115,319.8z"/>
				</defs>
				<clipPath id="SVGID_7_">
					<use xlink:href="#SVGID_6_"  style="overflow:visible;"/>
				</clipPath>
				<g id="Brush_1_" class="st27">
					<g id="XMLID_683_">
						<path id="XMLID_691_" class="st11" d="M118.8,312.6l-1.3,10.4c0,0.2,0.1,0.4,0.3,0.6c0.5,0.4,1.4,0.5,1.9,0.2
							c0.3-0.1,0.4-0.3,0.5-0.5l1.3-10.4L118.8,312.6z"/>
						<polygon id="XMLID_690_" class="st9" points="121.2,315.6 118.3,316.9 118.8,312.6 121.6,312.9 						"/>
					</g>
					<g id="XMLID_260_">
						<g id="XMLID_536_">
							<g id="XMLID_656_">
								<path id="XMLID_674_" class="st15" d="M123.9,304.8l-0.3,2.1l2-0.8l-0.5,4.4c-0.2,1.3-1.3,2.8-2.5,3.3l-3.4,1.5
									c-0.6,0.2-1.1,0.2-1.4,0c0,0-1.5-1.1-1.8-1.4c-0.3-0.3-0.5-0.7-0.4-1.4l0.5-4.4L123.9,304.8z"/>
								<path id="XMLID_659_" class="st14" d="M119.2,315.2l3.4-1.5c1.2-0.5,2.3-2,2.5-3.3l0.5-4.4l-7.8,3.3l-0.5,4.4
									C117.1,315,118,315.7,119.2,315.2z"/>
								<polygon id="XMLID_658_" class="st19" points="117.8,309.4 125.7,306.1 126.4,299.7 118.6,303 								"/>
								<polygon id="XMLID_657_" class="st24" points="117.8,309.4 118.6,303 116.9,301.8 116.1,308.1 								"/>
							</g>
							<polygon id="XMLID_646_" class="st17" points="117.6,311.3 125.4,308 125.3,308.8 117.5,312.2 							"/>
							<polygon id="XMLID_626_" class="st21" points="117.6,311.3 115.9,310 115.8,310.9 117.5,312.2 							"/>
							<polygon id="XMLID_625_" class="st17" points="117.6,311.3 115.9,310 115.8,310.9 117.5,312.2 							"/>
						</g>
						<path id="XMLID_525_" class="st21" d="M116.7,303.7c0,0,0.4,1.6,1.6,1.8l0.3-2.5l-1.7-1.3L116.7,303.7z"/>
						<path id="XMLID_524_" class="st5" d="M116.7,303.7c0,0,0.4,1.6,1.6,1.8l0.3-2.5l-1.7-1.3L116.7,303.7z"/>
						<path id="XMLID_480_" class="st28" d="M118.3,305.5c0,0,1.2,0.8,2.5,0c0.9-0.5,1.5-2.8,3.2-2.6c1.2,0.1,1.8,1.5,1.8,1.5
							l0.6-4.6l-7.8,3.3L118.3,305.5z"/>
						<polygon id="XMLID_430_" class="st21" points="126.4,299.7 124.7,298.5 116.9,301.8 118.6,303 						"/>
						<polygon id="XMLID_320_" class="st17" points="126.4,299.7 124.7,298.5 116.9,301.8 118.6,303 						"/>
					</g>
				</g>
			</g>
		</g>
	</g>
</g>
<g>
	<g>
		<g>
			<g>
				<path class="st4" d="M168.2,225.8c0.7-5.2,1.3-9.7,8-5.8l3.3,1.9l5.1,2.9l3.3,1.9c6.7,3.9,7.3,9,8,15c0.6,5.4,2,21.1,2,21.3
					l-1.4-0.8c0-0.2-1.4-15.5-2-20.9c-0.7-6.4-1.3-9.6-6.7-12.7l-3.3-1.9l-5.1-2.9l-3.3-1.9c-5.4-3.1-5.9-0.6-6.7,5
					c-0.6,4.7-2,18.4-2,18.6l-1.4-0.7C166.2,244.6,167.6,230.5,168.2,225.8z"/>
				<path class="st4" d="M167.6,245.5l-2,1.2c0,0,0.3-9.6,0.7-13.2c0.4-3.6,2.1-11.7,2.1-11.7l0.8,0.6L167.6,245.5z"/>
				<path class="st4" d="M195.9,264.3l2-1.2c0,0-2.3-17.8-2.7-20.5c-0.4-2.7-1.8-9.1-1.8-9.1l-2.2,0.6c0,0,1.7,4.1,1.9,6.9
					C193.3,243.6,195.9,264.3,195.9,264.3z"/>
				<path class="st29" d="M166.2,227c0.7-5.2,1.3-9.7,8-5.8l3.3,1.9l5.1,2.9l3.3,1.9c6.7,3.9,7.3,9,8,15c0.6,5.4,2,21.1,2,21.3
					l-1.4-0.8c0-0.2-1.4-15.5-2-20.9c-0.7-6.4-1.3-9.6-6.7-12.7l-3.3-1.9l-5.1-2.9l-3.3-1.9c-5.4-3.1-5.9-0.6-6.7,5
					c-0.6,4.7-2,18.4-2,18.6l-1.4-0.7C164.2,245.8,165.6,231.7,166.2,227z"/>
			</g>
			<g>
				<path class="st30" d="M148.1,237.4c0.7-5.2,1.3-9.7,8-5.8l3.3,1.9l5.1,2.9l3.3,1.9c6.7,3.9,7.3,9,8,15c0.6,5.4,2,21.1,2,21.2
					l-1.4-0.8c0-0.2-1.4-15.5-2-20.9c-0.7-6.4-1.3-9.6-6.7-12.7l-3.3-1.9l-5.1-2.9l-3.3-1.9c-5.4-3.1-5.9-0.6-6.7,5
					c-0.6,4.7-2,18.4-2,18.6l-1.4-0.7C146.1,256.1,147.5,242.1,148.1,237.4z"/>
				<path class="st31" d="M147.4,257l-2,1.2c0,0,0.3-9.6,0.7-13.2c0.4-3.6,2.1-11.7,2.1-11.7l0.8,0.6L147.4,257z"/>
				<path class="st31" d="M175.8,275.8l2-1.2c0,0-2.3-17.8-2.7-20.5c-0.4-2.7-1.8-9.1-1.8-9.1l-2.2,0.6c0,0,1.7,4.1,1.9,6.9
					C173.2,255.1,175.8,275.8,175.8,275.8z"/>
				<path class="st30" d="M146.1,238.5c0.7-5.2,1.3-9.7,8-5.8l3.3,1.9l5.1,2.9l3.3,1.9c6.7,3.9,7.3,9,8,15c0.6,5.4,2,21.1,2,21.2
					l-1.4-0.8c0-0.2-1.4-15.5-2-20.9c-0.7-6.4-1.3-9.6-6.7-12.7l-3.3-1.9l-5.1-2.9l-3.3-1.9c-5.4-3.1-5.9-0.6-6.7,5
					c-0.6,4.7-2,18.4-2,18.6l-1.4-0.7C144.1,257.3,145.5,243.2,146.1,238.5z"/>
			</g>
			<path class="st16" d="M174.8,246.3l25.6-14.6c0,0-19.7-9.1-24.6-13.1c-4.9-3.9-8.9-12.6-9.6-30.2c-0.1-3.1,0.2-8-0.7-9.1
				c-1.9-1.1-25.8,14.1-25.8,14.1s1.7,21.7,3.4,28.4c1.7,6.6,6.7,11.6,15,16.1C166.3,242.4,174.8,246.3,174.8,246.3z"/>
			<g>
				<path class="st17" d="M140.9,193.3c0,0,1.4,16.9,2.2,23.5c0.7,5.7,2.2,12.2,11.1,17.6c7.6,4.6,17.7,10.3,20.6,11.9v3
					c-1.8-1-6.2-3.5-11-6.3c-3.2-1.9-6.6-3.9-9.6-5.7c-10.2-6.2-12.4-14.2-13.3-21.3c-0.8-6.8-2.2-24.1-2.2-24.1L140.9,193.3z"/>
			</g>
			<path class="st16" d="M166.5,178.6c0,0,1.4,16.9,2.2,23.5c0.7,5.7,2.2,12.2,11.1,17.6l20.6,11.9v3c-1.8-1-6.2-3.5-11-6.3
				c-3.2-1.9-6.6-3.8-9.6-5.7c-10.2-6.2-12.4-14.2-13.3-21.3c-0.8-6.8-2.2-24-2.2-24L166.5,178.6z"/>
			<polygon class="st5" points="164.2,177.3 166.5,178.6 140.9,193.4 138.6,192 			"/>
			<polygon class="st32" points="200.4,234.7 174.8,249.4 174.8,246.3 200.4,231.7 			"/>
		</g>
		<g>
			<g>
				<path class="st4" d="M259.6,228.4c-0.7-5.2-1.3-9.7-8-5.8l-3.3,1.9l-5.1,2.9l-3.3,1.9c-6.7,3.9-7.3,9-8,15
					c-0.6,5.4-2,21.1-2,21.2l1.4-0.8c0-0.2,1.4-15.5,2-20.9c0.7-6.4,1.3-9.6,6.7-12.7l3.3-1.9l5.1-2.9l3.3-1.9c5.4-3.1,6-0.6,6.7,5
					c0.6,4.7,2,18.4,2,18.6l1.4-0.7C261.6,247.2,260.2,233.1,259.6,228.4z"/>
				<path class="st4" d="M260.3,248l2,1.2c0,0-0.3-9.6-0.7-13.2c-0.4-3.6-2-11.7-2-11.7l-0.8,0.6L260.3,248z"/>
				<path class="st4" d="M231.9,266.8l-2-1.2c0,0,2.3-17.8,2.7-20.5c0.4-2.7,1.8-9.1,1.8-9.1l2.2,0.6c0,0-1.7,4.1-1.9,6.9
					C234.5,246.1,231.9,266.8,231.9,266.8z"/>
				<path class="st29" d="M261.6,229.6c-0.7-5.2-1.3-9.7-8-5.8l-3.3,1.9l-5.1,2.9l-3.3,1.9c-6.7,3.9-7.3,9-8,15
					c-0.6,5.4-2,21.1-2,21.2l1.4-0.8c0-0.2,1.4-15.5,2-20.9c0.7-6.4,1.3-9.6,6.7-12.7l3.3-1.9l5.1-2.9l3.3-1.9c5.4-3.1,6-0.6,6.7,5
					c0.6,4.7,2,18.4,2,18.6l1.4-0.7C263.6,248.3,262.2,234.3,261.6,229.6z"/>
			</g>
			<g>
				<path class="st30" d="M279.7,239.9c-0.7-5.2-1.3-9.7-8-5.8l-3.3,1.9l-5.1,3l-3.3,1.9c-6.7,3.9-7.3,9-8,15
					c-0.6,5.4-2,21.1-2,21.2l1.4-0.8c0-0.2,1.4-15.5,2-20.9c0.7-6.4,1.3-9.6,6.7-12.7l3.3-1.9l5.1-2.9l3.3-1.9c5.4-3.1,6-0.6,6.7,5
					c0.6,4.7,2,18.4,2,18.6l1.4-0.7C281.7,258.7,280.3,244.6,279.7,239.9z"/>
				<path class="st31" d="M280.4,259.5l2,1.2c0,0-0.3-9.6-0.7-13.2c-0.4-3.6-2-11.7-2-11.7l-0.8,0.6L280.4,259.5z"/>
				<path class="st31" d="M252,278.4l-2-1.2c0,0,2.3-17.8,2.7-20.5c0.4-2.7,1.8-9.1,1.8-9.1l2.2,0.6c0,0-1.7,4.1-1.9,6.9
					C254.6,257.7,252,278.4,252,278.4z"/>
				<path class="st30" d="M281.8,241.1c-0.7-5.2-1.3-9.7-8-5.8l-3.3,1.9l-5.1,2.9l-3.3,1.9c-6.7,3.9-7.3,9-8,15
					c-0.6,5.4-2,21.1-2,21.2l1.4-0.8c0-0.2,1.4-15.5,2-20.9c0.7-6.4,1.3-9.6,6.7-12.7l3.3-1.9l5.1-2.9l3.3-1.9c5.4-3.1,6-0.6,6.7,5
					c0.6,4.7,2,18.5,2,18.6l1.4-0.7C283.8,259.9,282.4,245.8,281.8,241.1z"/>
			</g>
			<path class="st16" d="M253,248.9l-25.6-14.6c0,0,19.7-9.1,24.6-13.1c4.9-3.9,8.9-12.6,9.6-30.2c0.1-3.1-0.2-8,0.7-9.1
				c1.9-1.1,25.8,14.1,25.8,14.1s-1.7,21.7-3.4,28.4c-1.7,6.6-6.7,11.6-15,16.1C261.5,245,253,248.9,253,248.9z"/>
			<g>
				<path class="st17" d="M286.9,195.9c0,0-1.4,16.9-2.2,23.5c-0.7,5.7-2.2,12.2-11.1,17.6c-7.6,4.6-17.7,10.3-20.6,11.9v3
					c1.8-1,6.2-3.5,11-6.3c3.2-1.9,6.6-3.9,9.6-5.7c10.2-6.2,12.4-14.2,13.3-21.3c0.8-6.8,2.2-24.1,2.2-24.1L286.9,195.9z"/>
			</g>
			<path class="st16" d="M261.3,181.2c0,0-1.4,16.9-2.2,23.5c-0.7,5.7-2.2,12.2-11.1,17.6l-20.6,11.9v3c1.8-1,6.2-3.5,11-6.3
				c3.2-1.9,6.6-3.9,9.6-5.7c10.2-6.2,12.4-14.2,13.3-21.3c0.8-6.8,2.2-24,2.2-24L261.3,181.2z"/>
			<polygon class="st5" points="263.6,179.8 261.3,181.2 286.9,195.9 289.2,194.5 			"/>
			<polygon class="st33" points="227.4,237.3 253,251.9 253,248.9 227.4,234.2 			"/>
		</g>
		<g>
			<g>
				<polygon class="st31" points="165,250.3 160.2,247.6 160.2,296.1 165,298.8 				"/>
				<polygon class="st30" points="165,250.3 169.8,247.6 169.8,296.1 165,298.8 				"/>
			</g>
			<g>
				<polygon class="st31" points="214.2,278.8 209.4,276 209.4,324.5 214.2,327.3 				"/>
				<polygon class="st30" points="214.2,278.8 219,276 219,324.5 214.2,327.3 				"/>
			</g>
			<g>
				<polygon class="st31" points="263.1,251.4 258.3,248.6 258.3,297.1 263.1,299.9 				"/>
				<polygon class="st30" points="263.1,251.4 267.8,248.6 267.8,297.1 263.1,299.9 				"/>
			</g>
			<g>
				<path class="st28" d="M199.2,220.6l-43,24.9c-3.2,1.9-3.2,6.5,0,8.4l43,24.8c9.3,5.4,20.7,5.4,30,0l43-24.8
					c3.2-1.9,3.2-6.5,0-8.4l-43-24.9C219.9,215.2,208.5,215.2,199.2,220.6z"/>
				<rect x="269.4" y="243.8" class="st28" width="5.2" height="5.8"/>
				<rect x="153.8" y="243.8" class="st28" width="5.2" height="5.8"/>
				<path class="st17" d="M199.2,214.7l-43,24.9c-3.2,1.9-3.2,6.5,0,8.4l43,24.9c9.3,5.4,20.7,5.4,30,0l43-24.8
					c3.2-1.9,3.2-6.5,0-8.4l-43-24.9C219.9,209.4,208.5,209.4,199.2,214.7z"/>
			</g>
			<g>
				<path class="st16" d="M185.5,229.2l-9.1,5.2c-0.7,0.4-0.7,1.4,0,1.8l9.1,5.2c2,1.1,4.4,1.1,6.3,0l9.1-5.2c0.7-0.4,0.7-1.4,0-1.8
					l-9.1-5.2C189.9,228.1,187.5,228.1,185.5,229.2z"/>
				<rect x="175.9" y="223" class="st16" width="25.5" height="12.3"/>
				<path class="st5" d="M191.4,217.6c-1.7-1-3.8-1-5.6,0l-8,4.6c-0.6,0.4-0.6,1.2,0,1.6l8,4.6c1.7,1,3.8,1,5.6,0l8-4.6
					c0.6-0.4,0.6-1.2,0-1.6L191.4,217.6z"/>
				<path class="st32" d="M200.9,222.1l-9.1-5.2c-2-1.1-4.4-1.1-6.3,0l-9.1,5.2c-0.7,0.4-0.7,1.4,0,1.8l9.1,5.2c2,1.1,4.4,1.1,6.3,0
					l9.1-5.2C201.6,223.5,201.6,222.5,200.9,222.1z M199.4,223.8l-8,4.6c-1.7,1-3.8,1-5.6,0l-8-4.6c-0.6-0.4-0.6-1.2,0-1.6l8-4.6
					c1.7-1,3.8-1,5.6,0l8,4.6C200,222.6,200,223.4,199.4,223.8z"/>
				<g>
					<g>
						<path class="st15" d="M190.7,206.1c-0.5,0-0.9-0.2-0.9-0.5v23.6h1.8v-23.6C191.6,205.9,191.2,206.1,190.7,206.1z"/>
						<path class="st28" d="M189.8,203.2v2.4c0,0.3,0.4,0.5,0.9,0.5s0.9-0.2,0.9-0.5v-2.4H189.8z"/>
						<path class="st30" d="M191.6,203.2c0,0.3-0.4,0.5-0.9,0.5s-0.9-0.2-0.9-0.5s0.4-0.5,0.9-0.5
							C191.2,202.7,191.6,202.9,191.6,203.2z"/>
					</g>
					<g>
						<path class="st15" d="M177,206.8c-0.5,0.1-0.9,0-1-0.3l3.7,19.1l2,0.7l-3.8-20.2C177.9,206.4,177.5,206.7,177,206.8z"/>
						<path class="st28" d="M175.5,204.1l0.4,2.4c0.1,0.3,0.5,0.4,1,0.3c0.5-0.1,0.9-0.4,0.8-0.6l-0.4-2.4L175.5,204.1z"/>
						<path class="st30" d="M177.4,203.8c0.1,0.3-0.3,0.6-0.8,0.6c-0.5,0.1-0.9,0-1-0.3c-0.1-0.3,0.3-0.6,0.8-0.6
							S177.3,203.5,177.4,203.8z"/>
					</g>
					<g>
						<path class="st34" d="M189.1,229.5c0.5,0,1.1-0.1,1.6-0.2l-2.8-17.6c0,0.3-0.3,0.6-0.8,0.6s-0.9-0.1-1-0.3l2.8,17.5
							C188.9,229.5,189,229.5,189.1,229.5z"/>
						<path class="st35" d="M185.6,209.6l0.4,2.4c0,0.3,0.5,0.4,1,0.3s0.9-0.4,0.8-0.6l-0.4-2.4L185.6,209.6z"/>
						<path class="st34" d="M187.4,209.3c0,0.3-0.3,0.6-0.8,0.6s-0.9-0.1-1-0.3c0-0.3,0.3-0.6,0.8-0.6
							C187,208.9,187.4,209.1,187.4,209.3z"/>
					</g>
					<g>
						<path class="st4" d="M197.2,207.7c-0.5-0.1-0.8-0.4-0.8-0.7l-4.7,20.6l1.8,0.4l4.7-20.6C198.2,207.7,197.7,207.8,197.2,207.7z
							"/>
						<path class="st29" d="M197,204.7l-0.6,2.3c-0.1,0.3,0.3,0.6,0.8,0.7s0.9,0,1-0.3l0.6-2.3L197,204.7z"/>
						<path class="st4" d="M198.8,205.1c-0.1,0.3-0.5,0.4-1,0.3c-0.5-0.1-0.8-0.4-0.8-0.7c0.1-0.3,0.5-0.4,1-0.3
							C198.5,204.5,198.9,204.9,198.8,205.1z"/>
					</g>
					<g>
						<path class="st4" d="M179,211.8c0.5-0.1,0.8-0.4,0.8-0.7l3.8,16.4l-2-1.1l-3.6-14.8C178.1,211.8,178.6,211.9,179,211.8z"/>
						<path class="st29" d="M179.3,208.7l0.6,2.3c0.1,0.3-0.3,0.6-0.8,0.7s-0.9,0-1-0.3l-0.6-2.3L179.3,208.7z"/>
						<path class="st4" d="M177.5,209.2c0.1,0.3,0.5,0.4,1,0.3c0.5-0.1,0.8-0.4,0.8-0.7c-0.1-0.3-0.5-0.4-1-0.3
							C177.8,208.6,177.4,208.9,177.5,209.2z"/>
					</g>
					<g>
						<path class="st4" d="M182.8,207.9c0.5-0.1,0.9-0.3,0.9-0.6l3.1,21.7l-2.6-5l-2.2-16.4C181.9,207.8,182.3,207.9,182.8,207.9z"
							/>
						<path class="st29" d="M183.3,204.9l0.3,2.4c0,0.3-0.3,0.5-0.9,0.6c-0.5,0.1-0.9-0.1-1-0.4l-0.3-2.4L183.3,204.9z"/>
						<path class="st4" d="M181.5,205.1c0,0.3,0.5,0.4,1,0.4c0.5-0.1,0.9-0.3,0.9-0.6c0-0.3-0.5-0.4-1-0.4
							C181.9,204.6,181.5,204.9,181.5,205.1z"/>
					</g>
					<g>
						<path class="st4" d="M189.4,211.9c-1,0-1.9,3.1-2.4,8.2c-0.6,7.3-0.6,7.1-0.6,7.1l1.6,0.2c0,0,0.4-2.3,1.4-6.9
							C190.8,215,190.4,211.9,189.4,211.9z"/>
						<polygon class="st36" points="186.5,227.2 186.4,229.1 187.8,229.4 188.1,227.5 						"/>
						<path class="st4" d="M186.5,227.2c0,0.2,0.3,0.5,0.8,0.6c0.4,0.1,0.9-0.1,0.9-0.3c0-0.2-0.3-0.5-0.8-0.6
							C186.9,226.8,186.5,227,186.5,227.2z"/>
					</g>
					<g>
						<path class="st28" d="M204.7,209.8c0.8,0.6-0.3,3.6-2.9,8c-3.8,6.3-3.8,6.1-3.8,6.1l-1.5-0.8c0,0,1.1-2.1,2.9-6.4
							C201.7,211.5,203.9,209.2,204.7,209.8z"/>
						<polygon class="st36" points="198,223.9 196.7,225.9 194.8,226.7 196.5,223.1 						"/>
						<path class="st28" d="M198,223.9c-0.1,0.2-0.5,0.2-0.9,0s-0.6-0.6-0.5-0.8c0.1-0.2,0.5-0.2,0.9,0
							C197.9,223.3,198.1,223.7,198,223.9z"/>
					</g>
					<g>
						<path class="st28" d="M192.9,210c1,0.2,1.3,3.4,0.8,8.4c-0.8,7.3-0.8,7.1-0.8,7.1l-1.6-0.1c0,0,0.1-2.4-0.1-7.1
							C190.9,212.8,191.9,209.8,192.9,210z"/>
						<polygon class="st36" points="192.9,225.6 192.6,228 191.2,229.5 191.2,225.5 						"/>
						<path class="st28" d="M192.9,225.6c0,0.2-0.4,0.4-0.8,0.4c-0.5,0-0.8-0.2-0.8-0.5c0-0.2,0.4-0.4,0.8-0.4
							S192.9,225.4,192.9,225.6z"/>
					</g>
					<g>
						<path class="st28" d="M181.4,210.3c-1,0.4-0.7,3.6,0.7,8.5c2,7.1,2,6.9,2,6.9l1.6-0.4c0,0-0.5-2.3-1.1-7
							C183.8,212.7,182.4,209.9,181.4,210.3z"/>
						<polygon class="st36" points="184.2,225.6 184.8,227.9 186.5,229.2 185.8,225.2 						"/>
						<path class="st28" d="M184.2,225.6c0.1,0.2,0.4,0.4,0.9,0.3c0.4-0.1,0.8-0.4,0.7-0.6c-0.1-0.2-0.4-0.4-0.9-0.3
							C184.4,225.1,184.1,225.4,184.2,225.6z"/>
					</g>
					<path class="st32" d="M199.8,223.2c-0.1,0.2-0.2,0.4-0.4,0.6l-8,4.6c-1.7,1-3.8,1-5.6,0l-8-4.6c-0.2-0.1-0.3-0.3-0.4-0.6H176
						c0.1,0.3,0.2,0.5,0.4,0.7l9.1,5.2c2,1.1,4.4,1.1,6.3,0l9.1-5.2c0.3-0.1,0.4-0.4,0.5-0.7H199.8z"/>
					<path class="st36" d="M178.1,226.7c0,0,1.6,1,2.1,3.4c0.4,1.9-0.2,3.4-0.2,3.4s-2.3-1.2-2.5-3.8
						C177.3,227.4,178.1,226.7,178.1,226.7z"/>
					<path class="st15" d="M183.2,233.2c0.6-0.8,1-1.7,0.2-2.4c-0.8-0.7-1.5-0.2-1.9,0.5c-0.3-0.7-0.8-1.4-1.6-1.1
						c-0.8,0.3-0.7,1.2-0.4,2c-0.2,0-0.3,0.1-0.5,0.2c-0.8,0.5-1.1,1.5-0.8,2.4c0.4,1.1,2,1.7,2.9,1.2c0.7,1.2,2.3,1.9,3.1,0.3
						C184.7,235.1,184.2,233.6,183.2,233.2z"/>
					<path class="st37" d="M180.6,233.4c0,0.5,0.3,0.9,0.6,1.1c0.4,0.1,0.6-0.1,0.6-0.6s-0.3-0.9-0.6-1.1
						C180.9,232.7,180.6,232.9,180.6,233.4z"/>
					<path class="st36" d="M198.8,226.5c0,0-1.6,1-2.1,3.4c-0.4,1.9,0.2,3.4,0.2,3.4s2.3-1.2,2.5-3.8
						C199.6,227.3,198.8,226.5,198.8,226.5z"/>
					<path class="st15" d="M194.1,233.1c-0.5-0.7-0.9-1.6-0.2-2.2c0.7-0.6,1.4-0.2,1.8,0.4c0.3-0.7,0.8-1.3,1.5-1
						c0.7,0.3,0.6,1.1,0.3,1.8c0.1,0,0.3,0.1,0.4,0.2c0.8,0.4,1,1.4,0.7,2.2c-0.4,1-1.8,1.5-2.7,1.1c-0.6,1.1-2.1,1.8-2.8,0.3
						C192.7,234.9,193.1,233.4,194.1,233.1z"/>
					<path class="st37" d="M196.5,233.2c0,0.4-0.3,0.9-0.6,1s-0.6-0.1-0.6-0.5c0-0.4,0.3-0.9,0.6-1
						C196.2,232.6,196.5,232.8,196.5,233.2z"/>
				</g>
			</g>
			<g>
				<path class="st17" d="M261.3,249.7l-16.6,9.6c-1.5,0.9-4.2,0.8-6-0.2l-8-4.6c-1.8-1-2-2.6-0.4-3.5l16.6-9.6
					c1.5-0.9,4.2-0.8,6,0.2l8,4.6C262.6,247.2,262.8,248.8,261.3,249.7z"/>
				<rect x="229.2" y="251" class="st17" width="2.3" height="1.6"/>
				<rect x="260" y="246.6" class="st17" width="2.3" height="1.6"/>
				<path class="st36" d="M261.3,248.3l-16.6,9.6c-1.5,0.9-4.2,0.8-6-0.2l-8-4.6c-1.8-1-2-2.6-0.4-3.5l16.6-9.6
					c1.5-0.9,4.2-0.8,6,0.2l8,4.6C262.6,245.8,262.8,247.4,261.3,248.3z"/>
				<path class="st16" d="M238.6,250.3c0,0.8-1.2,1.4-2.7,1.4s-2.7-0.6-2.7-1.4c0-0.8,1.2-1.4,2.7-1.4S238.6,249.5,238.6,250.3z"/>
				<path class="st28" d="M244.9,246.7c0,0.8-1.2,1.4-2.7,1.4c-1.5,0-2.7-0.6-2.7-1.4s1.2-1.4,2.7-1.4
					C243.7,245.2,244.9,245.9,244.9,246.7z"/>
				<path class="st16" d="M251.5,242.9c0,0.8-1.2,1.4-2.7,1.4c-1.5,0-2.7-0.6-2.7-1.4c0-0.8,1.2-1.4,2.7-1.4
					S251.5,242.2,251.5,242.9z"/>
				<ellipse class="st30" cx="242.8" cy="254.4" rx="2.7" ry="1.4"/>
				<ellipse class="st37" cx="249.2" cy="250.8" rx="2.7" ry="1.4"/>
				<ellipse class="st15" cx="255.7" cy="247.1" rx="2.7" ry="1.4"/>
				<path class="st17" d="M237.1,253.6L237.1,253.6c-0.4-0.2-0.3-0.6,0.1-0.8l15.2-8.8c0.4-0.2,1-0.3,1.4-0.1l0,0
					c0.4,0.2,0.3,0.6-0.1,0.8l-15.2,8.8C238,253.8,237.4,253.8,237.1,253.6z"/>
			</g>
			<g>
				<rect x="184" y="240.8" class="st28" width="5.5" height="7.1"/>
				<rect x="188.8" y="239.1" class="st28" width="6.8" height="7.1"/>
				<path class="st28" d="M195.3,246.5l-6.3,3.6c-0.4,0.2-1.1,0.2-1.6-0.1l-3.1-1.8c-0.5-0.3-0.5-0.7-0.1-0.9l6.3-3.6
					c0.4-0.2,1.1-0.2,1.6,0.1l3.1,1.8C195.6,245.9,195.7,246.3,195.3,246.5z"/>
				<path class="st17" d="M195.3,239.5l-6.3,3.6c-0.4,0.2-1.1,0.2-1.6-0.1l-3.1-1.8c-0.5-0.3-0.5-0.7-0.1-0.9l6.3-3.6
					c0.4-0.2,1.1-0.2,1.6,0.1l3.1,1.8C195.6,238.9,195.7,239.3,195.3,239.5z"/>
				<rect x="187" y="238.5" class="st15" width="5.5" height="1.7"/>
				<g>
					<ellipse class="st15" cx="189.8" cy="240" rx="2.7" ry="1.4"/>
					<ellipse class="st28" cx="189.8" cy="238.5" rx="2.7" ry="1.4"/>
					<path class="st5" d="M191.1,238.4c0,0.4-0.6,0.7-1.4,0.7s-1.4-0.3-1.4-0.7s0.6-0.7,1.4-0.7S191.1,238,191.1,238.4z"/>
					<polygon class="st5" points="188.8,235.8 188.4,238.4 191.1,238.4 190.8,235.8 					"/>
					<path class="st5" d="M190.8,235.8c0,0.3-0.4,0.5-1,0.5s-1-0.2-1-0.5s0.4-0.5,1-0.5S190.8,235.5,190.8,235.8z"/>
				</g>
				<polygon class="st32" points="194.5,244.6 189.8,247.3 189.8,244 194.5,241.3 				"/>
				<polygon class="st32" points="194.5,245.8 189.8,248.5 189.8,247.9 194.5,245.2 				"/>
			</g>
			<polygon class="st36" points="219.9,251.1 198.8,239 230.9,220.4 252,232.6 			"/>
			<path class="st28" d="M231.9,221c0,0-2.8,3.4,3.2,7.4s15.3,3.3,15.3,3.3L231.9,221z"/>
			<path class="st15" d="M239.3,227.6c-1.1-0.5-3.8-0.4-4.7-0.1c0.2-0.6-0.3-2.1-0.3-2.1s-0.7,1.7-1.8,3.2c-0.6,0.8-2.4,2.3-4.1,3.5
				c-1.5-0.1-2.7-0.3-3.6-0.1c-1.8,0.3-3.9,1.2-3.9,1.2l0.4,0.5c0,0,3-0.9,3.9-0.9c0.4,0,1.3,0.1,2.2,0.1c-0.9,0.7-1.6,1.2-1.6,1.2
				l1.4,1.1c0,0,2.7-1.7,4.2-2.6c4.2-2.6,6.9-2.8,6.9-2.8s-1.2-0.8-1.8-0.9C236.8,228.6,239.3,227.6,239.3,227.6z"/>
			<path class="st28" d="M228.8,235c-1.2-1.7-3.8-2.2-5.7-1.4c0.2-1.2-0.1-2.6-2-2.6c-1.5,0-2.5,1.2-3.1,2.5
				c-0.5-0.3-1.1-0.4-1.7-0.4c-1.7,0.2-1.3,1.3-0.8,2.2c-1.4-0.4-3.3-0.7-3.8,0.5c-0.4,1.1,0.8,1.7,1.9,2.1
				c-1.8,0.4-3.5,1.2-2.6,2.9c0.8,1.4,2.8,1.4,4.5,1c-0.3,1,0.3,2,1.8,2.4c2.4,0.6,3.9-1.1,4.3-2.8c3.9,2.3,8.7-1.6,5.1-3.5
				C228.4,237.6,229.9,236.8,228.8,235z"/>
			<g>
				<path class="st15" d="M226.4,259.9c0,1.9-2.9,3.4-6.4,3.4s-6.4-1.5-6.4-3.4s2.9-3.4,6.4-3.4C223.5,256.5,226.4,258,226.4,259.9z
					"/>
				<rect x="213.6" y="253.1" class="st15" width="12.8" height="6.8"/>
				<path class="st28" d="M226.4,253.1c0,1.9-2.9,3.4-6.4,3.4s-6.4-1.5-6.4-3.4c0-1.9,2.9-3.4,6.4-3.4S226.4,251.2,226.4,253.1z"/>
				<g>
					<path class="st15" d="M220,251.9c2.5,0,4.5,0.9,5.2,2.1c0.2-0.3,0.3-0.6,0.3-0.9c0-1.6-2.5-2.9-5.5-2.9s-5.5,1.3-5.5,2.9
						c0,0.3,0.1,0.6,0.3,0.9C215.4,252.8,217.5,251.9,220,251.9z"/>
					<path class="st37" d="M220,256c2.5,0,4.5-0.9,5.2-2.1c-0.7-1.2-2.8-2.1-5.2-2.1s-4.5,0.9-5.2,2.1
						C215.4,255.1,217.5,256,220,256z"/>
				</g>
			</g>
		</g>
	</g>
</g>
<g>
	<g>
		<path class="st17" d="M138.5,100.1c-1.6-0.9-3.1-1-4.1-0.4l-4.6,2.7c-1,0.6-1.7,1.9-1.7,3.7l-0.1,22.2l11.5,6.6l4.6-2.7l0.1-22.2
			C144.2,106.3,141.7,101.9,138.5,100.1z"/>
		<g>
			<path class="st16" d="M133.9,102.7c3.2,1.8,5.8,6.3,5.7,9.9l-0.1,22.2l-11.5-6.6l0.1-22.2C128.1,102.3,130.7,100.9,133.9,102.7z"
				/>
		</g>
	</g>
	<g>
		<polygon class="st30" points="71.8,70.4 62.6,75.7 62.6,77.8 187.9,150.1 197,144.8 197,142.7 		"/>
		<g>
			<polygon class="st31" points="62.6,75.7 71.8,70.4 197,142.7 187.9,148 			"/>
		</g>
	</g>
	<path class="st17" d="M125.8,107.3c-1.6-0.9-3.1-1-4.1-0.4l-4.6,2.7c-1,0.6-1.7,1.9-1.7,3.7l-0.1,22.2l11.5,6.6l4.6-2.7l0.1-22.2
		C131.5,113.6,129,109.1,125.8,107.3z"/>
	<g>
		<path class="st16" d="M121.2,110c3.2,1.8,5.8,6.3,5.7,9.9l-0.1,22.2l-11.5-6.6l0.1-22.2C115.4,109.6,118,108.1,121.2,110z"/>
	</g>
	<g>
		<path class="st37" d="M121.2,113c1.7,0.9,3,3.3,3,5.2c0,1.9-1.3,2.7-3,1.7c-1.7-0.9-3-3.3-3-5.2C118.2,112.8,119.5,112,121.2,113z
			"/>
	</g>
	<g>
		<path class="st28" d="M182.9,139.4c0.2-0.1,0.4-0.3,0.4-0.5l0-13.2c0-0.2-0.1-0.4-0.4-0.5c-0.5-0.3-1.3-0.3-1.8,0
			c-0.2,0.2-0.4,0.3-0.4,0.5l0,13.2c0,0.2,0.1,0.4,0.4,0.5C181.5,139.7,182.4,139.7,182.9,139.4z"/>
		<g>
			<path class="st28" d="M182.8,126.1c-0.5,0.3-1.3,0.3-1.8,0s-0.5-0.8,0-1.1c0.5-0.3,1.3-0.3,1.8,0
				C183.3,125.4,183.3,125.8,182.8,126.1z"/>
		</g>
	</g>
	<g>
		<path class="st17" d="M187.6,121.2c-0.2-0.2-0.5-0.2-0.6-0.1l-11.4,6.7c-0.2,0.1-0.3,0.3-0.3,0.6c0,0.6,0.4,1.3,0.9,1.6
			c0.2,0.1,0.5,0.2,0.6,0.1l11.4-6.6c0.2-0.1,0.3-0.3,0.3-0.6C188.5,122.2,188.1,121.5,187.6,121.2z"/>
		<g>
			<path class="st5" d="M176.2,127.9c0.5,0.3,0.9,1,0.9,1.6c0,0.6-0.4,0.8-0.9,0.5s-0.9-1-0.9-1.6
				C175.3,127.8,175.7,127.6,176.2,127.9z"/>
		</g>
	</g>
	<g>
		<path class="st28" d="M79.6,80.4c0.2-0.2,0.4-0.3,0.4-0.5l0-13.2c0-0.2-0.1-0.4-0.4-0.5c-0.5-0.3-1.3-0.3-1.8,0
			c-0.2,0.2-0.4,0.3-0.4,0.5l0,13.2c0,0.2,0.1,0.4,0.4,0.5C78.3,80.7,79.1,80.7,79.6,80.4z"/>
		<g>
			<path class="st28" d="M79.6,67.1c-0.5,0.3-1.3,0.3-1.8,0s-0.5-0.8,0-1.1c0.5-0.3,1.3-0.3,1.8,0C80.1,66.4,80.1,66.8,79.6,67.1z"
				/>
		</g>
	</g>
	<g>
		<path class="st17" d="M84.4,62.2c-0.2-0.2-0.5-0.2-0.7-0.1l-11.4,6.6c-0.2,0.1-0.3,0.3-0.3,0.6c0,0.6,0.4,1.3,0.9,1.6
			c0.2,0.2,0.5,0.2,0.7,0.1l11.4-6.6c0.2-0.1,0.3-0.3,0.3-0.6C85.3,63.2,84.9,62.5,84.4,62.2z"/>
		<g>
			<path class="st5" d="M73,68.9c0.5,0.3,0.9,1,0.9,1.6S73.5,71.3,73,71S72,70,72,69.4C72.1,68.8,72.5,68.6,73,68.9z"/>
		</g>
	</g>
</g>
</svg>
