<?xml version="1.0" encoding="utf-8"?>
<!-- Generator: Adobe Illustrator 23.0.3, SVG Export Plug-In . SVG Version: 6.00 Build 0)  -->
<svg version="1.1" id="Capa_1" xmlns="http://www.w3.org/2000/svg" xmlns:xlink="http://www.w3.org/1999/xlink" x="0px" y="0px"
	 viewBox="0 0 400 375" style="enable-background:new 0 0 400 375;" xml:space="preserve">
<style type="text/css">
	.st0{opacity:0.6;fill:url(#SVGID_1_);}
	.st1{opacity:0.24;enable-background:new    ;}
	.st2{fill:#003F6C;}
	.st3{fill:#E8B942;}
	.st4{fill:#D7A333;}
	.st5{fill:#CDD4CE;}
	.st6{fill:#DBE2DC;}
	.st7{fill:#AED9B4;}
	.st8{fill:#8ECC93;}
	.st9{fill:#75BD72;}
	.st10{fill:#D3EBD8;}
	.st11{fill:#86E0C1;}
	.st12{fill:#63AC53;}
	.st13{fill:#213B2C;}
	.st14{fill:#75C9A9;}
	.st15{fill:#67B394;}
	.st16{fill:#FFFFFF;}
	.st17{fill:#FDF951;}
</style>
<linearGradient id="SVGID_1_" gradientUnits="userSpaceOnUse" x1="18.6025" y1="175.9719" x2="387.9889" y2="175.9719">
	<stop  offset="0" style="stop-color:#003F6C"/>
	<stop  offset="1" style="stop-color:#009444"/>
</linearGradient>
<path class="st0" d="M230.6,346.6c-57.9,3.9-76.8-19.7-84.5-29.7c-9-11.8-27.9-6.4-40.4-10.8c-38.3-13.5-72.9-38.6-84.7-86
	c-5.6-22.6,0.2-55.4,1.7-81.3l0-0.4c0.1-4.6,0.8-29.3,9.7-55.7c14-41.3,40.6-67,77.1-74.3C142,1.8,171.2,5.8,198,11
	c6.1,1.2,12.3,2.5,18.4,3.8c6.1,1.3,12.4,2.6,18.7,3.8c24.6,4.8,136.2,34.8,151.4,156.4C404.8,322,257.8,344.8,230.6,346.6z"/>
<g class="st1">
	<g>
		<path class="st2" d="M20,211.4c57.4,82.8,108.9,147.7,217.9,155.4c108.9,7.7,154-111.5,154.7-149.7c1-56.2-16.8-132.1-165.7-189.7
			C96.9-22.9-48,113.4,20,211.4z"/>
	</g>
</g>
<g>
	<g>
		<g>
			<g>
				<path class="st3" d="M115.7,143.3c1.2-9,2.2-16.7,13.8-10l5.7,3.3l8.9,5.1l5.7,3.3c11.7,6.7,12.7,15.6,13.8,25.9
					c1.1,9.4,3.5,36.5,3.5,36.8l-2.4-1.5c0-0.3-2.4-26.8-3.4-36.1c-1.3-11.1-2.3-16.7-11.5-22l-5.7-3.3l-8.9-5.1l-5.7-3.3
					c-9.3-5.4-10.3-0.9-11.5,8.7c-1.1,8.1-3.4,31.9-3.4,32.2l-2.4-1.2C112.3,175.8,114.7,151.4,115.7,143.3z"/>
				<path class="st3" d="M114.6,177.3l-3.5,2.1c0,0,0.5-16.6,1.2-22.9c0.6-6.2,3.5-20.2,3.5-20.2l1.4,1.1L114.6,177.3z"/>
				<path class="st3" d="M163.7,209.8l3.5-2.1c0,0-4.1-30.8-4.7-35.5c-0.7-4.7-3.2-15.8-3.2-15.8l-3.9,1c0,0,2.9,7.1,3.3,11.9
					C159.1,174.1,163.7,209.8,163.7,209.8z"/>
				<path class="st4" d="M112.2,145.4c1.2-9,2.2-16.7,13.8-10l5.7,3.3l8.9,5.1l5.7,3.3c11.7,6.7,12.7,15.6,13.8,25.9
					c1.1,9.4,3.5,36.5,3.5,36.8l-2.4-1.5c0-0.3-2.4-26.8-3.4-36.2c-1.3-11.1-2.3-16.7-11.5-22l-5.7-3.3l-8.9-5.1l-5.7-3.3
					c-9.3-5.4-10.3-0.9-11.5,8.7c-1.1,8.1-3.4,31.9-3.4,32.2l-2.4-1.2C108.8,177.9,111.2,153.5,112.2,145.4z"/>
			</g>
			<g>
				<path class="st5" d="M80.9,163.2c1.2-9,2.2-16.7,13.8-10l5.7,3.3l8.8,5.1l5.7,3.3c11.7,6.7,12.7,15.6,13.8,25.9
					c1.1,9.4,3.5,36.5,3.5,36.8l-2.4-1.5c0-0.3-2.4-26.8-3.4-36.1c-1.3-11.1-2.3-16.7-11.5-22l-5.7-3.3l-8.8-5.1l-5.7-3.3
					c-9.3-5.4-10.3-0.9-11.5,8.7c-1.1,8.1-3.4,31.9-3.4,32.2l-2.4-1.2C77.4,195.8,79.8,171.4,80.9,163.2z"/>
				<path class="st6" d="M79.8,197.2l-3.5,2.1c0,0,0.5-16.6,1.2-22.9c0.6-6.2,3.5-20.2,3.5-20.2l1.4,1.1L79.8,197.2z"/>
				<path class="st6" d="M128.9,229.8l3.5-2.1c0,0-4.1-30.8-4.7-35.5c-0.7-4.7-3.2-15.8-3.2-15.8l-3.9,1c0,0,2.9,7.1,3.3,11.9
					C124.3,194,128.9,229.8,128.9,229.8z"/>
				<path class="st5" d="M77.4,165.3c1.2-9,2.2-16.7,13.8-10l5.7,3.3l8.8,5.1l5.7,3.3c11.7,6.7,12.7,15.6,13.8,25.9
					c1.1,9.4,3.5,36.5,3.5,36.8l-2.3-1.5c0-0.3-2.4-26.8-3.4-36.2c-1.3-11.1-2.3-16.7-11.5-22l-5.7-3.3l-8.8-5.1l-5.7-3.3
					c-9.3-5.4-10.3-0.9-11.5,8.7c-1.1,8.1-3.4,31.9-3.4,32.2l-2.4-1.2C73.9,197.8,76.3,173.4,77.4,165.3z"/>
			</g>
			<path class="st7" d="M127.1,178.8l44.2-25.3c0,0-34.1-15.8-42.5-22.7c-8.5-6.8-15.3-21.8-16.6-52.3c-0.2-5.4,0.4-13.8-1.2-15.8
				c-3.3-1.9-44.7,24.5-44.7,24.5s2.9,37.6,5.8,49.1s11.6,20.1,25.9,27.9C112.4,172.1,127.1,178.8,127.1,178.8z"/>
			<g>
				<path class="st8" d="M68.5,87c0,0,2.4,29.2,3.8,40.7c1.2,9.8,3.8,21.1,19.2,30.4c13.2,8,30.6,17.8,35.7,20.6v5.2
					c-3.2-1.8-10.7-6-19.1-10.8c-5.5-3.2-11.4-6.6-16.7-9.8c-17.6-10.6-21.5-24.6-23-36.9c-1.4-11.8-3.9-41.7-3.9-41.7L68.5,87z"/>
			</g>
			<path class="st7" d="M112.7,61.7c0,0,2.4,29.2,3.8,40.7c1.2,9.8,3.8,21.1,19.2,30.4l35.7,20.6v5.2c-3.2-1.8-10.7-6-19.1-10.8
				c-5.5-3.2-11.4-6.6-16.7-9.8c-17.6-10.7-21.5-24.6-23-36.9c-1.4-11.8-3.8-41.5-3.8-41.5L112.7,61.7z"/>
			<polygon class="st9" points="108.8,59.3 112.8,61.7 68.5,87.1 64.5,84.8 			"/>
			<polygon class="st10" points="171.4,158.7 127.1,184 127.1,178.8 171.4,153.4 			"/>
		</g>
		<g>
			<g>
				<path class="st3" d="M273.8,147.7c-1.2-9-2.2-16.7-13.8-10l-5.7,3.3l-8.9,5.1l-5.7,3.3c-11.7,6.7-12.7,15.6-13.8,25.9
					c-1.1,9.4-3.5,36.5-3.5,36.8l2.4-1.5c0-0.3,2.4-26.8,3.4-36.1c1.3-11.1,2.3-16.7,11.5-22l5.7-3.3l8.9-5.1l5.7-3.3
					c9.3-5.4,10.3-0.9,11.5,8.7c1,8.1,3.4,31.9,3.4,32.2l2.4-1.2C277.3,180.2,274.9,155.9,273.8,147.7z"/>
				<path class="st3" d="M274.9,181.7l3.5,2.1c0,0-0.5-16.6-1.1-22.9c-0.6-6.2-3.5-20.2-3.5-20.2l-1.4,1.1L274.9,181.7z"/>
				<path class="st3" d="M225.9,214.2l-3.5-2.1c0,0,4.1-30.8,4.7-35.5s3.2-15.8,3.2-15.8l3.9,1c0,0-2.9,7.1-3.3,11.9
					C230.4,178.5,225.9,214.2,225.9,214.2z"/>
				<path class="st4" d="M277.3,149.8c-1.2-9-2.2-16.7-13.8-10l-5.7,3.3l-8.9,5.1l-5.7,3.3c-11.7,6.7-12.7,15.6-13.8,25.9
					c-1.1,9.4-3.5,36.5-3.5,36.8l2.4-1.5c0-0.3,2.4-26.8,3.4-36.2c1.3-11.1,2.3-16.7,11.5-22l5.7-3.3l8.9-5.1l5.7-3.3
					c9.3-5.4,10.3-0.9,11.5,8.7c1,8.1,3.4,31.9,3.4,32.2l2.4-1.2C280.8,182.3,278.4,157.9,277.3,149.8z"/>
			</g>
			<g>
				<path class="st5" d="M308.6,167.7c-1.2-9-2.2-16.7-13.8-10l-5.7,3.3l-8.9,5.1l-5.7,3.3c-11.7,6.7-12.7,15.6-13.8,25.9
					c-1.1,9.4-3.5,36.5-3.5,36.8l2.4-1.5c0-0.3,2.4-26.8,3.4-36.1c1.3-11.1,2.3-16.7,11.5-22l5.7-3.3l8.9-5.1l5.7-3.3
					c9.3-5.4,10.3-0.9,11.5,8.7c1,8.1,3.4,31.9,3.4,32.2l2.4-1.2C312.1,200.2,309.7,175.8,308.6,167.7z"/>
				<path class="st6" d="M309.8,201.6l3.5,2.1c0,0-0.5-16.6-1.1-22.9c-0.6-6.2-3.5-20.2-3.5-20.2l-1.4,1.1L309.8,201.6z"/>
				<path class="st6" d="M260.7,234.2l-3.5-2.1c0,0,4-30.8,4.7-35.5s3.2-15.8,3.2-15.8l3.9,1c0,0-2.9,7.1-3.3,11.9
					C265.2,198.4,260.7,234.2,260.7,234.2z"/>
				<path class="st5" d="M312.1,169.7c-1.2-9-2.2-16.7-13.8-10l-5.7,3.3l-8.9,5.1l-5.7,3.3c-11.7,6.7-12.7,15.6-13.8,25.9
					c-1.1,9.4-3.5,36.5-3.5,36.8l2.4-1.5c0-0.3,2.4-26.8,3.4-36.2c1.3-11.1,2.3-16.7,11.5-22l5.7-3.3l8.9-5.1l5.7-3.3
					c9.3-5.4,10.3-0.9,11.5,8.7c1,8.1,3.4,31.9,3.4,32.2l2.4-1.2C315.6,202.2,313.2,177.9,312.1,169.7z"/>
			</g>
			<path class="st7" d="M262.4,183.2l-44.2-25.3c0,0,34.1-15.8,42.5-22.7s15.3-21.8,16.6-52.3c0.2-5.4-0.4-13.8,1.1-15.8
				c3.3-1.9,44.7,24.5,44.7,24.5s-2.9,37.6-5.8,49.1s-11.6,20.1-25.9,27.9C277.1,176.5,262.4,183.2,262.4,183.2z"/>
			<g>
				<path class="st8" d="M321,91.4c0,0-2.4,29.2-3.8,40.7c-1.2,9.8-3.8,21.1-19.2,30.4c-13.2,8-30.5,17.8-35.7,20.6v5.2
					c3.2-1.8,10.7-6,19.1-10.8c5.5-3.2,11.4-6.6,16.7-9.8c17.6-10.6,21.5-24.6,23-36.9c1.5-11.8,3.9-41.7,3.9-41.7L321,91.4z"/>
			</g>
			<path class="st7" d="M276.8,66.1c0,0-2.4,29.2-3.8,40.7c-1.2,9.8-3.8,21.1-19.2,30.4l-35.7,20.6v5.2c3.2-1.8,10.7-6,19.1-10.8
				c5.5-3.2,11.4-6.6,16.7-9.8c17.6-10.6,21.5-24.6,23-36.9c1.4-11.8,3.8-41.5,3.8-41.5L276.8,66.1z"/>
			<polygon class="st9" points="280.7,63.7 276.7,66.1 321,91.5 325,89.2 			"/>
			<polygon class="st11" points="218.2,163.1 262.4,188.4 262.4,183.2 218.2,157.9 			"/>
		</g>
		<g>
			<g>
				<polygon class="st6" points="110.2,185.6 101.9,180.9 101.9,264.9 110.2,269.6 				"/>
				<polygon class="st5" points="110.2,185.6 118.4,180.9 118.4,264.9 110.2,269.6 				"/>
			</g>
			<g>
				<polygon class="st6" points="195.2,234.9 187,230.1 187,314.1 195.2,318.8 				"/>
				<polygon class="st5" points="195.2,234.9 203.5,230.1 203.5,314.1 195.2,318.8 				"/>
			</g>
			<g>
				<polygon class="st6" points="279.8,187.5 271.6,182.7 271.6,266.7 279.8,271.4 				"/>
				<polygon class="st5" points="279.8,187.5 288,182.7 288,266.7 279.8,271.4 				"/>
			</g>
			<g>
				<path class="st12" d="M169.3,134.2l-74.4,43c-5.6,3.2-5.6,11.3,0,14.5l74.4,43c16.1,9.3,35.9,9.3,51.9,0l74.4-43
					c5.6-3.2,5.6-11.3,0-14.5l-74.4-43C205.2,124.9,185.4,124.9,169.3,134.2z"/>
				<rect x="290.8" y="174.4" class="st12" width="9" height="10.1"/>
				<rect x="90.7" y="174.4" class="st12" width="9.1" height="10.1"/>
				<path class="st8" d="M169.3,124.1l-74.4,43c-5.6,3.2-5.6,11.3,0,14.5l74.4,43c16.1,9.3,35.9,9.3,51.9,0l74.4-43
					c5.6-3.2,5.6-11.3,0-14.5l-74.4-43C205.2,114.8,185.4,114.8,169.3,124.1z"/>
			</g>
			<g>
				<path class="st7" d="M145.6,149.1l-15.7,9.1c-1.2,0.7-1.2,2.4,0,3.1l15.7,9.1c3.4,2,7.6,2,11,0l15.7-9.1c1.2-0.7,1.2-2.4,0-3.1
					l-15.7-9.1C153.2,147.2,149,147.2,145.6,149.1z"/>
				<rect x="129" y="138.4" class="st7" width="44.2" height="21.2"/>
				<path class="st9" d="M155.9,129c-3-1.7-6.6-1.7-9.6,0l-13.8,8c-1,0.6-1,2.1,0,2.7l13.8,8c3,1.7,6.6,1.7,9.6,0l13.8-8
					c1-0.6,1-2.1,0-2.7L155.9,129z"/>
				<path class="st10" d="M172.3,136.8l-15.7-9.1c-3.4-2-7.6-2-11,0l-15.7,9.1c-1.2,0.7-1.2,2.4,0,3.1l15.7,9.1c3.4,2,7.6,2,11,0
					l15.7-9.1C173.5,139.2,173.5,137.5,172.3,136.8z M169.7,139.7l-13.8,8c-3,1.7-6.6,1.7-9.6,0l-13.8-8c-1-0.6-1-2.1,0-2.7l13.8-8
					c3-1.7,6.6-1.7,9.6,0l13.8,8C170.7,137.6,170.7,139.1,169.7,139.7z"/>
				<g>
					<g>
						<path class="st13" d="M154.6,109.1c-0.9,0-1.6-0.4-1.6-0.8v40.9h3.2v-40.9C156.2,108.8,155.4,109.1,154.6,109.1z"/>
						<path class="st12" d="M153,104.1v4.2c0,0.5,0.7,0.8,1.6,0.8c0.9,0,1.6-0.4,1.6-0.8v-4.2C156.2,104.1,153,104.1,153,104.1z"/>
						<path class="st5" d="M156.2,104.1c0,0.5-0.7,0.8-1.6,0.8c-0.9,0-1.6-0.4-1.6-0.8s0.7-0.8,1.6-0.8S156.2,103.7,156.2,104.1z"/>
					</g>
					<g>
						<path class="st13" d="M130.9,110.3c-0.9,0.2-1.6-0.1-1.7-0.5l6.3,33.1l3.4,1.2l-6.6-35C132.4,109.7,131.7,110.2,130.9,110.3z"
							/>
						<path class="st12" d="M128.4,105.7l0.8,4.1c0.1,0.5,0.9,0.7,1.7,0.5s1.5-0.7,1.4-1.1l-0.8-4.1L128.4,105.7z"/>
						<path class="st5" d="M131.5,105.1c0.1,0.5-0.5,1-1.4,1.1c-0.9,0.2-1.6-0.1-1.7-0.5s0.5-1,1.4-1.1
							C130.6,104.4,131.4,104.6,131.5,105.1z"/>
					</g>
					<g>
						<path class="st14" d="M151.8,149.6c0.9,0,1.8-0.2,2.7-0.3l-4.9-30.5c0.1,0.5-0.6,0.9-1.4,1.1s-1.6-0.1-1.7-0.6l4.9,30.3
							C151.5,149.7,151.7,149.6,151.8,149.6z"/>
						<path class="st15" d="M145.8,115.2l0.7,4.1c0.1,0.5,0.8,0.7,1.7,0.6c0.9-0.1,1.5-0.6,1.4-1.1l-0.7-4.1L145.8,115.2z"/>
						<path class="st14" d="M149,114.7c0.1,0.5-0.6,0.9-1.4,1.1s-1.6-0.1-1.7-0.6c-0.1-0.5,0.6-0.9,1.4-1.1S148.9,114.3,149,114.7z"
							/>
					</g>
					<g>
						<path class="st3" d="M165.9,112c-0.9-0.2-1.5-0.7-1.4-1.2l-8.2,35.6l3.1,0.7l8.2-35.6C167.6,112,166.8,112.2,165.9,112z"/>
						<path class="st4" d="M165.5,106.7l-1,4.1c-0.1,0.4,0.5,1,1.4,1.2c0.9,0.2,1.6,0,1.7-0.5l1-4.1L165.5,106.7z"/>
						<path class="st3" d="M168.6,107.5c-0.1,0.5-0.9,0.7-1.7,0.5c-0.9-0.2-1.5-0.7-1.4-1.2c0.1-0.4,0.9-0.7,1.7-0.5
							S168.8,107,168.6,107.5z"/>
					</g>
					<g>
						<path class="st3" d="M134.4,119c0.9-0.2,1.5-0.7,1.4-1.2l6.6,28.4l-3.5-2l-6.2-25.6C132.8,119,133.6,119.2,134.4,119z"/>
						<path class="st4" d="M134.8,113.7l1,4.1c0.1,0.4-0.5,1-1.4,1.2c-0.9,0.2-1.6,0-1.7-0.5l-1-4.1L134.8,113.7z"/>
						<path class="st3" d="M131.7,114.5c0.1,0.5,0.9,0.7,1.8,0.5c0.9-0.2,1.5-0.7,1.4-1.2c-0.1-0.4-0.9-0.7-1.7-0.5
							C132.2,113.5,131.6,114,131.7,114.5z"/>
					</g>
					<g>
						<path class="st3" d="M141,112.3c0.9-0.1,1.5-0.6,1.5-1.1l5.3,37.5l-4.6-8.7l-3.9-28.4C139.3,112.1,140.1,112.4,141,112.3z"/>
						<path class="st4" d="M141.9,107.1l0.6,4.1c0.1,0.5-0.6,0.9-1.5,1.1c-0.9,0.1-1.6-0.2-1.7-0.6l-0.6-4.1L141.9,107.1z"/>
						<path class="st3" d="M138.7,107.5c0.1,0.5,0.8,0.7,1.7,0.6c0.9-0.1,1.5-0.6,1.5-1.1c-0.1-0.5-0.8-0.7-1.7-0.6
							C139.3,106.6,138.6,107,138.7,107.5z"/>
					</g>
					<g>
						<path class="st3" d="M152.4,119.3c-1.8,0.1-3.3,5.3-4.1,14.1c-1.1,12.7-1,12.4-1,12.4l2.8,0.4c0,0,0.7-4,2.5-12
							C154.8,124.6,154.1,119.2,152.4,119.3z"/>
						<polygon class="st16" points="147.3,145.7 147.1,149 149.5,149.6 150.2,146.2 						"/>
						<path class="st3" d="M147.3,145.7c-0.1,0.4,0.5,0.9,1.3,1s1.5-0.1,1.5-0.5c0.1-0.4-0.5-0.9-1.3-1S147.4,145.3,147.3,145.7z"/>
					</g>
					<g>
						<path class="st12" d="M178.8,115.6c1.4,1.1-0.5,6.2-5.1,13.8c-6.6,10.9-6.5,10.5-6.5,10.5l-2.5-1.3c0,0,1.8-3.6,5.1-11.1
							C173.6,118.5,177.4,114.5,178.8,115.6z"/>
						<polygon class="st16" points="167.2,140 165,143.5 161.7,144.9 164.6,138.7 						"/>
						<path class="st12" d="M167.2,140c-0.2,0.4-0.9,0.4-1.6,0s-1.1-1-0.9-1.3s0.9-0.4,1.6,0S167.4,139.6,167.2,140z"/>
					</g>
					<g>
						<path class="st12" d="M158.4,116c1.8,0.4,2.2,5.8,1.3,14.6c-1.3,12.7-1.4,12.3-1.4,12.3l-2.9-0.1c0,0,0.1-4.1-0.2-12.2
							C155,120.8,156.6,115.6,158.4,116z"/>
						<polygon class="st16" points="158.4,142.9 157.9,147 155.5,149.7 155.5,142.8 						"/>
						<path class="st12" d="M158.4,142.9c0,0.4-0.7,0.7-1.5,0.7c-0.8,0-1.4-0.4-1.4-0.8c0-0.4,0.7-0.7,1.5-0.7
							C157.7,142.1,158.4,142.5,158.4,142.9z"/>
					</g>
					<g>
						<path class="st12" d="M138.5,116.4c-1.6,0.7-1.2,6.2,1.2,14.6c3.5,12.2,3.5,11.9,3.5,11.9l2.8-0.6c0,0-0.8-4-2-12.1
							C142.7,120.5,140.2,115.7,138.5,116.4z"/>
						<polygon class="st16" points="143.3,142.9 144.5,146.9 147.3,149.1 146.1,142.3 						"/>
						<path class="st12" d="M143.3,142.9c0.1,0.4,0.8,0.6,1.6,0.4s1.3-0.6,1.2-1.1c-0.1-0.4-0.8-0.6-1.6-0.4
							S143.2,142.5,143.3,142.9z"/>
					</g>
					<path class="st10" d="M170.4,138.7c-0.1,0.4-0.3,0.7-0.7,1l-13.8,8c-3,1.7-6.6,1.7-9.6,0l-13.8-8c-0.4-0.2-0.6-0.6-0.7-1h-2.7
						c0.1,0.4,0.3,0.9,0.8,1.1l15.7,9.1c3.4,2,7.6,2,11,0l15.7-9.1c0.5-0.3,0.7-0.7,0.8-1.1L170.4,138.7L170.4,138.7z"/>
					<path class="st16" d="M132.8,144.8c0,0,2.8,1.7,3.7,5.9c0.6,3.2-0.4,5.9-0.4,5.9s-3.9-2-4.3-6.6
						C131.4,146,132.8,144.8,132.8,144.8z"/>
					<path class="st13" d="M141.6,156.1c1-1.3,1.8-2.9,0.3-4.2c-1.3-1.2-2.5-0.4-3.3,0.8c-0.5-1.3-1.4-2.4-2.8-1.9
						c-1.4,0.6-1.2,2.1-0.6,3.4c-0.3,0.1-0.6,0.2-0.8,0.3c-1.4,0.8-1.9,2.6-1.4,4.1c0.7,1.9,3.4,2.9,5.1,2.1c1.1,2.1,4,3.3,5.3,0.5
						C144.2,159.4,143.4,156.7,141.6,156.1z"/>
					<path class="st17" d="M137.1,156.4c0,0.8,0.5,1.6,1.1,1.9c0.6,0.2,1.1-0.2,1.1-1c0-0.8-0.5-1.6-1.1-1.9
						C137.6,155.1,137.1,155.6,137.1,156.4z"/>
					<path class="st16" d="M168.6,144.6c0,0-2.8,1.7-3.7,5.9c-0.6,3.2,0.4,5.9,0.4,5.9s3.9-2,4.3-6.6
						C169.9,145.8,168.6,144.6,168.6,144.6z"/>
					<path class="st13" d="M160.5,155.9c-0.9-1.2-1.6-2.7-0.3-3.9c1.2-1.1,2.3-0.3,3.1,0.7c0.5-1.2,1.3-2.2,2.5-1.7
						c1.3,0.5,1.1,2,0.6,3.2c0.3,0.1,0.5,0.2,0.8,0.3c1.3,0.8,1.8,2.4,1.3,3.8c-0.6,1.7-3.1,2.6-4.6,1.9c-1.1,1.9-3.7,3-4.9,0.5
						C158,158.9,158.8,156.4,160.5,155.9z"/>
					<path class="st17" d="M164.6,156.1c0,0.7-0.5,1.5-1,1.7s-1-0.2-1-0.9c0-0.7,0.5-1.5,1-1.7C164.2,155,164.6,155.4,164.6,156.1z"
						/>
				</g>
			</g>
			<g>
				<path class="st8" d="M276.7,184.6l-28.8,16.6c-2.7,1.5-7.4,1.3-10.4-0.4l-13.8-8c-3.1-1.8-3.4-4.5-0.8-6l28.8-16.6
					c2.7-1.5,7.3-1.3,10.4,0.4l13.8,8C279,180.3,279.4,183.1,276.7,184.6z"/>
				<rect x="221.2" y="186.8" class="st8" width="3.9" height="2.8"/>
				<rect x="274.6" y="179.3" class="st8" width="3.9" height="2.8"/>
				<path class="st16" d="M276.7,182.1l-28.8,16.6c-2.7,1.5-7.4,1.3-10.4-0.4l-13.8-8c-3.1-1.8-3.4-4.5-0.8-6l28.8-16.6
					c2.7-1.5,7.3-1.3,10.4,0.4l13.8,8C279,177.9,279.4,180.6,276.7,182.1z"/>
				<path class="st7" d="M237.4,185.6c0,1.4-2.1,2.5-4.7,2.5c-2.6,0-4.7-1.1-4.7-2.5c0-1.4,2.1-2.5,4.7-2.5
					C235.3,183.1,237.4,184.2,237.4,185.6z"/>
				<path class="st12" d="M248.4,179.4c0,1.4-2.1,2.5-4.7,2.5c-2.6,0-4.7-1.1-4.7-2.5c0-1.4,2.1-2.5,4.7-2.5
					C246.3,176.9,248.4,178,248.4,179.4z"/>
				<path class="st7" d="M259.8,172.9c0,1.4-2.1,2.5-4.7,2.5c-2.6,0-4.7-1.1-4.7-2.5c0-1.4,2.1-2.5,4.7-2.5
					C257.7,170.4,259.8,171.6,259.8,172.9z"/>
				<ellipse class="st5" cx="244.7" cy="192.8" rx="4.7" ry="2.5"/>
				<ellipse class="st17" cx="255.7" cy="186.6" rx="4.7" ry="2.5"/>
				<ellipse class="st13" cx="267.1" cy="180.1" rx="4.7" ry="2.5"/>
				<path class="st8" d="M234.8,191.3L234.8,191.3c-0.6-0.4-0.5-0.9,0.2-1.4l26.3-15.2c0.7-0.4,1.8-0.4,2.3-0.1l0,0
					c0.6,0.4,0.5,0.9-0.2,1.4l-26.3,15.2C236.5,191.6,235.4,191.7,234.8,191.3z"/>
			</g>
			<g>
				<rect x="142.9" y="169.2" class="st12" width="9.6" height="12.2"/>
				<rect x="151.2" y="166.4" class="st12" width="11.8" height="12.2"/>
				<path class="st12" d="M162.5,179.1l-10.9,6.3c-0.7,0.4-1.9,0.4-2.7-0.1l-5.3-3.1c-0.8-0.5-0.9-1.2-0.2-1.6l10.9-6.3
					c0.7-0.4,1.9-0.4,2.7,0.1l5.3,3.1C163.1,178,163.2,178.7,162.5,179.1z"/>
				<path class="st8" d="M162.5,167l-10.9,6.3c-0.7,0.4-1.9,0.4-2.7-0.1l-5.3-3.1c-0.8-0.5-0.9-1.2-0.2-1.6l10.9-6.3
					c0.7-0.4,1.9-0.4,2.7,0.1l5.3,3.1C163.1,165.9,163.2,166.6,162.5,167z"/>
				<rect x="148.2" y="165.3" class="st13" width="9.5" height="2.9"/>
				<g>
					<ellipse class="st13" cx="153" cy="167.8" rx="4.7" ry="2.5"/>
					<ellipse class="st12" cx="153" cy="165.3" rx="4.7" ry="2.5"/>
					<path class="st9" d="M155.4,165c0,0.7-1.1,1.3-2.4,1.3s-2.4-0.6-2.4-1.3c0-0.7,1.1-1.3,2.4-1.3S155.4,164.3,155.4,165z"/>
					<polygon class="st9" points="151.2,160.5 150.6,165 155.4,165 154.7,160.5 					"/>
					<path class="st9" d="M154.7,160.5c0,0.5-0.8,0.9-1.7,0.9s-1.7-0.4-1.7-0.9c0-0.5,0.8-0.9,1.7-0.9S154.7,160,154.7,160.5z"/>
				</g>
				<polygon class="st10" points="161.2,175.8 153,180.5 153,174.8 161.2,170.1 				"/>
				<polygon class="st10" points="161.2,177.9 153,182.6 153,181.5 161.2,176.8 				"/>
			</g>
			<polygon class="st16" points="205.1,187.1 168.6,166 224.2,133.9 260.7,155 			"/>
			<path class="st12" d="M225.9,134.9c0,0-4.9,5.9,5.5,12.8c10.4,6.9,26.4,5.7,26.4,5.7L225.9,134.9z"/>
			<path class="st13" d="M238.7,146.4c-1.9-0.9-6.6-0.6-8.1-0.3c0.4-1.1-0.5-3.6-0.5-3.6s-1.2,2.9-3.1,5.5c-1,1.3-4.2,3.9-7,6.1
				c-2.5-0.2-4.7-0.4-6.3-0.2c-3.1,0.4-6.8,2.1-6.8,2.1l0.6,0.9c0,0,5.1-1.5,6.8-1.6c0.8,0,2.3,0.1,3.7,0.2
				c-1.6,1.2-2.8,2.1-2.8,2.1l2.4,2c0,0,4.7-3,7.3-4.5c7.4-4.4,11.9-4.8,11.9-4.8s-2.1-1.4-3.1-1.6
				C234.3,148,238.7,146.4,238.7,146.4z"/>
			<path class="st12" d="M220.4,159.2c-2-3-6.5-3.8-9.9-2.4c0.3-2.1-0.2-4.5-3.4-4.6c-2.6,0-4.4,2.2-5.3,4.3
				c-0.9-0.5-1.9-0.8-2.9-0.6c-2.9,0.4-2.2,2.3-1.4,3.9c-2.4-0.6-5.8-1.2-6.5,0.9c-0.7,1.8,1.3,2.9,3.3,3.6c-3.1,0.6-6.1,2.1-4.6,5
				c1.3,2.5,4.9,2.5,7.7,1.7c-0.4,1.7,0.6,3.5,3.1,4.1c4.2,1,6.7-2,7.4-4.8c6.7,3.9,15-2.8,8.8-6
				C219.9,163.6,222.5,162.3,220.4,159.2z"/>
			<g>
				<path class="st13" d="M216.3,202.2c0,3.2-4.9,5.9-11.1,5.9s-11.1-2.6-11.1-5.9s4.9-5.9,11.1-5.9
					C211.4,196.4,216.3,199,216.3,202.2z"/>
				<rect x="194.2" y="190.5" class="st13" width="22.1" height="11.8"/>
				<path class="st12" d="M216.3,190.5c0,3.2-4.9,5.9-11.1,5.9s-11.1-2.6-11.1-5.9s4.9-5.9,11.1-5.9
					C211.4,184.6,216.3,187.2,216.3,190.5z"/>
				<g>
					<path class="st13" d="M205.3,188.4c4.3,0,7.9,1.5,9.1,3.6c0.3-0.5,0.5-1,0.5-1.5c0-2.8-4.3-5.1-9.5-5.1s-9.5,2.3-9.5,5.1
						c0,0.5,0.2,1,0.5,1.5C197.4,189.9,201,188.4,205.3,188.4z"/>
					<path class="st17" d="M205.3,195.6c4.3,0,7.9-1.5,9.1-3.6c-1.2-2.1-4.8-3.6-9.1-3.6c-4.3,0-7.9,1.5-9.1,3.6
						C197.4,194,201,195.6,205.3,195.6z"/>
				</g>
			</g>
		</g>
	</g>
</g>
</svg>
