<?xml version="1.0" encoding="utf-8"?>
<!-- Generator: Adobe Illustrator 23.0.3, SVG Export Plug-In . SVG Version: 6.00 Build 0)  -->
<svg version="1.1" id="Capa_1" xmlns="http://www.w3.org/2000/svg" xmlns:xlink="http://www.w3.org/1999/xlink" x="0px" y="0px"
	 viewBox="0 0 400 400" style="enable-background:new 0 0 400 400;" xml:space="preserve">
<style type="text/css">
	.st0{opacity:0.3;fill:#003F6C;}
	.st1{opacity:0.6;}
	.st2{fill:url(#SVGID_1_);}
	.st3{opacity:8.000000e-02;fill:#213B2C;enable-background:new    ;}
	.st4{fill:#E0E0E0;}
	.st5{fill:#335441;}
	.st6{fill:#213B2C;}
	.st7{fill:#AED9B4;}
	.st8{fill:#8ECC93;}
	.st9{fill:#75BD72;}
	.st10{fill:#FAFAFA;}
	.st11{fill:#F0F0F0;}
	.st12{fill:#2C4C39;}
	.st13{opacity:0.8;fill:#FFFFFF;enable-background:new    ;}
	.st14{fill:#263238;}
	.st15{clip-path:url(#SVGID_3_);}
	.st16{opacity:0.1;enable-background:new    ;}
	.st17{fill:#455A64;}
	.st18{fill:#37474F;}
	.st19{fill:#EBEBEB;}
	.st20{clip-path:url(#SVGID_5_);}
	.st21{opacity:0.1;fill:#8ECC93;enable-background:new    ;}
	.st22{clip-path:url(#SVGID_7_);}
	.st23{fill:#63AC53;}
	.st24{opacity:0.5;fill:#213B2C;enable-background:new    ;}
	.st25{fill:#D3EBD8;}
	.st26{fill:#FFFFFF;}
	.st27{fill:#DBDBDB;}
	.st28{fill:#EFEFEF;}
	.st29{fill:#CACACA;}
	.st30{fill:#FDF951;}
	.st31{fill:#333333;}
	.st32{fill:#45635B;}
	.st33{opacity:0.7;fill:#FFFFFF;enable-background:new    ;}
	.st34{opacity:0.55;fill:#FFFFFF;enable-background:new    ;}
	.st35{opacity:5.000000e-02;enable-background:new    ;}
	.st36{opacity:0.35;}
	.st37{fill:#0CAF4B;}
	.st38{opacity:0.65;fill:#FFFFFF;enable-background:new    ;}
	.st39{opacity:0.5;fill:#FFFFFF;enable-background:new    ;}
	.st40{opacity:0.75;}
	.st41{opacity:0.2;enable-background:new    ;}
	.st42{opacity:0.4;enable-background:new    ;}
	.st43{opacity:0.15;fill:#FFFFFF;enable-background:new    ;}
	.st44{opacity:0.85;fill:#FFFFFF;enable-background:new    ;}
	.st45{opacity:0.8;fill:#0CAF4B;enable-background:new    ;}
	.st46{opacity:0.2;fill:#FFFFFF;enable-background:new    ;}
	.st47{opacity:0.35;fill:#FFFFFF;enable-background:new    ;}
	.st48{fill:#52854F;}
	.st49{fill:#69AB67;}
</style>
<path class="st0" d="M20,244c30.5,52,48.4,67.6,60.9,71.6c14.7,4.7,16.9,24.8,25.9,35.4c27.6,32.4,68.6,47.1,118.4,42.4
	c23.8-2.2,49.2-8.8,73.4-19l0.4-0.2c4.4-1.6,27.7-10.7,49.5-28.3c34.1-27.5,48.4-62,41.3-99.8c-6.3-33.7-21.3-60.6-36.6-84.7
	c-3.5-5.5-7.1-11.1-10.7-16.5c-3.6-5.5-7.3-11.1-10.9-16.8C317.5,106.2,245.9,8.4,123.9,35C-23.6,67.2-4.3,202.6,20,244z"/>
<g class="st1">
	<g>
		<linearGradient id="SVGID_1_" gradientUnits="userSpaceOnUse" x1="2.9783" y1="211.3704" x2="393.3866" y2="211.3704">
			<stop  offset="0" style="stop-color:#003F6C"/>
			<stop  offset="1" style="stop-color:#009444"/>
		</linearGradient>
		<path class="st2" d="M276.2,45.8c-98.7,0.6-179.6,6.4-245.9,90.3C-36,220,35.5,322.5,66,344.2c44.9,31.9,135.4,63.6,264.2-25
			C442.6,241.9,392.9,45,276.2,45.8z"/>
	</g>
</g>
<path id="Shadow_10_" class="st3" d="M60.2,339.6l47.5-27.4c0.5-0.3,0.5-0.8,0-1.1l-3.4-2c-0.5-0.3-1.4-0.3-1.9,0l-19.3,11.1
	c-0.5,0.3-1.4,0.3-1.9,0L46.1,300c-0.5-0.3-1.4-0.3-1.9,0l-1.7,1c-0.5,0.3-0.5,0.8,0,1.1l35.2,20.3c0.5,0.3,0.5,0.8,0,1.1L55,336.5
	c-0.5,0.3-0.5,0.8,0,1.1l3.4,2C58.9,339.9,59.7,339.9,60.2,339.6z"/>
<path id="Shadow_35_" class="st4" d="M121.9,330.3c3.3,1.8,3.3,4.8,0,6.6s-8.6,1.8-11.9,0s-3.3-4.8,0-6.6
	C113.3,328.5,118.6,328.5,121.9,330.3z"/>
<g id="Canvas">
	<g id="XMLID_9628_">
		<polygon id="XMLID_9639_" class="st5" points="91.8,303.3 91.8,302.1 69.8,314.8 70.9,315.5 		"/>
		<g id="XMLID_9636_">
			<path id="XMLID_9638_" class="st5" d="M64.4,219.5c0.1,0.1,0.2,0.2,0.1,0.3l-18.2,81l-0.5,2.3c-0.3,0-0.5,0-0.7-0.1c0,0,0,0,0,0
				l-1.2-0.7c-0.1-0.1-0.2-0.2-0.1-0.3l18.7-83.1c0-0.2,0.3-0.3,0.4-0.2L64.4,219.5z"/>
			<path id="XMLID_9637_" class="st6" d="M66.7,218.4l-18.8,83.5c0,0.1-0.1,0.2-0.2,0.3l-1.2,0.7c-0.2,0.1-0.4,0.1-0.6,0.1l0.5-2.3
				l18.3-81.2L66.7,218.4z"/>
		</g>
		<g id="XMLID_9633_">
			<path id="XMLID_9635_" class="st5" d="M68.8,331v2.4c-0.2,0-0.5,0-0.7-0.1c0,0,0,0,0,0l-1.1-0.7c-0.2-0.1-0.3-0.2-0.3-0.4l0-72.5
				l2.1,1.2L68.8,331z"/>
			<path id="XMLID_9634_" class="st6" d="M70.9,259.6l0,72.5v0c0,0.1-0.1,0.3-0.3,0.4l-1.1,0.7c-0.2,0.1-0.4,0.2-0.7,0.2V331l0-70.1
				L70.9,259.6z"/>
		</g>
		<g id="XMLID_9630_">
			<path id="XMLID_9632_" class="st5" d="M96,317.7c-0.1,0-0.4,0-0.7-0.2l-1.2-0.7c-0.2-0.1-0.3-0.2-0.3-0.4l-12.5-65.2l2.1,1.2
				l12.1,62.9L96,317.7z"/>
			<path id="XMLID_9631_" class="st6" d="M98.1,316.4C98.1,316.5,98.1,316.5,98.1,316.4c0,0.2-0.1,0.3-0.3,0.4l-1.1,0.6l-0.1,0
				c-0.2,0.1-0.4,0.2-0.7,0.2l-0.4-2.4l-12.1-62.9l2.1-1.2L98.1,316.4C98,316.4,98,316.4,98.1,316.4L98.1,316.4z"/>
		</g>
		<polygon id="XMLID_9629_" class="st6" points="70.1,318.3 93.9,304.5 93.9,302.1 70.1,315.9 		"/>
	</g>
	<g id="XMLID_9581_">
		<g id="XMLID_9624_">
			<path id="XMLID_9627_" class="st7" d="M50.7,274.6v0.9c0,0.4,0.3,1,0.7,1.2l7,4.1c0.4,0.2,1,0.2,1.3,0l32.2-18.6
				c0.4-0.2,0.7-0.7,0.7-1.2v-0.9c0-0.4-0.3-1-0.7-1.2l-7-4.1c-0.4-0.2-1-0.2-1.3,0l-32.2,18.6C51,273.7,50.7,274.2,50.7,274.6z"/>
			<path id="XMLID_9626_" class="st8" d="M51.4,274.2l7,4.1c0.4,0.2,1,0.2,1.3,0l32.2-18.6c0.4-0.2,0.4-0.6,0-0.8l-7-4.1
				c-0.4-0.2-1-0.2-1.3,0l-32.2,18.6C51,273.7,51,274,51.4,274.2z"/>
			<path id="XMLID_9625_" class="st9" d="M59.1,278.5v2.4c-0.2,0-0.5-0.1-0.7-0.2l-7-4.1c-0.4-0.2-0.7-0.7-0.7-1.2v-0.9
				c0-0.4,0.2-0.8,0.5-1.1c-0.2,0.2-0.2,0.5,0.1,0.7l7,4.1C58.6,278.4,58.9,278.5,59.1,278.5z"/>
		</g>
		<g id="XMLID_9620_">
			<path id="XMLID_9623_" class="st4" d="M48.9,280.9l-2-1.1c-0.6-0.4-1.2-1.2-1.2-1.9l-4-70c0-0.7,0.4-1.6,1-1.9l46-26.5
				c0.6-0.4,1.6-0.4,2.2,0l2,1.1c0.6,0.4,1.2,1.2,1.2,1.9l4,70c0,0.7-0.4,1.6-1,1.9l-46,26.5C50.5,281.2,49.5,281.2,48.9,280.9z"/>
			<path id="XMLID_9622_" class="st10" d="M94,182.2c-0.1-0.6-0.6-0.8-1.2-0.4l-46,26.5c-0.3,0.2-0.6,0.5-0.8,0.8l-4.2-2.4
				c0.2-0.4,0.5-0.7,0.8-0.8l46-26.5c0.6-0.4,1.6-0.4,2.2,0l2,1.1C93.4,180.8,93.9,181.6,94,182.2z"/>
			<path id="XMLID_9621_" class="st11" d="M45.9,210.2l4,70c0,0.7,0.6,1,1.2,0.6l46-26.5c0.6-0.4,1.1-1.2,1-1.9l-4-70
				c0-0.7-0.6-1-1.2-0.6l-46,26.5C46.3,208.6,45.8,209.5,45.9,210.2z"/>
		</g>
	</g>
	<path class="st7" d="M59.9,195.9l4.2,2.4c0.3,0.2,0.8,0.2,1.1,0l11.2-6.5c0.3-0.2,0.6-0.6,0.6-1v-0.7c0-0.4-0.2-0.8-0.6-1l-4.2-2.4
		c-0.3-0.2-0.8-0.2-1.1,0l-11.2,6.5c-0.3,0.2-0.6,0.6-0.6,1v0.7C59.3,195.3,59.6,195.8,59.9,195.9z"/>
	<path class="st8" d="M59.9,193.9l4.2,2.4c0.3,0.2,0.8,0.2,1.1,0l11.2-6.5c0.3-0.2,0.3-0.5,0-0.6l-4.2-2.4c-0.3-0.2-0.8-0.2-1.1,0
		l-11.2,6.5C59.6,193.4,59.6,193.7,59.9,193.9z"/>
	<path class="st9" d="M64.5,196.4v2c-0.2,0-0.4,0-0.5-0.1l-4.2-2.4c-0.3-0.2-0.6-0.6-0.6-1v-0.7c0-0.3,0.2-0.7,0.5-0.9
		c-0.2,0.2-0.2,0.4,0.1,0.6l4.2,2.4C64.2,196.4,64.3,196.4,64.5,196.4z"/>
	<g>
		<path class="st12" d="M60.9,172.6c0-0.3,0.2-0.7,0.4-0.8c0.7-0.4,1.9-1.1,2.6-1.5c0.3-0.1,0.7-0.1,0.9,0l1.1,0.6
			c0.3,0.1,0.5,0.5,0.5,0.8l1.7,16.8l-5.3,3.1L60.9,172.6z"/>
		<path class="st5" d="M64.6,190.5l-1.8,1l-1.9-18.9c0-0.1,0-0.3,0.1-0.5l2,1.1c-0.1,0.1-0.1,0.3-0.1,0.5L64.6,190.5z"/>
		<path class="st6" d="M62.9,173.8c0-0.3,0.2-0.7,0.4-0.8l2.6-1.5c0.3-0.1,0.5,0,0.5,0.3l1.7,16.8l-3.5,2L62.9,173.8z"/>
	</g>
</g>
<g id="Penciles_1_">
	<g id="Pencil_Can_1_">
		<g id="Can_1_">
			<path id="XMLID_5826_" class="st9" d="M123.2,316.1h-16l1.8,14.7h0c0.1,0.9,0.7,1.7,1.8,2.3c2.4,1.4,6.4,1.4,8.8,0
				c1.1-0.6,1.7-1.5,1.8-2.3h0L123.2,316.1z"/>
			<path id="XMLID_5825_" class="st8" d="M123.2,316.1h-16l1.8,14.7h0c0.1,0.9,0.7,1.7,1.8,2.3c2.4,1.4,6.4,1.4,8.8,0
				c1.1-0.6,1.7-1.5,1.8-2.3h0L123.2,316.1z"/>
			<path id="XMLID_5824_" class="st9" d="M109.6,312.9c3.1-1.8,8.2-1.8,11.3,0c3.1,1.8,3.1,4.7,0,6.5c-3.1,1.8-8.2,1.8-11.3,0
				C106.5,317.6,106.5,314.7,109.6,312.9z"/>
			<path id="XMLID_5823_" class="st13" d="M109.6,312.9c3.1-1.8,8.2-1.8,11.3,0c3.1,1.8,3.1,4.7,0,6.5c-3.1,1.8-8.2,1.8-11.3,0
				C106.5,317.6,106.5,314.7,109.6,312.9z"/>
			<path id="XMLID_5822_" class="st14" d="M115.2,319.8c-2,0-3.8-0.4-5.2-1.2c-1.2-0.7-1.9-1.6-1.9-2.5s0.7-1.8,1.9-2.5
				c1.4-0.8,3.2-1.2,5.2-1.2c2,0,3.8,0.4,5.2,1.2c1.2,0.7,1.9,1.6,1.9,2.5s-0.7,1.8-1.9,2.5C119.1,319.4,117.2,319.8,115.2,319.8z"
				/>
		</g>
		<g id="XMLID_824_">
			<g>
				<defs>
					<path id="SVGID_2_" d="M115,319.8c-1.7,0-3.9-0.6-5-1.2c-1.2-0.7-1.9-1.5-1.9-2.5c0-0.7-3.7-19.4-3.7-19.4l10.3-11.7l14.2,10.9
						c0,0-2,13.3-2.5,18c-0.1,0.9-4.3,2-4.3,2.2c0,1.5-1.5,2.3-2.6,2.8C118.6,319.5,116.8,319.9,115,319.8z"/>
				</defs>
				<clipPath id="SVGID_3_">
					<use xlink:href="#SVGID_2_"  style="overflow:visible;"/>
				</clipPath>
				<g id="XMLID_754_" class="st15">
					<g id="Brush_2_">
						<g id="XMLID_814_">
							<path id="XMLID_816_" class="st8" d="M110.9,305.2L110.9,305.2c0,0,1.4,5.3,2.2,10.7c0.8,5.3,0.6,11.2,0.5,12.2v0v0l0,0
								c0,0.1-0.1,0.2-0.2,0.3c-0.2,0.1-0.4,0-0.6-0.1c0,0,0,0,0-0.1l0,0c0,0-2.3-6.6-3-11.8c-0.7-5.2-0.8-10.8-0.8-10.8l0,0
								c0-0.1,0.1-0.3,0.2-0.4c0.3-0.3,1-0.4,1.4-0.2C110.7,305,110.8,305.1,110.9,305.2z"/>
							<path id="XMLID_815_" class="st16" d="M112.8,328.2C112.8,328.2,112.8,328.2,112.8,328.2L112.8,328.2c0-0.1-2.3-6.7-3-11.9
								c-0.5-3.5-0.7-7.2-0.8-9.2l1.2,0c0,0,2.8,21.3,3.1,21.2C113.2,328.5,112.9,328.4,112.8,328.2z"/>
						</g>
						<g>
							<path id="XMLID_813_" class="st17" d="M109.8,304.9c-0.2-0.3-1.4-1.9-1.3-3.3c0.2,0,0.3-0.1,0.5-0.2c0.6-0.4,0.5-0.9,0.9-1.3
								c0.4-0.3,1.1,0.4,1.1,0.4l0,0c0.3,0.7,0.7,1.4,0.6,2.5c-0.1,1.4-0.9,2.3-0.9,2.3l-1.9,0.3l0,0L109.8,304.9z"/>
						</g>
						<path id="XMLID_805_" class="st18" d="M107.2,302c0.3-0.5,0.8-0.4,1.3-0.5c-0.1,1.4,1.1,3,1.3,3.3l-0.9,0.6
							c-0.1-0.2-0.3-0.3-0.5-0.5c0,0-0.1-0.1-0.1-0.1c-0.1-0.1-0.2-0.2-0.2-0.3c-0.1-0.2-0.2-0.4-0.3-0.5c-0.1-0.1-0.1-0.3-0.2-0.4
							c-0.1-0.3-0.2-0.6-0.3-1C107.2,302.4,107.2,302.2,107.2,302z"/>
						<g>
							<path class="st8" d="M107.2,302c0-0.1,0-0.2,0-0.3c0,0,0,0,0,0c0-0.1,0-0.1,0-0.2c0,0,0,0,0-0.1c0,0,0,0,0-0.1
								c0,0,0-0.1,0-0.1c0,0,0-0.1,0-0.1c0-0.1,0.1-0.2,0.1-0.3s0.1-0.2,0.1-0.2c0-0.1,0.1-0.2,0.1-0.2c0.3-0.5,0.8-1,1.1-1.2
								c0,0,0.1,0,0.1-0.1c0,0,0,0,0,0c0,0,0.1,0,0.1-0.1c0.3-0.2,0.5-0.3,0.8-0.4c0.1,0,0.2-0.1,0.3-0.1s0.2,0,0.3-0.1
								c0,0,0.1,0,0.1,0s0.1,0,0.1,0c0.1,0,0.1,0,0.2,0c0.1,0,0.2,0,0.2,0s-0.4,0.5-0.2,1.5c0.1,0.2,0.1,0.4,0.2,0.6
								c0,0-0.7-0.7-1.1-0.4c-0.4,0.3-0.3,0.9-0.9,1.3c-0.2,0.1-0.4,0.2-0.5,0.2C108,301.6,107.6,301.5,107.2,302L107.2,302z"/>
							<path id="XMLID_804_" class="st16" d="M111.1,298.5c0,0-1.5,0.5-2.3,2.4c-0.1,0.2-0.2,0.5-0.2,0.7c-0.5,0.1-1,0-1.3,0.5v0
								c0-0.1,0-0.2,0-0.3c0,0,0,0,0,0c0-0.1,0-0.1,0-0.2c0,0,0,0,0-0.1c0,0,0,0,0-0.1c0,0,0-0.1,0-0.1c0,0,0-0.1,0-0.1
								c0-0.1,0.1-0.2,0.1-0.3s0.1-0.2,0.1-0.2c0-0.1,0.1-0.2,0.1-0.2c0.3-0.5,0.8-1,1.1-1.2c0,0,0.1,0,0.1-0.1c0,0,0,0,0,0
								c0,0,0.1,0,0.1-0.1c0.3-0.2,0.5-0.3,0.8-0.4c0.1,0,0.2-0.1,0.3-0.1s0.2,0,0.3-0.1c0,0,0.1,0,0.1,0s0.1,0,0.1,0
								c0.1,0,0.1,0,0.2,0C111,298.5,111.1,298.5,111.1,298.5L111.1,298.5z"/>
						</g>
						<g id="XMLID_799_">
							<path id="XMLID_803_" class="st19" d="M108.9,305.5c0-0.1,0.1-0.3,0.2-0.4c0.3-0.3,1-0.4,1.4-0.2c0.2,0.1,0.3,0.2,0.3,0.3
								c0.2,0.7,0.4,1.5,0.6,2.4c0-0.2-0.2-0.3-0.4-0.4c-0.5-0.2-1.3-0.1-1.7,0.2c-0.2,0.2-0.3,0.4-0.3,0.5
								C109,307,108.9,306.1,108.9,305.5z"/>
							<path id="XMLID_802_" class="st4" d="M110.2,307.1c-0.3,0-0.7,0.1-0.9,0.3c-0.2,0.2-0.3,0.4-0.3,0.5c0-1-0.1-1.9-0.1-2.5
								c0-0.1,0.1-0.3,0.2-0.4c0.2-0.1,0.4-0.2,0.7-0.3l0,0L110.2,307.1L110.2,307.1z"/>
						</g>
					</g>
				</g>
			</g>
			<g>
				<defs>
					<path id="SVGID_4_" d="M115,319.8c-1.7,0-3.9-0.6-5-1.2c-1.2-0.7-1.9-1.5-1.9-2.5c0-0.7-3.7-19.4-3.7-19.4l10.3-11.7l14.2,10.9
						c0,0-2,13.3-2.5,18c-0.1,0.9-4.3,2-4.3,2.2c0,1.5-1.5,2.3-2.6,2.8C118.6,319.5,116.8,319.9,115,319.8z"/>
				</defs>
				<clipPath id="SVGID_5_">
					<use xlink:href="#SVGID_4_"  style="overflow:visible;"/>
				</clipPath>
				<g id="XMLID_790_" class="st20">
					<g id="Brush_3_">
						<g id="XMLID_821_">
							<path id="XMLID_823_" class="st8" d="M116,294.4L116,294.4c0,0,0.8,17.5,0.9,22.9c0.1,5.4-0.9,11.2-1.1,12.1v0v0l0,0
								c0,0.1-0.1,0.2-0.2,0.3c-0.2,0.1-0.4,0-0.5-0.2c0,0,0-0.1,0-0.1l0,0c0,0-1.4-6.9-1.5-12.1c-0.1-5.3,0.5-22.9,0.5-22.9l0,0
								c0-0.1,0.1-0.3,0.3-0.4c0.4-0.2,1-0.2,1.4,0C115.8,294.1,115.9,294.2,116,294.4z"/>
							<path id="XMLID_822_" class="st21" d="M115,329.5C115,329.5,115,329.4,115,329.5L115,329.5c0-0.1-1.4-6.9-1.5-12.2
								c0-3.5,0.1-19.3,0.3-21.3l1.2,0.2c0,0,0.1,33.5,0.4,33.5C115.3,329.8,115.1,329.7,115,329.5z"/>
						</g>
						<g>
							<path id="XMLID_820_" class="st17" d="M115,293.9c-0.2-0.3-1.1-2-0.8-3.4c0.2,0,0.3,0,0.5-0.1c0.7-0.3,0.6-0.9,1.1-1.1
								c0.5-0.3,1.1,0.5,1.1,0.5l0,0c0.2,0.7,0.5,1.5,0.3,2.5c-0.3,1.4-1.2,2.1-1.2,2.1l-1.9,0l0,0L115,293.9z"/>
						</g>
						<path id="XMLID_819_" class="st18" d="M112.8,290.7c0.4-0.5,0.8-0.3,1.4-0.3c-0.3,1.4,0.7,3.1,0.8,3.4l-1,0.5
							c-0.1-0.2-0.3-0.4-0.4-0.6c0,0-0.1-0.1-0.1-0.2c-0.1-0.1-0.1-0.2-0.2-0.3c-0.1-0.2-0.2-0.4-0.3-0.6c-0.1-0.1-0.1-0.3-0.1-0.4
							c-0.1-0.3-0.1-0.6-0.2-1C112.8,291.1,112.8,290.9,112.8,290.7z"/>
						<g>
							<path class="st8" d="M112.8,290.7c0-0.1,0-0.2,0.1-0.2c0,0,0,0,0,0c0-0.1,0-0.1,0.1-0.2c0,0,0,0,0-0.1c0,0,0,0,0,0
								c0,0,0-0.1,0-0.1c0,0,0-0.1,0.1-0.1c0-0.1,0.1-0.2,0.1-0.2c0.1-0.1,0.1-0.2,0.2-0.2s0.1-0.1,0.2-0.2c0.4-0.5,0.9-0.9,1.3-1.1
								c0,0,0.1,0,0.1-0.1c0,0,0,0,0,0c0,0,0.1,0,0.1-0.1c0.3-0.1,0.6-0.2,0.8-0.3c0.1,0,0.2,0,0.3-0.1s0.2,0,0.3,0
								c0.1,0,0.1,0,0.1,0s0.1,0,0.1,0c0.1,0,0.1,0,0.2,0c0.1,0,0.2,0,0.2,0s-0.5,0.5-0.4,1.4c0,0.2,0.1,0.4,0.2,0.6
								c0,0-0.6-0.8-1.1-0.5c-0.5,0.3-0.4,0.9-1.1,1.1c-0.2,0.1-0.4,0.1-0.5,0.1C113.6,290.4,113.2,290.2,112.8,290.7
								C112.8,290.7,112.8,290.7,112.8,290.7z"/>
							<path id="XMLID_818_" class="st7" d="M117,287.7c0,0-1.5,0.3-2.6,2c-0.1,0.2-0.2,0.5-0.3,0.7c-0.5,0-1-0.2-1.4,0.3v0
								c0-0.1,0-0.2,0.1-0.2c0,0,0,0,0,0c0-0.1,0-0.1,0.1-0.2c0,0,0,0,0-0.1c0,0,0,0,0,0c0,0,0-0.1,0-0.1c0,0,0-0.1,0.1-0.1
								c0-0.1,0.1-0.2,0.1-0.2c0.1-0.1,0.1-0.2,0.2-0.2s0.1-0.1,0.2-0.2c0.4-0.5,0.9-0.9,1.3-1.1c0,0,0.1,0,0.1-0.1c0,0,0,0,0,0
								c0,0,0.1,0,0.1-0.1c0.3-0.1,0.6-0.2,0.8-0.3c0.1,0,0.2,0,0.3-0.1c0.1,0,0.2,0,0.3,0c0.1,0,0.1,0,0.1,0s0.1,0,0.1,0
								c0.1,0,0.1,0,0.2,0C117,287.7,117,287.7,117,287.7L117,287.7z"/>
						</g>
						<g id="XMLID_795_">
							<path id="XMLID_817_" class="st19" d="M114,294.4c0-0.1,0.1-0.2,0.3-0.4c0.4-0.2,1-0.2,1.4,0c0.2,0.1,0.3,0.2,0.3,0.4
								c0.1,0.8,0.2,1.6,0.3,2.5c0-0.2-0.1-0.3-0.4-0.5c-0.5-0.3-1.3-0.3-1.7,0c-0.2,0.1-0.3,0.3-0.3,0.5
								C113.9,295.9,113.9,295,114,294.4z"/>
							<path id="XMLID_798_" class="st4" d="M115.1,296.2c-0.3,0-0.7,0.1-1,0.2c-0.2,0.1-0.3,0.3-0.3,0.5c0.1-1,0.2-1.9,0.2-2.5
								c0-0.1,0.1-0.2,0.3-0.4c0.2-0.1,0.4-0.2,0.7-0.2l0,0L115.1,296.2L115.1,296.2z"/>
						</g>
					</g>
				</g>
			</g>
			<g>
				<defs>
					<path id="SVGID_6_" d="M115,319.8c-1.7,0-3.9-0.6-5-1.2c-1.2-0.7-1.9-1.5-1.9-2.5c0-0.7-3.7-19.4-3.7-19.4l10.3-11.7l14.2,10.9
						c0,0-2,13.3-2.5,18c-0.1,0.9-4.3,2-4.3,2.2c0,1.5-1.5,2.3-2.6,2.8C118.6,319.5,116.8,319.9,115,319.8z"/>
				</defs>
				<clipPath id="SVGID_7_">
					<use xlink:href="#SVGID_6_"  style="overflow:visible;"/>
				</clipPath>
				<g id="Brush_1_" class="st22">
					<g id="XMLID_683_">
						<path id="XMLID_691_" class="st17" d="M118.8,312.6l-1.3,10.4c0,0.2,0.1,0.4,0.3,0.6c0.5,0.4,1.4,0.5,1.9,0.2
							c0.3-0.1,0.4-0.3,0.5-0.5l1.3-10.4L118.8,312.6z"/>
						<polygon id="XMLID_690_" class="st18" points="121.2,315.6 118.3,316.9 118.8,312.6 121.6,312.9 						"/>
					</g>
					<g id="XMLID_260_">
						<g id="XMLID_536_">
							<g id="XMLID_656_">
								<path id="XMLID_674_" class="st6" d="M123.9,304.8l-0.3,2.1l2-0.8l-0.5,4.4c-0.2,1.3-1.3,2.8-2.5,3.3l-3.4,1.5
									c-0.6,0.2-1.1,0.2-1.4,0c0,0-1.5-1.1-1.8-1.4c-0.3-0.3-0.5-0.7-0.4-1.4l0.5-4.4L123.9,304.8z"/>
								<path id="XMLID_659_" class="st5" d="M119.2,315.2l3.4-1.5c1.2-0.5,2.3-2,2.5-3.3l0.5-4.4l-7.8,3.3l-0.5,4.4
									C117.1,315,118,315.7,119.2,315.2z"/>
								<polygon id="XMLID_658_" class="st11" points="117.8,309.4 125.7,306.1 126.4,299.7 118.6,303 								"/>
								<polygon id="XMLID_657_" class="st19" points="117.8,309.4 118.6,303 116.9,301.8 116.1,308.1 								"/>
							</g>
							<polygon id="XMLID_646_" class="st8" points="117.6,311.3 125.4,308 125.3,308.8 117.5,312.2 							"/>
							<polygon id="XMLID_626_" class="st9" points="117.6,311.3 115.9,310 115.8,310.9 117.5,312.2 							"/>
							<polygon id="XMLID_625_" class="st8" points="117.6,311.3 115.9,310 115.8,310.9 117.5,312.2 							"/>
						</g>
						<path id="XMLID_525_" class="st9" d="M116.7,303.7c0,0,0.4,1.6,1.6,1.8l0.3-2.5l-1.7-1.3L116.7,303.7z"/>
						<path id="XMLID_524_" class="st9" d="M116.7,303.7c0,0,0.4,1.6,1.6,1.8l0.3-2.5l-1.7-1.3L116.7,303.7z"/>
						<path id="XMLID_480_" class="st23" d="M118.3,305.5c0,0,1.2,0.8,2.5,0c0.9-0.5,1.5-2.8,3.2-2.6c1.2,0.1,1.8,1.5,1.8,1.5
							l0.6-4.6l-7.8,3.3L118.3,305.5z"/>
						<polygon id="XMLID_430_" class="st9" points="126.4,299.7 124.7,298.5 116.9,301.8 118.6,303 						"/>
						<polygon id="XMLID_320_" class="st8" points="126.4,299.7 124.7,298.5 116.9,301.8 118.6,303 						"/>
					</g>
				</g>
			</g>
		</g>
	</g>
</g>
<g>
	<path class="st24" d="M205.5,272.7l-65.2-37.6c-1.5-0.9-1.5-3,0-3.8l62-35.8l69.4,40.1c1.5,0.9,1.5,3,0,3.8l-57.8,33.4
		C211.3,274.2,208.1,274.2,205.5,272.7z"/>
	<g>
		<g>
			<path class="st8" d="M203.6,175.4c0-4.1-2.9-5.8-6.5-3.8l-61,35.1c-1,0.6-1.8,1.9-1.8,3.1s0.8,1.6,1.8,1l61-35.1
				c1.6-0.9,2.9-0.2,2.9,1.7l0,6.8c1.2-0.1,2.4-0.1,3.6-0.1L203.6,175.4z"/>
			<path class="st8" d="M136.1,223.2l61-22.2c3.6-2.1,6.5-7.1,6.5-11.3v-5.5c-1.2,0-2.4,0-3.6,0.1l0,7.5c0,1.9-1.3,4.1-2.9,5.1
				l-61,22.2c-1,0.6-1.8,1.9-1.8,3.1C134.4,223.3,135.2,223.8,136.1,223.2z"/>
		</g>
		<polygon class="st7" points="134.8,223.3 209,266.2 271.8,228.8 276.8,221.3 276.3,223.9 274.9,217.1 158.4,221.5 137.8,220.2 		
			"/>
		<polygon class="st25" points="137.3,210.3 137.3,219.5 209,260.9 210.9,252.2 		"/>
		<polygon class="st8" points="275.9,214.1 201.8,171.3 135,210.1 134.9,211.1 209.1,254 		"/>
		<g>
			<path class="st26" d="M252.3,236.1l17.4-10.3c1.5-1,2.6-3.1,2.6-4.9l0-1.4c0-1.1-0.5-1.8-1.2-2l-34.3,19.1l-27.9,15.1l0,9.2
				L252.3,236.1z"/>
		</g>
		<path class="st9" d="M211.4,252.6L137.8,210l-1.6-0.9l-1.4-0.8c-0.3,0.5-0.5,1.1-0.5,1.7c0,0.6,0.2,0.9,0.5,1.1l0,0l0,0h0
			l74.2,42.9L211.4,252.6z"/>
		<polygon class="st26" points="208.1,265.7 209,266.2 209.2,265.9 208.6,265.5 		"/>
		<polygon class="st26" points="208.1,253.4 209.1,253.9 208.8,253.4 		"/>
		<g>
			<path class="st8" d="M210.4,249.7l61-35.1c3.6-2.1,6.5-0.4,6.5,3.8l0,1.4c0,4.1-2.9,9.2-6.5,11.3l-61,35.1c-1,0.6-1.8,0.1-1.8-1
				c0-1.1,0.8-2.5,1.8-3.1l61-35.1c1.6-0.9,2.9-3.2,2.9-5.1l0-1.4c0-1.9-1.3-2.6-2.9-1.7l-61,35.1c-1,0.6-1.8,0.1-1.8-1
				C208.6,251.7,209.4,250.3,210.4,249.7z"/>
		</g>
		<g>
			<path class="st25" d="M208.5,265.1c0-1.1,0.8-2.5,1.8-3.1l61-35.1c1.6-0.9,2.9-3.2,2.9-5.1l0-1.4c0-1.2-0.6-2-1.4-2.1
				c0.3,0.4,0.4,0.9,0.4,1.5l0,1.4c0,1.9-1.3,4.1-2.9,5.1l-61,35.1c-1,0.6-1.8,2-1.8,3.1c0,0.9,0.5,1.3,1.1,1.3
				C208.6,265.6,208.5,265.4,208.5,265.1z"/>
			<path class="st25" d="M208.6,252.8c0-1.1,0.8-2.5,1.8-3.1l61-35.1c1.5-0.9,3-1.1,4.1-0.7c-1.2-1-3-1.1-5.1,0.1l-61,35.1
				c-1,0.6-1.8,1.9-1.8,3.1c0,0.9,0.5,1.3,1.1,1.3C208.6,253.3,208.6,253.1,208.6,252.8z"/>
		</g>
	</g>
	<g>
		<path class="st6" d="M278.4,151.2l-65.8-38c-0.8-0.4-1.5-0.5-2.2-0.3v0l-0.1,0.1c0,0,0,0,0,0l-2.4,0.9l2.1,1.1c0,0,0,0.1,0,0.1
			l-10.7,48.8c-0.5,2.4,0.5,5.3,2.4,6.4l64.2,37.1l-0.2,2.7l2.6-1c0.9-0.4,1.6-1.3,1.9-2.6l10.7-48.8
			C281.3,155.1,280.2,152.2,278.4,151.2z"/>
		<path class="st23" d="M278.4,151.2l-65.8-38c-0.8-0.4-1.5-0.5-2.2-0.3v0l-0.1,0.1c0,0,0,0,0,0l-2.4,0.9l2.1,1.1c0,0,0,0.1,0,0.1
			l-7.1,32.2l32.2,25.1l45.4-18.5C280,152.6,279.3,151.7,278.4,151.2z"/>
		<path class="st7" d="M275.9,158.7l5-2.1c0.1-1.9-0.7-3.9-2-5l-7.9,3.3L275.9,158.7z"/>
		<path class="st27" d="M263.3,209.7l-65.8-38c-1.9-1.1-2.9-3.9-2.4-6.4l10.7-48.8c0.5-2.4,2.5-3.6,4.3-2.5l65.8,38
			c1.9,1.1,2.9,3.9,2.4,6.4l-10.7,48.8C267.1,209.7,265.2,210.8,263.3,209.7z"/>
		<path class="st26" d="M276.6,151.9l-65.8-38c-0.9-0.5-1.8-0.5-2.6-0.1c0.6-0.1,1.3,0,2,0.3l65.8,38c1.9,1.1,2.9,3.9,2.4,6.4
			l-10.7,48.8c-0.3,1.3-0.9,2.1-1.8,2.6c1.1-0.2,2-1.2,2.4-2.8l10.7-48.8C279.5,155.8,278.5,152.9,276.6,151.9z"/>
		<path class="st26" d="M261.9,206.1L200,170.4c-1.7-1-2.7-3.6-2.2-5.8l9.8-44.6c0.5-2.2,2.3-3.2,4-2.3l61.9,35.7
			c1.7,1,2.7,3.6,2.2,5.8l-9.8,44.6C265.4,206.1,263.6,207.1,261.9,206.1z"/>
		<path class="st9" d="M261.9,206.1L200,170.4c-1.7-1-2.7-3.6-2.2-5.8l9.8-44.6c0.5-2.2,2.3-3.2,4-2.3l61.9,35.7
			c1.7,1,2.7,3.6,2.2,5.8l-9.8,44.6C265.4,206.1,263.6,207.1,261.9,206.1z"/>
		<path class="st7" d="M262.4,205.9l-61.9-35.7c-1.7-1-2.7-3.6-2.2-5.8l9.8-44.6c0.2-1.1,0.8-1.9,1.6-2.3c-1,0.2-1.8,1.2-2.1,2.6
			l-9.8,44.6c-0.5,2.2,0.5,4.8,2.2,5.8l61.9,35.7c0.8,0.5,1.7,0.5,2.4,0.1C263.7,206.3,263,206.2,262.4,205.9z"/>
		<path class="st7" d="M264.2,211.4l-9-1.2l-58.1-33.5c-1.9-1.1-5.1-0.9-7.3,0.3l-41.1,23.7l-5.4-0.7v3.1h0c0,0.7,0.4,1.4,1.2,1.9
			l65.8,38c1.9,1.1,5.1,0.9,7.3-0.3l44.8-25.9c1.2-0.7,1.8-1.6,1.8-2.4l0,0L264.2,211.4L264.2,211.4z"/>
		<path class="st6" d="M220.6,190.2l-4.1-2.4h-45.3l-22.4,12.9l-5.4-0.7v3.1h0c0,0.7,0.4,1.4,1.2,1.9l65.8,38c1,0.6,2.4,0.8,3.8,0.7
			L220.6,190.2z"/>
		<path class="st23" d="M145.7,200.3l-2.4-0.3v3.1h0c0,0.7,0.4,1.4,1.2,1.9l1.2,0.7L145.7,200.3L145.7,200.3z"/>
		<path class="st9" d="M211,243.3c1.8,0.7,4.3,0.5,6.2-0.4V236H211V243.3z"/>
		<path class="st28" d="M210.6,239.8l-66.1-37.6c-1.9-1.1-1.6-2.9,0.5-4.2l44.6-26.2c2.1-1.3,5.4-1.4,7.3-0.4l66.1,37.6
			c1.9,1.1,1.6,2.9-0.5,4.2l-44.6,26.2C215.7,240.7,212.5,240.9,210.6,239.8z"/>
		<path class="st26" d="M262.4,212.6l-44.8,25.9c-2.1,1.2-5.4,1.4-7.3,0.3l-65.8-38c-0.6-0.4-1-0.8-1.2-1.3
			c-0.3,0.9,0.1,1.8,1.2,2.4l65.8,38c1.9,1.1,5.1,0.9,7.3-0.3l44.8-25.9c1.4-0.8,2-1.9,1.7-2.9C263.9,211.4,263.3,212.1,262.4,212.6
			z"/>
		<g>
			<path class="st29" d="M172.6,189.3l-3-1.7c-0.2-0.1-0.2-0.4,0.1-0.5l3.5-2c0.3-0.2,0.7-0.2,0.9,0l3,1.7c0.2,0.1,0.2,0.4-0.1,0.5
				l-3.5,2C173.2,189.4,172.8,189.4,172.6,189.3z"/>
			<path class="st29" d="M177.1,192l-3-1.7c-0.2-0.1-0.2-0.4,0.1-0.5l3.5-2c0.3-0.2,0.7-0.2,0.9,0l3,1.7c0.2,0.1,0.2,0.4-0.1,0.5
				l-3.5,2C177.8,192.1,177.4,192.1,177.1,192z"/>
			<path class="st29" d="M181.8,194.6l-3-1.7c-0.2-0.1-0.2-0.4,0.1-0.5l3.5-2c0.3-0.2,0.7-0.2,0.9,0l3,1.7c0.2,0.1,0.2,0.4-0.1,0.5
				l-3.5,2C182.4,194.7,182,194.8,181.8,194.6z"/>
			<path class="st29" d="M188.1,192.4l-3-1.7c-0.2-0.1-0.2-0.4,0.1-0.5l2.9-1.7c0.3-0.2,0.7-0.2,0.9,0l3,1.7
				c0.2,0.1,0.2,0.4-0.1,0.5l-2.9,1.7C188.8,192.6,188.3,192.6,188.1,192.4z"/>
			<path class="st29" d="M192.7,195.1l-3-1.7c-0.2-0.1-0.2-0.4,0.1-0.5l2.9-1.7c0.3-0.2,0.7-0.2,0.9,0l3,1.7
				c0.2,0.1,0.2,0.4-0.1,0.5l-2.9,1.7C193.4,195.2,192.9,195.2,192.7,195.1z"/>
			<path class="st29" d="M197.3,197.7l-3-1.7c-0.2-0.1-0.2-0.4,0.1-0.5l2.9-1.7c0.3-0.2,0.7-0.2,0.9,0l3,1.7
				c0.2,0.1,0.2,0.4-0.1,0.5l-2.9,1.7C198,197.9,197.5,197.9,197.3,197.7z"/>
			<path class="st29" d="M201.9,200.4l-3-1.7c-0.2-0.1-0.2-0.4,0.1-0.5l2.9-1.7c0.3-0.2,0.7-0.2,0.9,0l3,1.7
				c0.2,0.1,0.2,0.4-0.1,0.5l-2.9,1.7C202.6,200.5,202.1,200.5,201.9,200.4z"/>
			<path class="st29" d="M206.5,203.1l-3-1.7c-0.2-0.1-0.2-0.4,0.1-0.5l2.9-1.7c0.3-0.2,0.7-0.2,0.9,0l3,1.7
				c0.2,0.1,0.2,0.4-0.1,0.5l-2.9,1.7C207.1,203.2,206.7,203.2,206.5,203.1z"/>
			<path class="st29" d="M211.1,205.7l-3-1.7c-0.2-0.1-0.2-0.4,0.1-0.5l2.9-1.7c0.3-0.2,0.7-0.2,0.9,0l3,1.7
				c0.2,0.1,0.2,0.4-0.1,0.5l-2.9,1.7C211.8,205.8,211.3,205.8,211.1,205.7z"/>
			<path class="st29" d="M215.7,208.4l-3-1.7c-0.2-0.1-0.2-0.4,0.1-0.5l2.9-1.7c0.3-0.2,0.7-0.2,0.9,0l3,1.7
				c0.2,0.1,0.2,0.4-0.1,0.5l-2.9,1.7C216.4,208.5,215.9,208.5,215.7,208.4z"/>
			<path class="st29" d="M220.3,211l-3-1.7c-0.2-0.1-0.2-0.4,0.1-0.5l2.9-1.7c0.3-0.2,0.7-0.2,0.9,0l3,1.7c0.2,0.1,0.2,0.4-0.1,0.5
				l-2.9,1.7C220.9,211.1,220.5,211.1,220.3,211z"/>
			<path class="st29" d="M224.9,213.7l-3-1.7c-0.2-0.1-0.2-0.4,0.1-0.5l2.9-1.7c0.3-0.2,0.7-0.2,0.9,0l3,1.7
				c0.2,0.1,0.2,0.4-0.1,0.5l-2.9,1.7C225.5,213.8,225.1,213.8,224.9,213.7z"/>
			<path class="st29" d="M229.5,216.3l-3-1.7c-0.2-0.1-0.2-0.4,0.1-0.5l2.9-1.7c0.3-0.2,0.7-0.2,0.9,0l3,1.7
				c0.2,0.1,0.2,0.4-0.1,0.5l-2.9,1.7C230.1,216.4,229.7,216.5,229.5,216.3z"/>
			<path class="st29" d="M194.9,191.2l-3-1.7c-0.2-0.1-0.2-0.4,0.1-0.5l2.9-1.7c0.3-0.2,0.7-0.2,0.9,0l3,1.7
				c0.2,0.1,0.2,0.4-0.1,0.5l-2.9,1.7C195.5,191.3,195.1,191.3,194.9,191.2z"/>
			<path class="st29" d="M190.2,188.5l-3-1.7c-0.2-0.1-0.2-0.4,0.1-0.5l2.9-1.7c0.3-0.2,0.7-0.2,0.9,0l3,1.7
				c0.2,0.1,0.2,0.4-0.1,0.5l-2.9,1.7C190.9,188.6,190.4,188.6,190.2,188.5z"/>
			<path class="st29" d="M185.5,185.8l-6.4-3.7c-0.2-0.1-0.2-0.4,0.1-0.5l2.9-1.7c0.3-0.2,0.7-0.2,0.9,0l6.4,3.7
				c0.2,0.1,0.2,0.4-0.1,0.5l-2.9,1.7C186.2,185.9,185.8,185.9,185.5,185.8z"/>
			<path class="st29" d="M188.8,182.5l-5.2-3c-0.2-0.1-0.2-0.4,0.1-0.5l2.9-1.7c0.3-0.2,0.7-0.2,0.9,0l5.2,3
				c0.2,0.1,0.2,0.4-0.1,0.5l-2.9,1.7C189.5,182.6,189,182.6,188.8,182.5z"/>
			<path class="st29" d="M199.5,193.8l-3-1.7c-0.2-0.1-0.2-0.4,0.1-0.5l2.9-1.7c0.3-0.2,0.7-0.2,0.9,0l3,1.7
				c0.2,0.1,0.2,0.4-0.1,0.5l-2.9,1.7C200.1,193.9,199.7,194,199.5,193.8z"/>
			<path class="st29" d="M204.1,196.5l-3-1.7c-0.2-0.1-0.2-0.4,0.1-0.5l2.9-1.7c0.3-0.2,0.7-0.2,0.9,0l3,1.7
				c0.2,0.1,0.2,0.4-0.1,0.5l-2.9,1.7C204.7,196.6,204.3,196.6,204.1,196.5z"/>
			<path class="st29" d="M208.7,199.1l-3-1.7c-0.2-0.1-0.2-0.4,0.1-0.5l2.9-1.7c0.3-0.2,0.7-0.2,0.9,0l3,1.7
				c0.2,0.1,0.2,0.4-0.1,0.5l-2.9,1.7C209.3,199.3,208.9,199.3,208.7,199.1z"/>
			<path class="st29" d="M213.3,201.8l-3-1.7c-0.2-0.1-0.2-0.4,0.1-0.5l2.9-1.7c0.3-0.2,0.7-0.2,0.9,0l3,1.7
				c0.2,0.1,0.2,0.4-0.1,0.5l-2.9,1.7C213.9,201.9,213.5,201.9,213.3,201.8z"/>
			<path class="st29" d="M217.9,204.4l-3-1.7c-0.2-0.1-0.2-0.4,0.1-0.5l2.9-1.7c0.3-0.2,0.7-0.2,0.9,0l3,1.7
				c0.2,0.1,0.2,0.4-0.1,0.5l-2.9,1.7C218.5,204.6,218.1,204.6,217.9,204.4z"/>
			<path class="st29" d="M222.5,207.1l-3-1.7c-0.2-0.1-0.2-0.4,0.1-0.5l2.9-1.7c0.3-0.2,0.7-0.2,0.9,0l3,1.7
				c0.2,0.1,0.2,0.4-0.1,0.5l-2.9,1.7C223.1,207.2,222.7,207.2,222.5,207.1z"/>
			<path class="st29" d="M227.1,209.8l-3-1.7c-0.2-0.1-0.2-0.4,0.1-0.5l2.9-1.7c0.3-0.2,0.7-0.2,0.9,0l3,1.7
				c0.2,0.1,0.2,0.4-0.1,0.5l-2.9,1.7C227.7,209.9,227.3,209.9,227.1,209.8z"/>
			<path class="st29" d="M231.7,212.4l-3-1.7c-0.2-0.1-0.2-0.4,0.1-0.5l2.9-1.7c0.3-0.2,0.7-0.2,0.9,0l3,1.7
				c0.2,0.1,0.2,0.4-0.1,0.5l-2.9,1.7C232.3,212.5,231.9,212.6,231.7,212.4z"/>
			<path class="st29" d="M236.3,215.1l-3-1.7c-0.2-0.1-0.2-0.4,0.1-0.5l2.9-1.7c0.3-0.2,0.7-0.2,0.9,0l3,1.7
				c0.2,0.1,0.2,0.4-0.1,0.5l-2.9,1.7C236.9,215.2,236.5,215.2,236.3,215.1z"/>
			<path class="st29" d="M244.4,219.8l-6.5-3.8c-0.2-0.1-0.2-0.4,0.1-0.5l2.9-1.7c0.3-0.2,0.7-0.2,0.9,0l6.5,3.8
				c0.2,0.1,0.2,0.4-0.1,0.5l-2.9,1.7C245.1,219.9,244.7,219.9,244.4,219.8z"/>
			<path class="st29" d="M253.4,214.6l-5.5-3.2c-0.2-0.1-0.2-0.4,0.1-0.5l2.9-1.7c0.3-0.2,0.7-0.2,0.9,0l5.5,3.2
				c0.2,0.1,0.2,0.4-0.1,0.5l-2.9,1.7C254,214.7,253.6,214.8,253.4,214.6z"/>
			<path class="st29" d="M207.5,193.3l-3-1.7c-0.2-0.1-0.2-0.4,0.1-0.5l2.9-1.7c0.3-0.2,0.7-0.2,0.9,0l3,1.7
				c0.2,0.1,0.2,0.4-0.1,0.5l-2.9,1.7C208.2,193.4,207.8,193.4,207.5,193.3z"/>
			<path class="st29" d="M202.8,190.6l-3-1.7c-0.2-0.1-0.2-0.4,0.1-0.5l2.9-1.7c0.3-0.2,0.7-0.2,0.9,0l3,1.7
				c0.2,0.1,0.2,0.4-0.1,0.5l-2.9,1.7C203.5,190.7,203.1,190.7,202.8,190.6z"/>
			<path class="st29" d="M198.1,187.9l-3-1.7c-0.2-0.1-0.2-0.4,0.1-0.5l2.9-1.7c0.3-0.2,0.7-0.2,0.9,0l3,1.7
				c0.2,0.1,0.2,0.4-0.1,0.5l-2.9,1.7C198.8,188,198.3,188,198.1,187.9z"/>
			<path class="st29" d="M193.4,185.1l-3-1.7c-0.2-0.1-0.2-0.4,0.1-0.5l2.9-1.7c0.3-0.2,0.7-0.2,0.9,0l3,1.7
				c0.2,0.1,0.2,0.4-0.1,0.5l-2.9,1.7C194.1,185.3,193.6,185.3,193.4,185.1z"/>
			<path class="st29" d="M212.1,196l-3-1.7c-0.2-0.1-0.2-0.4,0.1-0.5l2.9-1.7c0.3-0.2,0.7-0.2,0.9,0l3,1.7c0.2,0.1,0.2,0.4-0.1,0.5
				l-2.9,1.7C212.8,196.1,212.4,196.1,212.1,196z"/>
			<path class="st29" d="M216.7,198.6l-3-1.7c-0.2-0.1-0.2-0.4,0.1-0.5l2.9-1.7c0.3-0.2,0.7-0.2,0.9,0l3,1.7
				c0.2,0.1,0.2,0.4-0.1,0.5l-2.9,1.7C217.4,198.7,217,198.8,216.7,198.6z"/>
			<path class="st29" d="M221.3,201.3l-3-1.7c-0.2-0.1-0.2-0.4,0.1-0.5l2.9-1.7c0.3-0.2,0.7-0.2,0.9,0l3,1.7
				c0.2,0.1,0.2,0.4-0.1,0.5l-2.9,1.7C222,201.4,221.6,201.4,221.3,201.3z"/>
			<path class="st29" d="M225.9,203.9l-3-1.7c-0.2-0.1-0.2-0.4,0.1-0.5l2.9-1.7c0.3-0.2,0.7-0.2,0.9,0l3,1.7
				c0.2,0.1,0.2,0.4-0.1,0.5l-2.9,1.7C226.6,204.1,226.2,204.1,225.9,203.9z"/>
			<path class="st29" d="M230.5,206.6l-3-1.7c-0.2-0.1-0.2-0.4,0.1-0.5l2.9-1.7c0.3-0.2,0.7-0.2,0.9,0l3,1.7
				c0.2,0.1,0.2,0.4-0.1,0.5l-2.9,1.7C231.2,206.7,230.8,206.7,230.5,206.6z"/>
			<path class="st29" d="M235.1,209.2l-3-1.7c-0.2-0.1-0.2-0.4,0.1-0.5l2.9-1.7c0.3-0.2,0.7-0.2,0.9,0l3,1.7
				c0.2,0.1,0.2,0.4-0.1,0.5l-2.9,1.7C235.8,209.4,235.4,209.4,235.1,209.2z"/>
			<path class="st29" d="M239.7,211.9l-3-1.7c-0.2-0.1-0.2-0.4,0.1-0.5l2.9-1.7c0.3-0.2,0.7-0.2,0.9,0l3,1.7
				c0.2,0.1,0.2,0.4-0.1,0.5l-2.9,1.7C240.4,212,239.9,212,239.7,211.9z"/>
			<path class="st29" d="M244.3,214.5l-3-1.7c-0.2-0.1-0.2-0.4,0.1-0.5l2.9-1.7c0.3-0.2,0.7-0.2,0.9,0l3,1.7
				c0.2,0.1,0.2,0.4-0.1,0.5l-2.9,1.7C245,214.7,244.6,214.7,244.3,214.5z"/>
			<path class="st29" d="M248.9,217.2l-3-1.7c-0.2-0.1-0.2-0.4,0.1-0.5l2.9-1.7c0.3-0.2,0.7-0.2,0.9,0l3,1.7
				c0.2,0.1,0.2,0.4-0.1,0.5l-2.9,1.7C249.6,217.3,249.1,217.3,248.9,217.2z"/>
			<path class="st29" d="M205.1,186.7l-3-1.7c-0.2-0.1-0.2-0.4,0.1-0.5l2.9-1.7c0.3-0.2,0.7-0.2,0.9,0l3,1.7
				c0.2,0.1,0.2,0.4-0.1,0.5l-2.9,1.7C205.8,186.9,205.4,186.9,205.1,186.7z"/>
			<path class="st29" d="M200.5,184.1l-3-1.7c-0.2-0.1-0.2-0.4,0.1-0.5l2.9-1.7c0.3-0.2,0.7-0.2,0.9,0l3,1.7
				c0.2,0.1,0.2,0.4-0.1,0.5l-2.9,1.7C201.2,184.2,200.8,184.2,200.5,184.1z"/>
			<path class="st29" d="M196,181.5l-3-1.7c-0.2-0.1-0.2-0.4,0.1-0.5l2.9-1.7c0.3-0.2,0.7-0.2,0.9,0l3,1.7c0.2,0.1,0.2,0.4-0.1,0.5
				l-2.9,1.7C196.6,181.6,196.2,181.6,196,181.5z"/>
			<path class="st29" d="M191.4,178.8l-3-1.7c-0.2-0.1-0.2-0.4,0.1-0.5l2.9-1.7c0.3-0.2,0.7-0.2,0.9,0l3,1.7
				c0.2,0.1,0.2,0.4-0.1,0.5l-2.9,1.7C192,178.9,191.6,179,191.4,178.8z"/>
			<path class="st29" d="M196.1,176.1l-3-1.7c-0.2-0.1-0.2-0.4,0.1-0.5l1-0.6c0.3-0.2,0.7-0.2,0.9,0l3,1.7c0.2,0.1,0.2,0.4-0.1,0.5
				l-1,0.6C196.7,176.2,196.3,176.2,196.1,176.1z"/>
			<path class="st29" d="M202.1,179.6l-3-1.7c-0.2-0.1-0.2-0.4,0.1-0.5l1-0.6c0.3-0.2,0.7-0.2,0.9,0l3,1.7c0.2,0.1,0.2,0.4-0.1,0.5
				l-1,0.6C202.7,179.7,202.3,179.7,202.1,179.6z"/>
			<path class="st29" d="M206.6,182.2l-3-1.7c-0.2-0.1-0.2-0.4,0.1-0.5l1-0.6c0.3-0.2,0.7-0.2,0.9,0l3,1.7c0.2,0.1,0.2,0.4-0.1,0.5
				l-1,0.6C207.3,182.3,206.9,182.3,206.6,182.2z"/>
			<path class="st29" d="M211.2,184.8l-3-1.7c-0.2-0.1-0.2-0.4,0.1-0.5l1-0.6c0.3-0.2,0.7-0.2,0.9,0l3,1.7c0.2,0.1,0.2,0.4-0.1,0.5
				l-1,0.6C211.8,184.9,211.4,184.9,211.2,184.8z"/>
			<path class="st29" d="M215.7,187.4l-3-1.7c-0.2-0.1-0.2-0.4,0.1-0.5l1-0.6c0.3-0.2,0.7-0.2,0.9,0l3,1.7c0.2,0.1,0.2,0.4-0.1,0.5
				l-1,0.6C216.4,187.6,216,187.6,215.7,187.4z"/>
			<path class="st29" d="M241.2,202.1l-3-1.7c-0.2-0.1-0.2-0.4,0.1-0.5l1-0.6c0.3-0.2,0.7-0.2,0.9,0l3,1.7c0.2,0.1,0.2,0.4-0.1,0.5
				l-1,0.6C241.8,202.2,241.4,202.3,241.2,202.1z"/>
			<path class="st29" d="M245.7,204.8l-3-1.7c-0.2-0.1-0.2-0.4,0.1-0.5l1-0.6c0.3-0.2,0.7-0.2,0.9,0l3,1.7c0.2,0.1,0.2,0.4-0.1,0.5
				l-1,0.6C246.4,204.9,245.9,204.9,245.7,204.8z"/>
			<path class="st29" d="M250.3,207.4l-3-1.7c-0.2-0.1-0.2-0.4,0.1-0.5l1-0.6c0.3-0.2,0.7-0.2,0.9,0l3,1.7c0.2,0.1,0.2,0.4-0.1,0.5
				l-1,0.6C250.9,207.5,250.5,207.5,250.3,207.4z"/>
			<path class="st29" d="M254.8,210l-3-1.7c-0.2-0.1-0.2-0.4,0.1-0.5l1-0.6c0.3-0.2,0.7-0.2,0.9,0l3,1.7c0.2,0.1,0.2,0.4-0.1,0.5
				l-1,0.6C255.5,210.1,255.1,210.1,254.8,210z"/>
			<path class="st29" d="M209.7,189.4l-3-1.7c-0.2-0.1-0.2-0.4,0.1-0.5l2.9-1.7c0.3-0.2,0.7-0.2,0.9,0l3,1.7
				c0.2,0.1,0.2,0.4-0.1,0.5l-2.9,1.7C210.4,189.5,209.9,189.5,209.7,189.4z"/>
			<path class="st29" d="M214.3,192.1l-3-1.7c-0.2-0.1-0.2-0.4,0.1-0.5l2.9-1.7c0.3-0.2,0.7-0.2,0.9,0l3,1.7
				c0.2,0.1,0.2,0.4-0.1,0.5l-2.9,1.7C215,192.2,214.5,192.2,214.3,192.1z"/>
			<path class="st29" d="M218.9,194.7l-3-1.7c-0.2-0.1-0.2-0.4,0.1-0.5l2.9-1.7c0.3-0.2,0.7-0.2,0.9,0l3,1.7
				c0.2,0.1,0.2,0.4-0.1,0.5l-2.9,1.7C219.6,194.8,219.1,194.8,218.9,194.7z"/>
			<path class="st29" d="M223.5,197.4l-3-1.7c-0.2-0.1-0.2-0.4,0.1-0.5l2.9-1.7c0.3-0.2,0.7-0.2,0.9,0l3,1.7
				c0.2,0.1,0.2,0.4-0.1,0.5l-2.9,1.7C224.1,197.5,223.7,197.5,223.5,197.4z"/>
			<path class="st29" d="M228.1,200l-3-1.7c-0.2-0.1-0.2-0.4,0.1-0.5l2.9-1.7c0.3-0.2,0.7-0.2,0.9,0l3,1.7c0.2,0.1,0.2,0.4-0.1,0.5
				L229,200C228.8,200.1,228.3,200.1,228.1,200z"/>
			<path class="st29" d="M232.7,202.7l-3-1.7c-0.2-0.1-0.2-0.4,0.1-0.5l2.9-1.7c0.3-0.2,0.7-0.2,0.9,0l3,1.7
				c0.2,0.1,0.2,0.4-0.1,0.5l-2.9,1.7C233.4,202.8,232.9,202.8,232.7,202.7z"/>
			<path class="st29" d="M237.3,205.3l-3-1.7c-0.2-0.1-0.2-0.4,0.1-0.5l2.9-1.7c0.3-0.2,0.7-0.2,0.9,0l3,1.7
				c0.2,0.1,0.2,0.4-0.1,0.5l-2.9,1.7C237.9,205.4,237.5,205.5,237.3,205.3z"/>
			<path class="st29" d="M241.9,208l-3-1.7c-0.2-0.1-0.2-0.4,0.1-0.5l2.9-1.7c0.3-0.2,0.7-0.2,0.9,0l3,1.7c0.2,0.1,0.2,0.4-0.1,0.5
				l-2.9,1.7C242.6,208.1,242.1,208.1,241.9,208z"/>
			<path class="st29" d="M246.5,210.6l-3-1.7c-0.2-0.1-0.2-0.4,0.1-0.5l2.9-1.7c0.3-0.2,0.7-0.2,0.9,0l3,1.7
				c0.2,0.1,0.2,0.4-0.1,0.5l-2.9,1.7C247.1,210.8,246.7,210.8,246.5,210.6z"/>
			<path class="st29" d="M183.4,189.7l-8.8-5.1c-0.2-0.1-0.2-0.4,0.1-0.5l2.9-1.7c0.3-0.2,0.7-0.2,0.9,0l8.8,5.1
				c0.2,0.1,0.2,0.4-0.1,0.5l-2.9,1.7C184.1,189.8,183.7,189.9,183.4,189.7z"/>
			<path class="st29" d="M239.9,222.3l-8.8-5.1c-0.2-0.1-0.2-0.4,0.1-0.5l2.9-1.7c0.3-0.2,0.7-0.2,0.9,0l8.8,5.1
				c0.2,0.1,0.2,0.4-0.1,0.5l-2.9,1.7C240.6,222.5,240.1,222.5,239.9,222.3z"/>
			<path class="st29" d="M221.5,217.6l-3-1.7c-0.2-0.1-0.2-0.4,0.1-0.5l3.5-2c0.3-0.2,0.7-0.2,0.9,0l3,1.7c0.2,0.1,0.2,0.4-0.1,0.5
				l-3.5,2C222.2,217.7,221.8,217.7,221.5,217.6z"/>
			<path class="st29" d="M188.1,198.3l-4.8-2.8c-0.2-0.1-0.2-0.4,0.1-0.5l3.5-2c0.3-0.2,0.7-0.2,0.9,0l4.8,2.8
				c0.2,0.1,0.2,0.4-0.1,0.5l-3.5,2C188.8,198.4,188.4,198.4,188.1,198.3z"/>
			<path class="st29" d="M217.1,215l-4.8-2.8c-0.2-0.1-0.2-0.4,0.1-0.5l3.5-2c0.3-0.2,0.7-0.2,0.9,0l4.8,2.8
				c0.2,0.1,0.2,0.4-0.1,0.5l-3.5,2C217.7,215.1,217.3,215.2,217.1,215z"/>
			<path class="st29" d="M194.8,202.1l-4.8-2.8c-0.2-0.1-0.2-0.4,0.1-0.5l3.5-2c0.3-0.2,0.7-0.2,0.9,0l4.8,2.8
				c0.2,0.1,0.2,0.4-0.1,0.5l-3.5,2C195.4,202.3,195,202.3,194.8,202.1z"/>
			<path class="st29" d="M194.6,196.8l20.7,11.9c0.3,0.1,0.3,0.4,0,0.5l-3.6,2.1c-0.3,0.1-0.7,0.1-0.9,0L190,199.4L194.6,196.8z"/>
			<path class="st29" d="M234.4,222.4l3.3,1.9c0.2,0.1,0.2,0.3-0.1,0.4l-1.4,0.8c-0.2,0.1-0.6,0.1-0.8,0l-3.3-1.9
				c-0.2-0.1-0.2-0.3,0.1-0.4l1.4-0.8C233.8,222.3,234.2,222.3,234.4,222.4z"/>
			<path class="st29" d="M229.7,219.7l3.3,1.9c0.2,0.1,0.2,0.3-0.1,0.4l-1.4,0.8c-0.2,0.1-0.6,0.1-0.8,0l-3.3-1.9
				c-0.2-0.1-0.2-0.3,0.1-0.4l1.4-0.8C229.2,219.6,229.5,219.6,229.7,219.7z"/>
			<path class="st29" d="M225.1,217.1l3.3,1.9c0.2,0.1,0.2,0.3-0.1,0.4l-1.4,0.8c-0.2,0.1-0.6,0.1-0.8,0l-3.3-1.9
				c-0.2-0.1-0.2-0.3,0.1-0.4l1.4-0.8C224.6,217,224.9,216.9,225.1,217.1z"/>
			<path class="st29" d="M232.3,218.2l3.3,1.9c0.2,0.1,0.2,0.3-0.1,0.4l-1.4,0.8c-0.2,0.1-0.6,0.1-0.8,0l-3.3-1.9
				c-0.2-0.1-0.2-0.3,0.1-0.4l1.4-0.8C231.7,218.1,232.1,218.1,232.3,218.2z"/>
		</g>
		<g>
			<polygon class="st26" points="239.9,164.3 225,155.7 225.3,154.1 240.2,162.7 			"/>
			<polygon class="st6" points="249.7,170 242.3,165.7 242.6,164.1 250.1,168.4 			"/>
			<polygon class="st26" points="222.2,141.9 214.7,137.5 215.1,135.9 222.5,140.2 			"/>
			<g>
				<polygon class="st7" points="250.4,166.5 225.7,152.2 226,150.6 250.8,164.9 				"/>
				<polygon class="st7" points="241.6,169.2 224.3,159.2 224.6,157.6 241.9,167.6 				"/>
				<polygon class="st7" points="223,138.1 215.6,133.8 215.9,132.2 223.4,136.5 				"/>
				<polygon class="st7" points="258.9,193.8 251.4,189.4 251.8,187.8 259.2,192.1 				"/>
				<polygon class="st7" points="220.6,149.3 213.1,145 213.4,143.4 220.9,147.7 				"/>
			</g>
		</g>
		<g>
			<path class="st30" d="M236.8,150.5c-0.2,0.5-0.8,0.7-1.3,0.4c-0.5-0.3-0.7-0.9-0.5-1.5s0.8-0.7,1.3-0.4
				C236.8,149.3,237,150,236.8,150.5z"/>
			<path class="st30" d="M240,152.4c-0.2,0.5-0.8,0.7-1.3,0.4c-0.5-0.3-0.7-0.9-0.5-1.5s0.8-0.7,1.3-0.4
				C240,151.2,240.2,151.8,240,152.4z"/>
			<path class="st30" d="M243.2,154.2c-0.2,0.5-0.8,0.7-1.3,0.4c-0.5-0.3-0.7-0.9-0.5-1.5s0.8-0.7,1.3-0.4
				C243.2,153,243.4,153.7,243.2,154.2z"/>
			<path class="st30" d="M246.4,156.1c-0.2,0.5-0.8,0.7-1.3,0.4c-0.5-0.3-0.7-0.9-0.5-1.5s0.8-0.7,1.3-0.4
				C246.4,154.9,246.6,155.6,246.4,156.1z"/>
		</g>
	</g>
	<g>
		<path class="st24" d="M278.9,258.8c-1-0.6-2.6-0.6-3.6,0l-46.8,27c-1,0.6-1,1.5,0,2.1c1,0.6,2.6,0.6,3.6,0l46.8-27
			C279.9,260.4,279.9,259.4,278.9,258.8z"/>
		<g>
			<g>
				<path class="st31" d="M286.9,244.2L286.9,244.2c0-0.1-0.1-0.1-0.2-0.1l-2.8,0.6l1.1,1.9l1.9-2.2
					C287,244.4,287,244.3,286.9,244.2z"/>
				<g>
					<path class="st8" d="M285.8,245.6c0-0.4-0.3-0.9-0.6-1.1c-0.2-0.1-0.3-0.1-0.4-0.1c-3.3,0-6.5,0.8-9.3,2.5l-0.2,0.1l3.5,6
						l1-0.7c2.2-1.5,4-3.4,5.4-5.6l0.4-0.7C285.8,245.9,285.8,245.8,285.8,245.6z"/>
					<path class="st27" d="M279.5,251.4c0-1.6-1.1-3.5-2.5-4.2c-1.4-0.8-2.5-0.1-2.4,1.4s1.1,3.5,2.5,4.2
						C278.4,253.6,279.5,253,279.5,251.4z"/>
					<polygon class="st27" points="257.9,266 278.7,253 275.2,247.1 253.7,259 					"/>
					<path class="st25" d="M258.7,264.1c0-1.9-1.3-4.1-2.9-5c-1.6-0.9-2.9-0.1-2.9,1.7c0,1.9,1.3,4.1,2.9,5
						C257.4,266.8,258.7,266,258.7,264.1z"/>
				</g>
				<g>
					<path class="st27" d="M257.5,264.9c0-1.9-1.3-4.1-2.9-5c-1.6-0.9-2.9-0.1-2.9,1.7c0,1.9,1.3,4.1,2.9,5
						C256.2,267.5,257.5,266.7,257.5,264.9z"/>
					
						<rect x="224.8" y="267.2" transform="matrix(0.8621 -0.5067 0.5067 0.8621 -104.2733 159.4324)" class="st27" width="32" height="8.2"/>
					<path class="st27" d="M229.9,281.1c0-1.9-1.3-4.1-2.9-5s-2.9-0.1-2.9,1.7c0,1.9,1.3,4.1,2.9,5
						C228.7,283.7,229.9,282.9,229.9,281.1z"/>
					<path class="st9" d="M228.9,280.5c-0.1-1.1-0.9-2.5-2-3c-1-0.6-1.8-0.2-1.8,0.9c0.1,1.1,0.9,2.5,2,3
						C228.2,282,229,281.6,228.9,280.5z"/>
				</g>
				<g>
					<path class="st26" d="M258.9,264c0-1.9-1.3-4.1-2.9-5c-0.6-0.4-1.2-0.5-1.7-0.3c0.5-0.5,1.4-0.6,2.4-0.1c1.6,0.9,2.9,3.1,2.9,5
						c0,1.1-0.5,1.8-1.2,2C258.7,265.3,258.9,264.8,258.9,264z"/>
					<path class="st8" d="M258.9,264c0-1.9-1.3-4.1-2.9-5c-0.8-0.5-1.5-0.5-2.1-0.2l-1.6,0.9l0.7,1.3c0.1,1.7,1.3,3.6,2.7,4.5
						l0.7,1.3l1.6-0.9l0,0C258.6,265.6,258.9,265,258.9,264z"/>
					<path class="st27" d="M257.4,264.9c0-1.9-1.3-4.1-2.9-5c-1.6-0.9-2.9-0.1-2.9,1.7c0,1.9,1.3,4.1,2.9,5
						C256.1,267.5,257.4,266.8,257.4,264.9z"/>
				</g>
				<g>
					<path class="st6" d="M227.6,281.3l-1.8-3l-5.9,3.4c-0.8,0.5-1.1,1.6-0.6,2.4l0,0c0.5,0.8,1.6,1.1,2.4,0.6L227.6,281.3z"/>
					<path class="st6" d="M228,280.5c0-0.8-0.6-1.8-1.3-2.2c-0.7-0.4-1.2-0.1-1.2,0.7c0,0.8,0.6,1.8,1.3,2.2
						C227.4,281.6,228,281.3,228,280.5z"/>
				</g>
				<g>
					<path class="st8" d="M234.5,269.7l-0.9-0.5c-0.5-0.3-1.2-0.2-1.9,0.2l-3,1.8c-0.6,0.3-1,1.1-1,1.8l0,1.5c0,0.2-0.1,0.5-0.3,0.8
						l0.1,0.7l-0.8-0.4l0,0c-0.1,0-0.2-0.2-0.2-0.4l0-1.5c0-1.4,0.9-3,2.1-3.8l3-1.8c1-0.6,1.9-0.7,2.7-0.3l0.9,0.5
						c0.5,0.3,1.2,0.2,1.9-0.2l12.1-7.1c0.2-0.1,0.3-0.1,0.4,0l0,0l0.8,0.4l-0.6,0.2c-0.1,0.3-0.3,0.5-0.5,0.7l-12.1,7.1
						C236.1,270,235.2,270.1,234.5,269.7z"/>
					<path class="st8" d="M234.3,269.7c-0.5-0.3-1.2-0.2-1.9,0.2l-3,1.8c-0.6,0.3-1,1.1-1,1.8l0,1.5c0,0.4-0.2,0.8-0.6,1
						c-0.3,0.2-0.6,0-0.6-0.3l0-1.5c0-1.4,0.9-3,2.1-3.8l3-1.8c1-0.6,1.9-0.7,2.7-0.3l0.9,0.5c0.5,0.3,1.2,0.2,1.9-0.2l12.1-7.1
						c0.3-0.2,0.6,0,0.6,0.3c0,0.4-0.2,0.8-0.6,1l-12.1,7.1c-1,0.6-1.9,0.7-2.7,0.3L234.3,269.7z"/>
					<g>
						<path class="st8" d="M228.4,273.7l0,1.5c0,0,0,0,0,0c0-0.1,0-0.2,0-0.3l0-1.5c0,0,0-0.1,0-0.1
							C228.4,273.4,228.4,273.5,228.4,273.7z"/>
					</g>
				</g>
			</g>
		</g>
	</g>
	<g>
		<g>
			<path class="st24" d="M172.3,188.7c-4.5,2.6-11.7,2.6-16.2,0s-4.5-6.8,0-9.3s11.7-2.6,16.2,0
				C176.8,181.9,176.8,186.1,172.3,188.7z"/>
			<path class="st23" d="M177.2,178.4v-3.6h-0.7c-0.6-1.1-1.6-2.1-3.1-2.9c-5.1-2.9-13.3-2.9-18.4,0c-1.5,0.9-2.5,1.9-3.1,2.9h-0.7
				v3.6l0,0c0,1.9,1.3,3.9,3.8,5.3c5.1,2.9,13.3,2.9,18.4,0C176,182.2,177.2,180.3,177.2,178.4z"/>
			<ellipse class="st23" cx="164.2" cy="174.7" rx="13" ry="7.5"/>
			<path class="st26" d="M173.4,180c-5.1,2.9-13.3,2.9-18.4,0c-2.4-1.4-3.7-3.2-3.8-5.1c-0.1,2,1.1,4,3.8,5.6
				c5.1,2.9,13.3,2.9,18.4,0c2.6-1.5,3.9-3.6,3.8-5.6C177.1,176.8,175.9,178.6,173.4,180z"/>
		</g>
		<g>
			<path class="st26" d="M158,177.2c-0.2-0.1-0.3-0.3-0.3-0.5l0-4.9c0-0.4,0.5-0.7,1.2-0.7c0.6,0,1.2,0.3,1.2,0.7l0,4.1l11.8-1.4
				c0.6-0.1,1.2,0.2,1.4,0.5c0.1,0.4-0.3,0.7-0.9,0.8l-13.2,1.6C158.7,177.4,158.3,177.4,158,177.2C158,177.2,158,177.2,158,177.2z"
				/>
		</g>
	</g>
	<g>
		<g>
			<path class="st9" d="M268.1,115.7l-19.4-11.2c-0.4-0.2-0.8-0.2-1.1-0.1v0l-2.3,1.1c0,0,0.9,0.3,1.4,0.5l-2.8,14.1
				c-0.2,1.2,0.3,2.5,1.1,3l18.6,10.7l-0.3,1.7l2.3-1.1h0c0.4-0.2,0.7-0.6,0.8-1.2l2.9-14.4C269.4,117.5,268.9,116.2,268.1,115.7z"
				/>
			<path class="st25" d="M262,135.4l-19.4-11.2c-0.9-0.5-1.4-1.8-1.1-3l2.9-14.4c0.2-1.2,1.1-1.7,2-1.2l19.4,11.2
				c0.9,0.5,1.4,1.8,1.1,3l-2.8,14.4C263.8,135.4,262.9,135.9,262,135.4z"/>
			<path class="st26" d="M266.1,116.6l-19.4-11.2c-0.4-0.3-0.9-0.2-1.3,0c0.3,0,0.6,0,0.8,0.2l19.4,11.2c0.9,0.5,1.4,1.8,1.1,3
				l-2.9,14.4c-0.1,0.6-0.4,0.9-0.7,1.2c0.5-0.1,1-0.6,1.1-1.3l2.9-14.4C267.5,118.5,267,117.1,266.1,116.6z"/>
		</g>
		<g>
			<path class="st26" d="M250.9,119.2c-0.2,0.8-0.9,1.2-1.6,0.8c-0.7-0.4-1.2-1.4-1-2.3c0.2-0.8,0.9-1.2,1.6-0.8
				C250.6,117.4,251,118.4,250.9,119.2z"/>
			<path class="st26" d="M254.8,121.5c-0.2,0.8-0.9,1.2-1.6,0.8c-0.7-0.4-1.2-1.4-1-2.3s0.9-1.2,1.6-0.8
				C254.6,119.6,255,120.7,254.8,121.5z"/>
			<path class="st26" d="M258.8,123.8c-0.2,0.8-0.9,1.2-1.6,0.8s-1.2-1.4-1-2.3c0.2-0.8,0.9-1.2,1.6-0.8
				C258.5,121.9,259,123,258.8,123.8z"/>
		</g>
	</g>
</g>
<path id="Shadow_36_" class="st3" d="M310.4,182.7c-6.9-4-6.9-10.4,0-14.3s18-4,24.8,0s6.9,10.4,0,14.3
	C328.4,186.6,317.2,186.6,310.4,182.7z"/>
<g id="Music_Sheet_2_">
	<path class="st32" d="M323.6,175.5c0,0.7-1.7,0.7-1.7,0V81.7h1.7V175.5z"/>
	<g>
		<polygon class="st32" points="337.3,74.6 335.5,73.5 306.5,90.3 306.5,91.1 308.3,92.2 337.3,75.4 		"/>
		<polygon class="st32" points="308.3,91.3 337.3,74.6 335.5,73.5 306.5,90.3 		"/>
		<polygon class="st32" points="306.5,90.3 308.3,91.3 308.3,92.2 306.5,91.1 		"/>
	</g>
	<path class="st9" d="M322.7,81.9l1.9-23c0,0-2.5-0.5-6.2,2.1c-3.6,2.5-7,5.6-11.5,5.6l-1.9,25.5L322.7,81.9z"/>
	<path class="st33" d="M322.7,81.9l1.9-23c0,0-2.5-0.5-6.2,2.1c-3.6,2.5-7,5.6-11.5,5.6l-1.9,25.5L322.7,81.9z"/>
	<path class="st9" d="M324.6,58.9c0,0,1.5-2.4,4.4-3.8c1.9-0.9,9.3-3.4,11.5-6.8L338,72.9l-15.4,8.9L324.6,58.9z"/>
	<path class="st34" d="M324.6,58.9c0,0,1.5-2.4,4.4-3.8c1.9-0.9,9.3-3.4,11.5-6.8L338,72.9l-15.4,8.9L324.6,58.9z"/>
	<path class="st35" d="M331,54.3c-0.9,0.4-1.6,0.7-2,0.9c-2.9,1.4-4.4,3.8-4.4,3.8l-1.9,23l6.2-3.6L331,54.3z"/>
	<g>
		<polygon class="st32" points="340.9,55.8 340.9,53.7 340.2,53.3 311.2,70 311.2,72.1 311.9,72.5 		"/>
		<polygon class="st32" points="311.9,72.5 340.9,55.8 340.9,53.7 311.9,70.4 		"/>
		<polygon class="st32" points="311.2,70 311.9,70.4 311.9,72.5 311.2,72.1 		"/>
	</g>
	<path class="st6" d="M309.9,91.2c-0.1,0-0.2,0-0.3-0.1c-0.2-0.2-0.2-0.5-0.1-0.7l29.9-35.6c0.2-0.2,0.5-0.2,0.7-0.1
		s0.2,0.5,0.1,0.7L310.3,91C310.2,91.1,310.1,91.2,309.9,91.2z"/>
	<path class="st6" d="M335.5,76.5c0,0-0.1,0-0.1,0l-21.8-5.6c-0.3-0.1-0.5-0.4-0.4-0.6c0.1-0.3,0.4-0.4,0.6-0.4l21.8,5.6
		c0.3,0.1,0.5,0.4,0.4,0.6C335.9,76.3,335.7,76.5,335.5,76.5z"/>
	<path class="st32" d="M322,156.8l-10.8,24.4c-0.2,0.4,1.7,0.7,2,0l9.6-21.9L322,156.8z"/>
	<path class="st32" d="M323.3,155.4l11.2,15c0.2,0.3-1.6,0.6-2,0L322.4,157L323.3,155.4z"/>
</g>
<path id="Musical_note_3_" class="st25" d="M300,37.4l2.6,6c-0.2,0-0.4,0-0.6,0.1c-0.9,0.4-1.3,1.4-0.9,2.3c0.4,0.9,1.4,1.3,2.3,0.9
	c0.9-0.4,1.3-1.4,0.9-2.3l-2.4-5.4l4.8-3.8l0,0l0,0l2.4,5.4c-0.2,0-0.4,0-0.6,0.1c-0.9,0.4-1.3,1.4-0.9,2.3c0.4,0.9,1.4,1.3,2.3,0.9
	c0.9-0.4,1.3-1.4,0.9-2.3l0,0l-3.9-9L300,37.4z"/>
<path id="Musical_note_4_" class="st25" d="M350.8,39.4l-2.5,4.6c-0.1-0.1-0.2-0.2-0.4-0.3c-0.7-0.4-1.5-0.1-1.8,0.5
	c-0.4,0.7-0.1,1.5,0.5,1.8c0.7,0.3,1.5,0.1,1.8-0.5l2.2-4.1l4.7,1.1l0,0l0,0l-2.2,4.1c-0.1-0.1-0.2-0.2-0.4-0.3
	c-0.7-0.4-1.5-0.1-1.8,0.5c-0.4,0.7-0.1,1.5,0.5,1.8c0.7,0.3,1.5,0.1,1.8-0.5l0,0l3.6-6.8L350.8,39.4z"/>
<path id="Musical_note_2_" class="st25" d="M351.3,65.6c0.3-0.1,0.7-0.1,1,0c0.5,0.1,0.9,0.2,1.3,0.4c0.5,0.2,1.1,0.5,1.7,0.7
	c0.6,0.1,1.2,0.1,1.7-0.2c-0.4,0-0.7-0.2-1-0.3c-0.7-0.4-1.2-1.4-1.8-2c-0.9-0.9-2-1-3.3-1c-0.2,1.1-0.5,2.2-0.7,3.2
	c-0.2,0.8-0.4,1.7-0.5,2.6c0,0.1-0.3,1.2-0.3,1.2c-0.3-0.2-0.7-0.4-0.9-0.4c-1-0.2-2,0.4-2.2,1.4s0.4,2,1.4,2.2s2-0.4,2.2-1.4
	L351.3,65.6z"/>
<path id="Musical_note_6_" class="st25" d="M291.6,58.2c0.3-0.3,0.8-0.5,1.2-0.7c0.6-0.2,1.2-0.3,1.8-0.3c0.8-0.1,1.7-0.1,2.5-0.3
	c0.8-0.2,1.6-0.7,2-1.4c-0.5,0.2-1,0.3-1.4,0.2c-1.2-0.1-2.4-0.9-3.5-1.2c-1.7-0.5-3.1,0-4.6,1c0.4,1.5,0.9,3,1.3,4.4
	c0.3,1.2,0.7,2.3,1,3.5c0,0.1,0.4,1.6,0.4,1.6c-0.5-0.1-1.1,0-1.4,0.1c-1.4,0.4-2.2,1.8-1.8,3.2c0.4,1.4,1.8,2.2,3.2,1.8
	c1.4-0.4,2.2-1.8,1.8-3.2L291.6,58.2z"/>
<path id="Musical_note_5_" class="st25" d="M329.8,33.1c0.2-0.3,0.6-0.7,1-0.9c0.5-0.3,1.1-0.5,1.6-0.7c0.8-0.2,1.5-0.4,2.2-0.8
	s1.3-1,1.5-1.7c-0.4,0.3-0.8,0.4-1.3,0.5c-1.1,0.2-2.4-0.4-3.5-0.4c-1.6-0.1-2.8,0.6-4.1,1.9c0.7,1.3,1.4,2.6,2.1,3.8
	c0.5,1,1.1,2,1.6,3c0,0.1,0.7,1.4,0.7,1.4c-0.5,0-1,0.2-1.3,0.3c-1.2,0.7-1.6,2.1-1,3.3s2.1,1.6,3.3,1c1.2-0.7,1.6-2.1,1-3.3
	L329.8,33.1z"/>
<g id="Server--inject-1" class="st36">
	<g id="server--inject-1">
		<polygon class="st37" points="133.1,147.1 107.3,161.9 81.5,147.1 107.3,132.2 		"/>
		<polygon class="st16" points="133.1,147.1 107.3,161.9 81.5,147.1 107.3,132.2 		"/>
		<polygon class="st16" points="107.3,161.9 107.3,160.1 83.1,146.1 81.5,147.1 		"/>
		<path class="st37" d="M107.3,161.9v6.9c0.6,0,1.2-0.1,1.7-0.4l0,0l11.2-6.4l11.9-6.9c0.6-0.4,1-1.1,1-1.8v-6.2L107.3,161.9z"/>
		<path class="st38" d="M107.3,161.9v6.9c0.6,0,1.2-0.1,1.7-0.4l0,0l11.2-6.4l11.9-6.9c0.6-0.4,1-1.1,1-1.8v-6.2L107.3,161.9z"/>
		<path class="st37" d="M130.6,150.4l-12.8,7.4c-0.5,0.3-0.8,0.9-0.9,1.5v1.7c0,0.6,0.4,0.8,0.9,0.5l12.8-7.4
			c0.5-0.3,0.8-0.9,0.9-1.5v-1.7C131.4,150.3,131.1,150.1,130.6,150.4z"/>
		<path class="st10" d="M130.6,151.8v0.8c0,0.1-0.1,0.2-0.2,0.3l-0.2,0.1c-0.1,0.1-0.2,0-0.2-0.1v-0.8c0-0.1,0.1-0.2,0.2-0.3
			l0.2-0.1C130.5,151.7,130.6,151.7,130.6,151.8z"/>
		<path class="st10" d="M129.7,152.3v0.8c0,0.1-0.1,0.2-0.2,0.3l-0.2,0.1c-0.1,0.1-0.2,0-0.2-0.1v-0.9c0-0.1,0.1-0.2,0.2-0.3
			l0.2-0.1C129.6,152.2,129.7,152.2,129.7,152.3z"/>
		<path class="st10" d="M128.8,152.8v0.8c0,0.1-0.1,0.2-0.2,0.3l-0.2,0.1c-0.1,0.1-0.2,0-0.2-0.1v-0.8c0-0.1,0.1-0.2,0.2-0.3
			l0.2-0.1C128.7,152.7,128.8,152.7,128.8,152.8z"/>
		<path class="st17" d="M127.9,153.3v0.8c0,0.1-0.1,0.2-0.2,0.3l-0.2,0.1c-0.1,0.1-0.2,0-0.2-0.1v-0.8c0-0.1,0.1-0.2,0.2-0.3
			l0.2-0.1C127.9,153.2,127.9,153.2,127.9,153.3z"/>
		<path class="st17" d="M127.1,153.8v0.8c0,0.1-0.1,0.2-0.2,0.3l-0.2,0.1c-0.1,0.1-0.2,0-0.2-0.1v-0.8c0-0.1,0.1-0.2,0.2-0.3
			l0.2-0.1C127,153.7,127,153.7,127.1,153.8C127.1,153.8,127.1,153.8,127.1,153.8z"/>
		<path class="st10" d="M126.2,154.3v0.8c0,0.1-0.1,0.2-0.2,0.3l-0.2,0.1c-0.1,0.1-0.2,0-0.2-0.1v-0.8c0-0.1,0.1-0.2,0.2-0.3
			l0.2-0.1C126.1,154.2,126.2,154.2,126.2,154.3z"/>
		<path class="st10" d="M125.3,154.8v0.8c0,0.1-0.1,0.2-0.2,0.3l-0.2,0.1c-0.1,0.1-0.2,0-0.2-0.1v-0.8c0-0.1,0.1-0.2,0.2-0.3
			l0.2-0.1C125.3,154.7,125.3,154.7,125.3,154.8z"/>
		<path class="st10" d="M124.5,155.3v0.8c0,0.1-0.1,0.2-0.2,0.3l-0.2,0.1c-0.1,0.1-0.2,0-0.2-0.1v-0.8c0-0.1,0.1-0.2,0.2-0.3
			l0.2-0.1C124.4,155.2,124.5,155.2,124.5,155.3z"/>
		<path class="st10" d="M123.6,155.8v0.8c0,0.1-0.1,0.2-0.2,0.3l-0.2,0.1c-0.1,0.1-0.2,0-0.2-0.1v-0.8c0-0.1,0.1-0.2,0.2-0.3
			l0.2-0.1C123.5,155.7,123.6,155.7,123.6,155.8z"/>
		<path class="st10" d="M122.7,156.3v0.8c0,0.1-0.1,0.2-0.2,0.3l-0.2,0.1c-0.1,0.1-0.2,0-0.2-0.1v-0.8c0-0.1,0.1-0.2,0.2-0.3
			l0.2-0.1C122.7,156.2,122.7,156.2,122.7,156.3z"/>
		<path class="st10" d="M121.9,156.8v0.8c0,0.1-0.1,0.2-0.2,0.3l-0.2,0.1c-0.1,0.1-0.2,0-0.2-0.1v-0.8c0-0.1,0.1-0.2,0.2-0.3
			l0.2-0.1C121.8,156.7,121.8,156.7,121.9,156.8C121.9,156.8,121.9,156.8,121.9,156.8z"/>
		<path class="st10" d="M121,157.3v0.9c0,0.1-0.1,0.2-0.2,0.3l-0.2,0.1c-0.1,0.1-0.2,0-0.2-0.1v-0.8c0-0.1,0.1-0.2,0.2-0.3l0.2-0.1
			C120.9,157.2,121,157.2,121,157.3z"/>
		<path class="st17" d="M120.1,157.8v0.8c0,0.1-0.1,0.2-0.2,0.3l-0.2,0.1c-0.1,0.1-0.2,0-0.2-0.1v-0.8c0-0.1,0.1-0.2,0.2-0.3
			l0.2-0.1C120,157.7,120.1,157.7,120.1,157.8C120.1,157.8,120.1,157.8,120.1,157.8z"/>
		<path class="st10" d="M119.3,158.3v0.8c0,0.1-0.1,0.2-0.2,0.3l-0.2,0.1c-0.1,0.1-0.2,0-0.2-0.1v-0.8c0-0.1,0.1-0.2,0.2-0.3
			l0.2-0.1C119.2,158.2,119.3,158.2,119.3,158.3z"/>
		<path class="st10" d="M118.4,158.8v0.8c0,0.1-0.1,0.2-0.2,0.3l-0.2,0.1c-0.1,0.1-0.2,0-0.2-0.1v-0.8c0-0.1,0.1-0.2,0.2-0.3
			l0.2-0.1C118.3,158.7,118.4,158.7,118.4,158.8z"/>
		<path class="st37" d="M81.5,147.1v6.2c0,0.7,0.4,1.4,1,1.8l10.2,5.9l12.8,7.4c0.5,0.3,1.1,0.4,1.7,0.4v-6.9L81.5,147.1z"/>
		<path class="st39" d="M81.5,147.1v6.2c0,0.7,0.4,1.4,1,1.8l10.2,5.9l12.8,7.4c0.5,0.3,1.1,0.4,1.7,0.4v-6.9L81.5,147.1z"/>
		<g class="st40">
			<path class="st26" d="M85.6,151.3l6.3,3.7c0.5,0.3,0.8,0.9,0.9,1.5v1.7c0,0.6-0.4,0.8-0.9,0.5l-6.3-3.7c-0.5-0.3-0.8-0.9-0.9-1.5
				v-1.7C84.7,151.2,85.1,151,85.6,151.3z"/>
		</g>
		<path class="st37" d="M86.4,153.2l0.4-0.2l0,0c0.2-0.1,0.4-0.1,0.5,0.1c0.4,0.3,0.7,0.8,0.8,1.3c0,0.2-0.1,0.4-0.2,0.5l0,0
			l-0.4,0.2l-0.1-0.1c-0.1,0-0.2,0-0.2-0.1c-0.4-0.3-0.7-0.8-0.8-1.3c0-0.1,0-0.1,0-0.2L86.4,153.2z"/>
		<path class="st41" d="M86.4,153.2l0.4-0.2l0,0c0.2-0.1,0.4-0.1,0.5,0.1c0.4,0.3,0.7,0.8,0.8,1.3c0,0.2-0.1,0.4-0.2,0.5l0,0
			l-0.4,0.2l-0.1-0.1c-0.1,0-0.2,0-0.2-0.1c-0.4-0.3-0.7-0.8-0.8-1.3c0-0.1,0-0.1,0-0.2L86.4,153.2z"/>
		<path class="st37" d="M86.9,153.3c0.4,0.3,0.7,0.8,0.8,1.3c0,0.5-0.3,0.7-0.8,0.4c-0.4-0.3-0.7-0.8-0.8-1.3
			C86.2,153.2,86.5,153.1,86.9,153.3z"/>
		<path class="st37" d="M89.6,155.1l0.4-0.2l0,0c0.2-0.1,0.4-0.1,0.5,0.1c0.4,0.3,0.7,0.8,0.8,1.3c0,0.2-0.1,0.4-0.2,0.5l0,0
			l-0.4,0.2l-0.1-0.1c-0.1,0-0.2,0-0.2-0.1c-0.4-0.3-0.7-0.8-0.8-1.3c0-0.1,0-0.1,0-0.2L89.6,155.1z"/>
		<path class="st41" d="M89.6,155.1l0.4-0.2l0,0c0.2-0.1,0.4-0.1,0.5,0.1c0.4,0.3,0.7,0.8,0.8,1.3c0,0.2-0.1,0.4-0.2,0.5l0,0
			l-0.4,0.2l-0.1-0.1c-0.1,0-0.2,0-0.2-0.1c-0.4-0.3-0.7-0.8-0.8-1.3c0-0.1,0-0.1,0-0.2L89.6,155.1z"/>
		<path class="st37" d="M90.2,155.2c0.4,0.3,0.7,0.8,0.8,1.3c0,0.5-0.3,0.7-0.8,0.4c-0.4-0.3-0.7-0.8-0.8-1.3
			C89.4,155.1,89.8,154.9,90.2,155.2z"/>
		<g class="st40">
			<path class="st26" d="M85.6,151.3l6.3,3.7c0.5,0.3,0.8,0.9,0.9,1.5v1.7c0,0.6-0.4,0.8-0.9,0.5l-6.3-3.7c-0.5-0.3-0.8-0.9-0.9-1.5
				v-1.7C84.7,151.2,85.1,151,85.6,151.3z"/>
		</g>
		<path class="st37" d="M86.4,153.2l0.4-0.2l0,0c0.2-0.1,0.4-0.1,0.5,0.1c0.4,0.3,0.7,0.8,0.8,1.3c0,0.2-0.1,0.4-0.2,0.5l0,0
			l-0.4,0.2l-0.1-0.1c-0.1,0-0.2,0-0.2-0.1c-0.4-0.3-0.7-0.8-0.8-1.3c0-0.1,0-0.1,0-0.2L86.4,153.2z"/>
		<path class="st41" d="M86.4,153.2l0.4-0.2l0,0c0.2-0.1,0.4-0.1,0.5,0.1c0.4,0.3,0.7,0.8,0.8,1.3c0,0.2-0.1,0.4-0.2,0.5l0,0
			l-0.4,0.2l-0.1-0.1c-0.1,0-0.2,0-0.2-0.1c-0.4-0.3-0.7-0.8-0.8-1.3c0-0.1,0-0.1,0-0.2L86.4,153.2z"/>
		<path class="st37" d="M86.9,153.3c0.4,0.3,0.7,0.8,0.8,1.3c0,0.5-0.3,0.7-0.8,0.4c-0.4-0.3-0.7-0.8-0.8-1.3
			C86.2,153.2,86.5,153.1,86.9,153.3z"/>
		<path class="st37" d="M89.6,155.1l0.4-0.2l0,0c0.2-0.1,0.4-0.1,0.5,0.1c0.4,0.3,0.7,0.8,0.8,1.3c0,0.2-0.1,0.4-0.2,0.5l0,0
			l-0.4,0.2l-0.1-0.1c-0.1,0-0.2,0-0.2-0.1c-0.4-0.3-0.7-0.8-0.8-1.3c0-0.1,0-0.1,0-0.2L89.6,155.1z"/>
		<path class="st41" d="M89.6,155.1l0.4-0.2l0,0c0.2-0.1,0.4-0.1,0.5,0.1c0.4,0.3,0.7,0.8,0.8,1.3c0,0.2-0.1,0.4-0.2,0.5l0,0
			l-0.4,0.2l-0.1-0.1c-0.1,0-0.2,0-0.2-0.1c-0.4-0.3-0.7-0.8-0.8-1.3c0-0.1,0-0.1,0-0.2L89.6,155.1z"/>
		<path class="st37" d="M90.2,155.2c0.4,0.3,0.7,0.8,0.8,1.3c0,0.5-0.3,0.7-0.8,0.4c-0.4-0.3-0.7-0.8-0.8-1.3
			C89.4,155.1,89.8,154.9,90.2,155.2z"/>
		<path class="st37" d="M114.7,160.9l-0.4-0.2l0,0c-0.2-0.1-0.4-0.1-0.5,0.1c-0.4,0.3-0.7,0.8-0.8,1.3c0,0.2,0.1,0.4,0.2,0.5l0,0
			l0.4,0.2l0.1-0.1c0.1,0,0.2,0,0.2-0.1c0.4-0.3,0.7-0.8,0.8-1.3c0-0.1,0-0.1,0-0.2L114.7,160.9z"/>
		<path class="st42" d="M114.7,160.9l-0.4-0.2l0,0c-0.2-0.1-0.4-0.1-0.5,0.1c-0.4,0.3-0.7,0.8-0.8,1.3c0,0.2,0.1,0.4,0.2,0.5l0,0
			l0.4,0.2l0.1-0.1c0.1,0,0.2,0,0.2-0.1c0.4-0.3,0.7-0.8,0.8-1.3c0-0.1,0-0.1,0-0.2L114.7,160.9z"/>
		<path class="st37" d="M114.1,161c-0.4,0.3-0.7,0.8-0.8,1.3c0,0.5,0.3,0.7,0.8,0.4c0.4-0.3,0.7-0.8,0.8-1.3
			C114.9,160.9,114.5,160.7,114.1,161z"/>
		<path class="st41" d="M114.1,161c-0.4,0.3-0.7,0.8-0.8,1.3c0,0.5,0.3,0.7,0.8,0.4c0.4-0.3,0.7-0.8,0.8-1.3
			C114.9,160.9,114.5,160.7,114.1,161z"/>
		<path class="st37" d="M111.4,162.8l-0.4-0.2l0,0c-0.2-0.1-0.4-0.1-0.5,0.1c-0.4,0.3-0.7,0.8-0.8,1.3c0,0.2,0.1,0.4,0.2,0.5l0,0
			l0.4,0.2l0.1-0.1c0.1,0,0.2,0,0.2-0.1c0.4-0.3,0.7-0.8,0.8-1.3c0-0.1,0-0.1,0-0.2L111.4,162.8z"/>
		<path class="st42" d="M111.4,162.8l-0.4-0.2l0,0c-0.2-0.1-0.4-0.1-0.5,0.1c-0.4,0.3-0.7,0.8-0.8,1.3c0,0.2,0.1,0.4,0.2,0.5l0,0
			l0.4,0.2l0.1-0.1c0.1,0,0.2,0,0.2-0.1c0.4-0.3,0.7-0.8,0.8-1.3c0-0.1,0-0.1,0-0.2L111.4,162.8z"/>
		<path class="st37" d="M110.9,162.8c-0.4,0.3-0.7,0.8-0.8,1.3c0,0.5,0.3,0.7,0.8,0.4c0.4-0.3,0.7-0.8,0.7-1.3
			C111.6,162.8,111.3,162.6,110.9,162.8z"/>
		<path class="st41" d="M110.9,162.8c-0.4,0.3-0.7,0.8-0.8,1.3c0,0.5,0.3,0.7,0.8,0.4c0.4-0.3,0.7-0.8,0.7-1.3
			C111.6,162.8,111.3,162.6,110.9,162.8z"/>
		<polygon class="st37" points="133.1,135.9 107.3,150.8 81.5,135.9 107.3,121 		"/>
		<polygon class="st16" points="133.1,135.9 107.3,150.8 81.5,135.9 107.3,121 		"/>
		<polygon class="st16" points="107.3,150.8 107.3,148.9 83.1,135 81.5,135.9 		"/>
		<polygon class="st37" points="133.1,143.3 107.3,158.2 107.3,150.8 133.1,135.9 		"/>
		<polygon class="st38" points="133.1,143.3 107.3,158.2 107.3,150.8 133.1,135.9 		"/>
		<path class="st37" d="M130.6,139.2l-12.8,7.4c-0.5,0.3-0.8,0.9-0.9,1.5v1.7c0,0.6,0.4,0.8,0.9,0.5l12.8-7.4
			c0.5-0.3,0.8-0.9,0.9-1.5v-1.7C131.4,139.1,131.1,138.9,130.6,139.2z"/>
		<path class="st10" d="M130.6,140.7v0.9c0,0.1-0.1,0.2-0.2,0.3l-0.2,0.1c-0.1,0.1-0.2,0-0.2-0.1V141c0-0.1,0.1-0.2,0.2-0.3l0.2-0.1
			C130.5,140.5,130.6,140.6,130.6,140.7z"/>
		<path class="st17" d="M129.7,141.2v0.8c0,0.1-0.1,0.2-0.2,0.3l-0.2,0.1c-0.1,0.1-0.2,0-0.2-0.1v-0.8c0-0.1,0.1-0.2,0.2-0.3
			l0.2-0.1C129.6,141,129.7,141.1,129.7,141.2z"/>
		<path class="st10" d="M128.8,141.7v0.8c0,0.1-0.1,0.2-0.2,0.3l-0.2,0.1c-0.1,0.1-0.2,0-0.2-0.1V142c0-0.1,0.1-0.2,0.2-0.3l0.2-0.1
			C128.7,141.5,128.8,141.6,128.8,141.7z"/>
		<path class="st17" d="M127.9,142.2v0.8c0,0.1-0.1,0.2-0.2,0.3l-0.2,0.1c-0.1,0.1-0.2,0-0.2-0.1v-0.8c0-0.1,0.1-0.2,0.2-0.3
			l0.2-0.1C127.9,142,127.9,142.1,127.9,142.2z"/>
		<path class="st17" d="M127.1,142.7v0.8c0,0.1-0.1,0.2-0.2,0.3l-0.2,0.1c-0.1,0.1-0.2,0-0.2-0.1V143c0-0.1,0.1-0.2,0.2-0.3l0.2-0.1
			C127,142.5,127.1,142.6,127.1,142.7z"/>
		<path class="st10" d="M126.2,143.2v0.8c0,0.1-0.1,0.2-0.2,0.3l-0.2,0.1c-0.1,0.1-0.2,0-0.2-0.1v-0.8c0-0.1,0.1-0.2,0.2-0.3
			l0.2-0.1C126.1,143,126.2,143.1,126.2,143.2z"/>
		<path class="st10" d="M125.3,143.7v0.8c0,0.1-0.1,0.2-0.2,0.3l-0.2,0.1c-0.1,0.1-0.2,0-0.2-0.1V144c0-0.1,0.1-0.2,0.2-0.3l0.2-0.1
			C125.3,143.5,125.3,143.6,125.3,143.7z"/>
		<path class="st10" d="M124.5,144.2v0.8c0,0.1-0.1,0.2-0.2,0.3l-0.2,0.1c-0.1,0.1-0.2,0-0.2-0.1v-0.8c0-0.1,0.1-0.2,0.2-0.3
			l0.2-0.1C124.4,144,124.5,144.1,124.5,144.2z"/>
		<path class="st17" d="M123.6,144.7v0.8c0,0.1-0.1,0.2-0.2,0.3l-0.2,0.1c-0.1,0.1-0.2,0-0.2-0.1V145c0-0.1,0.1-0.2,0.2-0.3l0.2-0.1
			C123.5,144.5,123.6,144.6,123.6,144.7z"/>
		<path class="st10" d="M122.7,145.2v0.8c0,0.1-0.1,0.2-0.2,0.3l-0.2,0.1c-0.1,0.1-0.2,0-0.2-0.1v-0.8c0-0.1,0.1-0.2,0.2-0.3
			l0.2-0.1C122.7,145,122.7,145.1,122.7,145.2z"/>
		<path class="st17" d="M121.9,145.7v0.8c0,0.1-0.1,0.2-0.2,0.3l-0.2,0.1c-0.1,0.1-0.2,0-0.2-0.1V146c0-0.1,0.1-0.2,0.2-0.3l0.2-0.1
			C121.8,145.5,121.9,145.6,121.9,145.7z"/>
		<path class="st10" d="M121,146.2v0.8c0,0.1-0.1,0.2-0.2,0.3l-0.2,0.1c-0.1,0.1-0.2,0-0.2-0.1v-0.8c0-0.1,0.1-0.2,0.2-0.3l0.2-0.1
			C120.9,146,121,146.1,121,146.2z"/>
		<path class="st17" d="M120.1,146.7v0.8c0,0.1-0.1,0.2-0.2,0.3l-0.2,0.1c-0.1,0.1-0.2,0-0.2-0.1V147c0-0.1,0.1-0.2,0.2-0.3l0.2-0.1
			C120.1,146.5,120.1,146.6,120.1,146.7z"/>
		<path class="st10" d="M119.3,147.2v0.8c0,0.1-0.1,0.2-0.2,0.3l-0.2,0.1c-0.1,0.1-0.2,0-0.2-0.1v-0.9c0-0.1,0.1-0.2,0.2-0.3
			l0.2-0.1C119.2,147,119.3,147.1,119.3,147.2z"/>
		<path class="st10" d="M118.4,147.7v0.8c0,0.1-0.1,0.2-0.2,0.3l-0.2,0.1c-0.1,0.1-0.2,0-0.2-0.1V148c0-0.1,0.1-0.2,0.2-0.3l0.2-0.1
			C118.3,147.5,118.4,147.6,118.4,147.7z"/>
		<polygon class="st37" points="107.3,158.2 81.5,143.3 81.5,135.9 107.3,150.8 		"/>
		<polygon class="st39" points="107.3,158.2 81.5,143.3 81.5,135.9 107.3,150.8 		"/>
		<g class="st40">
			<path class="st26" d="M85.6,140.1l6.3,3.7c0.5,0.3,0.8,0.9,0.9,1.5v1.7c0,0.6-0.4,0.8-0.9,0.5l-6.3-3.7c-0.5-0.3-0.8-0.9-0.9-1.5
				v-1.7C84.7,140.1,85.1,139.9,85.6,140.1z"/>
		</g>
		<path class="st37" d="M86.4,142.1l0.4-0.2l0,0c0.2-0.1,0.4-0.1,0.5,0.1c0.4,0.3,0.7,0.8,0.8,1.3c0,0.2-0.1,0.4-0.2,0.5l0,0
			l-0.4,0.2l-0.1-0.1c-0.1,0-0.2,0-0.2-0.1c-0.4-0.3-0.7-0.8-0.8-1.3c0-0.1,0-0.1,0-0.2L86.4,142.1z"/>
		<path class="st41" d="M86.4,142.1l0.4-0.2l0,0c0.2-0.1,0.4-0.1,0.5,0.1c0.4,0.3,0.7,0.8,0.8,1.3c0,0.2-0.1,0.4-0.2,0.5l0,0
			l-0.4,0.2l-0.1-0.1c-0.1,0-0.2,0-0.2-0.1c-0.4-0.3-0.7-0.8-0.8-1.3c0-0.1,0-0.1,0-0.2L86.4,142.1z"/>
		<path class="st37" d="M86.9,142.1c0.4,0.3,0.7,0.8,0.8,1.3c0,0.5-0.3,0.7-0.8,0.4c-0.4-0.3-0.7-0.8-0.8-1.3
			C86.2,142.1,86.5,141.9,86.9,142.1z"/>
		<path class="st37" d="M89.6,143.9l0.4-0.2l0,0c0.2-0.1,0.4-0.1,0.5,0.1c0.4,0.3,0.7,0.8,0.8,1.3c0,0.2-0.1,0.4-0.2,0.5l0,0
			l-0.4,0.2l-0.1-0.1c-0.1,0-0.2,0-0.2-0.1c-0.4-0.3-0.7-0.8-0.8-1.3c0-0.1,0-0.1,0-0.2L89.6,143.9z"/>
		<path class="st41" d="M89.6,143.9l0.4-0.2l0,0c0.2-0.1,0.4-0.1,0.5,0.1c0.4,0.3,0.7,0.8,0.8,1.3c0,0.2-0.1,0.4-0.2,0.5l0,0
			l-0.4,0.2l-0.1-0.1c-0.1,0-0.2,0-0.2-0.1c-0.4-0.3-0.7-0.8-0.8-1.3c0-0.1,0-0.1,0-0.2L89.6,143.9z"/>
		<path class="st37" d="M90.2,144c0.4,0.3,0.7,0.8,0.8,1.3c0,0.5-0.3,0.7-0.8,0.4c-0.4-0.3-0.7-0.8-0.8-1.3
			C89.4,143.9,89.8,143.8,90.2,144z"/>
		<polygon class="st17" points="129.8,147.1 129.8,145.2 107.3,158.2 107.3,160.1 		"/>
		<polygon class="st37" points="83.1,144.3 83.1,146.1 107.3,160.1 107.3,158.2 		"/>
		<polygon class="st18" points="83.1,144.3 83.1,146.1 107.3,160.1 107.3,158.2 		"/>
		<path class="st37" d="M114.7,149.8l-0.4-0.2l0,0c-0.2-0.1-0.4-0.1-0.5,0.1c-0.4,0.3-0.7,0.8-0.8,1.3c0,0.2,0.1,0.4,0.2,0.5l0,0
			l0.4,0.2l0.1-0.1c0.1,0,0.2-0.1,0.2-0.1c0.4-0.3,0.7-0.8,0.8-1.3c0-0.1,0-0.1,0-0.2L114.7,149.8z"/>
		<path class="st42" d="M114.7,149.8l-0.4-0.2l0,0c-0.2-0.1-0.4-0.1-0.5,0.1c-0.4,0.3-0.7,0.8-0.8,1.3c0,0.2,0.1,0.4,0.2,0.5l0,0
			l0.4,0.2l0.1-0.1c0.1,0,0.2-0.1,0.2-0.1c0.4-0.3,0.7-0.8,0.8-1.3c0-0.1,0-0.1,0-0.2L114.7,149.8z"/>
		<path class="st37" d="M114.1,149.8c-0.4,0.3-0.7,0.8-0.8,1.3c0,0.5,0.3,0.7,0.8,0.4c0.4-0.3,0.7-0.8,0.8-1.3
			C114.9,149.8,114.5,149.6,114.1,149.8z"/>
		<path class="st41" d="M114.1,149.8c-0.4,0.3-0.7,0.8-0.8,1.3c0,0.5,0.3,0.7,0.8,0.4c0.4-0.3,0.7-0.8,0.8-1.3
			C114.9,149.8,114.5,149.6,114.1,149.8z"/>
		<path class="st37" d="M111.4,151.6l-0.4-0.2l0,0c-0.2-0.1-0.4-0.1-0.5,0.1c-0.4,0.3-0.7,0.8-0.8,1.3c0,0.2,0.1,0.4,0.2,0.5l0,0
			l0.4,0.2l0.1-0.1c0.1,0,0.2,0,0.2-0.1c0.4-0.3,0.7-0.8,0.8-1.3c0-0.1,0-0.1,0-0.2L111.4,151.6z"/>
		<path class="st42" d="M111.4,151.6l-0.4-0.2l0,0c-0.2-0.1-0.4-0.1-0.5,0.1c-0.4,0.3-0.7,0.8-0.8,1.3c0,0.2,0.1,0.4,0.2,0.5l0,0
			l0.4,0.2l0.1-0.1c0.1,0,0.2,0,0.2-0.1c0.4-0.3,0.7-0.8,0.8-1.3c0-0.1,0-0.1,0-0.2L111.4,151.6z"/>
		<path class="st37" d="M110.9,151.7c-0.4,0.3-0.7,0.8-0.8,1.3c0,0.5,0.3,0.7,0.8,0.4c0.4-0.3,0.7-0.8,0.8-1.3
			C111.6,151.6,111.3,151.4,110.9,151.7z"/>
		<path class="st41" d="M110.9,151.7c-0.4,0.3-0.7,0.8-0.8,1.3c0,0.5,0.3,0.7,0.8,0.4c0.4-0.3,0.7-0.8,0.8-1.3
			C111.6,151.6,111.3,151.4,110.9,151.7z"/>
		<polygon class="st37" points="133.1,124.7 107.3,139.6 81.5,124.7 107.3,109.8 		"/>
		<polygon class="st16" points="133.1,124.7 107.3,139.6 81.5,124.7 107.3,109.8 		"/>
		<polygon class="st16" points="107.3,139.6 107.3,137.8 83.1,123.8 81.5,124.7 		"/>
		<polygon class="st37" points="133.1,132.2 107.3,147.1 107.3,139.6 133.1,124.7 		"/>
		<polygon class="st38" points="133.1,132.2 107.3,147.1 107.3,139.6 133.1,124.7 		"/>
		<path class="st37" d="M130.6,128l-12.8,7.4c-0.5,0.3-0.8,0.9-0.9,1.5v1.7c0,0.6,0.4,0.8,0.9,0.5l12.8-7.4c0.5-0.3,0.8-0.9,0.9-1.5
			v-1.7C131.4,128,131.1,127.7,130.6,128z"/>
		<path class="st10" d="M130.6,129.5v0.8c0,0.1-0.1,0.2-0.2,0.3l-0.2,0.1c-0.1,0.1-0.2,0-0.2-0.1v-0.8c0-0.1,0.1-0.2,0.2-0.3
			l0.2-0.1C130.5,129.3,130.6,129.4,130.6,129.5z"/>
		<path class="st10" d="M129.7,130v0.8c0,0.1-0.1,0.2-0.2,0.3l-0.2,0.1c-0.1,0.1-0.2,0-0.2-0.1v-0.8c0-0.1,0.1-0.2,0.2-0.3l0.2-0.1
			C129.6,129.8,129.7,129.9,129.7,130z"/>
		<path class="st10" d="M128.8,130.5v0.8c0,0.1-0.1,0.2-0.2,0.3l-0.2,0.1c-0.1,0.1-0.2,0-0.2-0.1v-0.8c0-0.1,0.1-0.2,0.2-0.3
			l0.2-0.1C128.7,130.3,128.8,130.4,128.8,130.5z"/>
		<path class="st10" d="M127.9,131v0.8c0,0.1-0.1,0.2-0.2,0.3l-0.2,0.1c-0.1,0.1-0.2,0-0.2-0.1v-0.8c0-0.1,0.1-0.2,0.2-0.3l0.2-0.1
			C127.9,130.8,127.9,130.9,127.9,131z"/>
		<path class="st17" d="M127.1,131.5v0.8c0,0.1-0.1,0.2-0.2,0.3l-0.2,0.1c-0.1,0.1-0.2,0-0.2-0.1v-0.8c0-0.1,0.1-0.2,0.2-0.3
			l0.2-0.1C127,131.3,127.1,131.4,127.1,131.5z"/>
		<path class="st17" d="M126.2,132v0.8c0,0.1-0.1,0.2-0.2,0.3l-0.2,0.1c-0.1,0.1-0.2,0-0.2-0.1v-0.8c0-0.1,0.1-0.2,0.2-0.3l0.2-0.1
			C126.1,131.8,126.2,131.9,126.2,132z"/>
		<path class="st10" d="M125.3,132.5v0.8c0,0.1-0.1,0.2-0.2,0.3l-0.2,0.1c-0.1,0.1-0.2,0-0.2-0.1v-0.9c0-0.1,0.1-0.2,0.2-0.3
			l0.2-0.1C125.3,132.3,125.3,132.4,125.3,132.5z"/>
		<path class="st10" d="M124.5,133v0.8c0,0.1-0.1,0.2-0.2,0.3l-0.2,0.1c-0.1,0.1-0.2,0-0.2-0.1v-0.8c0-0.1,0.1-0.2,0.2-0.3l0.2-0.1
			C124.4,132.8,124.5,132.9,124.5,133z"/>
		<path class="st10" d="M123.6,133.5v0.8c0,0.1-0.1,0.2-0.2,0.3l-0.2,0.1c-0.1,0.1-0.2,0-0.2-0.1v-0.8c0-0.1,0.1-0.2,0.2-0.3
			l0.2-0.1C123.5,133.3,123.6,133.4,123.6,133.5z"/>
		<path class="st17" d="M122.7,134v0.8c0,0.1-0.1,0.2-0.2,0.3l-0.2,0.1c-0.1,0.1-0.2,0-0.2-0.1v-0.8c0-0.1,0.1-0.2,0.2-0.3l0.2-0.1
			C122.7,133.8,122.7,133.9,122.7,134z"/>
		<path class="st10" d="M121.9,134.5v0.8c0,0.1-0.1,0.2-0.2,0.3l-0.2,0.1c-0.1,0.1-0.2,0-0.2-0.1v-0.8c0-0.1,0.1-0.2,0.2-0.3
			l0.2-0.1C121.8,134.3,121.9,134.4,121.9,134.5z"/>
		<path class="st10" d="M121,135v0.8c0,0.1-0.1,0.2-0.2,0.3l-0.2,0.1c-0.1,0.1-0.2,0-0.2-0.1v-0.8c0-0.1,0.1-0.2,0.2-0.3l0.2-0.1
			C120.9,134.8,121,134.9,121,135z"/>
		<path class="st17" d="M120.1,135.5v0.8c0,0.1-0.1,0.2-0.2,0.3l-0.2,0.1c-0.1,0.1-0.2,0-0.2-0.1v-0.8c0-0.1,0.1-0.2,0.2-0.3
			l0.2-0.1C120.1,135.3,120.1,135.4,120.1,135.5z"/>
		<path class="st10" d="M119.3,136v0.8c0,0.1-0.1,0.2-0.2,0.3l-0.2,0.1c-0.1,0.1-0.2,0-0.2-0.1v-0.8c0-0.1,0.1-0.2,0.2-0.3l0.2-0.1
			C119.2,135.8,119.3,135.9,119.3,136z"/>
		<path class="st17" d="M118.4,136.5v0.8c0,0.1-0.1,0.2-0.2,0.3l-0.2,0.1c-0.1,0.1-0.2,0-0.2-0.1v-0.8c0-0.1,0.1-0.2,0.2-0.3
			l0.2-0.1C118.3,136.3,118.4,136.4,118.4,136.5z"/>
		<polygon class="st37" points="107.3,147.1 81.5,132.2 81.5,124.7 107.3,139.6 		"/>
		<polygon class="st39" points="107.3,147.1 81.5,132.2 81.5,124.7 107.3,139.6 		"/>
		<g class="st40">
			<path class="st26" d="M85.6,129l6.3,3.7c0.5,0.3,0.8,0.9,0.9,1.5v1.7c0,0.6-0.4,0.8-0.9,0.5l-6.3-3.7c-0.5-0.3-0.8-0.9-0.9-1.5
				v-1.7C84.7,128.9,85.1,128.7,85.6,129z"/>
		</g>
		<path class="st37" d="M86.4,130.9l0.4-0.2l0,0c0.2-0.1,0.4-0.1,0.5,0.1c0.4,0.3,0.7,0.8,0.8,1.3c0,0.2-0.1,0.4-0.2,0.5l0,0
			l-0.4,0.2l-0.1-0.1c-0.1,0-0.2,0-0.2-0.1c-0.4-0.3-0.7-0.8-0.8-1.3c0-0.1,0-0.1,0-0.2L86.4,130.9z"/>
		<path class="st41" d="M86.4,130.9l0.4-0.2l0,0c0.2-0.1,0.4-0.1,0.5,0.1c0.4,0.3,0.7,0.8,0.8,1.3c0,0.2-0.1,0.4-0.2,0.5l0,0
			l-0.4,0.2l-0.1-0.1c-0.1,0-0.2,0-0.2-0.1c-0.4-0.3-0.7-0.8-0.8-1.3c0-0.1,0-0.1,0-0.2L86.4,130.9z"/>
		<path class="st37" d="M86.9,131c0.4,0.3,0.7,0.8,0.8,1.3c0,0.5-0.3,0.7-0.8,0.4c-0.4-0.3-0.7-0.8-0.8-1.3
			C86.2,130.9,86.5,130.7,86.9,131z"/>
		<path class="st37" d="M89.6,132.8l0.4-0.2l0,0c0.2-0.1,0.4-0.1,0.5,0.1c0.4,0.3,0.7,0.8,0.8,1.3c0,0.2-0.1,0.4-0.2,0.5l0,0
			l-0.4,0.2l-0.1-0.1c-0.1,0-0.2,0-0.2-0.1c-0.4-0.3-0.7-0.8-0.8-1.3c0-0.1,0-0.1,0-0.2L89.6,132.8z"/>
		<path class="st41" d="M89.6,132.8l0.4-0.2l0,0c0.2-0.1,0.4-0.1,0.5,0.1c0.4,0.3,0.7,0.8,0.8,1.3c0,0.2-0.1,0.4-0.2,0.5l0,0
			l-0.4,0.2l-0.1-0.1c-0.1,0-0.2,0-0.2-0.1c-0.4-0.3-0.7-0.8-0.8-1.3c0-0.1,0-0.1,0-0.2L89.6,132.8z"/>
		<path class="st37" d="M90.2,132.8c0.4,0.3,0.7,0.8,0.8,1.3c0,0.5-0.3,0.7-0.8,0.4c-0.4-0.3-0.7-0.8-0.8-1.3
			C89.4,132.8,89.8,132.6,90.2,132.8z"/>
		<polygon class="st17" points="129.8,135.9 129.8,134 107.3,147.1 107.3,148.9 		"/>
		<polygon class="st18" points="83.1,133.1 83.1,135 107.3,148.9 107.3,147.1 		"/>
		<path class="st37" d="M114.7,138.6l-0.4-0.2l0,0c-0.2-0.1-0.4-0.1-0.5,0.1c-0.4,0.3-0.7,0.8-0.8,1.3c0,0.2,0.1,0.4,0.2,0.5l0,0
			l0.4,0.2l0.1-0.1c0.1,0,0.2,0,0.2-0.1c0.4-0.3,0.7-0.8,0.8-1.3c0-0.1,0-0.1,0-0.2L114.7,138.6z"/>
		<path class="st42" d="M114.7,138.6l-0.4-0.2l0,0c-0.2-0.1-0.4-0.1-0.5,0.1c-0.4,0.3-0.7,0.8-0.8,1.3c0,0.2,0.1,0.4,0.2,0.5l0,0
			l0.4,0.2l0.1-0.1c0.1,0,0.2,0,0.2-0.1c0.4-0.3,0.7-0.8,0.8-1.3c0-0.1,0-0.1,0-0.2L114.7,138.6z"/>
		<path class="st37" d="M114.1,138.6c-0.4,0.3-0.7,0.8-0.8,1.3c0,0.5,0.3,0.7,0.8,0.4c0.4-0.3,0.7-0.8,0.8-1.3
			C114.9,138.6,114.5,138.4,114.1,138.6z"/>
		<path class="st41" d="M114.1,138.6c-0.4,0.3-0.7,0.8-0.8,1.3c0,0.5,0.3,0.7,0.8,0.4c0.4-0.3,0.7-0.8,0.8-1.3
			C114.9,138.6,114.5,138.4,114.1,138.6z"/>
		<path class="st37" d="M111.4,140.5l-0.4-0.2l0,0c-0.2-0.1-0.4-0.1-0.5,0.1c-0.4,0.3-0.7,0.8-0.8,1.3c0,0.2,0.1,0.4,0.2,0.5l0,0
			l0.4,0.2l0.1-0.1c0.1,0,0.2,0,0.2-0.1c0.4-0.3,0.7-0.8,0.8-1.3c0-0.1,0-0.1,0-0.2L111.4,140.5z"/>
		<path class="st42" d="M111.4,140.5l-0.4-0.2l0,0c-0.2-0.1-0.4-0.1-0.5,0.1c-0.4,0.3-0.7,0.8-0.8,1.3c0,0.2,0.1,0.4,0.2,0.5l0,0
			l0.4,0.2l0.1-0.1c0.1,0,0.2,0,0.2-0.1c0.4-0.3,0.7-0.8,0.8-1.3c0-0.1,0-0.1,0-0.2L111.4,140.5z"/>
		<path class="st37" d="M110.9,140.5c-0.4,0.3-0.7,0.8-0.8,1.3c0,0.5,0.3,0.7,0.8,0.4c0.4-0.3,0.7-0.8,0.8-1.3
			C111.6,140.5,111.3,140.3,110.9,140.5z"/>
		<path class="st41" d="M110.9,140.5c-0.4,0.3-0.7,0.8-0.8,1.3c0,0.5,0.3,0.7,0.8,0.4c0.4-0.3,0.7-0.8,0.8-1.3
			C111.6,140.5,111.3,140.3,110.9,140.5z"/>
		<polygon class="st37" points="133.1,113.6 107.3,128.5 81.5,113.6 107.3,98.7 		"/>
		<polygon class="st43" points="133.1,113.6 107.3,128.5 81.5,113.6 107.3,98.7 		"/>
		<polygon class="st16" points="133.1,113.6 107.3,128.5 81.5,113.6 107.3,98.7 		"/>
		<polygon class="st16" points="107.3,126.6 107.3,128.5 81.5,113.6 83.1,112.6 		"/>
		<polygon class="st37" points="133.1,121 107.3,135.9 107.3,128.5 133.1,113.6 		"/>
		<polygon class="st38" points="133.1,121 107.3,135.9 107.3,128.5 133.1,113.6 		"/>
		<path class="st37" d="M130.6,116.9l-12.8,7.4c-0.5,0.3-0.8,0.9-0.9,1.5v1.7c0,0.6,0.4,0.8,0.9,0.5l12.8-7.4
			c0.5-0.3,0.8-0.9,0.9-1.5v-1.7C131.4,116.8,131.1,116.6,130.6,116.9z"/>
		<path class="st10" d="M130.6,118.3v0.8c0,0.1-0.1,0.2-0.2,0.3l-0.2,0.1c-0.1,0.1-0.2,0-0.2-0.1v-0.8c0-0.1,0.1-0.2,0.2-0.3
			l0.2-0.1C130.5,118.2,130.6,118.2,130.6,118.3z"/>
		<path class="st17" d="M129.7,118.8v0.8c0,0.1-0.1,0.2-0.2,0.3l-0.2,0.1c-0.1,0.1-0.2,0-0.2-0.1v-0.8c0-0.1,0.1-0.2,0.2-0.3
			l0.2-0.1C129.6,118.7,129.7,118.7,129.7,118.8z"/>
		<path class="st10" d="M128.8,119.3v0.8c0,0.1-0.1,0.2-0.2,0.3l-0.2,0.1c-0.1,0.1-0.2,0-0.2-0.1v-0.8c0-0.1,0.1-0.2,0.2-0.3
			l0.2-0.1C128.7,119.2,128.8,119.2,128.8,119.3z"/>
		<path class="st10" d="M127.9,119.8v0.8c0,0.1-0.1,0.2-0.2,0.3l-0.2,0.1c-0.1,0.1-0.2,0-0.2-0.1v-0.8c0-0.1,0.1-0.2,0.2-0.3
			l0.2-0.1C127.9,119.7,127.9,119.7,127.9,119.8z"/>
		<path class="st10" d="M127.1,120.3v0.8c0,0.1-0.1,0.2-0.2,0.3l-0.2,0.1c-0.1,0.1-0.2,0-0.2-0.1v-0.8c0-0.1,0.1-0.2,0.2-0.3
			l0.2-0.1C127,120.2,127.1,120.2,127.1,120.3z"/>
		<path class="st17" d="M126.2,120.8v0.8c0,0.1-0.1,0.2-0.2,0.3l-0.2,0.1c-0.1,0.1-0.2,0-0.2-0.1v-0.8c0-0.1,0.1-0.2,0.2-0.3
			l0.2-0.1C126.1,120.7,126.2,120.7,126.2,120.8z"/>
		<path class="st17" d="M125.3,121.3v0.8c0,0.1-0.1,0.2-0.2,0.3l-0.2,0.1c-0.1,0.1-0.2,0-0.2-0.1v-0.8c0-0.1,0.1-0.2,0.2-0.3
			l0.2-0.1C125.3,121.2,125.3,121.2,125.3,121.3z"/>
		<path class="st10" d="M124.5,121.8v0.8c0,0.1-0.1,0.2-0.2,0.3l-0.2,0.1c-0.1,0.1-0.2,0-0.2-0.1v-0.8c0-0.1,0.1-0.2,0.2-0.3
			l0.2-0.1C124.4,121.7,124.5,121.7,124.5,121.8z"/>
		<path class="st17" d="M123.6,122.3v0.8c0,0.1-0.1,0.2-0.2,0.3l-0.2,0.1c-0.1,0.1-0.2,0-0.2-0.1v-0.8c0-0.1,0.1-0.2,0.2-0.3
			l0.2-0.1C123.5,122.2,123.6,122.2,123.6,122.3z"/>
		<path class="st10" d="M122.7,122.8v0.8c0,0.1-0.1,0.2-0.2,0.3l-0.2,0.1c-0.1,0.1-0.2,0-0.2-0.1v-0.8c0-0.1,0.1-0.2,0.2-0.3
			l0.2-0.1C122.7,122.7,122.7,122.7,122.7,122.8z"/>
		<path class="st10" d="M121.9,123.3v0.8c0,0.1-0.1,0.2-0.2,0.3l-0.2,0.1c-0.1,0.1-0.2,0-0.2-0.1v-0.8c0-0.1,0.1-0.2,0.2-0.3
			l0.2-0.1C121.8,123.2,121.9,123.2,121.9,123.3z"/>
		<path class="st10" d="M121,123.8v0.8c0,0.1-0.1,0.2-0.2,0.3l-0.2,0.1c-0.1,0.1-0.2,0-0.2-0.1v-0.8c0-0.1,0.1-0.2,0.2-0.3l0.2-0.1
			C120.9,123.7,121,123.7,121,123.8z"/>
		<path class="st17" d="M120.1,124.3v0.8c0,0.1-0.1,0.2-0.2,0.3l-0.2,0.1c-0.1,0.1-0.2,0-0.2-0.1v-0.8c0-0.1,0.1-0.2,0.2-0.3
			l0.2-0.1C120.1,124.2,120.1,124.2,120.1,124.3z"/>
		<path class="st10" d="M119.3,124.9v0.8c0,0.1-0.1,0.2-0.2,0.3l-0.2,0.1c-0.1,0.1-0.2,0-0.2-0.1v-0.8c0-0.1,0.1-0.2,0.2-0.3
			l0.2-0.1C119.2,124.7,119.3,124.7,119.3,124.9z"/>
		<path class="st10" d="M118.4,125.3v0.8c0,0.1-0.1,0.2-0.2,0.3l-0.2,0.1c-0.1,0.1-0.2,0-0.2-0.1v-0.8c0-0.1,0.1-0.2,0.2-0.3
			l0.2-0.1C118.3,125.2,118.4,125.2,118.4,125.3z"/>
		<polygon class="st37" points="107.3,135.9 81.5,121 81.5,113.6 107.3,128.5 		"/>
		<polygon class="st39" points="107.3,135.9 81.5,121 81.5,113.6 107.3,128.5 		"/>
		<g class="st40">
			<path class="st26" d="M85.6,117.8l6.3,3.7c0.5,0.3,0.8,0.9,0.9,1.5v1.7c0,0.6-0.4,0.8-0.9,0.5l-6.3-3.7c-0.5-0.3-0.8-0.9-0.9-1.5
				v-1.7C84.7,117.8,85.1,117.5,85.6,117.8z"/>
		</g>
		<path class="st37" d="M86.4,119.8l0.4-0.2l0,0c0.2-0.1,0.4-0.1,0.5,0.1c0.4,0.3,0.7,0.8,0.8,1.3c0,0.2-0.1,0.4-0.2,0.5l0,0
			l-0.4,0.2l-0.1-0.1c-0.1,0-0.2-0.1-0.2-0.1c-0.4-0.3-0.7-0.8-0.8-1.3c0-0.1,0-0.1,0-0.2L86.4,119.8z"/>
		<path class="st41" d="M86.4,119.8l0.4-0.2l0,0c0.2-0.1,0.4-0.1,0.5,0.1c0.4,0.3,0.7,0.8,0.8,1.3c0,0.2-0.1,0.4-0.2,0.5l0,0
			l-0.4,0.2l-0.1-0.1c-0.1,0-0.2-0.1-0.2-0.1c-0.4-0.3-0.7-0.8-0.8-1.3c0-0.1,0-0.1,0-0.2L86.4,119.8z"/>
		<path class="st37" d="M86.9,119.8c0.4,0.3,0.7,0.8,0.8,1.3c0,0.5-0.3,0.7-0.8,0.4c-0.4-0.3-0.7-0.8-0.8-1.3
			C86.2,119.8,86.5,119.6,86.9,119.8z"/>
		<path class="st37" d="M89.6,121.6l0.4-0.2l0,0c0.2-0.1,0.4-0.1,0.5,0.1c0.4,0.3,0.7,0.8,0.8,1.3c0,0.2-0.1,0.4-0.2,0.5l0,0
			l-0.4,0.2l-0.1-0.1c-0.1,0-0.2,0-0.2-0.1c-0.4-0.3-0.7-0.8-0.8-1.3c0-0.1,0-0.1,0-0.2L89.6,121.6z"/>
		<path class="st41" d="M89.6,121.6l0.4-0.2l0,0c0.2-0.1,0.4-0.1,0.5,0.1c0.4,0.3,0.7,0.8,0.8,1.3c0,0.2-0.1,0.4-0.2,0.5l0,0
			l-0.4,0.2l-0.1-0.1c-0.1,0-0.2,0-0.2-0.1c-0.4-0.3-0.7-0.8-0.8-1.3c0-0.1,0-0.1,0-0.2L89.6,121.6z"/>
		<path class="st37" d="M90.2,121.7c0.4,0.3,0.7,0.8,0.8,1.3c0,0.5-0.3,0.7-0.8,0.4c-0.4-0.3-0.7-0.8-0.8-1.3
			C89.4,121.6,89.8,121.4,90.2,121.7z"/>
		<polygon class="st17" points="129.8,124.7 129.8,122.9 107.3,135.9 107.3,137.8 		"/>
		<polygon class="st18" points="83.1,121.9 83.1,123.8 107.3,137.8 107.3,135.9 		"/>
		<path class="st37" d="M114.7,127.4l-0.4-0.2l0,0c-0.2-0.1-0.4-0.1-0.5,0.1c-0.4,0.3-0.7,0.8-0.8,1.3c0,0.2,0.1,0.4,0.2,0.5l0,0
			l0.4,0.2l0.1-0.1c0.1,0,0.2,0,0.2-0.1c0.4-0.3,0.7-0.8,0.8-1.3c0-0.1,0-0.1,0-0.2L114.7,127.4z"/>
		<path class="st42" d="M114.7,127.4l-0.4-0.2l0,0c-0.2-0.1-0.4-0.1-0.5,0.1c-0.4,0.3-0.7,0.8-0.8,1.3c0,0.2,0.1,0.4,0.2,0.5l0,0
			l0.4,0.2l0.1-0.1c0.1,0,0.2,0,0.2-0.1c0.4-0.3,0.7-0.8,0.8-1.3c0-0.1,0-0.1,0-0.2L114.7,127.4z"/>
		<path class="st37" d="M114.1,127.5c-0.4,0.3-0.7,0.8-0.8,1.3c0,0.5,0.3,0.7,0.8,0.4c0.4-0.3,0.7-0.8,0.8-1.3
			C114.9,127.4,114.5,127.2,114.1,127.5z"/>
		<path class="st41" d="M114.1,127.5c-0.4,0.3-0.7,0.8-0.8,1.3c0,0.5,0.3,0.7,0.8,0.4c0.4-0.3,0.7-0.8,0.8-1.3
			C114.9,127.4,114.5,127.2,114.1,127.5z"/>
		<path class="st37" d="M111.4,129.3l-0.4-0.2l0,0c-0.2-0.1-0.4-0.1-0.5,0.1c-0.4,0.3-0.7,0.8-0.8,1.3c0,0.2,0.1,0.4,0.2,0.5l0,0
			l0.4,0.2l0.1-0.1c0.1,0,0.2,0,0.2-0.1c0.4-0.3,0.7-0.8,0.8-1.3c0-0.1,0-0.1,0-0.2L111.4,129.3z"/>
		<path class="st42" d="M111.4,129.3l-0.4-0.2l0,0c-0.2-0.1-0.4-0.1-0.5,0.1c-0.4,0.3-0.7,0.8-0.8,1.3c0,0.2,0.1,0.4,0.2,0.5l0,0
			l0.4,0.2l0.1-0.1c0.1,0,0.2,0,0.2-0.1c0.4-0.3,0.7-0.8,0.8-1.3c0-0.1,0-0.1,0-0.2L111.4,129.3z"/>
		<path class="st37" d="M110.9,129.3c-0.4,0.3-0.7,0.8-0.8,1.3c0,0.5,0.3,0.7,0.8,0.4c0.4-0.3,0.7-0.8,0.8-1.3
			C111.6,129.3,111.3,129.1,110.9,129.3z"/>
		<path class="st41" d="M110.9,129.3c-0.4,0.3-0.7,0.8-0.8,1.3c0,0.5,0.3,0.7,0.8,0.4c0.4-0.3,0.7-0.8,0.8-1.3
			C111.6,129.3,111.3,129.1,110.9,129.3z"/>
		<path class="st37" d="M82.5,101.8l23.7-13.7c0.7-0.3,1.4-0.3,2.1,0l23.7,13.7c0.6,0.4,1,1.1,1,1.8v6.2l-25.8,14.9l0,0l-25.8-14.9
			v-6.2C81.6,102.9,81.9,102.2,82.5,101.8z"/>
		<path class="st39" d="M82.5,101.8l23.7-13.7c0.7-0.3,1.4-0.3,2.1,0l23.7,13.7c0.6,0.4,1,1.1,1,1.8v6.2l-25.8,14.9l0,0l-25.8-14.9
			v-6.2C81.6,102.9,81.9,102.2,82.5,101.8z"/>
		<g class="st40">
			<path class="st26" d="M85.6,106.6l6.3,3.7c0.5,0.3,0.8,0.9,0.9,1.5v1.7c0,0.6-0.4,0.8-0.9,0.5l-6.3-3.7c-0.5-0.3-0.8-0.9-0.9-1.5
				v-1.7C84.7,106.6,85.1,106.4,85.6,106.6z"/>
		</g>
		<path class="st37" d="M86.4,108.6l0.4-0.2l0,0c0.2-0.1,0.4-0.1,0.5,0.1c0.4,0.3,0.7,0.8,0.8,1.3c0,0.2-0.1,0.4-0.2,0.5l0,0
			l-0.4,0.2l-0.1-0.1c-0.1,0-0.2,0-0.2-0.1c-0.4-0.3-0.7-0.8-0.8-1.3c0-0.1,0-0.1,0-0.2L86.4,108.6z"/>
		<path class="st41" d="M86.4,108.6l0.4-0.2l0,0c0.2-0.1,0.4-0.1,0.5,0.1c0.4,0.3,0.7,0.8,0.8,1.3c0,0.2-0.1,0.4-0.2,0.5l0,0
			l-0.4,0.2l-0.1-0.1c-0.1,0-0.2,0-0.2-0.1c-0.4-0.3-0.7-0.8-0.8-1.3c0-0.1,0-0.1,0-0.2L86.4,108.6z"/>
		<path class="st37" d="M86.9,108.6c0.4,0.3,0.7,0.8,0.8,1.3c0,0.5-0.3,0.7-0.8,0.4c-0.4-0.3-0.7-0.8-0.8-1.3
			C86.2,108.6,86.5,108.4,86.9,108.6z"/>
		<path class="st37" d="M89.6,110.5l0.4-0.2l0,0c0.2-0.1,0.4-0.1,0.5,0.1c0.4,0.3,0.7,0.8,0.8,1.3c0,0.2-0.1,0.4-0.2,0.5l0,0
			l-0.4,0.2l-0.1-0.1c-0.1,0-0.2,0-0.2-0.1c-0.4-0.3-0.7-0.8-0.8-1.3c0-0.1,0-0.1,0-0.2L89.6,110.5z"/>
		<path class="st41" d="M89.6,110.5l0.4-0.2l0,0c0.2-0.1,0.4-0.1,0.5,0.1c0.4,0.3,0.7,0.8,0.8,1.3c0,0.2-0.1,0.4-0.2,0.5l0,0
			l-0.4,0.2l-0.1-0.1c-0.1,0-0.2,0-0.2-0.1c-0.4-0.3-0.7-0.8-0.8-1.3c0-0.1,0-0.1,0-0.2L89.6,110.5z"/>
		<path class="st37" d="M90.2,110.5c0.4,0.3,0.7,0.8,0.8,1.3c0,0.5-0.3,0.7-0.8,0.4c-0.4-0.3-0.7-0.8-0.8-1.3
			C89.4,110.5,89.8,110.3,90.2,110.5z"/>
		<path class="st37" d="M107.3,116.9v7.8l25.8-14.9v-6.2c0-0.7-0.3-1.2-0.8-1.7c0.4,0.3,0.3,0.8-0.2,1.1l-23.7,13.7
			C108,116.9,107.6,117,107.3,116.9z"/>
		<path class="st38" d="M107.3,116.9v7.8l25.8-14.9v-6.2c0-0.7-0.3-1.2-0.8-1.7c0.4,0.3,0.3,0.8-0.2,1.1l-23.7,13.7
			C108,116.9,107.6,117,107.3,116.9z"/>
		<path class="st37" d="M130.6,105.7l-12.8,7.4c-0.5,0.3-0.8,0.9-0.9,1.5v1.7c0,0.6,0.4,0.8,0.9,0.5l12.8-7.4
			c0.5-0.3,0.8-0.9,0.9-1.5v-1.7C131.4,105.6,131.1,105.4,130.6,105.7z"/>
		<path class="st17" d="M130.6,107.2v0.8c0,0.1-0.1,0.2-0.2,0.3l-0.2,0.1c-0.1,0.1-0.2,0-0.2-0.1v-0.8c0-0.1,0.1-0.2,0.2-0.3
			l0.2-0.1C130.4,107,130.5,107,130.6,107.2C130.5,107.1,130.6,107.1,130.6,107.2z"/>
		<path class="st10" d="M129.7,107.7v0.8c0,0.1-0.1,0.2-0.2,0.3l-0.2,0.1c-0.1,0.1-0.2,0-0.2-0.1V108c0-0.1,0.1-0.2,0.2-0.3l0.2-0.1
			C129.6,107.5,129.7,107.6,129.7,107.7z"/>
		<path class="st17" d="M128.8,108.2v0.8c0,0.1-0.1,0.2-0.2,0.3l-0.2,0.1c-0.1,0.1-0.2,0-0.2-0.1v-0.8c0-0.1,0.1-0.2,0.2-0.3
			l0.2-0.1C128.7,108,128.8,108.1,128.8,108.2z"/>
		<path class="st17" d="M127.9,108.7v0.8c0,0.1-0.1,0.2-0.2,0.3l-0.2,0.1c-0.1,0.1-0.2,0-0.2-0.1V109c0-0.1,0.1-0.2,0.2-0.3l0.2-0.1
			C127.9,108.5,127.9,108.6,127.9,108.7z"/>
		<path class="st17" d="M127.1,109.2v0.8c0,0.1-0.1,0.2-0.2,0.3l-0.2,0.1c-0.1,0-0.1,0-0.2,0c0,0,0-0.1,0-0.1v-0.8
			c0-0.1,0.1-0.2,0.2-0.3l0.2-0.1C127,109,127.1,109.1,127.1,109.2z"/>
		<path class="st10" d="M126.2,109.7v0.8c0,0.1-0.1,0.2-0.2,0.3l-0.2,0.1c-0.1,0-0.1,0-0.2,0c0,0,0-0.1,0-0.1V110
			c0-0.1,0.1-0.2,0.2-0.3l0.2-0.1C126.1,109.5,126.2,109.5,126.2,109.7C126.2,109.6,126.2,109.6,126.2,109.7z"/>
		<path class="st10" d="M125.3,110.2v0.8c0,0.1-0.1,0.2-0.2,0.3l-0.2,0.1c-0.1,0.1-0.2,0-0.2-0.1v-0.8c0-0.1,0.1-0.2,0.2-0.3
			l0.2-0.1C125.2,110,125.3,110,125.3,110.2C125.3,110.1,125.3,110.2,125.3,110.2z"/>
		<path class="st17" d="M124.5,110.7v0.8c0,0.1-0.1,0.2-0.2,0.3l-0.2,0.1c-0.1,0.1-0.2,0-0.2-0.1V111c0-0.1,0.1-0.2,0.2-0.3l0.2-0.1
			C124.4,110.5,124.5,110.6,124.5,110.7z"/>
		<path class="st10" d="M123.6,111.2v0.8c0,0.1-0.1,0.2-0.2,0.3l-0.2,0.1c-0.1,0.1-0.2,0-0.2-0.1v-0.8c0-0.1,0.1-0.2,0.2-0.3
			l0.2-0.1C123.5,111,123.6,111.1,123.6,111.2z"/>
		<path class="st17" d="M122.7,111.7v0.8c0,0.1-0.1,0.2-0.2,0.3l-0.2,0.1c-0.1,0.1-0.2,0-0.2-0.1V112c0-0.1,0.1-0.2,0.2-0.3l0.2-0.1
			C122.7,111.5,122.7,111.6,122.7,111.7z"/>
		<path class="st17" d="M121.9,112.2v0.8c0,0.1-0.1,0.2-0.2,0.3l-0.2,0.1c-0.1,0-0.1,0-0.2,0c0,0,0-0.1,0-0.1v-0.8
			c0-0.1,0.1-0.2,0.2-0.3l0.2-0.1C121.8,112,121.9,112.1,121.9,112.2z"/>
		<path class="st17" d="M121,112.7v0.8c0,0.1-0.1,0.2-0.2,0.3l-0.2,0.1c-0.1,0-0.1,0-0.2,0c0,0,0-0.1,0-0.1V113
			c0-0.1,0.1-0.2,0.2-0.3l0.2-0.1C120.9,112.5,120.9,112.5,121,112.7C121,112.6,121,112.6,121,112.7z"/>
		<path class="st10" d="M120.1,113.2v0.8c0,0.1-0.1,0.2-0.2,0.3l-0.2,0.1c-0.1,0.1-0.2,0-0.2-0.1v-0.8c0-0.1,0.1-0.2,0.2-0.3
			l0.2-0.1C120.1,113,120.1,113.1,120.1,113.2z"/>
		<path class="st17" d="M119.3,113.7v0.8c0,0.1-0.1,0.2-0.2,0.3l-0.2,0.1c-0.1,0.1-0.2,0-0.2-0.1V114c0-0.1,0.1-0.2,0.2-0.3l0.2-0.1
			C119.2,113.5,119.3,113.6,119.3,113.7z"/>
		<path class="st17" d="M118.4,114.2v0.8c0,0.1-0.1,0.2-0.2,0.3l-0.2,0.1c-0.1,0.1-0.2,0-0.2-0.1v-0.8c0-0.1,0.1-0.2,0.2-0.3
			l0.2-0.1C118.3,114,118.4,114.1,118.4,114.2z"/>
		<path class="st37" d="M132,103l-23.7,13.7c-0.7,0.3-1.4,0.3-2.1,0L82.5,103c-0.6-0.3-0.6-0.9,0-1.2l23.7-13.7
			c0.7-0.3,1.4-0.3,2.1,0l23.7,13.7C132.6,102.1,132.6,102.7,132,103z"/>
		<path class="st44" d="M132,103l-23.7,13.7c-0.7,0.3-1.4,0.3-2.1,0L82.5,103c-0.6-0.3-0.6-0.9,0-1.2l23.7-13.7
			c0.7-0.3,1.4-0.3,2.1,0l23.7,13.7C132.6,102.1,132.6,102.7,132,103z"/>
		<polygon class="st17" points="129.8,113.6 129.8,111.7 107.3,124.7 107.3,126.6 		"/>
		<polygon class="st18" points="83.1,110.8 83.1,112.6 107.3,126.6 107.3,124.7 		"/>
		<path class="st37" d="M114.7,116.3l-0.4-0.2l0,0c-0.2-0.1-0.4-0.1-0.5,0.1c-0.4,0.3-0.7,0.8-0.8,1.3c0,0.2,0.1,0.4,0.2,0.5l0,0
			l0.4,0.2l0.1-0.1c0.1,0,0.2-0.1,0.2-0.1c0.4-0.3,0.7-0.8,0.8-1.3c0-0.1,0-0.1,0-0.2L114.7,116.3z"/>
		<path class="st42" d="M114.7,116.3l-0.4-0.2l0,0c-0.2-0.1-0.4-0.1-0.5,0.1c-0.4,0.3-0.7,0.8-0.8,1.3c0,0.2,0.1,0.4,0.2,0.5l0,0
			l0.4,0.2l0.1-0.1c0.1,0,0.2-0.1,0.2-0.1c0.4-0.3,0.7-0.8,0.8-1.3c0-0.1,0-0.1,0-0.2L114.7,116.3z"/>
		<path class="st37" d="M114.1,116.3c-0.4,0.3-0.7,0.8-0.8,1.3c0,0.5,0.3,0.7,0.8,0.4c0.4-0.3,0.7-0.8,0.8-1.3
			C114.9,116.3,114.5,116.1,114.1,116.3z"/>
		<path class="st41" d="M114.1,116.3c-0.4,0.3-0.7,0.8-0.8,1.3c0,0.5,0.3,0.7,0.8,0.4c0.4-0.3,0.7-0.8,0.8-1.3
			C114.9,116.3,114.5,116.1,114.1,116.3z"/>
		<path class="st37" d="M111.4,118.1l-0.4-0.2l0,0c-0.2-0.1-0.4-0.1-0.5,0.1c-0.4,0.3-0.7,0.8-0.8,1.3c0,0.2,0.1,0.4,0.2,0.5l0,0
			l0.4,0.2l0.1-0.1c0.1,0,0.2,0,0.2-0.1c0.4-0.3,0.7-0.8,0.8-1.3c0-0.1,0-0.1,0-0.2L111.4,118.1z"/>
		<path class="st42" d="M111.4,118.1l-0.4-0.2l0,0c-0.2-0.1-0.4-0.1-0.5,0.1c-0.4,0.3-0.7,0.8-0.8,1.3c0,0.2,0.1,0.4,0.2,0.5l0,0
			l0.4,0.2l0.1-0.1c0.1,0,0.2,0,0.2-0.1c0.4-0.3,0.7-0.8,0.8-1.3c0-0.1,0-0.1,0-0.2L111.4,118.1z"/>
		<path class="st37" d="M110.9,118.2c-0.4,0.3-0.7,0.8-0.8,1.3c0,0.5,0.3,0.7,0.8,0.4c0.4-0.3,0.7-0.8,0.8-1.3
			C111.6,118.1,111.3,117.9,110.9,118.2z"/>
		<path class="st41" d="M110.9,118.2c-0.4,0.3-0.7,0.8-0.8,1.3c0,0.5,0.3,0.7,0.8,0.4c0.4-0.3,0.7-0.8,0.8-1.3
			C111.6,118.1,111.3,117.9,110.9,118.2z"/>
	</g>
</g>
<g id="speech-bubble--inject-1">
	<path class="st37" d="M152.8,77.8l-1.6-2.9l1.3-3.6V69l-3.9,2.2v2.2l1.7,2.9c0,0.1,0.1,0.1,0.1,0.1l0,0L152.8,77.8z"/>
	<path class="st41" d="M152.8,77.8l-1.6-2.9l1.3-3.6V69l-3.9,2.2v2.2l1.7,2.9c0,0.1,0.1,0.1,0.1,0.1l0,0L152.8,77.8z"/>
	<path class="st37" d="M162,51.3c0-0.8-0.5-1.6-1.1-2l-0.9-0.5c-0.7-0.4-1.6-0.4-2.3,0l-14.4,8.3c-0.7,0.5-1.1,1.2-1.1,2V75
		c0,0.8,0.5,1.6,1.1,2l0.9,0.5c0.7,0.4,1.6,0.4,2.3,0l4.6-2.7l1.6,2.9c0.1,0.1,0.2,0.2,0.3,0.1c0.1,0,0.1-0.1,0.1-0.1l1.8-5l5.9-3.4
		c0.7-0.4,1.1-1.2,1.1-2V51.3z"/>
	<path class="st41" d="M142,75c0,0.8,0.5,1.6,1.1,2l0.9,0.5c0.7,0.3,1.4,0.4,2.1,0.1c-0.6,0.2-1-0.1-1-0.8V61c0-0.4,0.1-0.8,0.3-1.1
		l-3.2-1.9c-0.2,0.3-0.3,0.7-0.3,1.1L142,75L142,75z"/>
	<path class="st39" d="M162,51c-0.1-0.5-0.6-0.7-1.1-0.3L146.4,59c-0.3,0.2-0.6,0.5-0.8,0.9l-3.3-1.9c0.2-0.3,0.5-0.7,0.8-0.9
		l14.4-8.3c0.7-0.4,1.6-0.4,2.3,0l0.9,0.5C161.4,49.7,161.8,50.3,162,51z"/>
	<polygon class="st26" points="158.7,61.9 153.6,57.5 148.6,67.7 151.2,66.2 151.2,71.6 156.1,68.7 156.1,63.4 	"/>
</g>
<g id="Cloud--inject-1">
	<path class="st37" d="M105,73.9C105,73.8,104.9,73.8,105,73.9c-0.2-0.1-0.3-0.1-0.4-0.1c0,0-0.1,0.1-0.1,0.1l0,0v2.7l0,0
		c0,0,0,0.1,0.1,0.1c0.1,0.1,0.2,0.1,0.3,0c0,0,0.1-0.1,0.1-0.1l0,0V73.9z"/>
	<path class="st37" d="M105,77.4C105,77.3,104.9,77.3,105,77.4c-0.2-0.1-0.3-0.1-0.4-0.1c0,0-0.1,0.1-0.1,0.1l0,0v1.3l0,0
		c0,0,0,0.1,0.1,0.1c0.1,0.1,0.2,0.1,0.3,0c0,0,0.1-0.1,0.1-0.1l0,0V77.4z"/>
	<path class="st37" d="M105,79.5C105,79.5,104.9,79.4,105,79.5c-0.2-0.1-0.3-0.1-0.4-0.1c0,0-0.1,0.1-0.1,0.1l0,0v1.3l0,0
		c0,0,0,0.1,0.1,0.1c0.1,0.1,0.2,0.1,0.3,0c0,0,0.1-0.1,0.1-0.1l0,0V79.5z"/>
	<path class="st37" d="M105,81.6C105,81.6,104.9,81.5,105,81.6c-0.2-0.1-0.3-0.1-0.4-0.1c0,0-0.1,0.1-0.1,0.1l0,0v1.3l0,0
		c0,0,0,0.1,0.1,0.1c0.1,0.1,0.2,0.1,0.3,0c0,0,0.1-0.1,0.1-0.1l0,0V81.6z"/>
	<path class="st37" d="M105,83.7C105,83.7,104.9,83.7,105,83.7c-0.2-0.1-0.3-0.1-0.4-0.1c0,0-0.1,0.1-0.1,0.1l0,0V85l0,0
		c0,0,0,0.1,0.1,0.1c0.1,0.1,0.2,0.1,0.3,0c0,0,0.1-0.1,0.1-0.1l0,0V83.7z"/>
	<path class="st37" d="M105,85.9C105,85.8,104.9,85.8,105,85.9c-0.2-0.1-0.3-0.1-0.4-0.1c0,0-0.1,0.1-0.1,0.1l0,0v1.3l0,0
		c0,0,0,0.1,0.1,0.1c0.1,0.1,0.2,0.1,0.3,0c0,0,0.1-0.1,0.1-0.1l0,0V85.9z"/>
	<path class="st37" d="M105,88C105,87.9,104.9,87.9,105,88c-0.2-0.1-0.3-0.1-0.4-0.1c0,0-0.1,0.1-0.1,0.1l0,0v1.3l0,0
		c0,0,0,0.1,0.1,0.1c0.1,0.1,0.2,0.1,0.3,0c0,0,0.1-0.1,0.1-0.1l0,0V88z"/>
	<path class="st37" d="M105,90.1C105,90.1,104.9,90,105,90.1c-0.2-0.1-0.3-0.1-0.4-0.1c0,0-0.1,0.1-0.1,0.1l0,0v1.3l0,0
		c0,0,0,0.1,0.1,0.1c0.1,0.1,0.2,0.1,0.3,0c0,0,0.1-0.1,0.1-0.1l0,0V90.1z"/>
	<path class="st37" d="M105,92.2C105,92.2,104.9,92.2,105,92.2c-0.2-0.1-0.3-0.1-0.4-0.1c0,0-0.1,0.1-0.1,0.1l0,0v1.3l0,0
		c0,0,0,0.1,0.1,0.1c0.1,0.1,0.2,0.1,0.3,0c0,0,0.1-0.1,0.1-0.1l0,0V92.2z"/>
	<path class="st37" d="M105,94.4C105,94.3,104.9,94.3,105,94.4c-0.2-0.1-0.3-0.1-0.4-0.1c0,0-0.1,0.1-0.1,0.1l0,0v1.3l0,0
		c0,0,0,0.1,0.1,0.1c0.1,0.1,0.2,0.1,0.3,0c0,0,0.1-0.1,0.1-0.1l0,0V94.4z"/>
	<path class="st37" d="M105,96.5C105,96.4,104.9,96.4,105,96.5c-0.2-0.1-0.3-0.1-0.4-0.1c0,0-0.1,0.1-0.1,0.1l0,0v1.3l0,0
		c0,0,0,0.1,0.1,0.1c0.1,0.1,0.2,0.1,0.3,0c0,0,0.1-0.1,0.1-0.1l0,0V96.5z"/>
	<path class="st37" d="M105,98.6C105,98.6,104.9,98.5,105,98.6c-0.2-0.1-0.3-0.1-0.4-0.1c0,0-0.1,0.1-0.1,0.1l0,0v1.3l0,0
		c0,0,0,0.1,0.1,0.1c0.1,0.1,0.2,0.1,0.3,0c0,0,0.1-0.1,0.1-0.1l0,0V98.6z"/>
	<path class="st37" d="M105,100.7C105,100.7,104.9,100.6,105,100.7c-0.2-0.1-0.3-0.1-0.4-0.1c0,0-0.1,0.1-0.1,0.1l0,0v1.3l0,0
		c0,0,0,0.1,0.1,0.1c0.1,0.1,0.2,0.1,0.3,0c0,0,0.1-0.1,0.1-0.1l0,0V100.7z"/>
	<path class="st17" d="M106.2,71c0-0.2-0.2-0.5-0.4-0.6c-0.6-0.3-1.4-0.3-2,0c-0.2,0.1-0.4,0.3-0.4,0.6l0,0v3.8l0,0
		c0,0.2,0.2,0.5,0.4,0.6c0.6,0.3,1.4,0.3,2,0c0.2-0.1,0.4-0.3,0.4-0.6l0,0V71L106.2,71z"/>
	<path class="st18" d="M107.1,67.2c0-0.4-0.3-0.8-0.7-0.9c-1-0.5-2.2-0.5-3.2,0c-0.4,0.2-0.6,0.5-0.7,0.9l0,0v3.7l0,0
		c0,0.4,0.3,0.8,0.7,1c1,0.5,2.2,0.5,3.2,0c0.4-0.2,0.7-0.6,0.7-1l0,0L107.1,67.2L107.1,67.2z"/>
	<path class="st37" d="M113.1,69.1C113.1,69.1,113.1,69.1,113.1,69.1c-0.2-0.1-0.3-0.1-0.4-0.1c0,0-0.1,0.1-0.1,0.1l0,0v2.7l0,0
		c0,0,0,0.1,0.1,0.1c0.1,0.1,0.2,0.1,0.3,0c0,0,0.1-0.1,0.1-0.1l0,0V69.1z"/>
	<path class="st37" d="M113.1,72.7C113.1,72.6,113.1,72.6,113.1,72.7c-0.2-0.1-0.3-0.1-0.4-0.1c0,0-0.1,0.1-0.1,0.1l0,0v1.3l0,0
		c0,0,0,0.1,0.1,0.1c0.1,0.1,0.2,0.1,0.3,0c0,0,0.1-0.1,0.1-0.1l0,0V72.7z"/>
	<path class="st37" d="M113.1,74.8C113.1,74.7,113.1,74.7,113.1,74.8c-0.2-0.1-0.3-0.1-0.4-0.1c0,0-0.1,0.1-0.1,0.1l0,0v1.3l0,0
		c0,0,0,0.1,0.1,0.1c0.1,0.1,0.2,0.1,0.3,0c0,0,0.1-0.1,0.1-0.1l0,0V74.8z"/>
	<path class="st37" d="M113.1,76.9C113.1,76.9,113.1,76.8,113.1,76.9c-0.2-0.1-0.3-0.1-0.4-0.1c0,0-0.1,0.1-0.1,0.1l0,0v1.3l0,0
		c0,0,0,0.1,0.1,0.1c0.1,0.1,0.2,0.1,0.3,0c0,0,0.1-0.1,0.1-0.1l0,0V76.9z"/>
	<path class="st37" d="M113.1,79C113.1,79,113.1,78.9,113.1,79c-0.2-0.1-0.3-0.1-0.4-0.1c0,0-0.1,0.1-0.1,0.1l0,0v1.3l0,0
		c0,0,0,0.1,0.1,0.1c0.1,0.1,0.2,0.1,0.3,0c0,0,0.1-0.1,0.1-0.1l0,0V79z"/>
	<path class="st37" d="M113.1,81.1C113.1,81.1,113.1,81.1,113.1,81.1c-0.2-0.1-0.3-0.1-0.4-0.1c0,0-0.1,0.1-0.1,0.1l0,0v1.3l0,0
		c0,0,0,0.1,0.1,0.1c0.1,0.1,0.2,0.1,0.3,0c0,0,0.1-0.1,0.1-0.1l0,0V81.1z"/>
	<path class="st37" d="M113.1,83.3C113.1,83.2,113.1,83.2,113.1,83.3c-0.2-0.1-0.3-0.1-0.4-0.1c0,0-0.1,0.1-0.1,0.1l0,0v1.3l0,0
		c0,0,0,0.1,0.1,0.1c0.1,0.1,0.2,0.1,0.3,0c0,0,0.1-0.1,0.1-0.1l0,0V83.3z"/>
	<path class="st37" d="M113.1,85.4C113.1,85.3,113.1,85.3,113.1,85.4c-0.2-0.1-0.3-0.1-0.4-0.1c0,0-0.1,0.1-0.1,0.1l0,0v1.3l0,0
		c0,0,0,0.1,0.1,0.1c0.1,0.1,0.2,0.1,0.3,0c0,0,0.1-0.1,0.1-0.1l0,0V85.4z"/>
	<path class="st37" d="M113.1,87.5C113.1,87.5,113.1,87.4,113.1,87.5c-0.2-0.1-0.3-0.1-0.4-0.1c0,0-0.1,0.1-0.1,0.1l0,0v1.3l0,0
		c0,0,0,0.1,0.1,0.1c0.1,0.1,0.2,0.1,0.3,0c0,0,0.1-0.1,0.1-0.1l0,0V87.5z"/>
	<path class="st37" d="M113.1,89.6C113.1,89.6,113.1,89.5,113.1,89.6c-0.2-0.1-0.3-0.1-0.4-0.1c0,0-0.1,0.1-0.1,0.1l0,0v1.3l0,0
		c0,0,0,0.1,0.1,0.1c0.1,0.1,0.2,0.1,0.3,0c0,0,0.1-0.1,0.1-0.1l0,0V89.6z"/>
	<path class="st37" d="M113.1,91.7C113.1,91.7,113.1,91.7,113.1,91.7c-0.2-0.1-0.3-0.1-0.4-0.1c0,0-0.1,0.1-0.1,0.1l0,0V93l0,0
		c0,0,0,0.1,0.1,0.1c0.1,0.1,0.2,0.1,0.3,0c0,0,0.1-0.1,0.1-0.1l0,0V91.7z"/>
	<path class="st37" d="M113.1,93.9C113.1,93.8,113.1,93.8,113.1,93.9c-0.2-0.1-0.3-0.1-0.4-0.1c0,0-0.1,0.1-0.1,0.1l0,0v1.3l0,0
		c0,0,0,0.1,0.1,0.1c0.1,0.1,0.2,0.1,0.3,0c0,0,0.1-0.1,0.1-0.1l0,0V93.9z"/>
	<path class="st37" d="M113.1,96C113.1,96,113.1,95.9,113.1,96c-0.2-0.1-0.3-0.1-0.4-0.1c0,0-0.1,0.1-0.1,0.1l0,0v1.3l0,0
		c0,0,0,0.1,0.1,0.1c0.1,0.1,0.2,0.1,0.3,0c0,0,0.1-0.1,0.1-0.1l0,0V96z"/>
	<path class="st17" d="M114.3,66.2c0-0.2-0.2-0.5-0.4-0.6c-0.6-0.3-1.4-0.3-2,0c-0.2,0.1-0.4,0.3-0.4,0.6l0,0V70l0,0
		c0,0.3,0.2,0.5,0.4,0.6c0.6,0.3,1.4,0.3,2,0c0.2-0.1,0.4-0.3,0.4-0.6l0,0V66.2z"/>
	<path class="st18" d="M115.2,62.5c0-0.4-0.3-0.8-0.7-0.9c-1-0.5-2.2-0.5-3.3,0c-0.4,0.2-0.6,0.5-0.7,0.9l0,0v3.7l0,0
		c0,0.4,0.3,0.8,0.7,1c1,0.5,2.2,0.5,3.3,0c0.4-0.2,0.7-0.6,0.7-1l0,0L115.2,62.5L115.2,62.5z"/>
	<path class="st37" d="M96.8,78.5C96.8,78.4,96.8,78.4,96.8,78.5c-0.2-0.1-0.3-0.1-0.4-0.1c0,0-0.1,0.1-0.1,0.1l0,0v2.7l0,0
		c0,0,0,0.1,0.1,0.1c0.1,0.1,0.2,0.1,0.3,0c0,0,0.1-0.1,0.1-0.1l0,0V78.5z"/>
	<path class="st37" d="M96.4,83.3L96.4,83.3C96.4,83.3,96.4,83.4,96.4,83.3c0.2,0.1,0.3,0.1,0.4,0.1c0,0,0.1-0.1,0.1-0.1l0,0V82l0,0
		c0,0,0-0.1-0.1-0.1c-0.1-0.1-0.2-0.1-0.3,0c0,0-0.1,0.1-0.1,0.1l0,0"/>
	<path class="st37" d="M96.8,84.1C96.8,84.1,96.8,84,96.8,84.1C96.7,84,96.5,84,96.4,84c0,0-0.1,0.1-0.1,0.1l0,0v1.3l0,0
		c0,0,0,0.1,0.1,0.1c0.1,0.1,0.2,0.1,0.3,0c0,0,0.1-0.1,0.1-0.1l0,0V84.1z"/>
	<path class="st37" d="M96.8,86.3L96.8,86.3C96.8,86.2,96.8,86.2,96.8,86.3c-0.2-0.1-0.3-0.1-0.4-0.1c0,0-0.1,0.1-0.1,0.1l0,0v1.3
		l0,0c0,0,0,0.1,0.1,0.1c0.1,0.1,0.2,0.1,0.3,0c0,0,0.1-0.1,0.1-0.1l0,0"/>
	<path class="st37" d="M96.8,88.4C96.8,88.3,96.8,88.3,96.8,88.4c-0.2-0.1-0.3-0.1-0.4-0.1c0,0-0.1,0.1-0.1,0.1l0,0v1.3l0,0
		c0,0,0,0.1,0.1,0.1c0.1,0.1,0.2,0.1,0.3,0c0,0,0.1-0.1,0.1-0.1l0,0V88.4z"/>
	<path class="st37" d="M96.8,90.5L96.8,90.5C96.8,90.5,96.8,90.4,96.8,90.5c-0.2-0.1-0.3-0.1-0.4-0.1c0,0-0.1,0.1-0.1,0.1l0,0v1.3
		l0,0c0,0,0,0.1,0.1,0.1c0.1,0.1,0.2,0.1,0.3,0c0,0,0.1-0.1,0.1-0.1l0,0"/>
	<path class="st37" d="M96.8,92.6C96.8,92.6,96.8,92.5,96.8,92.6c-0.2-0.1-0.3-0.1-0.4-0.1c0,0-0.1,0.1-0.1,0.1l0,0v1.3l0,0
		c0,0,0,0.1,0.1,0.1c0.1,0.1,0.2,0.1,0.3,0c0,0,0.1-0.1,0.1-0.1l0,0V92.6z"/>
	<path class="st37" d="M96.8,94.7L96.8,94.7C96.8,94.7,96.8,94.7,96.8,94.7c-0.2-0.1-0.3-0.1-0.4-0.1c0,0-0.1,0.1-0.1,0.1l0,0V96
		l0,0c0,0,0,0.1,0.1,0.1c0.1,0.1,0.2,0.1,0.3,0c0,0,0.1-0.1,0.1-0.1l0,0"/>
	<path class="st37" d="M96.8,96.9C96.8,96.8,96.8,96.8,96.8,96.9c-0.2-0.1-0.3-0.1-0.4-0.1c0,0-0.1,0.1-0.1,0.1l0,0v1.3l0,0
		c0,0,0,0.1,0.1,0.1c0.1,0.1,0.2,0.1,0.3,0c0,0,0.1-0.1,0.1-0.1l0,0V96.9z"/>
	<path class="st37" d="M96.8,99L96.8,99C96.8,98.9,96.8,98.9,96.8,99c-0.2-0.1-0.3-0.1-0.4-0.1c0,0-0.1,0.1-0.1,0.1l0,0v1.3l0,0
		c0,0,0,0.1,0.1,0.1c0.1,0.1,0.2,0.1,0.3,0c0,0,0.1-0.1,0.1-0.1l0,0"/>
	<path class="st37" d="M96.8,101.1C96.8,101.1,96.8,101,96.8,101.1c-0.2-0.1-0.3-0.1-0.4-0.1c0,0-0.1,0.1-0.1,0.1l0,0v1.3l0,0
		c0,0,0,0.1,0.1,0.1c0.1,0.1,0.2,0.1,0.3,0c0,0,0.1-0.1,0.1-0.1l0,0V101.1L96.8,101.1z"/>
	<path class="st37" d="M96.8,103.2L96.8,103.2C96.8,103.2,96.8,103.2,96.8,103.2c-0.2-0.1-0.3-0.1-0.4-0.1c0,0-0.1,0.1-0.1,0.1l0,0
		v1.3l0,0c0,0,0,0.1,0.1,0.1c0.1,0.1,0.2,0.1,0.3,0c0,0,0.1-0.1,0.1-0.1l0,0"/>
	<path class="st37" d="M96.8,105.3C96.8,105.3,96.8,105.3,96.8,105.3c-0.2-0.1-0.3-0.1-0.4-0.1c0,0-0.1,0.1-0.1,0.1l0,0v1.3l0,0
		c0,0,0,0.1,0.1,0.1c0.1,0.1,0.2,0.1,0.3,0c0,0,0.1-0.1,0.1-0.1l0,0V105.3z"/>
	<path class="st17" d="M98,75.6c0-0.2-0.2-0.5-0.4-0.6c-0.6-0.3-1.4-0.3-2,0c-0.2,0.1-0.4,0.3-0.4,0.6l0,0v3.8l0,0
		c0,0.2,0.2,0.5,0.4,0.6c0.6,0.3,1.4,0.3,2,0c0.2-0.1,0.4-0.3,0.4-0.6l0,0V75.6z"/>
	<path class="st18" d="M98.9,71.8c0-0.4-0.3-0.8-0.7-0.9c-1-0.5-2.2-0.5-3.3,0c-0.4,0.2-0.6,0.5-0.7,0.9l0,0v3.7l0,0
		c0,0.4,0.3,0.8,0.7,1c1,0.5,2.2,0.5,3.3,0c0.4-0.2,0.7-0.6,0.7-1l0,0L98.9,71.8L98.9,71.8z"/>
	<g id="cloud--inject-1">
		<path class="st45" d="M136.1,36.9L136.1,36.9l-0.2-0.1l-0.1-0.1l-4-2.4c0-0.1,0-0.2,0-0.3c0-5-1.7-8.4-4.3-9.9l0,0l-7.7-4.5l0,0
			c-2.1-1.2-4.9-1.1-7.9,0.6c-1.4,0.8-2.7,1.9-3.8,3c-0.5-0.5-1.1-1-1.7-1.3l0,0l-7.5-4.3l0,0c-2.7-1.8-6.4-1.8-10.4,0.5
			C79.9,23.2,73,36.4,73,47.7c0,1.2,0.1,2.5,0.3,3.8L72.2,52c-5.4,3.1-9.8,11.5-9.8,18.7l0,0c0,4,1.3,6.8,3.4,8l0,0l7.8,4.6l0,0
			c1.7,1,3.9,0.9,6.3-0.5l14.2-8.2l37.9-21.9c3.2-1.9,5.9-6.9,5.9-11.2l0,0C138,39.3,137.3,37.6,136.1,36.9z"/>
		<path class="st46" d="M136.1,36.9L136.1,36.9l-0.2-0.1l-0.1-0.1l-4-2.4c0-0.1,0-0.2,0-0.3c0-5-1.7-8.4-4.3-9.9l0,0l-7.7-4.5l0,0
			c-2.1-1.2-4.9-1.1-7.9,0.6c-1.4,0.8-2.7,1.9-3.8,3c-0.5-0.5-1.1-1-1.7-1.3l0,0l-7.5-4.3l0,0c-2.7-1.8-6.4-1.8-10.4,0.5
			C79.9,23.2,73,36.4,73,47.7c0,1.2,0.1,2.5,0.3,3.8L72.2,52c-5.4,3.1-9.8,11.5-9.8,18.7l0,0c0,4,1.3,6.8,3.4,8l0,0l7.8,4.6l0,0
			c1.7,1,3.9,0.9,6.3-0.5l14.2-8.2l37.9-21.9c3.2-1.9,5.9-6.9,5.9-11.2l0,0C138,39.3,137.3,37.6,136.1,36.9z"/>
		<path class="st47" d="M127.5,24.2L127.5,24.2c-2.1-1.2-4.9-1-7.9,0.7c-1.5,0.9-2.8,2-4,3.2l-7.1-4.1l-0.7-0.4l0.2-0.2
			c1.1-1.2,2.4-2.2,3.8-3c3-1.8,5.8-1.9,7.9-0.6l0,0L127.5,24.2z"/>
		<path class="st13" d="M108,23.4c0.2,0.2,0.4,0.4,0.5,0.6l-0.7-0.4L108,23.4z"/>
		<path class="st47" d="M106.1,22L106.1,22c-2.7-1.5-6.1-1.3-9.9,0.9S88.8,29,86.1,33.7l-7.8-4.5c2.7-4.7,6.2-8.6,10.1-10.8
			c4-2.3,7.7-2.4,10.5-0.5l0,0L106.1,22z"/>
		<path class="st47" d="M81.1,56L80,56.6c-3.7,2.1-6.8,6.6-8.5,11.6l-7.8-4.5c1.3-3.9,3.6-7.6,6.4-10l3.2-2.2L81.1,56z"/>
		<path class="st37" d="M132.1,37.1l-0.6,0.3c0.1-1.1,0.2-2.2,0.2-3.3c0-9-5.4-13.1-12.2-9.2c-3.1,1.8-6,5-8.1,8.8
			c-0.3-10.8-7.1-15.6-15.3-10.9c-8.5,4.9-15.4,18-15.4,29.4c0,1.3,0.1,2.5,0.3,3.8L80,56.6c-5.4,3.1-9.8,11.5-9.8,18.7l0,0
			c0,7.2,4.4,10.7,9.8,7.6l14.2-8.2l0,0l37.9-21.9c3.2-1.9,5.9-6.9,5.9-11.2l0,0C138,37.2,135.4,35.2,132.1,37.1z"/>
		<path class="st33" d="M132.1,37.1l-0.6,0.3c0.1-1.1,0.2-2.2,0.2-3.3c0-9-5.4-13.1-12.2-9.2c-3.1,1.8-6,5-8.1,8.8
			c-0.3-10.8-7.1-15.6-15.3-10.9c-8.5,4.9-15.4,18-15.4,29.4c0,1.3,0.1,2.5,0.3,3.8L80,56.6c-5.4,3.1-9.8,11.5-9.8,18.7l0,0
			c0,7.2,4.4,10.7,9.8,7.6l14.2-8.2l0,0l37.9-21.9c3.2-1.9,5.9-6.9,5.9-11.2l0,0C138,37.2,135.4,35.2,132.1,37.1z"/>
		<path class="st33" d="M76.2,81.9c-2.4,0-4-2.6-4-6.7c0-6.4,4-14.2,8.8-17l1.1-0.6c0.7-0.4,1.1-1.2,1-2l0,0
			c-0.2-1.1-0.3-2.3-0.3-3.4c0-10.7,6.4-23,14.4-27.6c1.8-1,3.5-1.6,5.1-1.6c4.3,0,7.1,4.1,7.2,10.8l0,0c0,1.1,0.9,2,2.1,2
			c0.7,0,1.3-0.4,1.7-1l0,0c2.1-3.6,4.7-6.5,7.4-8.1c1.2-0.7,2.5-1.1,3.8-1.2c3.2,0,5.3,3.4,5.3,8.6c0,1-0.1,2-0.2,3l0,0
			c-0.1,1.1,0.6,2.1,1.7,2.2c0.4,0.1,0.9,0,1.3-0.2l0.6-0.3c0.4-0.3,0.9-0.4,1.3-0.4c1.1,0,1.5,1.6,1.5,3.1c0,3.6-2.2,8-4.9,9.5
			L79.1,81C78.2,81.6,77.2,81.9,76.2,81.9L76.2,81.9z"/>
	</g>
</g>
<g id="Plants--inject-1">
	<g id="plants--inject-1">
		<path class="st48" d="M315,286.3c-0.5-4.9-2.3-14,1-22.9c2.4-6.5,7.3-13,12.4-12.9c4.8,0.1,5.9,7.3,1.9,12.7s-7.3,14.3-7.5,25.3
			l-4.2,7L315,286.3z"/>
		<path class="st26" d="M319.3,289.8c0.2-0.1,0.3-0.2,0.2-0.4c-2.8-13.9,0-26.1,7.9-35.5c0.1-0.1,0.1-0.4,0-0.5s-0.4-0.1-0.5,0l0,0
			c-8,9.6-10.8,22-8,36.1C318.9,289.7,319.1,289.8,319.3,289.8L319.3,289.8L319.3,289.8z"/>
		<path class="st49" d="M323,292.7c2.8,1.2,5.9,1.6,9,1.3c5.3-0.6,6.9-3.6,6.9-3.6s-3.3-4.2-6.5-4.8c3.3-0.1,6.6,0.3,9.8,1.2
			c0,0,3.1-0.8,3.1-5.8c0,0-2.6-2.3-9.2-2.2c0,0,3.5-2,9.2-2c0.4,0,0.5-6.5,0.3-9.5c-0.2-3-1.4-2.6-3.7-2.6s-9.9,1.6-11,3.2
			c-1,1.6-0.6,5.9-0.6,5.9s-1.9-2-2.2-4.1c-1.6,0.1-3.1,0.7-4.3,1.8c-1.3,1.2-2,2.2-1.9,4c0.2,2.1,0.6,4.1,1.2,6.1
			c-1.4-2.2-2.2-4.7-2.1-7.3c0,0-3.9,3.4-3.9,6.3C317.2,283.5,317.3,289.2,323,292.7z"/>
		<path class="st26" d="M323.1,293c0.1,0,0.2-0.1,0.2-0.3c1.8-9.6,14.3-23.5,19.5-26c0.2-0.1,0.2-0.3,0.2-0.5l0,0
			c-0.1-0.2-0.3-0.2-0.4-0.2c0,0,0,0,0,0c-5.3,2.6-18,16.8-19.9,26.5c0,0.2,0.1,0.4,0.3,0.4C323,293.1,323.1,293.1,323.1,293z"/>
	</g>
</g>
<g id="Shelves--inject-1">
	<g id="book-shelf--inject-1">
		<g id="Shelf--inject-1">
			<path class="st11" d="M356.1,316.6v-4l0,0c-0.1-0.5-0.4-0.9-0.8-1.1l-24.2-13.9c-1.2-0.6-2.5-0.6-3.7,0l-69.5,39.9
				c-0.4,0.2-0.7,0.6-0.8,1.1l0,0v4l0,0c0.1,0.5,0.4,0.9,0.8,1.1l24.2,13.9c1.2,0.6,2.5,0.6,3.7,0l69.5-39.9
				C355.8,317.5,356,317,356.1,316.6L356.1,316.6z"/>
			<path class="st10" d="M257.9,339.7l24.2,13.9c1.2,0.6,2.5,0.6,3.7,0l69.5-39.9c1-0.6,1-1.5,0-2.1l-24.2-13.9
				c-1.2-0.6-2.5-0.6-3.7,0l-69.5,39.9C256.8,338.1,256.8,339.1,257.9,339.7z"/>
			<path class="st4" d="M283.9,354v4c-0.6,0-1.3-0.1-1.9-0.4l-24.2-13.9c-0.4-0.2-0.7-0.6-0.8-1.1l0,0v-4l0,0c0-0.2,0.1-0.3,0.2-0.5
				c-0.3,0.5-0.1,1.1,0.6,1.5l24.2,13.9C282.6,353.9,283.2,354,283.9,354z"/>
		</g>
		<polygon class="st4" points="287.1,323.7 307.6,335.4 341.4,316 320.9,304.3 		"/>
		<path class="st26" d="M307.8,334.5L288,323.2c0.5-1.7,0.5-3.5-0.1-5.1l19.6,11.2C307.6,329.3,307.9,330.5,307.8,334.5z"/>
		<path class="st19" d="M306.5,327.7c1.1,0.7,1.8,1.9,1.9,3.3v3.8c0,1.2-0.9,1.7-1.9,1.1l-19.5-11.2v-0.9l19.2,11
			c0.6,0.4,1.1,0.1,1.1-0.7v-3.5c0-0.8-0.5-1.5-1.1-2l-19.2-11v-1.1L306.5,327.7z"/>
		<path class="st4" d="M287.1,316.5l33.9-19.4l19.5,11.2c1.1,0.7,1.8,1.9,1.9,3.3v3.8c0.1,0.5-0.2,1-0.6,1.2L307.9,336
			c0.4-0.3,0.6-0.8,0.6-1.2v-3.8c-0.1-1.3-0.8-2.5-1.9-3.3L287.1,316.5z"/>
		<path class="st19" d="M307.9,329.1c0.3,0.6,0.5,1.2,0.6,1.9v3.8c0.1,0.5-0.2,1-0.6,1.2l33.9-19.4c0.4-0.3,0.6-0.8,0.6-1.2v-3.8
			c0-0.7-0.2-1.3-0.6-1.9L307.9,329.1z"/>
		<polygon class="st4" points="287.1,314.1 307.6,325.8 341.4,306.4 320.9,294.7 		"/>
		<path class="st26" d="M307.8,324.9L288,313.6c0.5-1.7,0.5-3.5-0.1-5.1l19.6,11.2C307.6,319.6,307.9,320.9,307.8,324.9z"/>
		<path class="st19" d="M306.5,318.1c1.1,0.7,1.8,1.9,1.9,3.3v3.8c0,1.2-0.9,1.7-1.9,1.1l-19.5-11.2v-1l19.2,11
			c0.6,0.4,1.1,0.1,1.1-0.6v-3.5c0-0.8-0.5-1.5-1.1-2l-19.2-11v-1.1L306.5,318.1z"/>
		<path class="st10" d="M287.1,306.9l33.9-19.4l19.5,11.2c1.1,0.7,1.8,1.9,1.9,3.3v3.8c0.1,0.5-0.2,1-0.6,1.2l-33.9,19.4
			c0.4-0.3,0.6-0.8,0.6-1.2v-3.8c-0.1-1.3-0.8-2.5-1.9-3.3L287.1,306.9z"/>
		<path class="st11" d="M307.9,319.5c0.3,0.6,0.5,1.2,0.6,1.9v3.8c0.1,0.5-0.2,1-0.6,1.2l33.9-19.4c0.4-0.3,0.6-0.8,0.6-1.2v-3.8
			c0-0.7-0.2-1.3-0.6-1.9L307.9,319.5z"/>
		<polygon class="st4" points="278.4,287.2 300.2,299.8 300.2,341.2 278.4,328.7 		"/>
		<path class="st26" d="M299.5,300.5l-21.1-12.1c-1.3,1.4-3,2.3-4.8,2.6l20.9,12C294.5,303,295.8,302.7,299.5,300.5z"/>
		<path class="st10" d="M292.5,303c1.3,0.6,2.8,0.6,4,0l3.6-2c1.1-0.6,1.1-1.7,0-2.3l-20.8-12l-0.9,0.5l20.5,11.8
			c0.4,0.1,0.6,0.5,0.5,0.9c-0.1,0.2-0.2,0.4-0.5,0.5l-3.3,1.9c-0.8,0.4-1.7,0.4-2.4,0l-20.5-11.8l-1,0.6L292.5,303z"/>
		<path class="st4" d="M271.6,291v41.5l20.8,11.9c1.3,0.6,2.8,0.6,4,0l3.6-2c0.5-0.2,0.8-0.6,0.8-1.2v-41.5c0,0.5-0.4,1-0.8,1.2
			l-3.6,2.1c-1.3,0.6-2.8,0.6-4,0L271.6,291z"/>
		<path class="st19" d="M294.5,303.5c0.7,0,1.4-0.1,2-0.5l3.6-2c0.5-0.2,0.8-0.6,0.8-1.2v41.5c0,0.5-0.4,1-0.8,1.2l-3.6,2
			c-0.6,0.3-1.3,0.5-2,0.5V303.5z"/>
		<polygon class="st19" points="269.5,292.3 291.3,304.9 291.3,346.4 269.5,333.8 		"/>
		<path class="st26" d="M290.6,305.6l-21.1-12.1c-1.3,1.4-3,2.3-4.8,2.6l20.9,12C285.5,308.2,286.9,307.9,290.6,305.6z"/>
		<path class="st10" d="M283.5,308.1c1.3,0.6,2.8,0.6,4,0l3.6-2c1.1-0.6,1.1-1.7,0-2.3l-20.8-11.9l-0.9,0.5l20.5,11.8
			c0.4,0.1,0.6,0.5,0.5,0.9c-0.1,0.2-0.2,0.4-0.5,0.5l-3.3,1.9c-0.8,0.4-1.7,0.4-2.4,0l-20.4-11.8l-1,0.6L283.5,308.1z"/>
		<path class="st19" d="M262.7,296.2v41.5l20.8,11.9c1.3,0.6,2.8,0.6,4,0l3.6-2c0.5-0.2,0.8-0.6,0.8-1.2v-41.5c0,0.5-0.4,1-0.8,1.2
			l-3.6,2c-1.3,0.6-2.8,0.6-4,0L262.7,296.2z"/>
		<path class="st11" d="M285.5,308.6c0.7,0,1.4-0.1,2-0.5l3.6-2c0.5-0.2,0.8-0.7,0.8-1.2v41.5c0,0.5-0.4,1-0.8,1.2l-3.6,2
			c-0.6,0.3-1.3,0.5-2,0.5V308.6z"/>
	</g>
</g>
</svg>
