<?xml version="1.0" encoding="utf-8"?>
<!-- Generator: Adobe Illustrator 23.0.3, SVG Export Plug-In . SVG Version: 6.00 Build 0)  -->
<svg version="1.1" id="Capa_1" xmlns="http://www.w3.org/2000/svg" xmlns:xlink="http://www.w3.org/1999/xlink" x="0px" y="0px"
	 viewBox="0 0 400 375" style="enable-background:new 0 0 400 375;" xml:space="preserve">
<style type="text/css">
	.st0{opacity:0.24;fill:#003F6C;enable-background:new    ;}
	.st1{opacity:0.65;}
	.st2{fill:url(#SVGID_1_);}
	.st3{opacity:0.5;fill:#213B2C;enable-background:new    ;}
	.st4{fill:#8ECC93;}
	.st5{fill:#AED9B4;}
	.st6{fill:#D3EBD8;}
	.st7{fill:#FFFFFF;}
	.st8{fill:#75BD72;}
	.st9{fill:#213B2C;}
	.st10{fill:#63AC53;}
	.st11{fill:#DBDBDB;}
	.st12{fill:#EFEFEF;}
	.st13{fill:#CACACA;}
	.st14{fill:#FDF951;}
	.st15{fill:#333333;}
</style>
<path class="st0" d="M285.4,361.9c-45.1,22.6-68,3.1-77.4-5.3c-11-9.9-24.5,1.9-35.9,1.1c-35.1-2.4-92.8-29.9-117.7-77.5
	c-11.9-22.7-22.1-49.8-29.4-78.3c0,0-9.1-32.5-10.5-63.9C12.1,88.8,25.1,52.5,51.9,33c23.9-17.4,48.6-22.4,71.7-25.3
	c5.3-0.7,10.7-1.2,15.9-1.8c5.3-0.6,10.8-1.1,16.2-1.8C177,1.6,302.2-0.4,354.1,126.4C416.9,279.9,306.7,351.2,285.4,361.9z"/>
<g class="st1">
	<g>
		<linearGradient id="SVGID_1_" gradientUnits="userSpaceOnUse" x1="4.875" y1="181.3218" x2="389.038" y2="181.3218">
			<stop  offset="0" style="stop-color:#003F6C"/>
			<stop  offset="1" style="stop-color:#009444"/>
		</linearGradient>
		<path class="st2" d="M325,53C232.8,18.3,155.5-4.9,65.3,53.8C-25,112.5,6.9,238.8,28,271c31,47.4,88,100,238,59
			C397,294.2,434,94,325,53z"/>
	</g>
</g>
<g>
	<path class="st3" d="M179.8,305.4L62.7,237.8c-2.6-1.5-2.6-5.3,0-6.8L174,166.7l124.6,71.9c2.6,1.5,2.6,5.3,0,6.8l-103.9,60
		C190.1,308,184.4,308,179.8,305.4z"/>
	<g>
		<g>
			<path class="st4" d="M176.4,130.7c0-7.4-5.2-10.5-11.7-6.8L55.2,187c-1.8,1-3.2,3.5-3.2,5.6c0,2,1.4,2.9,3.2,1.9l109.5-63.1
				c2.9-1.7,5.3-0.3,5.3,3.1v12.2c2.1-0.1,4.3-0.1,6.4-0.1L176.4,130.7z"/>
			<path class="st4" d="M55.2,216.5l109.5-39.9c6.4-3.7,11.7-12.8,11.7-20.2l0-9.8c-2.1,0-4.3,0-6.4,0.1l0,13.4
				c0,3.4-2.4,7.4-5.3,9.1L55.2,209.1c-1.8,1-3.2,3.5-3.2,5.6C52,216.6,53.4,217.5,55.2,216.5z"/>
		</g>
		<polygon class="st5" points="52.8,216.6 186,293.7 298.8,226.4 307.8,213.1 306.8,217.8 304.4,205.4 95.1,213.4 58.2,211 		"/>
		<polygon class="st6" points="57.2,193.3 57.2,209.7 185.9,284.2 189.4,268.6 		"/>
		<polygon class="st4" points="306.1,200.1 173.1,123.2 53.2,192.9 52.9,194.6 186.1,271.7 		"/>
		<g>
			<path class="st7" d="M263.7,239.7l31.3-18.6c2.6-1.9,4.7-5.6,4.7-8.7l0-2.5c0-2-0.8-3.3-2.1-3.6L236,240.5l-50.1,27.1l0.1,16.6
				L263.7,239.7z"/>
		</g>
		<path class="st8" d="M190.4,269.2L58.2,192.7l-2.8-1.6l-2.6-1.5c-0.5,1-0.8,2-0.8,3c0,1,0.3,1.7,0.9,2.1v0l0,0l0,0l133.2,77.1
			L190.4,269.2z"/>
		<polygon class="st7" points="184.4,292.7 186,293.7 186.3,293.2 185.3,292.4 		"/>
		<polygon class="st7" points="184.4,270.7 186.1,271.7 185.7,270.8 		"/>
		<g>
			<path class="st4" d="M188.4,264.1L298,201c6.4-3.7,11.7-0.7,11.7,6.8l0,2.5c0,7.4-5.2,16.5-11.7,20.2l-109.5,63.1
				c-1.8,1-3.2,0.2-3.2-1.9c0-2,1.4-4.5,3.2-5.5L297.9,223c2.9-1.7,5.3-5.8,5.3-9.1l0-2.5c0-3.4-2.4-4.7-5.3-3.1l-109.5,63.1
				c-1.8,1-3.2,0.2-3.2-1.9C185.2,267.6,186.7,265.1,188.4,264.1z"/>
		</g>
		<g>
			<path class="st6" d="M185.2,291.7c0-2,1.4-4.5,3.2-5.5L297.9,223c2.9-1.7,5.3-5.8,5.3-9.1l0-2.5c0-2.2-1-3.5-2.5-3.7
				c0.5,0.6,0.8,1.6,0.8,2.7l0,2.5c0,3.4-2.4,7.4-5.3,9.1l-109.5,63.1c-1.8,1-3.2,3.5-3.2,5.5c0,1.5,0.8,2.4,2,2.3
				C185.3,292.6,185.2,292.2,185.2,291.7z"/>
			<path class="st6" d="M185.2,269.6c0-2,1.4-4.5,3.2-5.5L298,201c2.8-1.6,5.3-1.9,7.3-1.2c-2.1-1.8-5.4-1.9-9.1,0.2l-109.5,63.1
				c-1.8,1-3.2,3.5-3.2,5.5c0,1.5,0.8,2.4,2,2.3C185.3,270.6,185.2,270.1,185.2,269.6z"/>
		</g>
	</g>
	<g>
		<path class="st9" d="M310.6,87.1L192.4,18.9c-1.4-0.8-2.8-0.9-4-0.5l0,0l-0.2,0.1c0,0,0,0-0.1,0l-4.3,1.6l3.8,1.9
			c0,0.1,0,0.1-0.1,0.2l-19.2,87.6c-1,4.4,1,9.5,4.3,11.4l115.3,66.6l-0.4,4.9l4.7-1.8c1.6-0.7,2.8-2.4,3.3-4.8l19.2-87.6
			C315.9,94.1,313.9,89,310.6,87.1z"/>
		<path class="st10" d="M310.6,87.1L192.4,18.9c-1.4-0.8-2.8-0.9-4-0.5l0,0l-0.2,0.1c0,0,0,0-0.1,0l-4.3,1.6l3.8,1.9
			c0,0.1,0,0.1-0.1,0.2L175,79.9l57.8,45l81.5-33.2C313.5,89.8,312.2,88,310.6,87.1z"/>
		<path class="st5" d="M306.1,100.6l9-3.8c0.2-3.5-1.3-7.1-3.6-9l-14.2,6L306.1,100.6z"/>
		<path class="st11" d="M283.5,192.2L165.4,124c-3.3-1.9-5.3-7.1-4.3-11.4L180.3,25c1-4.4,4.4-6.4,7.8-4.4l118.2,68.2
			c3.3,1.9,5.3,7.1,4.3,11.4l-19.2,87.6C290.4,192.2,286.9,194.2,283.5,192.2z"/>
		<path class="st7" d="M307.4,88.3L189.2,20.1c-1.6-0.9-3.3-0.9-4.6-0.2c1.1-0.2,2.3-0.1,3.5,0.6l118.2,68.2
			c3.3,1.9,5.3,7.1,4.3,11.4l-19.2,87.6c-0.5,2.3-1.7,3.9-3.1,4.6c2-0.4,3.7-2.2,4.3-5.1l19.2-87.6
			C312.7,95.4,310.7,90.3,307.4,88.3z"/>
		<path class="st7" d="M281,185.7l-111.1-64.1c-3.1-1.8-4.8-6.4-3.9-10.5L183.5,31c0.9-4,4.1-5.8,7.1-4.1L301.8,91
			c3.1,1.8,4.8,6.4,3.9,10.5l-17.6,80.2C287.2,185.7,284,187.5,281,185.7z"/>
		<path class="st8" d="M281,185.7l-111.1-64.1c-3.1-1.8-4.8-6.4-3.9-10.5L183.5,31c0.9-4,4.1-5.8,7.1-4.1L301.8,91
			c3.1,1.8,4.8,6.4,3.9,10.5l-17.6,80.2C287.2,185.7,284,187.5,281,185.7z"/>
		<path class="st5" d="M281.9,185.3l-111.1-64.1c-3.1-1.8-4.8-6.4-3.9-10.5l17.6-80.2c0.4-2,1.5-3.5,2.8-4.2
			c-1.8,0.5-3.2,2.1-3.8,4.6l-17.6,80.2c-0.9,4,0.9,8.7,3.9,10.5L281,185.7c1.5,0.9,3,0.9,4.3,0.1
			C284.2,186.1,283.1,186,281.9,185.3z"/>
		<path class="st5" d="M285.2,195.2l-16.1-2.1l-104.3-60.2c-3.3-1.9-9.2-1.7-13,0.5L77.8,176l-9.8-1.3v5.5h0
			c-0.1,1.3,0.7,2.5,2.2,3.4l118.2,68.2c3.3,1.9,9.2,1.7,13-0.5L282,205c2.2-1.2,3.2-2.9,3.2-4.4l0,0V195.2z"/>
		<path class="st9" d="M206.8,157.2l-7.4-4.3H118l-40.2,23.2l-9.8-1.3v5.5h0c-0.1,1.3,0.7,2.5,2.2,3.4l118.2,68.2
			c1.8,1,4.2,1.4,6.7,1.3L206.8,157.2z"/>
		<path class="st10" d="M72.4,175.3l-4.3-0.6v5.5h0c-0.1,1.3,0.7,2.5,2.2,3.4l2.1,1.2V175.3z"/>
		<path class="st8" d="M189.7,252.5c3.2,1.2,7.7,0.9,11.1-0.7v-12.4h-11.1V252.5z"/>
		<path class="st12" d="M188.9,246.3L70.3,178.9c-3.4-1.9-3-5.3,0.9-7.5l80.1-47c3.8-2.2,9.7-2.5,13-0.6L283,191.2
			c3.4,1.9,3,5.3-0.9,7.5l-80.1,47C198.1,248,192.2,248.2,188.9,246.3z"/>
		<path class="st7" d="M282,197.4l-80.5,46.4c-3.9,2.2-9.7,2.5-13,0.5L70.3,176.2c-1.1-0.6-1.8-1.4-2.1-2.3
			c-0.5,1.6,0.1,3.2,2.1,4.3l118.2,68.2c3.3,1.9,9.2,1.7,13-0.5l80.5-46.4c2.6-1.5,3.6-3.5,3-5.3C284.6,195.3,283.6,196.5,282,197.4
			z"/>
		<g>
			<path class="st13" d="M120.6,155.6l-5.3-3.1c-0.4-0.2-0.4-0.7,0.1-1l6.3-3.6c0.5-0.3,1.2-0.3,1.7-0.1l5.3,3.1
				c0.4,0.2,0.4,0.7-0.1,1l-6.3,3.6C121.8,155.8,121,155.9,120.6,155.6z"/>
			<path class="st13" d="M128.8,160.4l-5.3-3.1c-0.4-0.2-0.4-0.7,0.1-1l6.3-3.6c0.5-0.3,1.2-0.3,1.7-0.1l5.4,3.1
				c0.4,0.2,0.4,0.7-0.1,1l-6.3,3.6C130,160.6,129.2,160.6,128.8,160.4z"/>
			<path class="st13" d="M137.1,165.1l-5.4-3.1c-0.4-0.2-0.4-0.7,0.1-1l6.3-3.6c0.5-0.3,1.2-0.3,1.7-0.1l5.4,3.1
				c0.4,0.2,0.4,0.7-0.1,1l-6.3,3.6C138.3,165.4,137.5,165.4,137.1,165.1z"/>
			<path class="st13" d="M148.5,161.2l-5.4-3.1c-0.4-0.2-0.4-0.7,0.1-1l5.3-3.1c0.5-0.3,1.2-0.3,1.7-0.1l5.4,3.1
				c0.4,0.2,0.4,0.7-0.1,1l-5.3,3.1C149.7,161.4,148.9,161.4,148.5,161.2z"/>
			<path class="st13" d="M156.8,166l-5.4-3.1c-0.4-0.2-0.4-0.7,0.1-1l5.3-3.1c0.5-0.3,1.2-0.3,1.7-0.1l5.4,3.1
				c0.4,0.2,0.4,0.7-0.1,1l-5.3,3.1C157.9,166.2,157.2,166.2,156.8,166z"/>
			<path class="st13" d="M165,170.7l-5.4-3.1c-0.4-0.2-0.4-0.7,0.1-1l5.3-3.1c0.5-0.3,1.2-0.3,1.7-0.1l5.4,3.1
				c0.4,0.2,0.4,0.7-0.1,1l-5.3,3.1C166.2,171,165.4,171,165,170.7z"/>
			<path class="st13" d="M173.3,175.5l-5.4-3.1c-0.4-0.2-0.4-0.7,0.1-1l5.3-3.1c0.5-0.3,1.2-0.3,1.7-0.1l5.4,3.1
				c0.4,0.2,0.4,0.7-0.1,1l-5.3,3.1C174.4,175.7,173.7,175.8,173.3,175.5z"/>
			<path class="st13" d="M181.5,180.3l-5.4-3.1c-0.4-0.2-0.4-0.7,0.1-1l5.3-3.1c0.5-0.3,1.2-0.3,1.7-0.1l5.4,3.1
				c0.4,0.2,0.4,0.7-0.1,1l-5.3,3.1C182.7,180.5,181.9,180.5,181.5,180.3z"/>
			<path class="st13" d="M189.8,185l-5.4-3.1c-0.4-0.2-0.4-0.7,0.1-1l5.3-3.1c0.5-0.3,1.2-0.3,1.7-0.1l5.4,3.1
				c0.4,0.2,0.4,0.7-0.1,1l-5.3,3.1C191,185.3,190.2,185.3,189.8,185z"/>
			<path class="st13" d="M198,189.8l-5.4-3.1c-0.4-0.2-0.4-0.7,0.1-1l5.3-3.1c0.5-0.3,1.2-0.3,1.7-0.1l5.4,3.1
				c0.4,0.2,0.4,0.7-0.1,1l-5.3,3.1C199.2,190,198.5,190.1,198,189.8z"/>
			<path class="st13" d="M206.3,194.6l-5.4-3.1c-0.4-0.2-0.4-0.7,0.1-1l5.3-3.1c0.5-0.3,1.2-0.3,1.7-0.1l5.4,3.1
				c0.4,0.2,0.4,0.7-0.1,1l-5.3,3.1C207.5,194.8,206.7,194.8,206.3,194.6z"/>
			<path class="st13" d="M214.6,199.3l-5.4-3.1c-0.4-0.2-0.4-0.7,0.1-1l5.3-3.1c0.5-0.3,1.2-0.3,1.7-0.1l5.4,3.1
				c0.4,0.2,0.4,0.7-0.1,1l-5.3,3.1C215.7,199.6,215,199.6,214.6,199.3z"/>
			<path class="st13" d="M222.8,204.1l-5.4-3.1c-0.4-0.2-0.4-0.7,0.1-1l5.3-3.1c0.5-0.3,1.2-0.3,1.7-0.1l5.4,3.1
				c0.4,0.2,0.4,0.7-0.1,1l-5.3,3.1C224,204.3,223.2,204.4,222.8,204.1z"/>
			<path class="st13" d="M160.7,158.9l-5.4-3.1c-0.4-0.2-0.4-0.7,0.1-1l5.3-3.1c0.5-0.3,1.2-0.3,1.7-0.1l5.4,3.1
				c0.4,0.2,0.4,0.7-0.1,1l-5.3,3.1C161.8,159.2,161.1,159.2,160.7,158.9z"/>
			<path class="st13" d="M152.3,154.1l-5.4-3.1c-0.4-0.2-0.4-0.7,0.1-1l5.3-3.1c0.5-0.3,1.2-0.3,1.7-0.1l5.4,3.1
				c0.4,0.2,0.4,0.7-0.1,1l-5.3,3.1C153.5,154.3,152.7,154.4,152.3,154.1z"/>
			<path class="st13" d="M143.9,149.3l-11.5-6.6c-0.4-0.2-0.4-0.7,0.1-1l5.3-3.1c0.5-0.3,1.2-0.3,1.7-0.1l11.5,6.6
				c0.4,0.2,0.4,0.7-0.1,1l-5.3,3.1C145.1,149.5,144.3,149.5,143.9,149.3z"/>
			<path class="st13" d="M149.8,143.4l-9.3-5.4c-0.4-0.2-0.4-0.7,0.1-1l5.3-3.1c0.5-0.3,1.2-0.3,1.7-0.1l9.3,5.4
				c0.4,0.2,0.4,0.7-0.1,1l-5.3,3.1C150.9,143.6,150.2,143.6,149.8,143.4z"/>
			<path class="st13" d="M168.9,163.7l-5.4-3.1c-0.4-0.2-0.4-0.7,0.1-1l5.3-3.1c0.5-0.3,1.2-0.3,1.7-0.1l5.4,3.1
				c0.4,0.2,0.4,0.7-0.1,1l-5.3,3.1C170.1,163.9,169.4,164,168.9,163.7z"/>
			<path class="st13" d="M177.2,168.5l-5.4-3.1c-0.4-0.2-0.4-0.7,0.1-1l5.3-3.1c0.5-0.3,1.2-0.3,1.7-0.1l5.4,3.1
				c0.4,0.2,0.4,0.7-0.1,1l-5.3,3.1C178.4,168.7,177.6,168.7,177.2,168.5z"/>
			<path class="st13" d="M185.4,173.2l-5.4-3.1c-0.4-0.2-0.4-0.7,0.1-1l5.3-3.1c0.5-0.3,1.2-0.3,1.7-0.1l5.4,3.1
				c0.4,0.2,0.4,0.7-0.1,1l-5.3,3.1C186.6,173.5,185.9,173.5,185.4,173.2z"/>
			<path class="st13" d="M193.7,178l-5.4-3.1c-0.4-0.2-0.4-0.7,0.1-1l5.3-3.1c0.5-0.3,1.2-0.3,1.7-0.1l5.4,3.1
				c0.4,0.2,0.4,0.7-0.1,1l-5.3,3.1C194.9,178.2,194.1,178.3,193.7,178z"/>
			<path class="st13" d="M201.9,182.8l-5.4-3.1c-0.4-0.2-0.4-0.7,0.1-1l5.3-3.1c0.5-0.3,1.2-0.3,1.7-0.1l5.4,3.1
				c0.4,0.2,0.4,0.7-0.1,1l-5.3,3.1C203.1,183,202.4,183,201.9,182.8z"/>
			<path class="st13" d="M210.2,187.6l-5.4-3.1c-0.4-0.2-0.4-0.7,0.1-1l5.3-3.1c0.5-0.3,1.2-0.3,1.7-0.1l5.4,3.1
				c0.4,0.2,0.4,0.7-0.1,1l-5.3,3.1C211.4,187.8,210.6,187.8,210.2,187.6z"/>
			<path class="st13" d="M218.5,192.3l-5.4-3.1c-0.4-0.2-0.4-0.7,0.1-1l5.3-3.1c0.5-0.3,1.2-0.3,1.7-0.1l5.4,3.1
				c0.4,0.2,0.4,0.7-0.1,1l-5.3,3.1C219.6,192.5,218.9,192.6,218.5,192.3z"/>
			<path class="st13" d="M226.7,197.1l-5.4-3.1c-0.4-0.2-0.4-0.7,0.1-1l5.3-3.1c0.5-0.3,1.2-0.3,1.7-0.1l5.4,3.1
				c0.4,0.2,0.4,0.7-0.1,1l-5.3,3.1C227.9,197.3,227.1,197.3,226.7,197.1z"/>
			<path class="st13" d="M235,201.9l-5.4-3.1c-0.4-0.2-0.4-0.7,0.1-1l5.3-3.1c0.5-0.3,1.2-0.3,1.7-0.1l5.4,3.1
				c0.4,0.2,0.4,0.7-0.1,1l-5.3,3.1C236.1,202.1,235.4,202.1,235,201.9z"/>
			<path class="st13" d="M249.6,210.3l-11.7-6.7c-0.4-0.2-0.4-0.7,0.1-1l5.3-3.1c0.5-0.3,1.2-0.3,1.7-0.1l11.7,6.7
				c0.4,0.2,0.4,0.7-0.1,1l-5.3,3.1C250.8,210.5,250.1,210.6,249.6,210.3z"/>
			<path class="st13" d="M265.7,201l-9.9-5.7c-0.4-0.2-0.4-0.7,0.1-1l5.3-3.1c0.5-0.3,1.2-0.3,1.7-0.1l9.9,5.7
				c0.4,0.2,0.4,0.7-0.1,1l-5.3,3.1C266.9,201.3,266.1,201.3,265.7,201z"/>
			<path class="st13" d="M183.4,162.8l-5.4-3.1c-0.4-0.2-0.4-0.7,0.1-1l5.3-3.1c0.5-0.3,1.2-0.3,1.7-0.1l5.4,3.1
				c0.4,0.2,0.4,0.7-0.1,1l-5.3,3.1C184.6,163,183.8,163,183.4,162.8z"/>
			<path class="st13" d="M174.9,157.9l-5.4-3.1c-0.4-0.2-0.4-0.7,0.1-1l5.3-3.1c0.5-0.3,1.2-0.3,1.7-0.1l5.4,3.1
				c0.4,0.2,0.4,0.7-0.1,1l-5.3,3.1C176.1,158.1,175.4,158.1,174.9,157.9z"/>
			<path class="st13" d="M166.4,153l-5.4-3.1c-0.4-0.2-0.4-0.7,0.1-1l5.3-3.1c0.5-0.3,1.2-0.3,1.7-0.1l5.4,3.1
				c0.4,0.2,0.4,0.7-0.1,1l-5.3,3.1C167.6,153.2,166.9,153.3,166.4,153z"/>
			<path class="st13" d="M158,148.1l-5.4-3.1c-0.4-0.2-0.4-0.7,0.1-1l5.3-3.1c0.5-0.3,1.2-0.3,1.7-0.1l5.4,3.1
				c0.4,0.2,0.4,0.7-0.1,1l-5.3,3.1C159.2,148.3,158.4,148.4,158,148.1z"/>
			<path class="st13" d="M191.6,167.6l-5.4-3.1c-0.4-0.2-0.4-0.7,0.1-1l5.3-3.1c0.5-0.3,1.2-0.3,1.7-0.1l5.4,3.1
				c0.4,0.2,0.4,0.7-0.1,1l-5.3,3.1C192.8,167.8,192.1,167.8,191.6,167.6z"/>
			<path class="st13" d="M199.9,172.3l-5.4-3.1c-0.4-0.2-0.4-0.7,0.1-1l5.3-3.1c0.5-0.3,1.2-0.3,1.7-0.1l5.4,3.1
				c0.4,0.2,0.4,0.7-0.1,1l-5.3,3.1C201.1,172.5,200.3,172.6,199.9,172.3z"/>
			<path class="st13" d="M208.1,177.1l-5.3-3.1c-0.4-0.2-0.4-0.7,0.1-1l5.3-3.1c0.5-0.3,1.2-0.3,1.7-0.1l5.4,3.1
				c0.4,0.2,0.4,0.7-0.1,1l-5.3,3.1C209.3,177.3,208.6,177.3,208.1,177.1z"/>
			<path class="st13" d="M216.4,181.9l-5.4-3.1c-0.4-0.2-0.4-0.7,0.1-1l5.3-3.1c0.5-0.3,1.2-0.3,1.7-0.1l5.4,3.1
				c0.4,0.2,0.4,0.7-0.1,1l-5.3,3.1C217.6,182.1,216.8,182.1,216.4,181.9z"/>
			<path class="st13" d="M224.7,186.6l-5.4-3.1c-0.4-0.2-0.4-0.7,0.1-1l5.3-3.1c0.5-0.3,1.2-0.3,1.7-0.1l5.4,3.1
				c0.4,0.2,0.4,0.7-0.1,1l-5.3,3.1C225.8,186.8,225.1,186.9,224.7,186.6z"/>
			<path class="st13" d="M232.9,191.4l-5.4-3.1c-0.4-0.2-0.4-0.7,0.1-1l5.3-3.1c0.5-0.3,1.2-0.3,1.7-0.1l5.4,3.1
				c0.4,0.2,0.4,0.7-0.1,1l-5.3,3.1C234.1,191.6,233.3,191.6,232.9,191.4z"/>
			<path class="st13" d="M241.2,196.1l-5.4-3.1c-0.4-0.2-0.4-0.7,0.1-1l5.3-3.1c0.5-0.3,1.2-0.3,1.7-0.1l5.4,3.1
				c0.4,0.2,0.4,0.7-0.1,1l-5.3,3.1C242.4,196.4,241.6,196.4,241.2,196.1z"/>
			<path class="st13" d="M249.4,200.9l-5.4-3.1c-0.4-0.2-0.4-0.7,0.1-1l5.3-3.1c0.5-0.3,1.2-0.3,1.7-0.1l5.4,3.1
				c0.4,0.2,0.4,0.7-0.1,1l-5.3,3.1C250.6,201.1,249.9,201.2,249.4,200.9z"/>
			<path class="st13" d="M257.7,205.7l-5.4-3.1c-0.4-0.2-0.4-0.7,0.1-1l5.3-3.1c0.5-0.3,1.2-0.3,1.7-0.1l5.4,3.1
				c0.4,0.2,0.4,0.7-0.1,1l-5.3,3.1C258.9,205.9,258.1,205.9,257.7,205.7z"/>
			<path class="st13" d="M179,151l-5.4-3.1c-0.4-0.2-0.4-0.7,0.1-1l5.3-3.1c0.5-0.3,1.2-0.3,1.7-0.1l5.4,3.1c0.4,0.2,0.4,0.7-0.1,1
				l-5.3,3.1C180.2,151.2,179.5,151.2,179,151z"/>
			<path class="st13" d="M170.8,146.2l-5.4-3.1c-0.4-0.2-0.4-0.7,0.1-1l5.3-3.1c0.5-0.3,1.2-0.3,1.7-0.1l5.4,3.1
				c0.4,0.2,0.4,0.7-0.1,1l-5.3,3.1C172,146.5,171.2,146.5,170.8,146.2z"/>
			<path class="st13" d="M162.6,141.5l-5.4-3.1c-0.4-0.2-0.4-0.7,0.1-1l5.3-3.1c0.5-0.3,1.2-0.3,1.7-0.1l5.4,3.1
				c0.4,0.2,0.4,0.7-0.1,1l-5.3,3.1C163.8,141.7,163,141.8,162.6,141.5z"/>
			<path class="st13" d="M154.4,136.8l-5.4-3.1c-0.4-0.2-0.4-0.7,0.1-1l5.3-3.1c0.5-0.3,1.2-0.3,1.7-0.1l5.4,3.1
				c0.4,0.2,0.4,0.7-0.1,1l-5.3,3.1C155.6,137,154.8,137,154.4,136.8z"/>
			<path class="st13" d="M162.8,131.9l-5.4-3.1c-0.4-0.2-0.4-0.7,0.1-1l1.8-1c0.5-0.3,1.2-0.3,1.7-0.1l5.4,3.1
				c0.4,0.2,0.4,0.7-0.1,1l-1.8,1C164,132.1,163.3,132.1,162.8,131.9z"/>
			<path class="st13" d="M173.6,138.1l-5.4-3.1c-0.4-0.2-0.4-0.7,0.1-1l1.8-1c0.5-0.3,1.2-0.3,1.7-0.1l5.4,3.1
				c0.4,0.2,0.4,0.7-0.1,1l-1.8,1C174.7,138.3,174,138.3,173.6,138.1z"/>
			<path class="st13" d="M181.7,142.8l-5.4-3.1c-0.4-0.2-0.4-0.7,0.1-1l1.8-1c0.5-0.3,1.2-0.3,1.7-0.1l5.4,3.1
				c0.4,0.2,0.4,0.7-0.1,1l-1.8,1C182.9,143,182.2,143.1,181.7,142.8z"/>
			<path class="st13" d="M189.9,147.5l-5.4-3.1c-0.4-0.2-0.4-0.7,0.1-1l1.8-1c0.5-0.3,1.2-0.3,1.7-0.1l5.4,3.1
				c0.4,0.2,0.4,0.7-0.1,1l-1.8,1C191.1,147.7,190.3,147.8,189.9,147.5z"/>
			<path class="st13" d="M198.1,152.2l-5.4-3.1c-0.4-0.2-0.4-0.7,0.1-1l1.8-1c0.5-0.3,1.2-0.3,1.7-0.1l5.4,3.1
				c0.4,0.2,0.4,0.7-0.1,1l-1.8,1C199.3,152.5,198.5,152.5,198.1,152.2z"/>
			<path class="st13" d="M243.8,178.6l-5.4-3.1c-0.4-0.2-0.4-0.7,0.1-1l1.8-1c0.5-0.3,1.2-0.3,1.7-0.1l5.4,3.1
				c0.4,0.2,0.4,0.7-0.1,1l-1.8,1C244.9,178.8,244.2,178.9,243.8,178.6z"/>
			<path class="st13" d="M251.9,183.3l-5.4-3.1c-0.4-0.2-0.4-0.7,0.1-1l1.8-1c0.5-0.3,1.2-0.3,1.7-0.1l5.4,3.1
				c0.4,0.2,0.4,0.7-0.1,1l-1.8,1C253.1,183.6,252.4,183.6,251.9,183.3z"/>
			<path class="st13" d="M260.1,188.1l-5.4-3.1c-0.4-0.2-0.4-0.7,0.1-1l1.8-1c0.5-0.3,1.2-0.3,1.7-0.1l5.4,3.1
				c0.4,0.2,0.4,0.7-0.1,1l-1.8,1C261.3,188.3,260.6,188.3,260.1,188.1z"/>
			<path class="st13" d="M268.3,192.8l-5.4-3.1c-0.4-0.2-0.4-0.7,0.1-1l1.8-1c0.5-0.3,1.2-0.3,1.7-0.1l5.4,3.1
				c0.4,0.2,0.4,0.7-0.1,1l-1.8,1C269.5,193,268.7,193,268.3,192.8z"/>
			<path class="st13" d="M187.3,155.8l-5.4-3.1c-0.4-0.2-0.4-0.7,0.1-1l5.3-3.1c0.5-0.3,1.2-0.3,1.7-0.1l5.4,3.1
				c0.4,0.2,0.4,0.7-0.1,1l-5.3,3.1C188.5,156,187.7,156,187.3,155.8z"/>
			<path class="st13" d="M195.5,160.5l-5.4-3.1c-0.4-0.2-0.4-0.7,0.1-1l5.3-3.1c0.5-0.3,1.2-0.3,1.7-0.1l5.4,3.1
				c0.4,0.2,0.4,0.7-0.1,1l-5.3,3.1C196.7,160.7,196,160.8,195.5,160.5z"/>
			<path class="st13" d="M203.8,165.3l-5.4-3.1c-0.4-0.2-0.4-0.7,0.1-1l5.3-3.1c0.5-0.3,1.2-0.3,1.7-0.1l5.4,3.1
				c0.4,0.2,0.4,0.7-0.1,1l-5.3,3.1C205,165.5,204.2,165.5,203.8,165.3z"/>
			<path class="st13" d="M212.1,170.1l-5.4-3.1c-0.4-0.2-0.4-0.7,0.1-1l5.3-3.1c0.5-0.3,1.2-0.3,1.7-0.1l5.4,3.1
				c0.4,0.2,0.4,0.7-0.1,1l-5.3,3.1C213.2,170.3,212.5,170.3,212.1,170.1z"/>
			<path class="st13" d="M220.3,174.8l-5.4-3.1c-0.4-0.2-0.4-0.7,0.1-1l5.3-3.1c0.5-0.3,1.2-0.3,1.7-0.1l5.4,3.1
				c0.4,0.2,0.4,0.7-0.1,1l-5.3,3.1C221.5,175,220.7,175.1,220.3,174.8z"/>
			<path class="st13" d="M228.6,179.6l-5.4-3.1c-0.4-0.2-0.4-0.7,0.1-1l5.3-3.1c0.5-0.3,1.2-0.3,1.7-0.1l5.4,3.1
				c0.4,0.2,0.4,0.7-0.1,1l-5.3,3.1C229.8,179.8,229,179.8,228.6,179.6z"/>
			<path class="st13" d="M236.8,184.4l-5.4-3.1c-0.4-0.2-0.4-0.7,0.1-1l5.3-3.1c0.5-0.3,1.2-0.3,1.7-0.1l5.4,3.1
				c0.4,0.2,0.4,0.7-0.1,1l-5.3,3.1C238,184.6,237.2,184.6,236.8,184.4z"/>
			<path class="st13" d="M245.1,189.1l-5.4-3.1c-0.4-0.2-0.4-0.7,0.1-1l5.3-3.1c0.5-0.3,1.2-0.3,1.7-0.1l5.4,3.1
				c0.4,0.2,0.4,0.7-0.1,1l-5.3,3.1C246.3,189.3,245.5,189.4,245.1,189.1z"/>
			<path class="st13" d="M253.3,193.9l-5.4-3.1c-0.4-0.2-0.4-0.7,0.1-1l5.3-3.1c0.5-0.3,1.2-0.3,1.7-0.1l5.4,3.1
				c0.4,0.2,0.4,0.7-0.1,1l-5.3,3.1C254.5,194.1,253.8,194.1,253.3,193.9z"/>
			<path class="st13" d="M140.1,156.4l-15.8-9.1c-0.4-0.2-0.4-0.7,0.1-1l5.3-3.1c0.5-0.3,1.2-0.3,1.7-0.1l15.8,9.1
				c0.4,0.2,0.4,0.7-0.1,1l-5.3,3.1C141.3,156.6,140.5,156.6,140.1,156.4z"/>
			<path class="st13" d="M241.5,214.9l-15.8-9.1c-0.4-0.2-0.4-0.7,0.1-1l5.3-3.1c0.5-0.3,1.2-0.3,1.7-0.1l15.8,9.1
				c0.4,0.2,0.4,0.7-0.1,1l-5.3,3.1C242.7,215.1,241.9,215.2,241.5,214.9z"/>
			<path class="st13" d="M208.5,206.4l-5.4-3.1c-0.4-0.2-0.4-0.7,0.1-1l6.3-3.6c0.5-0.3,1.2-0.3,1.7-0.1l5.4,3.1
				c0.4,0.2,0.4,0.7-0.1,1l-6.3,3.6C209.7,206.6,208.9,206.6,208.5,206.4z"/>
			<path class="st13" d="M148.5,171.8l-8.6-4.9c-0.4-0.2-0.4-0.7,0.1-1l6.3-3.6c0.5-0.3,1.2-0.3,1.7-0.1l8.6,4.9
				c0.4,0.2,0.4,0.7-0.1,1l-6.3,3.6C149.7,172,149,172,148.5,171.8z"/>
			<path class="st13" d="M200.5,201.8l-8.6-4.9c-0.4-0.2-0.4-0.7,0.1-1l6.3-3.6c0.5-0.3,1.2-0.3,1.7-0.1l8.6,4.9
				c0.4,0.2,0.4,0.7-0.1,1l-6.3,3.6C201.7,202,201,202,200.5,201.8z"/>
			<path class="st13" d="M160.4,178.6l-8.6-4.9c-0.4-0.2-0.4-0.7,0.1-1l6.3-3.6c0.5-0.3,1.2-0.3,1.7-0.1l8.6,4.9
				c0.4,0.2,0.4,0.7-0.1,1l-6.3,3.6C161.6,178.9,160.9,178.9,160.4,178.6z"/>
			<path class="st13" d="M160.1,169.1l37.2,21.5c0.5,0.3,0.5,0.7,0,1l-6.4,3.7c-0.5,0.3-1.2,0.3-1.7,0L152,173.7L160.1,169.1z"/>
			<path class="st13" d="M231.6,215l6,3.4c0.4,0.2,0.3,0.6-0.1,0.8l-2.6,1.5c-0.4,0.2-1,0.3-1.4,0.1l-6-3.4
				c-0.4-0.2-0.3-0.6,0.1-0.8l2.6-1.5C230.6,214.8,231.2,214.8,231.6,215z"/>
			<path class="st13" d="M223.2,210.2l6,3.4c0.4,0.2,0.3,0.6-0.1,0.8l-2.6,1.5c-0.4,0.2-1,0.3-1.4,0.1l-6-3.4
				c-0.4-0.2-0.3-0.6,0.1-0.8l2.6-1.5C222.3,210,222.9,210,223.2,210.2z"/>
			<path class="st13" d="M215,205.4l6,3.4c0.4,0.2,0.3,0.6-0.1,0.8l-2.6,1.5c-0.4,0.2-1,0.3-1.4,0.1l-6-3.4
				c-0.4-0.2-0.3-0.6,0.1-0.8l2.6-1.5C214,205.3,214.6,205.2,215,205.4z"/>
			<path class="st13" d="M227.8,207.6l6,3.4c0.4,0.2,0.3,0.6-0.1,0.8l-2.6,1.5c-0.4,0.2-1,0.3-1.4,0.1l-6-3.4
				c-0.4-0.2-0.3-0.6,0.1-0.8l2.6-1.5C226.8,207.4,227.4,207.4,227.8,207.6z"/>
		</g>
		<g>
			<polygon class="st7" points="241.6,110.7 214.7,95.2 215.3,92.3 242.1,107.8 			"/>
			<polygon class="st9" points="259.2,120.9 245.7,113.1 246.3,110.2 259.7,118 			"/>
			<polygon class="st7" points="209.8,70.4 196.3,62.6 196.9,59.7 210.3,67.5 			"/>
			<g>
				<polygon class="st5" points="260.4,114.6 215.9,88.9 216.5,86 261,111.7 				"/>
				<polygon class="st5" points="244.5,119.4 213.4,101.5 214,98.6 245.1,116.6 				"/>
				<polygon class="st5" points="211.2,63.7 197.8,55.9 198.4,53 211.8,60.8 				"/>
				<polygon class="st5" points="275.7,163.6 262.2,155.8 262.8,152.9 276.2,160.7 				"/>
				<polygon class="st5" points="206.8,83.8 193.4,76.1 194,73.2 207.4,80.9 				"/>
			</g>
		</g>
		<g>
			<path class="st14" d="M235.9,85.9c-0.4,0.9-1.5,1.3-2.4,0.7c-0.9-0.5-1.3-1.7-0.9-2.6c0.4-0.9,1.5-1.3,2.4-0.7
				C235.9,83.8,236.3,85,235.9,85.9z"/>
			<path class="st14" d="M241.6,89.2c-0.4,0.9-1.5,1.3-2.4,0.7c-0.9-0.5-1.3-1.7-0.9-2.6c0.4-0.9,1.5-1.3,2.4-0.7
				C241.7,87.1,242.1,88.3,241.6,89.2z"/>
			<path class="st14" d="M247.4,92.6c-0.4,0.9-1.5,1.3-2.4,0.7c-0.9-0.5-1.3-1.7-0.9-2.6c0.4-0.9,1.5-1.3,2.4-0.7
				S247.9,91.6,247.4,92.6z"/>
			<path class="st14" d="M253.2,95.9c-0.4,0.9-1.5,1.3-2.4,0.7c-0.9-0.5-1.3-1.7-0.9-2.6c0.4-0.9,1.5-1.3,2.4-0.7
				C253.2,93.8,253.6,95,253.2,95.9z"/>
		</g>
	</g>
	<g>
		<path class="st3" d="M311.6,280.5c-1.8-1-4.7-1-6.5,0l-84,48.5c-1.8,1-1.8,2.7,0,3.8s4.7,1,6.5,0l84-48.5
			C313.4,283.2,313.4,281.5,311.6,280.5z"/>
		<g>
			<g>
				<path class="st15" d="M326,254.2L326,254.2c-0.1-0.1-0.2-0.2-0.4-0.2l-5.1,1.1l2,3.4l3.4-3.9C326,254.5,326,254.3,326,254.2z"/>
				<g>
					<path class="st4" d="M324,256.7c0-0.7-0.5-1.6-1.2-2c-0.3-0.2-0.6-0.2-0.8-0.1c-5.9-0.1-11.6,1.5-16.7,4.5l-0.4,0.2l6.3,10.7
						l1.9-1.2c3.9-2.6,7.3-6.1,9.7-10.1l0.8-1.3C323.8,257.3,324,257,324,256.7z"/>
					<path class="st11" d="M312.5,267.2c0-2.8-2-6.2-4.5-7.6s-4.4-0.2-4.4,2.6s2,6.2,4.5,7.6C310.6,271.1,312.5,270,312.5,267.2z"/>
					<polygon class="st11" points="273.8,293.4 311.3,270 305,259.3 266.4,280.7 					"/>
					<path class="st6" d="M275.3,290c0-3.3-2.4-7.3-5.3-9s-5.2-0.3-5.2,3c0,3.3,2.4,7.3,5.3,9C273,294.7,275.3,293.3,275.3,290z"/>
				</g>
				<g>
					<path class="st11" d="M273.2,291.2c0-3.3-2.4-7.3-5.3-9c-2.9-1.6-5.2-0.3-5.2,3c0,3.3,2.4,7.3,5.3,9
						C270.9,295.9,273.2,294.6,273.2,291.2z"/>
					
						<rect x="214.4" y="295.5" transform="matrix(0.8621 -0.5067 0.5067 0.8621 -119.9337 164.9663)" class="st11" width="57.5" height="14.7"/>
					<path class="st11" d="M223.6,320.4c0-3.3-2.4-7.3-5.3-9c-2.9-1.6-5.2-0.3-5.2,3c0,3.3,2.4,7.3,5.3,9
						C221.3,325,223.6,323.7,223.6,320.4z"/>
					<path class="st8" d="M221.8,319.3c-0.1-2-1.7-4.4-3.6-5.5c-1.9-1-3.3-0.3-3.1,1.6c0.1,2,1.7,4.4,3.6,5.5
						C220.4,322,221.9,321.3,221.8,319.3z"/>
				</g>
				<g>
					<path class="st7" d="M275.7,289.8c0-3.3-2.4-7.3-5.3-9c-1.2-0.7-2.2-0.8-3.1-0.6c0.9-1,2.5-1.1,4.2-0.1c2.9,1.6,5.2,5.6,5.3,9
						c0,2-0.8,3.3-2.1,3.6C275.3,292.1,275.7,291.1,275.7,289.8z"/>
					<path class="st4" d="M275.7,289.8c0-3.3-2.4-7.3-5.3-9c-1.4-0.8-2.7-0.9-3.7-0.3l-2.8,1.6l1.3,2.3c0.2,3,2.3,6.5,4.8,8.1
						l1.3,2.3l2.8-1.6l0,0C275.1,292.6,275.7,291.4,275.7,289.8z"/>
					<path class="st11" d="M272.9,291.4c0-3.3-2.4-7.3-5.3-9c-2.9-1.6-5.2-0.3-5.2,3c0,3.3,2.4,7.3,5.3,9
						C270.6,296.1,272.9,294.7,272.9,291.4z"/>
				</g>
				<g>
					<path class="st9" d="M219.4,320.8l-3.2-5.5l-10.5,6.2c-1.5,0.9-2,2.8-1.1,4.4l0,0c0.9,1.5,2.8,2,4.3,1.1L219.4,320.8z"/>
					<path class="st9" d="M220.1,319.3c0-1.4-1-3.2-2.3-3.9c-1.2-0.7-2.2-0.1-2.2,1.3c0,1.4,1,3.2,2.3,3.9
						C219.1,321.4,220.1,320.8,220.1,319.3z"/>
				</g>
				<g>
					<path class="st4" d="M231.7,300l-1.6-0.9c-0.9-0.5-2.1-0.4-3.4,0.4l-5.4,3.2c-1,0.6-1.8,2-1.8,3.2l0,2.7c0,0.5-0.2,1-0.5,1.4
						l0.2,1.2l-1.4-0.8l0,0c-0.2-0.1-0.3-0.3-0.3-0.7l0-2.7c0-2.5,1.7-5.5,3.8-6.7l5.4-3.2c1.8-1.1,3.5-1.2,4.8-0.5l1.6,0.9
						c0.9,0.5,2.1,0.4,3.4-0.4l21.8-12.8c0.3-0.2,0.5-0.2,0.7-0.1l0,0l1.3,0.8l-1.1,0.4c-0.2,0.5-0.5,1-0.9,1.2l-21.8,12.8
						C234.7,300.5,233,300.7,231.7,300z"/>
					<path class="st4" d="M231.5,299.9c-0.9-0.5-2.1-0.4-3.4,0.4l-5.4,3.2c-1,0.6-1.8,2-1.8,3.2l0,2.7c0,0.6-0.4,1.4-1,1.8
						c-0.6,0.3-1,0.1-1-0.6l0-2.7c0-2.5,1.7-5.5,3.8-6.7l5.4-3.2c1.8-1.1,3.5-1.2,4.8-0.5l1.6,0.9c0.9,0.5,2.1,0.4,3.4-0.4
						l21.7-12.8c0.5-0.3,1-0.1,1,0.6c0,0.6-0.4,1.4-1,1.8l-21.8,12.8c-1.8,1.1-3.5,1.2-4.8,0.5L231.5,299.9z"/>
					<g>
						<path class="st4" d="M220.9,307.1l0,2.7c0,0,0,0,0,0c0.1-0.2,0.1-0.3,0.1-0.5l0-2.7c0-0.1,0-0.2,0-0.2
							C220.9,306.6,220.9,306.9,220.9,307.1z"/>
					</g>
				</g>
			</g>
		</g>
	</g>
	<g>
		<g>
			<path class="st3" d="M120.1,154.5c-8,4.6-21,4.6-29,0s-8-12.1,0-16.8c8-4.6,21-4.6,29,0C128.1,142.3,128.1,149.8,120.1,154.5z"/>
			<path class="st10" d="M129,136v-6.6h-1.2c-1.1-1.9-3-3.7-5.6-5.2c-9.1-5.3-23.9-5.3-33,0c-2.6,1.5-4.5,3.3-5.6,5.2h-1.2v6.5l0,0
				c0,3.5,2.3,6.9,6.8,9.6c9.1,5.3,23.9,5.3,33,0C126.7,142.9,129,139.4,129,136z"/>
			<ellipse class="st10" cx="105.6" cy="129.4" rx="23.4" ry="13.5"/>
			<path class="st7" d="M122.1,138.9c-9.1,5.3-23.9,5.3-33,0c-4.4-2.5-6.6-5.8-6.8-9.1c-0.2,3.6,2.1,7.2,6.8,10
				c9.1,5.3,23.9,5.3,33,0c4.8-2.7,7-6.4,6.8-10C128.8,133.1,126.5,136.4,122.1,138.9z"/>
		</g>
		<g>
			<path class="st7" d="M94.4,133.9c-0.4-0.2-0.6-0.5-0.6-0.9l0-8.8c0-0.7,0.9-1.2,2.1-1.2c1.2,0,2.1,0.5,2.1,1.2l0,7.3l21.1-2.6
				c1.1-0.1,2.2,0.3,2.5,0.9c0.2,0.7-0.5,1.3-1.6,1.4l-23.7,2.9c-0.6,0.1-1.3,0-1.8-0.2C94.5,133.9,94.4,133.9,94.4,133.9z"/>
		</g>
	</g>
	<g>
		<g>
			<path class="st8" d="M292.1,23.4L257.2,3.3c-0.7-0.4-1.4-0.4-2-0.1l0,0l-4.1,2c0,0,1.6,0.6,2.5,0.9l-5,25.4
				c-0.4,2.1,0.5,4.5,2.1,5.4l33.3,19.2l-0.6,3l4.2-2l0,0c0.7-0.3,1.3-1.1,1.5-2.2l5.1-25.9C294.5,26.7,293.6,24.3,292.1,23.4z"/>
			<path class="st6" d="M281.2,58.8l-34.9-20.1c-1.6-0.9-2.5-3.3-2.1-5.4l5.1-25.9c0.4-2.1,2-3,3.5-2.1l34.9,20.1
				c1.5,0.9,2.5,3.3,2.1,5.4l-5.1,25.9C284.4,58.7,282.8,59.7,281.2,58.8z"/>
			<path class="st7" d="M288.6,25.1L253.8,5c-0.8-0.5-1.6-0.4-2.3,0c0.5-0.1,1,0,1.5,0.3l34.9,20.1c1.5,0.9,2.5,3.3,2.1,5.4
				l-5.1,25.9c-0.2,1-0.7,1.7-1.3,2.1c1-0.2,1.8-1,2-2.4l5.1-25.9C291.1,28.4,290.2,26,288.6,25.1z"/>
		</g>
		<g>
			<path class="st7" d="M261.2,29.7c-0.3,1.5-1.6,2.1-2.9,1.4c-1.3-0.8-2.1-2.6-1.8-4.1s1.6-2.1,2.9-1.4S261.5,28.2,261.2,29.7z"/>
			<path class="st7" d="M268.3,33.8c-0.3,1.5-1.6,2.1-2.9,1.4c-1.3-0.8-2.1-2.6-1.8-4.1s1.6-2.1,2.9-1.4
				C267.8,30.5,268.6,32.3,268.3,33.8z"/>
			<path class="st7" d="M275.5,37.9c-0.3,1.5-1.6,2.1-2.9,1.4c-1.3-0.8-2.1-2.6-1.8-4.1s1.6-2.1,2.9-1.4S275.8,36.4,275.5,37.9z"/>
		</g>
	</g>
</g>
</svg>
