<?xml version="1.0" encoding="utf-8"?>
<!-- Generator: Adobe Illustrator 23.0.3, SVG Export Plug-In . SVG Version: 6.00 Build 0)  -->
<svg version="1.1" id="Capa_1" xmlns="http://www.w3.org/2000/svg" xmlns:xlink="http://www.w3.org/1999/xlink" x="0px" y="0px"
	 viewBox="0 0 400 375" style="enable-background:new 0 0 400 375;" xml:space="preserve">
<style type="text/css">
	.st0{opacity:0.24;fill:#003F6C;enable-background:new    ;}
	.st1{opacity:0.65;}
	.st2{fill:url(#SVGID_1_);}
	.st3{opacity:0.2;fill:#213B2C;enable-background:new    ;}
	.st4{fill:#CDD4CE;}
	.st5{fill:#C1C4C2;}
	.st6{fill:#DBE2DC;}
	.st7{fill:#BDBDBD;}
	.st8{fill:#D3EBD8;}
	.st9{fill:#FFFFFF;}
	.st10{fill:#517965;}
	.st11{fill:#BEC2BE;}
	.st12{fill:#EDEDED;}
	.st13{opacity:0.5;}
	.st14{opacity:0.6;fill:#213B2C;enable-background:new    ;}
	.st15{fill:#FDF951;}
	.st16{fill:#5EA4D2;}
	.st17{opacity:0.29;fill:url(#SVGID_2_);enable-background:new    ;}
	.st18{opacity:0.4;fill:#FFFFFF;enable-background:new    ;}
	.st19{opacity:0.5;fill:#213B2C;enable-background:new    ;}
	.st20{fill:#213B2C;}
	.st21{fill:#5D826F;}
	.st22{fill:#3E6351;}
	.st23{fill:#E9ECFD;}
	.st24{opacity:0.71;fill:#3E6351;enable-background:new    ;}
	.st25{fill:#8ECC93;}
	.st26{fill:#AED9B4;}
	.st27{fill:#75BD72;}
	.st28{fill:#EFEFEF;}
	.st29{opacity:0.59;fill:#213B2C;enable-background:new    ;}
	.st30{fill:#63AC53;}
	.st31{opacity:0.77;fill:#213B2C;enable-background:new    ;}
</style>
<path class="st0" d="M20,219c30.5,52,48.4,67.6,60.9,71.6c14.7,4.7,16.9,24.8,25.9,35.4c27.6,32.4,68.6,47.1,118.4,42.4
	c23.8-2.2,49.2-8.8,73.4-19l0.4-0.2c4.4-1.6,27.7-10.7,49.5-28.3c34.1-27.5,48.4-62,41.3-99.8c-6.3-33.7-21.3-60.6-36.6-84.7
	c-3.5-5.5-7.1-11.1-10.7-16.5c-3.6-5.5-7.3-11.1-10.9-16.8C317.5,81.2,245.9-16.6,123.9,10C-23.6,42.2-4.3,177.6,20,219z"/>
<g class="st1">
	<g>
		<linearGradient id="SVGID_1_" gradientUnits="userSpaceOnUse" x1="2.9783" y1="186.3704" x2="393.3866" y2="186.3704">
			<stop  offset="0" style="stop-color:#003F6C"/>
			<stop  offset="1" style="stop-color:#009444"/>
		</linearGradient>
		<path class="st2" d="M276.2,20.8c-98.7,0.6-179.6,6.4-245.9,90.3C-36,195,35.5,297.5,66,319.2c44.9,31.9,135.4,63.6,264.2-25
			C442.6,216.9,392.9,20,276.2,20.8z"/>
	</g>
</g>
<path class="st3" d="M148.2,136L25.6,209.2c0,0-1.8,1.5-1.8,6.6c0,3.9,2.2,5.5,2.2,5.5l77.5,43.1l92.8-54.4l-47.6-70.4"/>
<g>
	<g>
		<g>
			<g>
				<g>
					<path class="st4" d="M216.3,193.4L216.3,193.4v-6.4l-4.6,2.3l-8.1-4.7c-2.6-1.5-6.9-1.5-9.6,0l-81.5,47.1l-4.6-2.3v6.4l0,0
						c-0.1,1.1,0.5,2.2,2,3l10.8,6.2c2.6,1.5,6.9,1.5,9.6,0l84.2-48.6C215.7,195.5,216.4,194.4,216.3,193.4z"/>
					<path class="st5" d="M112.5,231.6l-4.6-2.3v6.4l0,0c-0.1,1.1,0.5,2.2,2,3l10.8,6.2c1.3,0.7,3,1.1,4.7,1.1v-21.8L112.5,231.6z"
						/>
					<path class="st6" d="M120.6,238.1c2.6,1.5,6.9,1.5,9.6,0l84.2-48.6c2.6-1.5,2.6-4,0-5.5l-10.8-6.2c-2.6-1.5-6.9-1.5-9.6,0
						l-84.2,48.6c-2.6,1.5-2.6,4,0,5.5L120.6,238.1z"/>
				</g>
				<g>
					<polygon class="st7" points="146.1,221.3 140.2,218 140.2,188 178.1,166.1 					"/>
					<polygon class="st4" points="183.9,199.5 146.1,221.3 146.1,191.3 183.9,169.5 					"/>
				</g>
				<path class="st4" d="M246.3,10.9l-5.5-3.1c-0.1-0.1-0.2-0.2-0.4-0.2l0,0l0,0c-0.5-0.2-1.2-0.1-2,0.3L80,99.3
					c-1.7,1-3.1,3.4-3.1,5.3v121.7c0,1,0.3,1.7,0.9,2c0.1,0.1,0.2,0.1,0.3,0.1l5.5,3.1l1.1-5.9l-1.6,0.7l155.4-89.7
					c1.7-1,3.1-3.4,3.1-5.3V14.2L246.3,10.9z"/>
				<path class="st7" d="M240.8,7.8c-0.1-0.1-0.2-0.2-0.4-0.2l0,0l0,0c-0.5-0.2-1.2-0.1-2,0.3L80,99.3c-0.7,0.4-1.4,1.1-1.9,1.9
					L184,168.1l54.4-31.4c1.7-1,3.1-3.4,3.1-5.3V14.2l4.8-3.3L240.8,7.8z"/>
				<path class="st6" d="M247.2,134.6c0,2-1.4,4.4-3.1,5.3L85.7,231.3c-1.7,1-3.1,0.2-3.1-1.8V107.9c0-2,1.4-4.3,3.1-5.3l158.4-91.5
					c1.7-1,3.1-0.2,3.1,1.8L247.2,134.6L247.2,134.6z"/>
				<polygon class="st8" points="244.2,125.6 85.6,217.2 85.6,107.7 244.2,16.1 				"/>
				<polygon class="st9" points="242.7,17 242.7,124.4 85.6,215.1 85.6,217.2 244.2,125.6 244.2,16.1 				"/>
			</g>
			<g>
				<polygon class="st10" points="229.4,43 166.1,79.5 166.1,75.9 229.4,39.4 				"/>
				<polygon class="st10" points="229.4,49.5 130.6,106.5 130.6,102.9 229.4,45.9 				"/>
				<polygon class="st10" points="229.4,56 130.6,113 130.6,109.3 229.4,52.3 				"/>
				<polygon class="st10" points="229.4,62.4 130.6,119.4 130.6,115.8 229.4,58.8 				"/>
				<polygon class="st10" points="229.4,68.9 130.6,125.9 130.6,122.3 229.4,65.3 				"/>
				<polygon class="st10" points="229.4,75.4 130.6,132.4 130.6,128.8 229.4,71.8 				"/>
				<polygon class="st10" points="229.4,88.3 166.1,124.8 166.1,121.2 229.4,84.7 				"/>
				<polygon class="st10" points="229.4,94.8 130.6,151.8 130.6,148.2 229.4,91.2 				"/>
				<polygon class="st10" points="229.4,101.3 130.6,158.3 130.6,154.6 229.4,97.6 				"/>
				<polygon class="st10" points="229.4,107.7 130.6,164.7 130.6,161.1 229.4,104.1 				"/>
				<polygon class="st10" points="229.4,114.2 130.6,171.2 130.6,167.6 229.4,110.6 				"/>
				<polygon class="st10" points="178,150.3 130.6,177.7 130.6,174.1 178,146.7 				"/>
			</g>
		</g>
		<g>
			<polygon class="st4" points="150.5,324.2 53.2,268.1 53.2,263.5 189.9,296.9 189.9,301.5 			"/>
			<polygon class="st11" points="150.5,324.2 53.2,268.1 53.2,263.5 150.5,319.2 150.5,323.8 			"/>
			<polygon class="st12" points="150.5,319.7 53.2,263.5 92.7,240.8 189.9,296.9 			"/>
			<g>
				<path class="st4" d="M64.4,266.9l-4-2.3c-0.3-0.2-0.3-0.5,0.1-0.7l4.8-2.8c0.4-0.2,0.9-0.2,1.3,0l4,2.3c0.3,0.2,0.3,0.5-0.1,0.7
					l-4.8,2.8C65.3,267.1,64.8,267.1,64.4,266.9z"/>
				<path class="st4" d="M70.7,270.5l-4-2.3c-0.3-0.2-0.3-0.5,0.1-0.7l4.8-2.8c0.4-0.2,0.9-0.2,1.3,0l4,2.3c0.3,0.2,0.3,0.5-0.1,0.7
					l-4.8,2.8C71.6,270.7,71,270.7,70.7,270.5z"/>
				<path class="st4" d="M76.9,274.1l-4-2.3c-0.3-0.2-0.3-0.5,0.1-0.7l4.8-2.8c0.4-0.2,0.9-0.2,1.3,0l4,2.3c0.3,0.2,0.3,0.5-0.1,0.7
					l-4.8,2.8C77.8,274.2,77.2,274.3,76.9,274.1z"/>
				<path class="st4" d="M85.5,271.1l-4-2.3c-0.3-0.2-0.3-0.5,0.1-0.7l4-2.3c0.4-0.2,0.9-0.2,1.3,0l4,2.3c0.3,0.2,0.3,0.5-0.1,0.7
					l-4,2.3C86.4,271.3,85.8,271.3,85.5,271.1z"/>
				<path class="st4" d="M91.8,274.7l-4-2.3c-0.3-0.2-0.3-0.5,0.1-0.7l4-2.3c0.4-0.2,0.9-0.2,1.3,0l4,2.3c0.3,0.2,0.3,0.5-0.1,0.7
					l-4,2.3C92.6,274.9,92.1,274.9,91.8,274.7z"/>
				<path class="st4" d="M98,278.3l-4-2.3c-0.3-0.2-0.3-0.5,0.1-0.7l4-2.3c0.4-0.2,0.9-0.2,1.3,0l4,2.3c0.3,0.2,0.3,0.5-0.1,0.7
					l-4,2.3C98.9,278.5,98.3,278.5,98,278.3z"/>
				<path class="st4" d="M104.2,281.9l-4-2.3c-0.3-0.2-0.3-0.5,0.1-0.7l4-2.3c0.4-0.2,0.9-0.2,1.3,0l4,2.3c0.3,0.2,0.3,0.5-0.1,0.7
					l-4,2.3C105.1,282.1,104.5,282.1,104.2,281.9z"/>
				<path class="st4" d="M110.4,285.5l-4-2.3c-0.3-0.2-0.3-0.5,0.1-0.7l4-2.3c0.4-0.2,0.9-0.2,1.3,0l4,2.3c0.3,0.2,0.3,0.5-0.1,0.7
					l-4,2.3C111.3,285.7,110.8,285.7,110.4,285.5z"/>
				<path class="st4" d="M116.7,289.1l-4-2.3c-0.3-0.2-0.3-0.5,0.1-0.7l4-2.3c0.4-0.2,0.9-0.2,1.3,0l4,2.3c0.3,0.2,0.3,0.5-0.1,0.7
					l-4,2.3C117.6,289.3,117,289.3,116.7,289.1z"/>
				<path class="st4" d="M122.9,292.7l-4-2.3c-0.3-0.2-0.3-0.5,0.1-0.7l4-2.3c0.4-0.2,0.9-0.2,1.3,0l4,2.3c0.3,0.2,0.3,0.5-0.1,0.7
					l-4,2.3C123.8,292.9,123.2,292.9,122.9,292.7z"/>
				<path class="st4" d="M129.1,296.3l-4-2.3c-0.3-0.2-0.3-0.5,0.1-0.7l4-2.3c0.4-0.2,0.9-0.2,1.3,0l4,2.3c0.3,0.2,0.3,0.5-0.1,0.7
					l-4,2.3C130,296.5,129.4,296.5,129.1,296.3z"/>
				<path class="st4" d="M135.4,299.9l-4-2.3c-0.3-0.2-0.3-0.5,0.1-0.7l4-2.3c0.4-0.2,0.9-0.2,1.3,0l4,2.3c0.3,0.2,0.3,0.5-0.1,0.7
					l-4,2.3C136.2,300.1,135.7,300.1,135.4,299.9z"/>
				<path class="st4" d="M141.6,303.5l-4-2.3c-0.3-0.2-0.3-0.5,0.1-0.7l4-2.3c0.4-0.2,0.9-0.2,1.3,0l4,2.3c0.3,0.2,0.3,0.5-0.1,0.7
					l-4,2.3C142.5,303.7,141.9,303.7,141.6,303.5z"/>
				<path class="st4" d="M94.7,269.4l-4-2.3c-0.3-0.2-0.3-0.5,0.1-0.7l4-2.3c0.4-0.2,0.9-0.2,1.3,0l4,2.3c0.3,0.2,0.3,0.5-0.1,0.7
					l-4,2.3C95.6,269.6,95,269.6,94.7,269.4z"/>
				<path class="st4" d="M88.4,265.8l-4-2.3c-0.3-0.2-0.3-0.5,0.1-0.7l4-2.3c0.4-0.2,0.9-0.2,1.3,0l4,2.3c0.3,0.2,0.3,0.5-0.1,0.7
					l-4,2.3C89.3,265.9,88.7,266,88.4,265.8z"/>
				<path class="st4" d="M82,262.1l-8.7-5c-0.3-0.2-0.3-0.5,0.1-0.7l4-2.3c0.4-0.2,0.9-0.2,1.3-0.1l8.7,5c0.3,0.2,0.3,0.5-0.1,0.7
					l-4,2.3C82.9,262.3,82.4,262.3,82,262.1z"/>
				<path class="st4" d="M86.5,257.7l-7.1-4.1c-0.3-0.2-0.3-0.5,0.1-0.7l4-2.3c0.4-0.2,0.9-0.2,1.3-0.1l7.1,4.1
					c0.3,0.2,0.3,0.5-0.1,0.7l-4,2.3C87.4,257.8,86.8,257.9,86.5,257.7z"/>
				<path class="st4" d="M100.9,273l-4-2.3c-0.3-0.2-0.3-0.5,0.1-0.7l4-2.3c0.4-0.2,0.9-0.2,1.3,0l4,2.3c0.3,0.2,0.3,0.5-0.1,0.7
					l-4,2.3C101.8,273.2,101.2,273.2,100.9,273z"/>
				<path class="st4" d="M107.2,276.6l-4-2.3c-0.3-0.2-0.3-0.5,0.1-0.7l4-2.3c0.4-0.2,0.9-0.2,1.3,0l4,2.3c0.3,0.2,0.3,0.5-0.1,0.7
					l-4,2.3C108.1,276.8,107.5,276.8,107.2,276.6z"/>
				<path class="st4" d="M113.4,280.2l-4-2.3c-0.3-0.2-0.3-0.5,0.1-0.7l4-2.3c0.4-0.2,0.9-0.2,1.3,0l4,2.3c0.3,0.2,0.3,0.5-0.1,0.7
					l-4,2.3C114.3,280.4,113.7,280.4,113.4,280.2z"/>
				<path class="st4" d="M119.6,283.8l-4-2.3c-0.3-0.2-0.3-0.5,0.1-0.7l4-2.3c0.4-0.2,0.9-0.2,1.3,0l4,2.3c0.3,0.2,0.3,0.5-0.1,0.7
					l-4,2.3C120.5,284,119.9,284,119.6,283.8z"/>
				<path class="st4" d="M125.8,287.4l-4-2.3c-0.3-0.2-0.3-0.5,0.1-0.7l4-2.3c0.4-0.2,0.9-0.2,1.3,0l4,2.3c0.3,0.2,0.3,0.5-0.1,0.7
					l-4,2.3C126.7,287.6,126.2,287.6,125.8,287.4z"/>
				<path class="st4" d="M132.1,291l-4-2.3c-0.3-0.2-0.3-0.5,0.1-0.7l4-2.3c0.4-0.2,0.9-0.2,1.3,0l4,2.3c0.3,0.2,0.3,0.5-0.1,0.7
					l-4,2.3C133,291.2,132.4,291.2,132.1,291z"/>
				<path class="st4" d="M138.3,294.6l-4-2.3c-0.3-0.2-0.3-0.5,0.1-0.7l4-2.3c0.4-0.2,0.9-0.2,1.3,0l4,2.3c0.3,0.2,0.3,0.5-0.1,0.7
					l-4,2.3C139.2,294.8,138.6,294.8,138.3,294.6z"/>
				<path class="st4" d="M144.5,298.2l-4-2.3c-0.3-0.2-0.3-0.5,0.1-0.7l4-2.3c0.4-0.2,0.9-0.2,1.3,0l4,2.3c0.3,0.2,0.3,0.5-0.1,0.7
					l-4,2.3C145.4,298.4,144.9,298.4,144.5,298.2z"/>
				<path class="st4" d="M150.8,301.8l-4-2.3c-0.3-0.2-0.3-0.5,0.1-0.7l4-2.3c0.4-0.2,0.9-0.2,1.3,0l4,2.3c0.3,0.2,0.3,0.5-0.1,0.7
					l-4,2.3C151.7,302,151.1,302,150.8,301.8z"/>
				<path class="st4" d="M161.9,308.2l-8.8-5.1c-0.3-0.2-0.3-0.5,0.1-0.7l4-2.3c0.4-0.2,0.9-0.2,1.3,0l8.8,5.1
					c0.3,0.2,0.3,0.5-0.1,0.7l-4,2.3C162.7,308.4,162.2,308.4,161.9,308.2z"/>
				<path class="st4" d="M174,301.2l-7.4-4.3c-0.3-0.2-0.3-0.5,0.1-0.7l4-2.3c0.4-0.2,0.9-0.2,1.3,0l7.4,4.3
					c0.3,0.2,0.3,0.5-0.1,0.7l-4,2.3C174.9,301.4,174.3,301.4,174,301.2z"/>
				<path class="st4" d="M111.8,272.3l-4-2.3c-0.3-0.2-0.3-0.5,0.1-0.7l4-2.3c0.4-0.2,0.9-0.2,1.3,0l4,2.3c0.3,0.2,0.3,0.5-0.1,0.7
					l-4,2.3C112.7,272.5,112.2,272.5,111.8,272.3z"/>
				<path class="st4" d="M105.4,268.6l-4-2.3c-0.3-0.2-0.3-0.5,0.1-0.7l4-2.3c0.4-0.2,0.9-0.2,1.3,0l4,2.3c0.3,0.2,0.3,0.5-0.1,0.7
					l-4,2.3C106.3,268.8,105.8,268.8,105.4,268.6z"/>
				<path class="st4" d="M99.1,264.9l-4-2.3c-0.3-0.2-0.3-0.5,0.1-0.7l4-2.3c0.4-0.2,0.9-0.2,1.3,0l4,2.3c0.3,0.2,0.3,0.5-0.1,0.7
					l-4,2.3C100,265.1,99.4,265.1,99.1,264.9z"/>
				<path class="st4" d="M92.7,261.2l-4-2.3c-0.3-0.2-0.3-0.5,0.1-0.7l4-2.3c0.4-0.2,0.9-0.2,1.3-0.1l4,2.3c0.3,0.2,0.3,0.5-0.1,0.7
					l-4,2.3C93.6,261.4,93,261.4,92.7,261.2z"/>
				<path class="st4" d="M118.1,275.9l-4-2.3c-0.3-0.2-0.3-0.5,0.1-0.7l4-2.3c0.4-0.2,0.9-0.2,1.3,0l4,2.3c0.3,0.2,0.3,0.5-0.1,0.7
					l-4,2.3C119,276.1,118.4,276.1,118.1,275.9z"/>
				<path class="st4" d="M124.3,279.5l-4-2.3c-0.3-0.2-0.3-0.5,0.1-0.7l4-2.3c0.4-0.2,0.9-0.2,1.3,0l4,2.3c0.3,0.2,0.3,0.5-0.1,0.7
					l-4,2.3C125.2,279.7,124.6,279.7,124.3,279.5z"/>
				<path class="st4" d="M130.5,283.1l-4-2.3c-0.3-0.2-0.3-0.5,0.1-0.7l4-2.3c0.4-0.2,0.9-0.2,1.3,0l4,2.3c0.3,0.2,0.3,0.5-0.1,0.7
					l-4,2.3C131.4,283.3,130.9,283.3,130.5,283.1z"/>
				<path class="st4" d="M136.8,286.7l-4-2.3c-0.3-0.2-0.3-0.5,0.1-0.7l4-2.3c0.4-0.2,0.9-0.2,1.3,0l4,2.3c0.3,0.2,0.3,0.5-0.1,0.7
					l-4,2.3C137.6,286.9,137.1,286.9,136.8,286.7z"/>
				<path class="st4" d="M143,290.3l-4-2.3c-0.3-0.2-0.3-0.5,0.1-0.7l4-2.3c0.4-0.2,0.9-0.2,1.3,0l4,2.3c0.3,0.2,0.3,0.5-0.1,0.7
					l-4,2.3C143.9,290.5,143.3,290.5,143,290.3z"/>
				<path class="st4" d="M149.2,293.9l-4-2.3c-0.3-0.2-0.3-0.5,0.1-0.7l4-2.3c0.4-0.2,0.9-0.2,1.3,0l4,2.3c0.3,0.2,0.3,0.5-0.1,0.7
					l-4,2.3C150.1,294.1,149.6,294.1,149.2,293.9z"/>
				<path class="st4" d="M155.4,297.5l-4-2.3c-0.3-0.2-0.3-0.5,0.1-0.7l4-2.3c0.4-0.2,0.9-0.2,1.3,0l4,2.3c0.3,0.2,0.3,0.5-0.1,0.7
					l-4,2.3C156.3,297.6,155.8,297.7,155.4,297.5z"/>
				<path class="st4" d="M161.7,301.1l-4-2.3c-0.3-0.2-0.3-0.5,0.1-0.7l4-2.3c0.4-0.2,0.9-0.2,1.3,0l4,2.3c0.3,0.2,0.3,0.5-0.1,0.7
					l-4,2.3C162.6,301.2,162,301.3,161.7,301.1z"/>
				<path class="st4" d="M167.9,304.7l-4-2.3c-0.3-0.2-0.3-0.5,0.1-0.7l4-2.3c0.4-0.2,0.9-0.2,1.3,0l4,2.3c0.3,0.2,0.3,0.5-0.1,0.7
					l-4,2.3C168.8,304.9,168.2,304.9,167.9,304.7z"/>
				<path class="st4" d="M108.6,263.4l-4-2.3c-0.3-0.2-0.3-0.5,0.1-0.7l4-2.3c0.4-0.2,0.9-0.2,1.3,0l4,2.3c0.3,0.2,0.3,0.5-0.1,0.7
					l-4,2.3C109.4,263.6,108.9,263.6,108.6,263.4z"/>
				<path class="st4" d="M102.4,259.8l-4-2.3c-0.3-0.2-0.3-0.5,0.1-0.7l4-2.3c0.4-0.2,0.9-0.2,1.3-0.1l4,2.3
					c0.3,0.2,0.3,0.5-0.1,0.7l-4,2.3C103.2,260,102.7,260,102.4,259.8z"/>
				<path class="st4" d="M96.2,256.2l-4-2.3c-0.3-0.2-0.3-0.5,0.1-0.7l4-2.3c0.4-0.2,0.9-0.2,1.3-0.1l4,2.3c0.3,0.2,0.3,0.5-0.1,0.7
					l-4,2.3C97.1,256.4,96.5,256.4,96.2,256.2z"/>
				<path class="st4" d="M90,252.7l-4-2.3c-0.3-0.2-0.3-0.5,0.1-0.7l4-2.3c0.4-0.2,0.9-0.2,1.3-0.1l4,2.3c0.3,0.2,0.3,0.5-0.1,0.7
					l-4,2.3C90.8,252.8,90.3,252.9,90,252.7z"/>
				<path class="st4" d="M96.3,249l-4-2.3c-0.3-0.2-0.3-0.5,0.1-0.7l1.3-0.8c0.4-0.2,0.9-0.2,1.3-0.1l4,2.3c0.3,0.2,0.3,0.5-0.1,0.7
					l-1.3,0.8C97.2,249.2,96.7,249.2,96.3,249z"/>
				<path class="st4" d="M104.4,253.7l-4-2.3c-0.3-0.2-0.3-0.5,0.1-0.7l1.3-0.8c0.4-0.2,0.9-0.2,1.3-0.1l4,2.3
					c0.3,0.2,0.3,0.5-0.1,0.7l-1.3,0.8C105.3,253.8,104.8,253.9,104.4,253.7z"/>
				<path class="st4" d="M110.6,257.2l-4-2.3c-0.3-0.2-0.3-0.5,0.1-0.7l1.3-0.8c0.4-0.2,0.9-0.2,1.3-0.1l4,2.3
					c0.3,0.2,0.3,0.5-0.1,0.7l-1.3,0.8C111.5,257.4,110.9,257.4,110.6,257.2z"/>
				<path class="st4" d="M116.8,260.8l-4-2.3c-0.3-0.2-0.3-0.5,0.1-0.7l1.3-0.8c0.4-0.2,0.9-0.2,1.3,0l4,2.3
					c0.3,0.2,0.3,0.5-0.1,0.7l-1.3,0.8C117.7,261,117.1,261,116.8,260.8z"/>
				<path class="st4" d="M122.9,264.4l-4-2.3c-0.3-0.2-0.3-0.5,0.1-0.7l1.3-0.8c0.4-0.2,0.9-0.2,1.3,0l4,2.3
					c0.3,0.2,0.3,0.5-0.1,0.7l-1.3,0.8C123.8,264.5,123.3,264.5,122.9,264.4z"/>
				<path class="st4" d="M157.4,284.3l-4-2.3c-0.3-0.2-0.3-0.5,0.1-0.7l1.3-0.8c0.4-0.2,0.9-0.2,1.3,0l4,2.3
					c0.3,0.2,0.3,0.5-0.1,0.7l-1.3,0.8C158.3,284.4,157.7,284.4,157.4,284.3z"/>
				<path class="st4" d="M163.6,287.8l-4-2.3c-0.3-0.2-0.3-0.5,0.1-0.7l1.3-0.8c0.4-0.2,0.9-0.2,1.3,0l4,2.3
					c0.3,0.2,0.3,0.5-0.1,0.7l-1.3,0.8C164.5,288,163.9,288,163.6,287.8z"/>
				<path class="st4" d="M169.8,291.4l-4-2.3c-0.3-0.2-0.3-0.5,0.1-0.7l1.3-0.8c0.4-0.2,0.9-0.2,1.3,0l4,2.3
					c0.3,0.2,0.3,0.5-0.1,0.7l-1.3,0.8C170.6,291.5,170.1,291.6,169.8,291.4z"/>
				<path class="st4" d="M175.9,295l-4-2.3c-0.3-0.2-0.3-0.5,0.1-0.7l1.3-0.8c0.4-0.2,0.9-0.2,1.3,0l4,2.3c0.3,0.2,0.3,0.5-0.1,0.7
					l-1.3,0.8C176.8,295.1,176.3,295.1,175.9,295z"/>
				<path class="st4" d="M114.8,267l-4-2.3c-0.3-0.2-0.3-0.5,0.1-0.7l4-2.3c0.4-0.2,0.9-0.2,1.3,0l4,2.3c0.3,0.2,0.3,0.5-0.1,0.7
					l-4,2.3C115.7,267.2,115.1,267.2,114.8,267z"/>
				<path class="st4" d="M121,270.6l-4-2.3c-0.3-0.2-0.3-0.5,0.1-0.7l4-2.3c0.4-0.2,0.9-0.2,1.3,0l4,2.3c0.3,0.2,0.3,0.5-0.1,0.7
					l-4,2.3C121.9,270.8,121.3,270.8,121,270.6z"/>
				<path class="st4" d="M127.2,274.2l-4-2.3c-0.3-0.2-0.3-0.5,0.1-0.7l4-2.3c0.4-0.2,0.9-0.2,1.3,0l4,2.3c0.3,0.2,0.3,0.5-0.1,0.7
					l-4,2.3C128.1,274.4,127.6,274.4,127.2,274.2z"/>
				<path class="st4" d="M133.5,277.8l-4-2.3c-0.3-0.2-0.3-0.5,0.1-0.7l4-2.3c0.4-0.2,0.9-0.2,1.3,0l4,2.3c0.3,0.2,0.3,0.5-0.1,0.7
					l-4,2.3C134.4,278,133.8,278,133.5,277.8z"/>
				<path class="st4" d="M139.7,281.4l-4-2.3c-0.3-0.2-0.3-0.5,0.1-0.7l4-2.3c0.4-0.2,0.9-0.2,1.3,0l4,2.3c0.3,0.2,0.3,0.5-0.1,0.7
					l-4,2.3C140.6,281.6,140,281.6,139.7,281.4z"/>
				<path class="st4" d="M145.9,285l-4-2.3c-0.3-0.2-0.3-0.5,0.1-0.7l4-2.3c0.4-0.2,0.9-0.2,1.3,0l4,2.3c0.3,0.2,0.3,0.5-0.1,0.7
					l-4,2.3C146.8,285.2,146.3,285.2,145.9,285z"/>
				<path class="st4" d="M152.2,288.6l-4-2.3c-0.3-0.2-0.3-0.5,0.1-0.7l4-2.3c0.4-0.2,0.9-0.2,1.3,0l4,2.3c0.3,0.2,0.3,0.5-0.1,0.7
					l-4,2.3C153.1,288.8,152.5,288.8,152.2,288.6z"/>
				<path class="st4" d="M158.4,292.2l-4-2.3c-0.3-0.2-0.3-0.5,0.1-0.7l4-2.3c0.4-0.2,0.9-0.2,1.3,0l4,2.3c0.3,0.2,0.3,0.5-0.1,0.7
					l-4,2.3C159.3,292.4,158.7,292.4,158.4,292.2z"/>
				<path class="st4" d="M164.6,295.8l-4-2.3c-0.3-0.2-0.3-0.5,0.1-0.7l4-2.3c0.4-0.2,0.9-0.2,1.3,0l4,2.3c0.3,0.2,0.3,0.5-0.1,0.7
					l-4,2.3C165.5,296,165,296,164.6,295.8z"/>
				<path class="st4" d="M79.2,267.5l-11.9-6.9c-0.3-0.2-0.3-0.5,0.1-0.7l4-2.3c0.4-0.2,0.9-0.2,1.3,0l11.9,6.9
					c0.3,0.2,0.3,0.5-0.1,0.7l-4,2.3C80.1,267.6,79.5,267.6,79.2,267.5z"/>
				<path class="st4" d="M155.7,311.6l-11.9-6.9c-0.3-0.2-0.3-0.5,0.1-0.7l4-2.3c0.4-0.2,0.9-0.2,1.3,0l11.9,6.9
					c0.3,0.2,0.3,0.5-0.1,0.7l-4,2.3C156.6,311.8,156,311.8,155.7,311.6z"/>
				<path class="st4" d="M130.8,305.2l-4-2.3c-0.3-0.2-0.3-0.5,0.1-0.7l4.8-2.8c0.4-0.2,0.9-0.2,1.3,0l4,2.3
					c0.3,0.2,0.3,0.5-0.1,0.7l-4.8,2.8C131.7,305.4,131.1,305.4,130.8,305.2z"/>
				<path class="st4" d="M85.6,279.1l-6.4-3.7c-0.3-0.2-0.3-0.5,0.1-0.7l4.8-2.8c0.4-0.2,0.9-0.2,1.3,0l6.4,3.7
					c0.3,0.2,0.3,0.5-0.1,0.7l-4.8,2.8C86.4,279.2,85.9,279.3,85.6,279.1z"/>
				<path class="st4" d="M124.8,301.7l-6.4-3.7c-0.3-0.2-0.3-0.5,0.1-0.7l4.8-2.8c0.4-0.2,0.9-0.2,1.3,0l6.5,3.7
					c0.3,0.2,0.3,0.5-0.1,0.7l-4.8,2.8C125.7,301.9,125.1,301.9,124.8,301.7z"/>
				<path class="st4" d="M94.5,284.3l-6.4-3.7c-0.3-0.2-0.3-0.5,0.1-0.7l4.8-2.8c0.4-0.2,0.9-0.2,1.3,0l6.4,3.7
					c0.3,0.2,0.3,0.5-0.1,0.7l-4.8,2.8C95.4,284.4,94.9,284.5,94.5,284.3z"/>
				<path class="st4" d="M94.2,277l28.1,16.2c0.3,0.2,0.3,0.5,0,0.7l-4.9,2.8c-0.3,0.2-0.9,0.2-1.3,0l-28-16.2L94.2,277z"/>
				<path class="st4" d="M148.2,311.7l4.5,2.6c0.3,0.1,0.2,0.4-0.1,0.6l-1.9,1.1c-0.3,0.2-0.8,0.2-1,0l-4.5-2.6
					c-0.3-0.1-0.2-0.4,0.1-0.6l1.9-1.1C147.5,311.6,147.9,311.6,148.2,311.7z"/>
				<path class="st4" d="M141.9,308.1l4.5,2.6c0.3,0.1,0.2,0.4-0.1,0.6l-1.9,1.1c-0.3,0.2-0.8,0.2-1,0l-4.5-2.6
					c-0.3-0.1-0.2-0.4,0.1-0.6l1.9-1.1C141.2,308,141.7,308,141.9,308.1z"/>
				<path class="st4" d="M135.7,304.5l4.5,2.6c0.3,0.1,0.2,0.4-0.1,0.6l-1.9,1.1c-0.3,0.2-0.8,0.2-1,0l-4.5-2.6
					c-0.3-0.1-0.2-0.4,0.1-0.6l1.9-1.1C135,304.4,135.4,304.4,135.7,304.5z"/>
				<path class="st4" d="M145.4,306.1l4.5,2.6c0.3,0.1,0.2,0.4-0.1,0.6l-1.9,1.1c-0.3,0.2-0.8,0.2-1,0l-4.5-2.6
					c-0.3-0.1-0.2-0.4,0.1-0.6l1.9-1.1C144.6,306,145.1,306,145.4,306.1z"/>
			</g>
		</g>
	</g>
	<g>
		<g class="st13">
			<path class="st14" d="M339.9,224.2c12.8,5.7,12.9,14.9,0.1,20.6s-33.4,5.7-46.1,0c-12.8-5.7-12.8-14.9-0.1-20.6
				C306.5,218.5,327.1,218.5,339.9,224.2z"/>
		</g>
		<g>
			<path class="st8" d="M341,228.3c0-0.1,0-0.1-0.1-0.2c0-0.1,0-0.1-0.1-0.2c0-0.1,0-0.1-0.1-0.2c0-0.1,0-0.1-0.1-0.2
				c0-0.1,0-0.1-0.1-0.2c0-0.1,0-0.1-0.1-0.2c0-0.1,0-0.1-0.1-0.2c0-0.1,0-0.1-0.1-0.2c0-0.1,0-0.1-0.1-0.2c0-0.1,0-0.1-0.1-0.2
				c0-0.1,0-0.1-0.1-0.2c0-0.1,0-0.1-0.1-0.2c0-0.1,0-0.1-0.1-0.2c0-0.1,0-0.1-0.1-0.2c0-0.1,0-0.1-0.1-0.2c0-0.1,0-0.1-0.1-0.2
				c0-0.1,0-0.1-0.1-0.2c0-0.1,0-0.1-0.1-0.2c0-0.1,0-0.1-0.1-0.2c0-0.1,0-0.1-0.1-0.2c0-0.1,0-0.1-0.1-0.2c0-0.1,0-0.1-0.1-0.2
				c0-0.1,0-0.1-0.1-0.2c0-0.1,0-0.1-0.1-0.2c0-0.1,0-0.1-0.1-0.2c0-0.1,0-0.1-0.1-0.2c0-0.1,0-0.1-0.1-0.2c0-0.1,0-0.1-0.1-0.2
				c0-0.1,0-0.1-0.1-0.2c0-0.1,0-0.1-0.1-0.2c0-0.1,0-0.1-0.1-0.2c0-0.1,0-0.1-0.1-0.2c0-0.1,0-0.1-0.1-0.2c0-0.1,0-0.1-0.1-0.2
				c0-0.1,0-0.1-0.1-0.2c0-0.1,0-0.1-0.1-0.2c0-0.1,0-0.1-0.1-0.2c0-0.1,0-0.1-0.1-0.2c0-0.1,0-0.1-0.1-0.2c0-0.1,0-0.1-0.1-0.2
				c0-0.1,0-0.1-0.1-0.2c0-0.1,0-0.1-0.1-0.2c0-0.1,0-0.1-0.1-0.2c0-0.1,0-0.1-0.1-0.2c0-0.1,0-0.1-0.1-0.2c0-0.1,0-0.1-0.1-0.2
				c0-0.1,0-0.1-0.1-0.2c0-0.1,0-0.1-0.1-0.2c0-0.1,0-0.1-0.1-0.2c0-0.1,0-0.1-0.1-0.2c0-0.1,0-0.1-0.1-0.2c0-0.1,0-0.1-0.1-0.2
				c0-0.1,0-0.1-0.1-0.2c0-0.1,0-0.1-0.1-0.2c0-0.1,0-0.1-0.1-0.2c0-0.1,0-0.1-0.1-0.2c0-0.1,0-0.1-0.1-0.2c0-0.1,0-0.1-0.1-0.2
				c0-0.1,0-0.1-0.1-0.2c0-0.1,0-0.1-0.1-0.2c0-0.1,0-0.1-0.1-0.2c0-0.1,0-0.1-0.1-0.2c0-0.1,0-0.1-0.1-0.2c0-0.1,0-0.1-0.1-0.2
				c0-0.1,0-0.1-0.1-0.2c0-0.1,0-0.1-0.1-0.2c0-0.1,0-0.1-0.1-0.2c0-0.1,0-0.1-0.1-0.2c0-0.1,0-0.1-0.1-0.2c0-0.1,0-0.1-0.1-0.2
				c0-0.1,0-0.1-0.1-0.2c0-0.1,0-0.1-0.1-0.2c0-0.1,0-0.1-0.1-0.2c0-0.1,0-0.1-0.1-0.2c0-0.1,0-0.1-0.1-0.2c0-0.1,0-0.1-0.1-0.2
				c0-0.1,0-0.1-0.1-0.2c0-0.1,0-0.1-0.1-0.2c0-0.1,0-0.1-0.1-0.2c0-0.1,0-0.1-0.1-0.2c0-0.1,0-0.1-0.1-0.2c0-0.1,0-0.1-0.1-0.2
				c0-0.1,0-0.1-0.1-0.2c0-0.1,0-0.1-0.1-0.2c0-0.1,0-0.1-0.1-0.2c0-0.1,0-0.1-0.1-0.2c0-0.1,0-0.1-0.1-0.2c0-0.1,0-0.1-0.1-0.2
				c0-0.1,0-0.1-0.1-0.2c0-0.1,0-0.1-0.1-0.2c0-0.1,0-0.1-0.1-0.2c0-0.1,0-0.1-0.1-0.2c0-0.1,0-0.1-0.1-0.2c0-0.1,0-0.1-0.1-0.2
				c0-0.1,0-0.1-0.1-0.2c0-0.1,0-0.1-0.1-0.2c0-0.1,0-0.1-0.1-0.2c0-0.1,0-0.1-0.1-0.2c0-0.1,0-0.1-0.1-0.2c0-0.1,0-0.1-0.1-0.2
				c0-0.1,0-0.1-0.1-0.2c0-0.1,0-0.1-0.1-0.2c0-0.1,0-0.1-0.1-0.2c0-0.1,0-0.1-0.1-0.2c0-0.1,0-0.1-0.1-0.2c0-0.1,0-0.1-0.1-0.2
				c0-0.1,0-0.1-0.1-0.2c0-0.1,0-0.1-0.1-0.2c0-0.1,0-0.1-0.1-0.2c0-0.1,0-0.1-0.1-0.2c0-0.1,0-0.1-0.1-0.2c0-0.1,0-0.1-0.1-0.2
				c0-0.1,0-0.1-0.1-0.2c0-0.1,0-0.1-0.1-0.2c0-0.1,0-0.1-0.1-0.2c0-0.1,0-0.1-0.1-0.2c0-0.1,0-0.1-0.1-0.2c0-0.1,0-0.1-0.1-0.2
				c0-0.1,0-0.1-0.1-0.2c0-0.1,0-0.1-0.1-0.2c0-0.1,0-0.1-0.1-0.2c0-0.1,0-0.1-0.1-0.2c0-0.1,0-0.1-0.1-0.2c0-0.1,0-0.1-0.1-0.2
				c0-0.1,0-0.1-0.1-0.2c0-0.1,0-0.1-0.1-0.2c0-0.1,0-0.1-0.1-0.2c0-0.1,0-0.1-0.1-0.2c0-0.1,0-0.1-0.1-0.2c0-0.1,0-0.1-0.1-0.2
				c0-0.1,0-0.1-0.1-0.2c0-0.1,0-0.1-0.1-0.2c0-0.1,0-0.1-0.1-0.2c0-0.1,0-0.1-0.1-0.2c0-0.1,0-0.1-0.1-0.2c0-0.1,0-0.1-0.1-0.2
				c0-0.1,0-0.1-0.1-0.2c0-0.1,0-0.1-0.1-0.2c0-0.1,0-0.1-0.1-0.2c0-0.1,0-0.1-0.1-0.2c0-0.1,0-0.1-0.1-0.2c0-0.1,0-0.1-0.1-0.2
				c0-0.1,0-0.1-0.1-0.2c0-0.1,0-0.1-0.1-0.2c0-0.1,0-0.1-0.1-0.2c0-0.1,0-0.1-0.1-0.2c0-0.1,0-0.1-0.1-0.2c0-0.1,0-0.1-0.1-0.2
				c0-0.1,0-0.1-0.1-0.2c0-0.1,0-0.1-0.1-0.2c0-0.1,0-0.1-0.1-0.2c0-0.1,0-0.1-0.1-0.2c0-0.1,0-0.1-0.1-0.2c0-0.1,0-0.1-0.1-0.2
				c0-0.1,0-0.1-0.1-0.2c0-0.1,0-0.1-0.1-0.2c0-0.1,0-0.1-0.1-0.2c0-0.1,0-0.1-0.1-0.2c0-0.1,0-0.1-0.1-0.2c0-0.1,0-0.1-0.1-0.2
				c0-0.1,0-0.1-0.1-0.2c0-0.1,0-0.1-0.1-0.2c0-0.1,0-0.1-0.1-0.2c0-0.1,0-0.1-0.1-0.2c0-0.1,0-0.1-0.1-0.2c0-0.1,0-0.1-0.1-0.2
				c0-0.1,0-0.1-0.1-0.2c0-0.1,0-0.1-0.1-0.2c0-0.1,0-0.1-0.1-0.2c0-0.1,0-0.1-0.1-0.2c0-0.1,0-0.1-0.1-0.2c0-0.1,0-0.1,0-0.1
				c0-0.1,0-0.1-0.1-0.2c0-0.1,0-0.1-0.1-0.2c0-0.1,0-0.1-0.1-0.2c0-0.1,0-0.1-0.1-0.2c0-0.1,0-0.1-0.1-0.2c0-0.1,0-0.1-0.1-0.2
				c0-0.1,0-0.1-0.1-0.2c0-0.1,0-0.1-0.1-0.2c0-0.1,0-0.1-0.1-0.2c0-0.1,0-0.1-0.1-0.2c0-0.1,0-0.1-0.1-0.2c0-0.1,0-0.1-0.1-0.2
				c0-0.1,0-0.1-0.1-0.2c0-0.1,0-0.1-0.1-0.2c0-0.1,0-0.1-0.1-0.2c0-0.1,0-0.1-0.1-0.2c0-0.1,0-0.1-0.1-0.2c0-0.1,0-0.1-0.1-0.2
				c0-0.1,0-0.1-0.1-0.2c0-0.1,0-0.1-0.1-0.2c0-0.1,0-0.1-0.1-0.2c0-0.1,0-0.1-0.1-0.2c0-0.1,0-0.1-0.1-0.2c0-0.1,0-0.1-0.1-0.2
				c0-0.1,0-0.1-0.1-0.2c0-0.1,0-0.1-0.1-0.2c0-0.1,0-0.1-0.1-0.2c0,0,0,0,0,0c0,0,0-0.1,0-0.1c0,0,0-0.1,0-0.1c0,0,0-0.1,0-0.1
				c0,0,0-0.1,0-0.1c0,0,0-0.1,0-0.1c0,0,0-0.1,0-0.1c0,0,0-0.1,0-0.1c0,0,0-0.1,0-0.1c0,0,0-0.1,0-0.1c0,0,0-0.1,0-0.1
				c0,0,0-0.1,0-0.1c0,0,0-0.1,0-0.1c0,0,0-0.1,0-0.1c0,0,0-0.1,0-0.1c0,0,0-0.1,0-0.1c0,0,0-0.1,0-0.1c0,0,0-0.1,0-0.1
				c0,0,0-0.1,0-0.1c0,0,0-0.1,0-0.1c0,0,0-0.1,0-0.1c0,0,0-0.1,0-0.1c0,0,0-0.1,0-0.1c0,0,0-0.1,0-0.1c0,0,0-0.1,0-0.1
				c0,0,0-0.1,0-0.1c0,0,0-0.1,0-0.1c0,0,0-0.1,0-0.1c0,0,0-0.1,0-0.1c0,0,0-0.1,0-0.1c0,0,0-0.1,0-0.1c0,0,0-0.1,0-0.1
				c0,0,0-0.1,0-0.1c0,0,0-0.1,0-0.1c0,0,0-0.1,0-0.1c0,0,0-0.1,0-0.1c0,0,0-0.1,0-0.1c0,0,0-0.1,0-0.1c0,0,0-0.1,0-0.1
				c0,0,0-0.1,0-0.1c0,0,0-0.1,0-0.1c0,0,0-0.1,0-0.1c0,0,0-0.1,0-0.1c0,0,0-0.1,0-0.1c0,0,0-0.1,0-0.1c0,0,0-0.1,0-0.1
				c0,0,0-0.1,0-0.1c0,0,0-0.1,0-0.1c0,0,0-0.1,0-0.1c0,0,0-0.1,0-0.1c0,0,0-0.1,0-0.1c0,0,0-0.1,0-0.1c0,0,0-0.1,0-0.1
				c0,0,0-0.1,0-0.1c0,0,0-0.1,0-0.1c0,0,0-0.1,0-0.1c0,0,0-0.1,0-0.1c0,0,0-0.1,0-0.1c0,0,0-0.1,0-0.1c0,0,0-0.1,0-0.1
				c0,0,0-0.1,0-0.1c0,0,0-0.1,0-0.1c0,0,0-0.1,0-0.1c0,0,0-0.1,0-0.1c0,0,0-0.1,0-0.1c0,0,0-0.1,0-0.1c0,0,0-0.1,0-0.1
				c0,0,0-0.1,0-0.1c0,0,0-0.1,0-0.1c0,0,0-0.1,0-0.1c0,0,0-0.1,0-0.1c0,0,0-0.1,0-0.1c0,0,0-0.1,0-0.1c0,0,0-0.1,0-0.1
				c0,0,0-0.1,0-0.1c0,0,0-0.1,0-0.1c0,0,0-0.1,0-0.1c0,0,0-0.1,0-0.1c0,0,0-0.1,0-0.1c0,0,0-0.1,0-0.1c0,0,0-0.1,0-0.1
				c0,0,0-0.1,0-0.1c0,0,0-0.1,0-0.1c0,0,0-0.1,0-0.1c0,0,0-0.1,0-0.1c0,0,0-0.1,0-0.1c0,0,0-0.1,0-0.1c0,0,0-0.1,0-0.1
				c0,0,0-0.1,0-0.1c0,0,0-0.1,0-0.1c0,0,0-0.1,0-0.1c0,0,0-0.1,0-0.1c0,0,0-0.1,0-0.1c0,0,0-0.1,0-0.1c0,0,0-0.1,0-0.1
				c0,0,0-0.1,0-0.1c0,0,0-0.1,0-0.1c0,0,0-0.1,0-0.1c0,0,0-0.1,0-0.1c0,0,0-0.1,0-0.1c0,0,0,5.5,0,5.4c0,0,0-0.1,0-0.1
				c0,0,0-0.1,0-0.1c0,0,0-0.1,0-0.1c0,0,0-0.1,0-0.1c0,0,0-0.1,0-0.1c0,0,0-0.1,0-0.1c0,0,0-0.1,0-0.1c0,0,0-0.1,0-0.1
				c0,0,0-0.1,0-0.1c0,0,0-0.1,0-0.1c0,0,0-0.1,0-0.1c0,0,0-0.1,0-0.1c0,0,0-0.1,0-0.1c0,0,0-0.1,0-0.1c0,0,0-0.1,0-0.1
				c0,0,0-0.1,0-0.1c0,0,0-0.1,0-0.1c0,0,0-0.1,0-0.1c0,0,0-0.1,0-0.1c0,0,0-0.1,0-0.1c0,0,0-0.1,0-0.1c0,0,0-0.1,0-0.1
				c0,0,0-0.1,0-0.1c0,0,0-0.1,0-0.1c0,0,0-0.1,0-0.1c0,0,0-0.1,0-0.1c0,0,0-0.1,0-0.1c0,0,0-0.1,0-0.1c0,0,0-0.1,0-0.1
				c0,0,0-0.1,0-0.1c0,0,0-0.1,0-0.1c0,0,0-0.1,0-0.1c0,0,0-0.1,0-0.1c0,0,0-0.1,0-0.1c0,0,0-0.1,0-0.1c0,0,0-0.1,0-0.1
				c0,0,0-0.1,0-0.1c0,0,0-0.1,0-0.1c0,0,0-0.1,0-0.1c0,0,0-0.1,0-0.1c0,0,0-0.1,0-0.1c0,0,0-0.1,0-0.1c0,0,0-0.1,0-0.1
				c0,0,0-0.1,0-0.1c0,0,0-0.1,0-0.1c0,0,0-0.1,0-0.1c0,0,0-0.1,0-0.1c0,0,0-0.1,0-0.1c0,0,0-0.1,0-0.1c0,0,0-0.1,0-0.1
				c0,0,0-0.1,0-0.1c0,0,0-0.1,0-0.1c0,0,0-0.1,0-0.1c0,0,0-0.1,0-0.1c0,0,0-0.1,0-0.1c0,0,0-0.1,0-0.1c0,0,0-0.1,0-0.1
				c0,0,0-0.1,0-0.1c0,0,0-0.1,0-0.1c0,0,0-0.1,0-0.1c0,0,0-0.1,0-0.1c0,0,0-0.1,0-0.1c0,0,0-0.1,0-0.1c0,0,0-0.1,0-0.1
				c0,0,0-0.1,0-0.1c0,0,0-0.1,0-0.1c0,0,0-0.1,0-0.1c0,0,0-0.1,0-0.1c0,0,0-0.1,0-0.1c0,0,0-0.1,0-0.1c0,0,0-0.1,0-0.1
				c0,0,0-0.1,0-0.1c0,0,0-0.1,0-0.1c0,0,0-0.1,0-0.1c0,0,0-0.1,0-0.1c0,0,0-0.1,0-0.1c0,0,0-0.1,0-0.1c0,0,0-0.1,0-0.1
				c0,0,0-0.1,0-0.1c0,0,0-0.1,0-0.1c0,0,0-0.1,0-0.1c0,0,0-0.1,0-0.1c0,0,0-0.1,0-0.1c0,0,0-0.1,0-0.1c0,0,0-0.1,0-0.1
				c0,0,0-0.1,0-0.1c0,0,0-0.1,0-0.1c0,0,0-0.1,0-0.1c0,0,0-0.1,0-0.1c0,0,0-0.1,0-0.1c0,0,0-0.1,0-0.1c0,0,0-0.1,0-0.1
				c0,0,0-0.1,0-0.1c0,0,0-0.1,0-0.1c0,0,0-0.1,0-0.1c0,0,0-0.1,0-0.1c0,0,0-0.1,0-0.1c0,0,0-0.1,0-0.1c0-1.1-0.9-2.2-2.7-3
				c-3.6-1.6-9.5-1.6-13.1,0c-1.8,0.8-2.7,1.9-2.7,3c0,0,0,0.1,0,0.1c0,0,0,0.1,0,0.1c0,0,0,0.1,0,0.1c0,0,0,0.1,0,0.1
				c0,0,0,0.1,0,0.1c0,0,0,0.1,0,0.1c0,0,0,0.1,0,0.1c0,0,0,0.1,0,0.1c0,0,0,0.1,0,0.1c0,0,0,0.1,0,0.1c0,0,0,0.1,0,0.1
				c0,0,0,0.1,0,0.1c0,0,0,0.1,0,0.1c0,0,0,0.1,0,0.1c0,0,0,0.1,0,0.1c0,0,0,0.1,0,0.1c0,0,0,0.1,0,0.1c0,0,0,0.1,0,0.1
				c0,0,0,0.1,0,0.1c0,0,0,0.1,0,0.1c0,0,0,0.1,0,0.1c0,0,0,0.1,0,0.1c0,0,0,0.1,0,0.1c0,0,0,0.1,0,0.1c0,0,0,0.1,0,0.1
				c0,0,0,0.1,0,0.1c0,0,0,0.1,0,0.1c0,0,0,0.1,0,0.1c0,0,0,0.1,0,0.1c0,0,0,0.1,0,0.1c0,0,0,0.1,0,0.1c0,0,0,0.1,0,0.1
				c0,0,0,0.1,0,0.1c0,0,0,0.1,0,0.1c0,0,0,0.1,0,0.1c0,0,0,0.1,0,0.1c0,0,0,0.1,0,0.1c0,0,0,0.1,0,0.1c0,0,0,0.1,0,0.1
				c0,0,0,0.1,0,0.1c0,0,0,0.1,0,0.1c0,0,0,0.1,0,0.1c0,0,0,0.1,0,0.1c0,0,0,0.1,0,0.1c0,0,0,0.1,0,0.1c0,0,0,0.1,0,0.1
				c0,0,0,0.1,0,0.1c0,0,0,0.1,0,0.1c0,0,0,0.1,0,0.1c0,0,0,0.1,0,0.1c0,0,0,0.1,0,0.1c0,0,0,0.1,0,0.1c0,0,0,0.1,0,0.1
				c0,0,0,0.1,0,0.1c0,0,0,0.1,0,0.1c0,0,0,0.1,0,0.1c0,0,0,0.1,0,0.1c0,0,0,0.1,0,0.1c0,0,0,0.1,0,0.1c0,0,0,0.1,0,0.1
				c0,0,0,0.1,0,0.1c0,0,0,0.1,0,0.1c0,0,0,0.1,0,0.1c0,0,0,0.1,0,0.1c0,0,0,0.1,0,0.1c0,0,0,0.1,0,0.1c0,0,0,0.1,0,0.1
				c0,0,0,0.1,0,0.1c0,0,0,0.1,0,0.1c0,0,0,0.1,0,0.1c0,0,0,0.1,0,0.1c0,0,0,0.1,0,0.1c0,0,0,0.1,0,0.1c0,0,0,0.1,0,0.1
				c0,0,0,0.1,0,0.1c0,0,0,0.1,0,0.1c0,0,0,0.1,0,0.1c0,0,0,0.1,0,0.1c0,0,0,0.1,0,0.1c0,0,0,0.1,0,0.1c0,0,0,0.1,0,0.1
				c0,0,0,0.1,0,0.1c0,0,0,0.1,0,0.1c0,0,0,0.1,0,0.1c0,0,0,0.1,0,0.1c0,0,0,0.1,0,0.1c0,0,0,0.1,0,0.1c0,0,0,0.1,0,0.1
				c0,0,0,0.1,0,0.1c0,0,0,0.1,0,0.1c0,0,0,0.1,0,0.1c0,0,0,0.1,0,0.1c0,0,0,0.1,0,0.1c0,0,0,0.1,0,0.1c0,0,0,0.1,0,0.1
				c0,0,0,0.1,0,0.1c0,0,0,0.1,0,0.1c0,0,0,0.1,0,0.1c0,0,0-5.5,0-5.4c0,0,0,0.1,0,0.1c0,0,0,0.1,0,0.1c0,0,0,0.1,0,0.1
				c0,0,0,0.1,0,0.1c0,0,0,0.1,0,0.1c0,0,0,0.1,0,0.1c0,0,0,0.1,0,0.1c0,0,0,0.1,0,0.1c0,0,0,0.1,0,0.1c0,0,0,0.1,0,0.1
				c0,0,0,0.1,0,0.1c0,0,0,0.1,0,0.1c0,0,0,0.1,0,0.1c0,0,0,0.1,0,0.1c0,0,0,0.1,0,0.1c0,0,0,0.1,0,0.1c0,0,0,0.1,0,0.1
				c0,0,0,0.1,0,0.1c0,0,0,0.1,0,0.1c0,0,0,0.1,0,0.1c0,0,0,0.1,0,0.1c0,0,0,0.1,0,0.1c0,0,0,0.1,0,0.1c0,0,0,0.1,0,0.1
				c0,0,0,0.1,0,0.1c0,0,0,0.1,0,0.1c0,0,0,0.1,0,0.1c0,0,0,0.1,0,0.1c0,0,0,0.1,0,0.1c0,0,0,0.1,0,0.1c0,0,0,0.1,0,0.1
				c0,0,0,0.1,0,0.1c0,0,0,0.1,0,0.1c0,0,0,0.1,0,0.1c0,0,0,0.1,0,0.1c0,0,0,0.1,0,0.1c0,0,0,0.1,0,0.1c0,0,0,0.1,0,0.1
				c0,0,0,0.1,0,0.1c0,0,0,0.1,0,0.1c0,0,0,0.1,0,0.1c0,0,0,0.1,0,0.1c0,0,0,0.1,0,0.1c0,0,0,0.1,0,0.1c0,0,0,0.1,0,0.1
				c0,0,0,0.1,0,0.1c0,0,0,0.1,0,0.1c0,0,0,0.1,0,0.1c0,0,0,0.1,0,0.1c0,0,0,0.1,0,0.1c0,0,0,0.1,0,0.1c0,0,0,0.1,0,0.1
				c0,0,0,0.1,0,0.1c0,0,0,0.1,0,0.1c0,0,0,0.1,0,0.1c0,0,0,0.1,0,0.1c0,0,0,0.1,0,0.1c0,0,0,0.1,0,0.1c0,0,0,0.1,0,0.1
				c0,0,0,0.1,0,0.1c0,0,0,0.1,0,0.1c0,0,0,0.1,0,0.1c0,0,0,0.1,0,0.1c0,0,0,0.1,0,0.1c0,0,0,0.1,0,0.1c0,0,0,0.1,0,0.1
				c0,0,0,0.1,0,0.1c0,0,0,0.1,0,0.1c0,0,0,0.1,0,0.1c0,0,0,0.1,0,0.1c0,0,0,0.1,0,0.1c0,0,0,0.1,0,0.1c0,0,0,0.1,0,0.1
				c0,0,0,0.1,0,0.1c0,0,0,0.1,0,0.1c0,0,0,0.1,0,0.1c0,0,0,0.1,0,0.1c0,0,0,0.1,0,0.1c0,0,0,0.1,0,0.1c0,0,0,0.1,0,0.1
				c0,0,0,0.1,0,0.1c0,0,0,0.1,0,0.1c0,0,0,0.1,0,0.1c0,0,0,0.1,0,0.1c0,0,0,0.1,0,0.1c0,0,0,0.1,0,0.1c0,0,0,0.1,0,0.1
				c0,0,0,0.1,0,0.1c0,0,0,0.1,0,0.1c0,0,0,0.1,0,0.1c0,0,0,0.1,0,0.1c0,0,0,0.1,0,0.1c0,0,0,0.1,0,0.1c0,0,0,0.1,0,0.1
				c0,0,0,0.1,0,0.1c0,0,0,0.1,0,0.1c0,0,0,0.1,0,0.1c0,0,0,0.1,0,0.1c0,0,0,0.1,0,0.1v0c0,0.1,0,0.1-0.1,0.2c0,0.1,0,0.1-0.1,0.2
				c0,0.1,0,0.1-0.1,0.2c0,0.1,0,0.1-0.1,0.2c0,0.1,0,0.1-0.1,0.2c0,0.1,0,0.1-0.1,0.2c0,0.1,0,0.1-0.1,0.2c0,0.1,0,0.1-0.1,0.2
				c0,0.1,0,0.1-0.1,0.2c0,0.1,0,0.1-0.1,0.2c0,0.1,0,0.1-0.1,0.2c0,0.1,0,0.1-0.1,0.2c0,0.1,0,0.1-0.1,0.2c0,0.1,0,0.1-0.1,0.2
				c0,0.1,0,0.1-0.1,0.2c0,0.1,0,0.1-0.1,0.2c0,0.1,0,0.1-0.1,0.2c0,0.1,0,0.1-0.1,0.2c0,0.1,0,0.1-0.1,0.2c0,0.1,0,0.1-0.1,0.2
				c0,0.1,0,0.1-0.1,0.2c0,0.1,0,0.1-0.1,0.2c0,0.1,0,0.1-0.1,0.2c0,0.1,0,0.1-0.1,0.2c0,0.1,0,0.1-0.1,0.2c0,0.1,0,0.1-0.1,0.2
				c0,0.1,0,0.1-0.1,0.2c0,0.1,0,0.1-0.1,0.2c0,0.1,0,0.1-0.1,0.2c0,0.1,0,0.1-0.1,0.2c0,0.1,0,0.1-0.1,0.2c0,0.1,0,0.1-0.1,0.2
				c0,0.1,0,0.1-0.1,0.2c0,0.1,0,0.1-0.1,0.2c0,0.1,0,0.1-0.1,0.2c0,0.1,0,0.1-0.1,0.2c0,0.1,0,0.1-0.1,0.2c0,0.1,0,0.1-0.1,0.2
				c0,0.1,0,0.1-0.1,0.2c0,0.1,0,0.1-0.1,0.2c0,0.1,0,0.1-0.1,0.2c0,0.1,0,0.1-0.1,0.2c0,0.1,0,0.1-0.1,0.2c0,0.1,0,0.1-0.1,0.2
				c0,0.1,0,0.1-0.1,0.2c0,0.1,0,0.1-0.1,0.2c0,0.1,0,0.1-0.1,0.2c0,0.1,0,0.1-0.1,0.2c0,0.1,0,0.1-0.1,0.2c0,0.1,0,0.1-0.1,0.2
				c0,0.1,0,0.1-0.1,0.2c0,0.1,0,0.1-0.1,0.2c0,0.1,0,0.1-0.1,0.2c0,0.1,0,0.1-0.1,0.2c0,0.1,0,0.1-0.1,0.2c0,0.1,0,0.1-0.1,0.2
				c0,0.1,0,0.1-0.1,0.2c0,0.1,0,0.1-0.1,0.2c0,0.1,0,0.1-0.1,0.2c0,0.1,0,0.1-0.1,0.2c0,0.1,0,0.1-0.1,0.2c0,0.1,0,0.1-0.1,0.2
				c0,0.1,0,0.1-0.1,0.2c0,0.1,0,0.1-0.1,0.2c0,0.1,0,0.1-0.1,0.2c0,0.1,0,0.1-0.1,0.2c0,0.1,0,0.1-0.1,0.2c0,0.1,0,0.1-0.1,0.2
				c0,0.1,0,0.1-0.1,0.2c0,0.1,0,0.1-0.1,0.2c0,0.1,0,0.1-0.1,0.2c0,0.1,0,0.1-0.1,0.2c0,0.1,0,0.1-0.1,0.2c0,0.1,0,0.1-0.1,0.2
				c0,0.1,0,0.1-0.1,0.2c0,0.1,0,0.1-0.1,0.2c0,0.1,0,0.1-0.1,0.2c0,0.1,0,0.1-0.1,0.2c0,0.1,0,0.1-0.1,0.2c0,0.1,0,0.1-0.1,0.2
				c0,0.1,0,0.1-0.1,0.2c0,0.1,0,0.1-0.1,0.2c0,0.1,0,0.1-0.1,0.2c0,0.1,0,0.1-0.1,0.2c0,0.1,0,0.1-0.1,0.2c0,0.1,0,0.1-0.1,0.2
				c0,0.1,0,0.1-0.1,0.2c0,0.1,0,0.1-0.1,0.2c0,0.1,0,0.1-0.1,0.2c0,0.1,0,0.1-0.1,0.2c0,0.1,0,0.1-0.1,0.2c0,0.1,0,0.1-0.1,0.2
				c0,0.1,0,0.1-0.1,0.2c0,0.1,0,0.1-0.1,0.2c0,0.1,0,0.1-0.1,0.2c0,0.1,0,0.1-0.1,0.2c0,0.1,0,0.1-0.1,0.2c0,0.1,0,0.1-0.1,0.2
				c0,0.1,0,0.1-0.1,0.2c0,0.1,0,0.1-0.1,0.2c0,0.1,0,0.1-0.1,0.2c0,0.1,0,0.1-0.1,0.2c0,0.1,0,0.1-0.1,0.2c0,0.1,0,0.1-0.1,0.2
				c0,0.1,0,0.1-0.1,0.2c0,0.1,0,0.1-0.1,0.2c0,0.1,0,0.1-0.1,0.2c0,0.1,0,0.1-0.1,0.2c0,0.1,0,0.1-0.1,0.2c0,0.1,0,0.1-0.1,0.2
				c0,0.1,0,0.1-0.1,0.2c0,0.1,0,0.1-0.1,0.2c0,0.1,0,0.1-0.1,0.2c0,0.1,0,0.1-0.1,0.2c0,0.1,0,0.1-0.1,0.2c0,0.1,0,0.1-0.1,0.2
				c0,0.1,0,0.1-0.1,0.2c0,0.1,0,0.1-0.1,0.2c0,0.1,0,0.1-0.1,0.2c0,0.1,0,0.1-0.1,0.2c0,0.1,0,0.1-0.1,0.2c0,0.1,0,0.1-0.1,0.2
				c0,0.1,0,0.1-0.1,0.2c0,0.1,0,0.1-0.1,0.2c0,0.1,0,0.1-0.1,0.2c0,0.1,0,0.1-0.1,0.2c0,0.1,0,0.1-0.1,0.2c0,0.1,0,0.1-0.1,0.2
				c0,0.1,0,0.1-0.1,0.2c0,0.1,0,0.1-0.1,0.2c0,0.1,0,0.1-0.1,0.2c0,0.1,0,0.1-0.1,0.2c0,0.1,0,0.1-0.1,0.2c0,0.1,0,0.1-0.1,0.2
				c0,0.1,0,0.1-0.1,0.2c0,0.1,0,0.1-0.1,0.2c0,0.1,0,0.1-0.1,0.2c0,0.1,0,0.1-0.1,0.2c0,0.1,0,0.1-0.1,0.2c0,0.1,0,0.1-0.1,0.2
				c0,0.1,0,0.1-0.1,0.2c0,0.1,0,0.1-0.1,0.2c0,0.1,0,0.1-0.1,0.2c0,0.1,0,0.1-0.1,0.2c0,0.1,0,0.1-0.1,0.2c0,0.1,0,0.1-0.1,0.2
				c0,0.1,0,0.1-0.1,0.2c0,0.1,0,0.1-0.1,0.2c0,0.1,0,0.1-0.1,0.2c0,0.1,0,0.1-0.1,0.2c0,0.1,0,0.1-0.1,0.2c0,0.1,0,0.1-0.1,0.2
				c0,0.1,0,0.1-0.1,0.2c0,0.1,0,0.1-0.1,0.2c0,0.1,0,0.1-0.1,0.2c0,0.1,0,0.1-0.1,0.2c0,0.1,0,0.1-0.1,0.2c0,0.1,0,0.1-0.1,0.2
				c0,0.1,0,0.1-0.1,0.2c0,0.1,0,0.1-0.1,0.2c0,0.1,0,0.1-0.1,0.2c0,0.1,0,0.1-0.1,0.2c0,0.1,0,0.1-0.1,0.2c0,0.1,0,0.1-0.1,0.2
				c0,0.1,0,0.1-0.1,0.2c0,0.1,0,0.1-0.1,0.2c0,0.1,0,0.1-0.1,0.2c0,0.1,0,0.1-0.1,0.2c0,0.1,0,0.1-0.1,0.2c0,0.1,0,0.1-0.1,0.2
				c0,0.1,0,0.1-0.1,0.2c0,0.1,0,0.1-0.1,0.2c0,0.1,0,0.1-0.1,0.2c0,0.1,0,0.1-0.1,0.2c0,0.1,0,0.1-0.1,0.2c0,0.1,0,0.1-0.1,0.2
				c0,0.1,0,0.1-0.1,0.2c0,0.1,0,0.1-0.1,0.2c0,0.1,0,0.1-0.1,0.2c0,0.1,0,0.1-0.1,0.2c0,0.1,0,0.1-0.1,0.2c0,0.1,0,0.1-0.1,0.2
				c0,0.1,0,0.1-0.1,0.2c0,0.1,0,0.1-0.1,0.2c0,0.1,0,0.1-0.1,0.2c0,0.1,0,0.1-0.1,0.2c0,0.1,0,0.1-0.1,0.2c0,0.1,0,0.1-0.1,0.2
				c0,0.1,0,0.1-0.1,0.2c0,0.1,0,0.1-0.1,0.2c0,0.1,0,0.1-0.1,0.2c0,0.1,0,0.1-0.1,0.2c0,0.1,0,0.1-0.1,0.2c0,0.1,0,0.1-0.1,0.2
				c0,0.1,0,0.1-0.1,0.2c0,0.1,0,0.1-0.1,0.2c0,0.1,0,0.1-0.1,0.2c0,0.1,0,0.1-0.1,0.2c0,0.1,0,0.1-0.1,0.2
				c-1.6,4.4,0.6,9.2,6.6,12.7c9.4,5.4,24.7,5.4,34.1,0C340.4,237.5,342.5,232.7,341,228.3z"/>
			<path class="st15" d="M337.3,227.8c0,0,0-0.1,0-0.1s0-0.1,0-0.1s0-0.1,0-0.1s0-0.1,0-0.1s0-0.1,0-0.1s0-0.1,0-0.1s0-0.1,0-0.1
				s0-0.1,0-0.1s0-0.1,0-0.1s0-0.1,0-0.1s0-0.1,0-0.1s0-0.1,0-0.1s0-0.1,0-0.1s0-0.1,0-0.1s0-0.1,0-0.1c0,0,0-0.1,0-0.1s0-0.1,0-0.1
				s0-0.1,0-0.1s0-0.1,0-0.1c0,0,0-0.1,0-0.1s0-0.1,0-0.1s0-0.1,0-0.1s0-0.1,0-0.1s0-0.1,0-0.1s0-0.1,0-0.1s0-0.1,0-0.1s0-0.1,0-0.1
				s0-0.1,0-0.1s0-0.1,0-0.1s0-0.1,0-0.1s0-0.1,0-0.1s0-0.1,0-0.1s0-0.1,0-0.1s0-0.1,0-0.1s0-0.1,0-0.1s0-0.1,0-0.1s0-0.1,0-0.1
				s0-0.1,0-0.1s0-0.1,0-0.1s0-0.1,0-0.1s0-0.1,0-0.1s0-0.1,0-0.1s0-0.1,0-0.1s0-0.1,0-0.1s0-0.1,0-0.1s0-0.1,0-0.1s0-0.1,0-0.1
				s0-0.1,0-0.1s0-0.1,0-0.1s0-0.1,0-0.1s0-0.1,0-0.1c0,0,0-0.1,0-0.1s0-0.1,0-0.1s0-0.1,0-0.1s0-0.1,0-0.1s0-0.1,0-0.1s0-0.1,0-0.1
				s0-0.1,0-0.1s0-0.1,0-0.1s0-0.1,0-0.1s0-0.1,0-0.1s0-0.1,0-0.1s0-0.1,0-0.1s0-0.1,0-0.1s0-0.1,0-0.1s0-0.1,0-0.1s0-0.1,0-0.1
				s0-0.1,0-0.1s0-0.1,0-0.1s0-0.1,0-0.1s0-0.1,0-0.1s0-0.1,0-0.1s0-0.1,0-0.1s0-0.1,0-0.1c0,0,0-0.1,0-0.1s0-0.1,0-0.1s0-0.1,0-0.1
				s0-0.1,0-0.1c0,0,0-0.1,0-0.1s0-0.1,0-0.1s0-0.1,0-0.1s0-0.1,0-0.1s0-0.1,0-0.1s0-0.1,0-0.1s0-0.1,0-0.1c0,0,0,0,0-0.1
				c0,0,0,0,0,0s0,0,0,0s0,0,0,0v0c0,0,0-0.1,0-0.1s0-0.1,0-0.1s0-0.1,0-0.1s0-0.1,0-0.1s0-0.1,0-0.1s0-0.1,0-0.1s0-0.1,0-0.1
				s0-0.1,0-0.1s0-0.1,0-0.1s0-0.1,0-0.1s0-0.1,0-0.1s0-0.1,0-0.1s0-0.1,0-0.1s0-0.1,0-0.1s0-0.1,0-0.1s0-0.1,0-0.1s0-0.1,0-0.1
				s0-0.1,0-0.1s0-0.1,0-0.1s0-0.1,0-0.1s0-0.1,0-0.1s0-0.1,0-0.1s0-0.1,0-0.1s0-0.1,0-0.1s0-0.1,0-0.1s0-0.1,0-0.1s0-0.1,0-0.1
				s0-0.1,0-0.1s0-0.1,0-0.1s0-0.1,0-0.1s0-0.1,0-0.1s0-0.1,0-0.1s0-0.1,0-0.1s0-0.1,0-0.1s0-0.1,0-0.1s0-0.1,0-0.1s0-0.1,0-0.1
				s0-0.1,0-0.1s0-0.1,0-0.1s0-0.1,0-0.1s0-0.1,0-0.1s0-0.1,0-0.1s0-0.1,0-0.1s0-0.1,0-0.1s0-0.1,0-0.1s0-0.1,0-0.1s0-0.1,0-0.1
				s0-0.1,0-0.1s0-0.1,0-0.1s0-0.1,0-0.1s0-0.1,0-0.1s0-0.1,0-0.1s0-0.1,0-0.1s0-0.1,0-0.1s0-0.1,0-0.1s0-0.1,0-0.1s0-0.1,0-0.1
				s0-0.1,0-0.1s0-0.1,0-0.1s0-0.1,0-0.1s0-0.1,0-0.1s0-0.1,0-0.1s0-0.1,0-0.1s0-0.1,0-0.1s0-0.1,0-0.1s0-0.1,0-0.1s0-0.1,0-0.1
				s0-0.1,0-0.1s0-0.1,0-0.1s0-0.1,0-0.1s0-0.1,0-0.1s0-0.1,0-0.1s0-0.1,0-0.1s0-0.1,0-0.1s0-0.1,0-0.1s0-0.1,0-0.1s0-0.1,0-0.1
				s0-0.1,0-0.1s0-0.1,0-0.1s0-0.1,0-0.1s0-0.1,0-0.1s0-0.1,0-0.1s0-0.1,0-0.1s0-0.1,0-0.1s0-0.1,0-0.1s0-0.1,0-0.1s0-0.1,0-0.1
				s0-0.1,0-0.1s0-0.1,0-0.1s0-0.1,0-0.1s0-0.1,0-0.1s0-0.1,0-0.1s0-0.1,0-0.1s0-0.1,0-0.1s0-0.1,0-0.1s0-0.1,0-0.1s0-0.1,0-0.1
				s0-0.1,0-0.1s0-0.1,0-0.1s0-0.1,0-0.1s0-0.1,0-0.1s0-0.1,0-0.1s0-0.1,0-0.1s0-0.1,0-0.1s0-0.1,0-0.1s0-0.1,0-0.1s0-0.1,0-0.1
				s0-0.1,0-0.1s0-0.1,0-0.1s0-0.1,0-0.1c-0.4-1.3-1.7-2.5-3.9-3.5c-5.4-2.4-14.1-2.4-19.5,0c-2.2,1-3.5,2.2-3.9,3.5
				c0,0,0,0.1,0,0.1s0,0.1,0,0.1s0,0.1,0,0.1s0,0.1,0,0.1s0,0.1,0,0.1s0,0.1,0,0.1s0,0.1,0,0.1s0,0.1,0,0.1s0,0.1,0,0.1s0,0.1,0,0.1
				s0,0.1,0,0.1s0,0.1,0,0.1s0,0.1,0,0.1s0,0.1,0,0.1s0,0.1,0,0.1s0,0.1,0,0.1s0,0.1,0,0.1s0,0.1,0,0.1s0,0.1,0,0.1s0,0.1,0,0.1
				s0,0.1,0,0.1s0,0.1,0,0.1s0,0.1,0,0.1s0,0.1,0,0.1s0,0.1,0,0.1s0,0.1,0,0.1s0,0.1,0,0.1s0,0.1,0,0.1s0,0.1,0,0.1s0,0.1,0,0.1
				s0,0.1,0,0.1s0,0.1,0,0.1s0,0.1,0,0.1s0,0.1,0,0.1s0,0.1,0,0.1s0,0.1,0,0.1s0,0.1,0,0.1s0,0.1,0,0.1s0,0.1,0,0.1s0,0.1,0,0.1
				s0,0.1,0,0.1s0,0.1,0,0.1s0,0.1,0,0.1s0,0.1,0,0.1s0,0.1,0,0.1s0,0.1,0,0.1s0,0.1,0,0.1s0,0.1,0,0.1s0,0.1,0,0.1s0,0.1,0,0.1
				s0,0.1,0,0.1s0,0.1,0,0.1s0,0.1,0,0.1s0,0.1,0,0.1s0,0.1,0,0.1s0,0.1,0,0.1s0,0.1,0,0.1s0,0.1,0,0.1s0,0.1,0,0.1s0,0.1,0,0.1
				s0,0.1,0,0.1s0,0.1,0,0.1s0,0.1,0,0.1s0,0.1,0,0.1s0,0.1,0,0.1s0,0.1,0,0.1s0,0.1,0,0.1s0,0.1,0,0.1s0,0.1,0,0.1s0,0.1,0,0.1
				s0,0.1,0,0.1s0,0.1,0,0.1s0,0.1,0,0.1s0,0.1,0,0.1s0,0.1,0,0.1s0,0.1,0,0.1s0,0.1,0,0.1s0,0.1,0,0.1l0,0c0,0,0,0.1,0,0.1l0,0l0,0
				c0,0,0,0.1,0,0.1s0,0.1,0,0.1s0,0.1,0,0.1s0,0.1,0,0.1s0,0.1,0,0.1c0,0,0,0.1,0,0.1s0,0.1,0,0.1s0,0.1,0,0.1s0,0.1,0,0.1
				s0,0.1,0,0.1s0,0.1,0,0.1s0,0.1,0,0.1s0,0.1,0,0.1s0,0.1,0,0.1s0,0.1,0,0.1s0,0.1,0,0.1c0,0,0,0.1,0,0.1s0,0.1,0,0.1s0,0.1,0,0.1
				c0,0,0,0.1,0,0.1s0,0.1,0,0.1s0,0.1,0,0.1s0,0.1,0,0.1s0,0.1,0,0.1s0,0.1,0,0.1c0,0,0,0.1,0,0.1s0,0.1,0,0.1s0,0.1,0,0.1
				s0,0.1,0,0.1s0,0.1,0,0.1c0,0,0,0.1,0,0.1s0,0.1,0,0.1s0,0.1,0,0.1s0,0.1,0,0.1s0,0.1,0,0.1s0,0.1,0,0.1s0,0.1,0,0.1
				c0,0,0,0.1,0,0.1s0,0.1,0,0.1s0,0.1,0,0.1s0,0.1,0,0.1c0,0,0,0.1,0,0.1s0,0.1,0,0.1s0,0.1,0,0.1s0,0.1,0,0.1s0,0.1,0,0.1
				s0,0.1,0,0.1s0,0.1,0,0.1s0,0.1,0,0.1s0,0.1,0,0.1s0,0.1,0,0.1s0,0.1,0,0.1s0,0.1,0,0.1s0,0.1,0,0.1s0,0.1,0,0.1s0,0.1,0,0.1
				s0,0.1,0,0.1s0,0.1,0,0.1s0,0.1,0,0.1s0,0.1,0,0.1s0,0.1,0,0.1s0,0.1,0,0.1s0,0.1,0,0.1s0,0.1,0,0.1s0,0.1,0,0.1s0,0.1,0,0.1
				s0,0.1,0,0.1s0,0.1,0,0.1s0,0.1,0,0.1s0,0.1,0,0.1s0,0.1,0,0.1s0,0.1,0,0.1s0,0.1,0,0.1s0,0.1,0,0.1s0,0.1,0,0.1s0,0.1,0,0.1
				s0,0.1,0,0.1s0,0.1,0,0.1s0,0.1,0,0.1c0,0,0,0.1,0,0.1s0,0.1,0,0.1s0,0.1,0,0.1s0,0.1,0,0.1s0,0.1,0,0.1s0,0.1,0,0.1s0,0.1,0,0.1
				s0,0.1,0,0.1s0,0.1,0,0.1s0,0.1,0,0.1s0,0.1,0,0.1s0,0.1,0,0.1c0,0,0,0.1,0,0.1s0,0.1,0,0.1c0,0,0,0.1,0,0.1s0,0.1,0,0.1
				s0,0.1,0,0.1c0,0,0,0.1,0,0.1s0,0.1,0,0.1s0,0.1,0,0.1s0,0.1,0,0.1s0,0.1,0,0.1s0,0.1,0,0.1s0,0.1,0,0.1s0,0.1,0,0.1s0,0.1,0,0.1
				s0,0.1,0,0.1s0,0.1,0,0.1c0,0,0,0.1,0,0.1s0,0.1,0,0.1c0,0,0,0.1,0,0.1s0,0.1,0,0.1c0,0,0,0.1,0,0.1s0,0.1,0,0.1s0,0.1,0,0.1
				s0,0.1,0,0.1s0,0.1,0,0.1s0,0.1,0,0.1s0,0.1,0,0.1c-1.2,3.7,0.6,7.7,5.6,10.6c8,4.6,20.8,4.6,28.7,0
				C336.7,235.5,338.6,231.5,337.3,227.8z"/>
			<g>
				<path class="st15" d="M327.1,204.9c5.4,2.4,5.4,6.3,0.1,8.7c-5.4,2.4-14.1,2.4-19.5,0s-5.4-6.3-0.1-8.7
					C313,202.5,321.7,202.5,327.1,204.9z"/>
			</g>
			<g>
				<path class="st16" d="M323.9,163.7c3.6,1.6,3.6,4.2,0,5.8c-3.6,1.6-9.5,1.6-13.1,0c-3.6-1.6-3.6-4.2,0-5.8
					C314.4,162.1,320.3,162.1,323.9,163.7z"/>
			</g>
			<path class="st15" d="M322.9,158.4c0,0.9-0.7,1.6-1.6,1.6s-1.6-0.7-1.6-1.6s0.7-1.6,1.6-1.6C322.2,156.9,322.9,157.6,322.9,158.4
				z"/>
			<path class="st15" d="M318.3,153.3c0,0.6-0.5,1.1-1.1,1.1s-1.1-0.5-1.1-1.1s0.5-1.1,1.1-1.1S318.3,152.7,318.3,153.3z"/>
			<path class="st15" d="M320.8,149.9c0,0.6-0.5,1.1-1.1,1.1c-0.6,0-1.1-0.5-1.1-1.1s0.5-1.1,1.1-1.1S320.8,149.3,320.8,149.9z"/>
			
				<linearGradient id="SVGID_2_" gradientUnits="userSpaceOnUse" x1="293.2694" y1="169.6611" x2="341.4525" y2="169.6611" gradientTransform="matrix(1 0 0 -1 0 375.8898)">
				<stop  offset="7.778970e-03" style="stop-color:#95A2F4;stop-opacity:0"/>
				<stop  offset="1" style="stop-color:#8092ED"/>
			</linearGradient>
			<path class="st17" d="M338.5,237.9c0.2-0.2,0.5-0.5,0.7-0.7c0,0,0,0,0,0c0.2-0.2,0.4-0.5,0.6-0.7c0,0,0,0,0,0
				c0.2-0.2,0.3-0.5,0.5-0.7c0,0,0-0.1,0-0.1c0.1-0.2,0.3-0.5,0.4-0.7c0,0,0-0.1,0-0.1c0.1-0.2,0.2-0.4,0.3-0.7c0-0.1,0-0.1,0-0.2
				c0.1-0.2,0.1-0.4,0.2-0.6c0-0.1,0-0.1,0-0.2c0-0.2,0.1-0.4,0.1-0.6c0-0.1,0-0.2,0-0.3c0-0.2,0-0.4,0.1-0.6c0-0.1,0-0.2,0-0.3
				c0-0.2,0-0.3,0-0.5c0-0.1,0-0.3,0-0.4c0-0.1,0-0.3,0-0.4c0-0.2-0.1-0.3-0.1-0.5c0-0.1,0-0.2-0.1-0.3c-0.1-0.3-0.1-0.6-0.2-0.8
				c0-0.1,0-0.1-0.1-0.2c0-0.1,0-0.1-0.1-0.2c0-0.1,0-0.1-0.1-0.2c0-0.1,0-0.1-0.1-0.2c0-0.1,0-0.1-0.1-0.2c0-0.1,0-0.1-0.1-0.2
				c0-0.1,0-0.1-0.1-0.2c0-0.1,0-0.1-0.1-0.2c0-0.1,0-0.1-0.1-0.2c0-0.1,0-0.1-0.1-0.2c0-0.1,0-0.1-0.1-0.2c0-0.1,0-0.1-0.1-0.2
				c0-0.1,0-0.1-0.1-0.2c0-0.1,0-0.1-0.1-0.2c0-0.1,0-0.1-0.1-0.2c0-0.1,0-0.1-0.1-0.2c0-0.1,0-0.1-0.1-0.2c0-0.1,0-0.1-0.1-0.2
				c0-0.1,0-0.1-0.1-0.2c0-0.1,0-0.1-0.1-0.2c0-0.1,0-0.1-0.1-0.2c0-0.1,0-0.1-0.1-0.2c0-0.1,0-0.1-0.1-0.2c0-0.1,0-0.1-0.1-0.2
				c0-0.1,0-0.1-0.1-0.2c0-0.1,0-0.1-0.1-0.2c0-0.1,0-0.1-0.1-0.2c0-0.1,0-0.1-0.1-0.2c0-0.1,0-0.1-0.1-0.2c0-0.1,0-0.1-0.1-0.2
				c0-0.1,0-0.1-0.1-0.2c0-0.1,0-0.1-0.1-0.2c0-0.1,0-0.1-0.1-0.2c0-0.1,0-0.1-0.1-0.2c0-0.1,0-0.1-0.1-0.2c0-0.1,0-0.1-0.1-0.2
				c0-0.1,0-0.1-0.1-0.2c0-0.1,0-0.1-0.1-0.2c0-0.1,0-0.1-0.1-0.2c0-0.1,0-0.1-0.1-0.2c0-0.1,0-0.1-0.1-0.2c0-0.1,0-0.1-0.1-0.2
				c0-0.1,0-0.1-0.1-0.2c0-0.1,0-0.1-0.1-0.2c0-0.1,0-0.1-0.1-0.2c0-0.1,0-0.1-0.1-0.2c0-0.1,0-0.1-0.1-0.2c0-0.1,0-0.1-0.1-0.2
				c0-0.1,0-0.1-0.1-0.2c0-0.1,0-0.1-0.1-0.2c0-0.1,0-0.1-0.1-0.2c0-0.1,0-0.1-0.1-0.2c0-0.1,0-0.1-0.1-0.2c0-0.1,0-0.1-0.1-0.2
				c0-0.1,0-0.1-0.1-0.2c0-0.1,0-0.1-0.1-0.2c0-0.1,0-0.1-0.1-0.2c0-0.1,0-0.1-0.1-0.2c0-0.1,0-0.1-0.1-0.2c0-0.1,0-0.1-0.1-0.2
				c0-0.1,0-0.1-0.1-0.2c0-0.1,0-0.1-0.1-0.2c0-0.1,0-0.1-0.1-0.2c0-0.1,0-0.1-0.1-0.2c0-0.1,0-0.1-0.1-0.2c0-0.1,0-0.1-0.1-0.2
				c0-0.1,0-0.1-0.1-0.2c0-0.1,0-0.1-0.1-0.2c0-0.1,0-0.1-0.1-0.2c0-0.1,0-0.1-0.1-0.2c0-0.1,0-0.1-0.1-0.2c0-0.1,0-0.1-0.1-0.2
				c0-0.1,0-0.1-0.1-0.2c0-0.1,0-0.1-0.1-0.2c0-0.1,0-0.1-0.1-0.2c0-0.1,0-0.1-0.1-0.2c0-0.1,0-0.1-0.1-0.2c0-0.1,0-0.1-0.1-0.2
				c0-0.1,0-0.1-0.1-0.2c0-0.1,0-0.1-0.1-0.2c0-0.1,0-0.1-0.1-0.2c0-0.1,0-0.1-0.1-0.2c0-0.1,0-0.1-0.1-0.2c0-0.1,0-0.1-0.1-0.2
				c0-0.1,0-0.1-0.1-0.2c0-0.1,0-0.1-0.1-0.2c0-0.1,0-0.1-0.1-0.2c0-0.1,0-0.1-0.1-0.2c0-0.1,0-0.1-0.1-0.2c0-0.1,0-0.1-0.1-0.2
				c0-0.1,0-0.1-0.1-0.2c0-0.1,0-0.1-0.1-0.2c0-0.1,0-0.1-0.1-0.2c0-0.1,0-0.1-0.1-0.2c0-0.1,0-0.1-0.1-0.2c0-0.1,0-0.1-0.1-0.2
				c0-0.1,0-0.1-0.1-0.2c0-0.1,0-0.1-0.1-0.2c0-0.1,0-0.1-0.1-0.2c0-0.1,0-0.1-0.1-0.2c0-0.1,0-0.1-0.1-0.2c0-0.1,0-0.1-0.1-0.2
				c0-0.1,0-0.1-0.1-0.2c0-0.1,0-0.1-0.1-0.2c0-0.1,0-0.1-0.1-0.2c0-0.1,0-0.1-0.1-0.2c0-0.1,0-0.1-0.1-0.2c0-0.1,0-0.1-0.1-0.2
				c0-0.1,0-0.1-0.1-0.2c0-0.1,0-0.1-0.1-0.2c0-0.1,0-0.1-0.1-0.2c0-0.1,0-0.1-0.1-0.2c0-0.1,0-0.1-0.1-0.2c0-0.1,0-0.1-0.1-0.2
				c0-0.1,0-0.1-0.1-0.2c0-0.1,0-0.1-0.1-0.2c0-0.1,0-0.1-0.1-0.2c0-0.1,0-0.1-0.1-0.2c0-0.1,0-0.1-0.1-0.2c0-0.1,0-0.1-0.1-0.2
				c0-0.1,0-0.1-0.1-0.2c0-0.1,0-0.1-0.1-0.2c0-0.1,0-0.1-0.1-0.2c0-0.1,0-0.1-0.1-0.2c0-0.1,0-0.1-0.1-0.2c0-0.1,0-0.1-0.1-0.2
				c0-0.1,0-0.1-0.1-0.2c0-0.1,0-0.1-0.1-0.2c0-0.1,0-0.1-0.1-0.2c0-0.1,0-0.1-0.1-0.2c0-0.1,0-0.1-0.1-0.2c0-0.1,0-0.1-0.1-0.2
				c0-0.1,0-0.1-0.1-0.2c0-0.1,0-0.1-0.1-0.2c0-0.1,0-0.1-0.1-0.2c0-0.1,0-0.1-0.1-0.2c0-0.1,0-0.1-0.1-0.2c0-0.1,0-0.1-0.1-0.2
				c0-0.1,0-0.1-0.1-0.2c0-0.1,0-0.1-0.1-0.2c0-0.1,0-0.1-0.1-0.2c0-0.1,0-0.1-0.1-0.2c0-0.1,0-0.1-0.1-0.2c0-0.1,0-0.1-0.1-0.2
				c0-0.1,0-0.1-0.1-0.2c0-0.1,0-0.1-0.1-0.2c0-0.1,0-0.1-0.1-0.2c0-0.1,0-0.1-0.1-0.2c0-0.1,0-0.1-0.1-0.2c0-0.1,0-0.1-0.1-0.2
				c0-0.1,0-0.1-0.1-0.2c0-0.1,0-0.1-0.1-0.2c0-0.1,0-0.1-0.1-0.2c0-0.1,0-0.1-0.1-0.2c0-0.1,0-0.1-0.1-0.2c0-0.1,0-0.1-0.1-0.2
				c0-0.1,0-0.1-0.1-0.2c0-0.1,0-0.1-0.1-0.2c0-0.1,0-0.1-0.1-0.2c0-0.1,0-0.1-0.1-0.2c0-0.1,0-0.1-0.1-0.2c0-0.1,0-0.1-0.1-0.2
				c0-0.1,0-0.1-0.1-0.2c0-0.1,0-0.1-0.1-0.2c0-0.1,0-0.1-0.1-0.2c0-0.1,0-0.1-0.1-0.2c0-0.1,0-0.1-0.1-0.2c0-0.1,0-0.1-0.1-0.2
				c0-0.1,0-0.1-0.1-0.2c0-0.1,0-0.1-0.1-0.2c0-0.1,0-0.1-0.1-0.2c0-0.1,0-0.1,0-0.1c0-0.1,0-0.1-0.1-0.2c0-0.1,0-0.1-0.1-0.2
				c0-0.1,0-0.1-0.1-0.2c0-0.1,0-0.1-0.1-0.2c0-0.1,0-0.1-0.1-0.2c0-0.1,0-0.1-0.1-0.2c0-0.1,0-0.1-0.1-0.2c0-0.1,0-0.1-0.1-0.2
				c0-0.1,0-0.1-0.1-0.2c0-0.1,0-0.1-0.1-0.2c0-0.1,0-0.1-0.1-0.2c0-0.1,0-0.1-0.1-0.2c0-0.1,0-0.1-0.1-0.2c0-0.1,0-0.1-0.1-0.2
				c0-0.1,0-0.1-0.1-0.2c0-0.1,0-0.1-0.1-0.2c0-0.1,0-0.1-0.1-0.2c0-0.1,0-0.1-0.1-0.2c0-0.1,0-0.1-0.1-0.2c0-0.1,0-0.1-0.1-0.2
				c0-0.1,0-0.1-0.1-0.2c0-0.1,0-0.1-0.1-0.2c0-0.1,0-0.1-0.1-0.2c0-0.1,0-0.1-0.1-0.2c0-0.1,0-0.1-0.1-0.2c0-0.1,0-0.1-0.1-0.2
				c0-0.1,0-0.1-0.1-0.2c0,0,0,0,0,0c0,0,0-0.1,0-0.1c0,0,0-0.1,0-0.1c0,0,0-0.1,0-0.1c0,0,0-0.1,0-0.1c0,0,0-0.1,0-0.1
				c0,0,0-0.1,0-0.1c0,0,0-0.1,0-0.1c0,0,0-0.1,0-0.1c0,0,0-0.1,0-0.1c0,0,0-0.1,0-0.1c0,0,0-0.1,0-0.1c0,0,0-0.1,0-0.1
				c0,0,0-0.1,0-0.1c0,0,0-0.1,0-0.1c0,0,0-0.1,0-0.1c0,0,0-0.1,0-0.1c0,0,0-0.1,0-0.1c0,0,0-0.1,0-0.1c0,0,0-0.1,0-0.1
				c0,0,0-0.1,0-0.1c0,0,0-0.1,0-0.1c0,0,0-0.1,0-0.1c0,0,0-0.1,0-0.1c0,0,0-0.1,0-0.1c0,0,0-0.1,0-0.1c0,0,0-0.1,0-0.1
				c0,0,0-0.1,0-0.1c0,0,0-0.1,0-0.1c0,0,0-0.1,0-0.1c0,0,0-0.1,0-0.1c0,0,0-0.1,0-0.1c0,0,0-0.1,0-0.1c0,0,0-0.1,0-0.1
				c0,0,0-0.1,0-0.1c0,0,0-0.1,0-0.1c0,0,0-0.1,0-0.1c0,0,0-0.1,0-0.1c0,0,0-0.1,0-0.1c0,0,0-0.1,0-0.1c0,0,0-0.1,0-0.1
				c0,0,0-0.1,0-0.1c0,0,0-0.1,0-0.1c0,0,0-0.1,0-0.1c0,0,0-0.1,0-0.1c0,0,0-0.1,0-0.1c0,0,0-0.1,0-0.1c0,0,0-0.1,0-0.1
				c0,0,0-0.1,0-0.1c0,0,0-0.1,0-0.1c0,0,0-0.1,0-0.1c0,0,0-0.1,0-0.1c0,0,0-0.1,0-0.1c0,0,0-0.1,0-0.1c0,0,0-0.1,0-0.1
				c0,0,0-0.1,0-0.1c0,0,0-0.1,0-0.1c0,0,0-0.1,0-0.1c0,0,0-0.1,0-0.1c0,0,0-0.1,0-0.1c0,0,0-5.5,0-5.4c0,0,0-0.1,0-0.1
				c0,0,0-0.1,0-0.1c0,0,0-0.1,0-0.1c0,0,0-0.1,0-0.1c0,0,0-0.1,0-0.1c0,0,0-0.1,0-0.1c0,0,0-0.1,0-0.1c0,0,0-0.1,0-0.1
				c0,0,0-0.1,0-0.1c0,0,0-0.1,0-0.1c0,0,0-0.1,0-0.1c0,0,0-0.1,0-0.1c0,0,0-0.1,0-0.1c0,0,0-0.1,0-0.1c0,0,0-0.1,0-0.1
				c0,0,0-0.1,0-0.1c0,0,0-0.1,0-0.1c0,0,0-0.1,0-0.1c0,0,0-0.1,0-0.1c0,0,0-0.1,0-0.1c0,0,0-0.1,0-0.1c0,0,0-0.1,0-0.1
				c0,0,0-0.1,0-0.1c0,0,0-0.1,0-0.1c0,0,0-0.1,0-0.1c0,0,0-0.1,0-0.1c0,0,0-0.1,0-0.1c0,0,0-0.1,0-0.1c0,0,0-0.1,0-0.1
				c0,0,0-0.1,0-0.1c0,0,0-0.1,0-0.1c0,0,0-0.1,0-0.1c0,0,0-0.1,0-0.1c0,0,0-0.1,0-0.1c0,0,0-0.1,0-0.1c0,0,0-0.1,0-0.1
				c0,0,0-0.1,0-0.1c0,0,0-0.1,0-0.1c0,0,0-0.1,0-0.1c0,0,0-0.1,0-0.1c0,0,0-0.1,0-0.1c0,0,0-0.1,0-0.1c0,0,0-0.1,0-0.1
				c0,0,0-0.1,0-0.1c0,0,0-0.1,0-0.1c0,0,0-0.1,0-0.1c0,0,0-0.1,0-0.1c0,0,0-0.1,0-0.1c0,0,0-0.1,0-0.1c0,0,0-0.1,0-0.1
				c0,0,0-0.1,0-0.1c0,0,0-0.1,0-0.1c0,0,0-0.1,0-0.1c0,0,0-0.1,0-0.1c0,0,0-0.1,0-0.1c0,0,0-0.1,0-0.1c0,0,0-0.1,0-0.1
				c0,0,0-0.1,0-0.1c0-0.6-0.2-1.1-0.7-1.6l-3.3,2.5v24.6l6.9,26.8c1.8,7.2-3.3,14.3-10.7,14.7c-0.1,0-0.1,0-0.2,0
				c-13.4,0.6-20.6-6.1-23.4-9.4c0,0,0,0.1,0,0.1c0,0.1,0,0.1-0.1,0.2c0,0.1,0,0.1-0.1,0.2c0,0.1,0,0.1-0.1,0.2c0,0.1,0,0.1-0.1,0.2
				c0,0.1,0,0.1-0.1,0.2c0,0.1,0,0.1-0.1,0.2c0,0.1,0,0.1-0.1,0.2c0,0.1,0,0.1-0.1,0.2c0,0.1,0,0.1-0.1,0.2c0,0.1,0,0.1-0.1,0.2
				c0,0.1,0,0.1-0.1,0.2c0,0.1,0,0.1-0.1,0.2c0,0.1,0,0.1-0.1,0.2c0,0.1,0,0.1-0.1,0.2c0,0.1,0,0.1-0.1,0.2c0,0.1,0,0.1-0.1,0.2
				c0,0.1,0,0.1-0.1,0.2c0,0.1,0,0.1-0.1,0.2c0,0.1,0,0.1-0.1,0.2c-1.6,4.4,0.6,9.2,6.6,12.7c9.4,5.4,24.7,5.4,34.1,0
				c0.2-0.1,0.3-0.2,0.5-0.3l0,0l0,0C336.4,239.8,337.5,238.9,338.5,237.9L338.5,237.9z"/>
			<path class="st18" d="M302.5,230.7l12.1-38v-23.5l-6.3-3.5c-0.2,0.3-0.2,0.6-0.2,1c0,0,0,0.1,0,0.1c0,0,0,0.1,0,0.1
				c0,0,0,0.1,0,0.1c0,0,0,0.1,0,0.1c0,0,0,0.1,0,0.1c0,0,0,0.1,0,0.1c0,0,0,0.1,0,0.1c0,0,0,0.1,0,0.1c0,0,0,0.1,0,0.1
				c0,0,0,0.1,0,0.1c0,0,0,0.1,0,0.1c0,0,0,0.1,0,0.1c0,0,0,0.1,0,0.1c0,0,0,0.1,0,0.1c0,0,0,0.1,0,0.1c0,0,0,0.1,0,0.1
				c0,0,0,0.1,0,0.1c0,0,0,0.1,0,0.1c0,0,0,0.1,0,0.1c0,0,0,0.1,0,0.1c0,0,0,0.1,0,0.1c0,0,0,0.1,0,0.1c0,0,0,0.1,0,0.1
				c0,0,0,0.1,0,0.1c0,0,0,0.1,0,0.1c0,0,0,0.1,0,0.1c0,0,0,0.1,0,0.1c0,0,0,0.1,0,0.1c0,0,0,0.1,0,0.1c0,0,0,0.1,0,0.1
				c0,0,0,0.1,0,0.1c0,0,0,0.1,0,0.1c0,0,0,0.1,0,0.1c0,0,0,0.1,0,0.1c0,0,0,0.1,0,0.1c0,0,0,0.1,0,0.1c0,0,0,0.1,0,0.1
				c0,0,0,0.1,0,0.1c0,0,0,0.1,0,0.1c0,0,0,0.1,0,0.1c0,0,0,0.1,0,0.1c0,0,0,0.1,0,0.1c0,0,0,0.1,0,0.1c0,0,0,0.1,0,0.1
				c0,0,0,0.1,0,0.1c0,0,0,0.1,0,0.1c0,0,0,0.1,0,0.1c0,0,0,0.1,0,0.1c0,0,0,0.1,0,0.1c0,0,0,0.1,0,0.1c0,0,0,0.1,0,0.1
				c0,0,0,0.1,0,0.1c0,0,0,0.1,0,0.1c0,0,0,0.1,0,0.1c0,0,0,0.1,0,0.1c0,0,0,0.1,0,0.1c0,0,0,0.1,0,0.1c0,0,0,0.1,0,0.1
				c0,0,0,5.5,0,5.4c0,0,0,0.1,0,0.1c0,0,0,0.1,0,0.1c0,0,0,0.1,0,0.1c0,0,0,0.1,0,0.1c0,0,0,0.1,0,0.1c0,0,0,0.1,0,0.1
				c0,0,0,0.1,0,0.1c0,0,0,0.1,0,0.1c0,0,0,0.1,0,0.1c0,0,0,0.1,0,0.1c0,0,0,0.1,0,0.1c0,0,0,0.1,0,0.1c0,0,0,0.1,0,0.1
				c0,0,0,0.1,0,0.1c0,0,0,0.1,0,0.1c0,0,0,0.1,0,0.1c0,0,0,0.1,0,0.1c0,0,0,0.1,0,0.1c0,0,0,0.1,0,0.1c0,0,0,0.1,0,0.1
				c0,0,0,0.1,0,0.1c0,0,0,0.1,0,0.1c0,0,0,0.1,0,0.1c0,0,0,0.1,0,0.1c0,0,0,0.1,0,0.1c0,0,0,0.1,0,0.1c0,0,0,0.1,0,0.1
				c0,0,0,0.1,0,0.1c0,0,0,0.1,0,0.1c0,0,0,0.1,0,0.1c0,0,0,0.1,0,0.1c0,0,0,0.1,0,0.1c0,0,0,0.1,0,0.1c0,0,0,0.1,0,0.1
				c0,0,0,0.1,0,0.1c0,0,0,0.1,0,0.1c0,0,0,0.1,0,0.1c0,0,0,0.1,0,0.1c0,0,0,0.1,0,0.1c0,0,0,0.1,0,0.1c0,0,0,0.1,0,0.1
				c0,0,0,0.1,0,0.1c0,0,0,0.1,0,0.1c0,0,0,0.1,0,0.1c0,0,0,0.1,0,0.1c0,0,0,0.1,0,0.1c0,0,0,0.1,0,0.1c0,0,0,0.1,0,0.1
				c0,0,0,0.1,0,0.1c0,0,0,0.1,0,0.1c0,0,0,0.1,0,0.1c0,0,0,0.1,0,0.1c0,0,0,0.1,0,0.1c0,0,0,0.1,0,0.1c0,0,0,0.1,0,0.1
				c0,0,0,0.1,0,0.1c0,0,0,0.1,0,0.1c0,0,0,0.1,0,0.1c0,0,0,0.1,0,0.1v0c0,0.1,0,0.1-0.1,0.2c0,0.1,0,0.1-0.1,0.2
				c0,0.1,0,0.1-0.1,0.2c0,0.1,0,0.1-0.1,0.2c0,0.1,0,0.1-0.1,0.2c0,0.1,0,0.1-0.1,0.2c0,0.1,0,0.1-0.1,0.2c0,0.1,0,0.1-0.1,0.2
				c0,0.1,0,0.1-0.1,0.2c0,0.1,0,0.1-0.1,0.2c0,0.1,0,0.1-0.1,0.2c0,0.1,0,0.1-0.1,0.2c0,0.1,0,0.1-0.1,0.2c0,0.1,0,0.1-0.1,0.2
				c0,0.1,0,0.1-0.1,0.2c0,0.1,0,0.1-0.1,0.2c0,0.1,0,0.1-0.1,0.2c0,0.1,0,0.1-0.1,0.2c0,0.1,0,0.1-0.1,0.2c0,0.1,0,0.1-0.1,0.2
				c0,0.1,0,0.1-0.1,0.2c0,0.1,0,0.1-0.1,0.2c0,0.1,0,0.1-0.1,0.2c0,0.1,0,0.1-0.1,0.2c0,0.1,0,0.1-0.1,0.2c0,0.1,0,0.1-0.1,0.2
				c0,0.1,0,0.1-0.1,0.2c0,0.1,0,0.1-0.1,0.2c0,0.1,0,0.1-0.1,0.2c0,0.1,0,0.1-0.1,0.2c0,0.1,0,0.1-0.1,0.2c0,0.1,0,0.1-0.1,0.2
				c0,0.1,0,0.1-0.1,0.2c0,0.1,0,0.1-0.1,0.2c0,0.1,0,0.1-0.1,0.2c0,0.1,0,0.1-0.1,0.2c0,0.1,0,0.1-0.1,0.2c0,0.1,0,0.1-0.1,0.2
				c0,0.1,0,0.1-0.1,0.2c0,0.1,0,0.1-0.1,0.2c0,0.1,0,0.1-0.1,0.2c0,0.1,0,0.1-0.1,0.2c0,0.1,0,0.1-0.1,0.2c0,0.1,0,0.1-0.1,0.2
				c0,0.1,0,0.1-0.1,0.2c0,0.1,0,0.1-0.1,0.2c0,0.1,0,0.1-0.1,0.2c0,0.1,0,0.1-0.1,0.2c0,0.1,0,0.1-0.1,0.2c0,0.1,0,0.1-0.1,0.2
				c0,0.1,0,0.1-0.1,0.2c0,0.1,0,0.1-0.1,0.2c0,0.1,0,0.1-0.1,0.2c0,0.1,0,0.1-0.1,0.2c0,0.1,0,0.1-0.1,0.2c0,0.1,0,0.1-0.1,0.2
				c0,0.1,0,0.1-0.1,0.2c0,0.1,0,0.1-0.1,0.2c0,0.1,0,0.1-0.1,0.2c0,0.1,0,0.1-0.1,0.2c0,0.1,0,0.1-0.1,0.2c0,0.1,0,0.1-0.1,0.2
				c0,0.1,0,0.1-0.1,0.2c0,0.1,0,0.1-0.1,0.2c0,0.1,0,0.1-0.1,0.2c0,0.1,0,0.1-0.1,0.2c0,0.1,0,0.1-0.1,0.2c0,0.1,0,0.1-0.1,0.2
				c0,0.1,0,0.1-0.1,0.2c0,0.1,0,0.1-0.1,0.2c0,0.1,0,0.1-0.1,0.2c0,0.1,0,0.1-0.1,0.2c0,0.1,0,0.1-0.1,0.2c0,0.1,0,0.1-0.1,0.2
				c0,0.1,0,0.1-0.1,0.2c0,0.1,0,0.1-0.1,0.2c0,0.1,0,0.1-0.1,0.2c0,0.1,0,0.1-0.1,0.2c0,0.1,0,0.1-0.1,0.2c0,0.1,0,0.1-0.1,0.2
				c0,0.1,0,0.1-0.1,0.2c0,0.1,0,0.1-0.1,0.2c0,0.1,0,0.1-0.1,0.2c0,0.1,0,0.1-0.1,0.2c0,0.1,0,0.1-0.1,0.2c0,0.1,0,0.1-0.1,0.2
				c0,0.1,0,0.1-0.1,0.2c0,0.1,0,0.1-0.1,0.2c0,0.1,0,0.1-0.1,0.2c0,0.1,0,0.1-0.1,0.2c0,0.1,0,0.1-0.1,0.2c0,0.1,0,0.1-0.1,0.2
				c0,0.1,0,0.1-0.1,0.2c0,0.1,0,0.1-0.1,0.2c0,0.1,0,0.1-0.1,0.2c0,0.1,0,0.1-0.1,0.2c0,0.1,0,0.1-0.1,0.2c0,0.1,0,0.1-0.1,0.2
				c0,0.1,0,0.1-0.1,0.2c0,0.1,0,0.1-0.1,0.2c0,0.1,0,0.1-0.1,0.2c0,0.1,0,0.1-0.1,0.2c0,0.1,0,0.1-0.1,0.2c0,0.1,0,0.1-0.1,0.2
				c0,0.1,0,0.1-0.1,0.2c0,0.1,0,0.1-0.1,0.2c0,0.1,0,0.1-0.1,0.2c0,0.1,0,0.1-0.1,0.2c0,0.1,0,0.1-0.1,0.2c0,0.1,0,0.1-0.1,0.2
				c0,0.1,0,0.1-0.1,0.2c0,0.1,0,0.1-0.1,0.2c0,0.1,0,0.1-0.1,0.2c0,0.1,0,0.1-0.1,0.2c0,0.1,0,0.1-0.1,0.2c0,0.1,0,0.1-0.1,0.2
				c0,0.1,0,0.1-0.1,0.2c0,0.1,0,0.1-0.1,0.2c0,0.1,0,0.1-0.1,0.2c0,0.1,0,0.1-0.1,0.2c0,0.1,0,0.1-0.1,0.2c0,0.1,0,0.1-0.1,0.2
				c0,0.1,0,0.1-0.1,0.2c0,0.1,0,0.1-0.1,0.2c0,0.1,0,0.1-0.1,0.2c0,0.1,0,0.1-0.1,0.2c0,0.1,0,0.1-0.1,0.2c0,0.1,0,0.1-0.1,0.2
				c0,0.1,0,0.1-0.1,0.2c0,0.1,0,0.1-0.1,0.2c0,0.1,0,0.1-0.1,0.2c0,0.1,0,0.1-0.1,0.2c0,0.1,0,0.1-0.1,0.2c0,0.1,0,0.1-0.1,0.2
				c0,0.1,0,0.1-0.1,0.2c0,0.1,0,0.1-0.1,0.2c0,0.1,0,0.1-0.1,0.2c0,0.1,0,0.1-0.1,0.2c0,0.1,0,0.1-0.1,0.2c0,0.1,0,0.1-0.1,0.2
				c0,0.1,0,0.1-0.1,0.2c0,0.1,0,0.1-0.1,0.2c0,0.1,0,0.1-0.1,0.2c0,0.1,0,0.1-0.1,0.2c0,0.1,0,0.1-0.1,0.2c0,0.1,0,0.1-0.1,0.2
				c0,0.1,0,0.1-0.1,0.2c0,0.1,0,0.1-0.1,0.2c0,0.1,0,0.1-0.1,0.2c0,0.1,0,0.1-0.1,0.2c0,0.1,0,0.1-0.1,0.2c0,0.1,0,0.1-0.1,0.2
				c0,0.1,0,0.1-0.1,0.2c0,0.1,0,0.1-0.1,0.2c0,0.1,0,0.1-0.1,0.2c0,0.1,0,0.1-0.1,0.2c0,0.1,0,0.1-0.1,0.2c0,0.1,0,0.1-0.1,0.2
				c0,0.1,0,0.1-0.1,0.2c0,0.1,0,0.1-0.1,0.2c0,0.1,0,0.1-0.1,0.2c0,0.1,0,0.1-0.1,0.2c0,0.1,0,0.1-0.1,0.2c0,0.1,0,0.1-0.1,0.2
				c0,0.1,0,0.1-0.1,0.2c0,0.1,0,0.1-0.1,0.2c0,0.1,0,0.1-0.1,0.2c0,0.1,0,0.1-0.1,0.2c0,0.1,0,0.1-0.1,0.2c0,0.1,0,0.1-0.1,0.2
				c0,0.1,0,0.1-0.1,0.2c0,0.1,0,0.1-0.1,0.2c0,0.1,0,0.1-0.1,0.2c0,0.1,0,0.1-0.1,0.2c0,0.1,0,0.1-0.1,0.2c0,0.1,0,0.1-0.1,0.2
				c0,0.1,0,0.1-0.1,0.2c0,0.1,0,0.1-0.1,0.2c0,0.1,0,0.1-0.1,0.2c0,0.1,0,0.1-0.1,0.2c0,0.1,0,0.1-0.1,0.2c0,0.1,0,0.1-0.1,0.2
				c0,0.1,0,0.1-0.1,0.2C296.5,226.9,298.9,229,302.5,230.7z"/>
			<g>
				<path class="st6" d="M323.9,163.7c3.6,1.6,3.6,4.2,0,5.8c-3.6,1.6-9.5,1.6-13.1,0c-3.6-1.6-3.6-4.2,0-5.8
					C314.4,162.1,320.3,162.1,323.9,163.7z"/>
			</g>
			<g>
				<g>
					<path class="st8" d="M317.8,171c-2.4,0-4.8-0.4-6.7-1.3c-3.1-1.4-3.6-3.3-3.6-4.4c0-1,0.5-3,3.5-4.3c3.8-1.7,9.6-1.7,13.4,0
						c3.1,1.4,3.6,3.3,3.6,4.4s-0.5,3-3.5,4.3C322.6,170.6,320.2,171,317.8,171z M311.2,165c0.1,0.1,0.4,0.6,1.4,1
						c2.8,1.3,7.6,1.3,10.4,0c0.9-0.4,1.3-0.8,1.3-0.9c-0.1-0.1-0.4-0.6-1.4-1l0,0c-2.8-1.3-7.6-1.3-10.4,0
						C311.6,164.5,311.3,164.9,311.2,165z"/>
				</g>
			</g>
			<path class="st15" d="M318.9,162.3c0,0.9-0.7,1.6-1.6,1.6s-1.6-0.7-1.6-1.6s0.7-1.6,1.6-1.6S318.9,161.4,318.9,162.3z"/>
		</g>
	</g>
	<g>
		<polyline class="st19" points="152.6,239.9 124.4,256.5 227.6,315.3 307.6,269.5 262.1,242.3 252.9,175.2 		"/>
		<g>
			<g>
				<polygon class="st20" points="294.7,265.7 300.7,261.3 300.3,249.9 205.1,214 135.5,254.2 225.1,305.9 				"/>
				<polygon class="st21" points="225.2,311.4 135.6,259.7 135.6,253.9 225.2,305.6 				"/>
				<polygon class="st22" points="135.6,230.8 225.2,282.5 294.8,242.3 205.3,190.6 				"/>
				<path class="st21" d="M296.4,242.9l-1.6-0.6v5.7l0,0c5.1,1.9,6.9,11.5,2,15.9l-2,1.5v5.7c0,0,1.4-0.7,4.2-3
					C306.3,262.3,304.4,245.8,296.4,242.9z"/>
				<g>
					<path class="st9" d="M159.7,228.6l69.6,40.3l46.2-26.6l-69.9-40.7L159.7,228.6z"/>
				</g>
				<polygon class="st9" points="294.3,245.5 281.8,253.9 224.4,286.6 143.5,239.9 143.5,255.6 224.4,302.3 294.3,262.1 				"/>
				<polygon class="st23" points="225.2,301.9 294.3,262.1 294.3,245.5 281.8,253.9 225.5,286 				"/>
			</g>
			<polygon class="st24" points="294.8,271.2 225.2,311.4 225.2,305.6 294.8,265.5 			"/>
			<polygon class="st10" points="294.8,248.1 225.2,288.2 225.2,282.5 294.8,242.3 			"/>
			<polygon class="st21" points="225.2,288.2 135.6,236.6 135.6,230.8 225.2,282.5 			"/>
			<polygon class="st20" points="239.5,284.5 239.5,302.5 244.2,294.7 248.1,297.3 247.6,280 			"/>
		</g>
		<g>
			<g>
				<polygon class="st25" points="147.8,229.9 142.3,226.1 142.5,215.9 226.8,182.5 289.5,217.3 210.4,264.7 				"/>
				<polygon class="st8" points="209.6,269.5 289.4,222.4 289.4,217.3 209.6,264.4 				"/>
				<polygon class="st26" points="289.4,197.7 209.6,243.8 147.5,207.9 227.4,161.8 				"/>
				<path class="st27" d="M146.1,208.4l1.4-0.5v5.1l0,0c-4.6,1.7-6.2,10.2-1.8,14.1l1.8,1.4v5.1c0,0-1.2-0.6-3.8-2.7
					C137.3,225.8,139,211.1,146.1,208.4z"/>
				<polygon class="st9" points="148,210.7 159.1,218.2 210.3,247.4 282.4,205.8 282.4,219.8 210.3,261.4 148,225.6 				"/>
				<polygon class="st28" points="209.6,261 148,225.6 148,210.7 159.1,218.2 209.3,246.9 				"/>
			</g>
			<polygon class="st25" points="147.5,233.6 209.6,269.5 209.6,264.4 147.5,228.5 			"/>
			<polygon class="st25" points="147.5,213 209.6,248.9 209.6,243.8 147.5,207.9 			"/>
			<polygon class="st8" points="209.6,248.9 289.4,202.8 289.4,197.7 209.6,243.8 			"/>
		</g>
		<ellipse class="st29" cx="213.6" cy="201.4" rx="42" ry="18.9"/>
		<g>
			<polygon class="st26" points="282.8,150.2 282.8,153.3 215.6,192.1 148.4,153.3 148.4,150.2 			"/>
			<path class="st27" d="M178.1,160.8v35.7c0,12.4,16.9,22.4,37.8,22.4s37.8-10,37.8-22.4v-35.7H178.1z"/>
			<path class="st30" d="M178.8,170.9c-1,0.3,10.3,15.8,28.9,26.2c10.9,6.1,31.5,7.4,43.3,7.6c1.7-2.6,2.7-5.4,2.7-8.3v-26.6
				l-49.4-8.2C204.3,161.7,180.4,170.4,178.8,170.9z"/>
			<polygon class="st26" points="148.4,153.3 215.6,114.5 275.5,149.1 282,151 282.8,153.3 215.6,192.1 			"/>
			<polygon class="st27" points="148.4,150.2 215.6,111.4 282.8,150.2 215.6,189 			"/>
			<polygon class="st25" points="215.6,192.1 215.6,189 148.4,150.2 148.4,153.3 			"/>
			<g>
				<path class="st15" d="M246.1,206h2.8c1.6,0,2.9-1.4,2.8-3l-1.4-7.3c-0.1-1.5-1.3-2.6-2.8-2.6l0,0c-1.5,0-2.7,1.1-2.8,2.6
					l-1.4,7.3C243.2,204.7,244.4,206,246.1,206z"/>
				<g>
					<polygon class="st15" points="246.8,206.3 248.2,206.3 248.2,165.4 211.1,143.5 210.4,144.7 246.8,166.2 					"/>
				</g>
				<path class="st15" d="M250.6,188.2c0,1.7-1.4,3.1-3.1,3.1c-1.7,0-3.1-1.4-3.1-3.1s1.4-3.1,3.1-3.1S250.6,186.5,250.6,188.2z"/>
			</g>
		</g>
	</g>
	<g>
		<path class="st31" d="M317.2,84.9l-40.4-22.7c-0.5-0.3-1-0.4-1.4-0.2c0,0-0.1,0-0.1,0c0,0-0.1,0-0.1,0c0,0-0.1,0-0.1,0
			c0,0-0.1,0-0.1,0c0,0-0.1,0-0.1,0c0,0-0.1,0-0.1,0c0,0-0.1,0-0.1,0c0,0-0.1,0-0.1,0c0,0-0.1,0-0.1,0c0,0-0.1,0-0.1,0
			c0,0-0.1,0-0.1,0c0,0-0.1,0-0.1,0c0,0-0.1,0-0.1,0c0,0-0.1,0-0.1,0c0,0-0.1,0-0.1,0c0,0-0.1,0-0.1,0c0,0-0.1,0-0.1,0
			c0,0-0.1,0-0.1,0c0,0-0.1,0-0.1,0c0,0-0.1,0-0.1,0c0,0-0.1,0-0.1,0c0,0-0.1,0-0.1,0c0,0-0.1,0-0.1,0c0,0-0.1,0-0.1,0
			c0,0-0.1,0-0.1,0c0,0-0.1,0-0.1,0c0,0-0.1,0-0.1,0c0,0-0.1,0-0.1,0c0,0-0.1,0-0.1,0c0,0-0.1,0-0.1,0c-0.9,0.3-1.6,1.6-1.6,3.5
			v36.7c0,2.7,1.3,5.7,2.9,6.7l5.7,3.4V125l0.1-0.1v0.1l0.1-0.1v0.1l0.1-0.1v0.1l0.1-0.1v0.1l0.1-0.1v0.1l0.1-0.1v0.1l0.1-0.1v0.1
			l0.1-0.1v0.1l0.1-0.1v0.1l0.1-0.1v0.1l0.1-0.1v0.1l0.1-0.1v0.1l0.1-0.1v0.1l0.1-0.1v0.1l0.1-0.1v0.1l0.1-0.1v0.1l0.1-0.1v0.1
			l0.1-0.1v0.1l0.1-0.1v0.1l0.1-0.1v0.1l0.1-0.1v0.1l0.1-0.1v0.1l0.1-0.1v0.1l0.1-0.1v0.1l0.1-0.1v0.1l0.1-0.1v0.1l0.1-0.1v0.1
			l0.1-0.1v0.1l0.1-0.1v0.1l0.1-0.1v0.1l0.1-0.1v0.1l4.7-4.3l26.4,13.8c0.5,0.3,1,0.4,1.4,0.2c0,0,0.1,0,0.1-0.1c0,0,0.1,0,0.1-0.1
			c2.9-1.2,4.6-1.1,4.6-4.8V91.6C320.1,88.9,318.8,85.9,317.2,84.9z"/>
		<g>
			<path class="st9" d="M313.7,86.4l-41.4-22.7c-1.6-0.9-2.9,0.5-2.9,3.2v36.7c0,2.7,1.3,5.7,2.9,6.7l5.7,3.4V125l7.5-6.8l28.1,14.8
				c1.6,0.9,2.9-0.5,2.9-3.2V93.1C316.6,90.4,315.3,87.4,313.7,86.4z"/>
			<g>
				<path class="st20" d="M284.8,95.3c0,1.4-0.7,2.2-1.5,1.7c-0.8-0.5-1.5-2.1-1.5-3.5s0.7-2.2,1.5-1.7S284.8,93.9,284.8,95.3z"/>
				<path class="st20" d="M293.7,100.6c0,1.4-0.7,2.2-1.5,1.7c-0.8-0.5-1.5-2.1-1.5-3.5s0.7-2.2,1.5-1.7
					C293.1,97.6,293.7,99.2,293.7,100.6z"/>
				<path class="st20" d="M302.7,105.9c0,1.4-0.7,2.2-1.5,1.7c-0.8-0.5-1.5-2.1-1.5-3.5s0.7-2.2,1.5-1.7S302.7,104.5,302.7,105.9z"
					/>
			</g>
		</g>
	</g>
</g>
</svg>
