<?xml version="1.0" encoding="utf-8"?>
<!-- Generator: Adobe Illustrator 23.0.3, SVG Export Plug-In . SVG Version: 6.00 Build 0)  -->
<svg version="1.1" id="Capa_1" xmlns="http://www.w3.org/2000/svg" xmlns:xlink="http://www.w3.org/1999/xlink" x="0px" y="0px"
	 viewBox="0 0 400 375" style="enable-background:new 0 0 400 375;" xml:space="preserve">
<style type="text/css">
	.st0{opacity:0.24;fill:#003F6C;enable-background:new    ;}
	.st1{opacity:0.65;}
	.st2{fill:url(#SVGID_1_);}
	.st3{fill:#E0E0E0;}
	.st4{fill:#EBEBEB;}
	.st5{fill:#F5F5F5;}
	.st6{fill:#E6E6E6;}
	.st7{fill:#FAFAFA;}
	.st8{fill:#F0F0F0;}
	.st9{fill:#8ECC93;}
	.st10{opacity:0.1;enable-background:new    ;}
	.st11{fill:none;stroke:#FFFFFF;stroke-width:1.0259;stroke-linecap:round;stroke-miterlimit:10;}
	.st12{fill:none;stroke:#FFFFFF;stroke-linecap:round;stroke-miterlimit:10;}
	.st13{opacity:0.57;}
	.st14{opacity:0.1;}
	.st15{fill:#FFFFFF;}
	.st16{opacity:0.2;fill:#213B2C;enable-background:new    ;}
	.st17{fill:#517965;}
	.st18{fill:#263238;}
	.st19{fill:#264432;}
	.st20{fill:#FDF951;}
	.st21{fill:#75BD72;}
	.st22{opacity:0.5;fill:#213B2C;enable-background:new    ;}
	.st23{fill:#63AC53;}
</style>
<path class="st0" d="M20,219c30.5,52,48.4,67.6,60.9,71.6c14.7,4.7,16.9,24.8,25.9,35.4c27.6,32.4,68.6,47.1,118.4,42.4
	c23.8-2.2,49.2-8.8,73.4-19l0.4-0.2c4.4-1.6,27.7-10.7,49.5-28.3c34.1-27.5,48.4-62,41.3-99.8c-6.3-33.7-21.3-60.6-36.6-84.7
	c-3.5-5.5-7.1-11.1-10.7-16.5c-3.6-5.5-7.3-11.1-10.9-16.8C317.5,81.2,245.9-16.6,123.9,10C-23.6,42.2-4.3,177.6,20,219z"/>
<g class="st1">
	<g>
		<linearGradient id="SVGID_1_" gradientUnits="userSpaceOnUse" x1="2.9783" y1="186.3704" x2="393.3866" y2="186.3704">
			<stop  offset="0" style="stop-color:#003F6C"/>
			<stop  offset="1" style="stop-color:#009444"/>
		</linearGradient>
		<path class="st2" d="M276.2,20.8c-98.7,0.6-179.6,6.4-245.9,90.3C-36,195,35.5,297.5,66,319.2c44.9,31.9,135.4,63.6,264.2-25
			C442.6,216.9,392.9,20,276.2,20.8z"/>
	</g>
</g>
<g>
	<g id="Cabinet">
		<g id="XMLID_3134_">
			<g id="XMLID_3143_">
				<polygon id="XMLID_3184_" class="st3" points="280.2,210.4 262.5,200.2 262.5,162.3 280.2,172.5 				"/>
			</g>
			<g id="XMLID_3142_">
				<polygon id="XMLID_3182_" class="st4" points="280.2,172.5 305.4,157.9 305.4,195.8 280.2,210.4 				"/>
			</g>
			<g id="XMLID_14367_">
				<polygon id="XMLID_3180_" class="st5" points="305.4,157.9 280.2,172.5 262.5,162.3 287.8,147.7 				"/>
			</g>
			<g id="XMLID_3140_">
				<g id="XMLID_14366_">
					<polygon id="XMLID_3178_" class="st6" points="282.7,174 302.9,162.3 303.4,162.6 303.4,176.6 283.2,188.3 282.7,188 					"/>
				</g>
				<g id="XMLID_3141_">
					<path id="XMLID_3176_" class="st6" d="M291.1,172l3.4-2c0.5-0.3,0.8-0.1,0.8,0.3s-0.4,0.9-0.8,1.2l-3.4,2
						c-0.5,0.3-0.8,0.1-0.8-0.3S290.6,172.3,291.1,172z"/>
				</g>
			</g>
			<g id="XMLID_3136_">
				<g id="XMLID_3139_">
					<polygon id="XMLID_3173_" class="st3" points="282.2,191.7 302.4,180.1 302.4,194.1 302.9,194.4 282.7,206 282.2,205.8 					
						"/>
				</g>
				<g id="XMLID_3138_">
					<polygon id="XMLID_3171_" class="st5" points="282.7,192 302.9,180.3 302.9,194.4 282.7,206 					"/>
				</g>
				<g id="XMLID_3137_">
					<path id="XMLID_3169_" class="st6" d="M290.6,189.8l3.4-2c0.5-0.3,0.8-0.1,0.8,0.3s-0.4,0.9-0.8,1.2l-3.4,2
						c-0.5,0.3-0.8,0.1-0.8-0.3C289.8,190.6,290.2,190.1,290.6,189.8z"/>
				</g>
			</g>
		</g>
		<g id="XMLID_368_">
			<g id="XMLID_982_">
				<polygon id="XMLID_3165_" class="st3" points="282.7,174 302.9,162.3 302.9,176.3 282.7,188 				"/>
			</g>
			<g id="XMLID_941_">
				<polygon id="XMLID_3163_" class="st6" points="313,169.2 302,162.9 302,175.2 313,181.6 				"/>
			</g>
			<g id="XMLID_938_">
				<g id="XMLID_940_">
					<polygon id="XMLID_3161_" class="st4" points="290.3,190 290.3,172.5 294.6,170 295.3,171.1 308,163.8 308,179.8 					"/>
				</g>
				<g id="XMLID_939_">
					<polygon id="XMLID_3159_" class="st7" points="290.3,190 291.5,174.7 309.2,164.5 308,179.8 					"/>
				</g>
			</g>
			<g id="XMLID_937_">
				<polygon id="XMLID_3156_" class="st6" points="292.8,180.9 283.2,175.3 283.2,187.7 292.8,193.3 				"/>
			</g>
			<g id="XMLID_936_">
				<polygon id="XMLID_3154_" class="st5" points="292.8,179.8 313,168.1 313,182.2 292.8,193.8 				"/>
			</g>
			<g id="XMLID_933_">
				<path id="XMLID_3152_" class="st6" d="M300.7,177.6l3.4-2c0.5-0.3,0.8-0.1,0.8,0.3s-0.4,0.9-0.8,1.2l-3.4,2
					c-0.5,0.3-0.8,0.1-0.8-0.3C299.9,178.4,300.3,177.9,300.7,177.6z"/>
			</g>
			<g id="XMLID_901_">
				<polygon id="XMLID_3150_" class="st3" points="292.8,179.8 292.1,179.4 292.1,193.4 292.8,193.8 				"/>
			</g>
			<g id="XMLID_884_">
				<polygon id="XMLID_3148_" class="st8" points="292.1,179.4 312.3,167.7 313,168.1 292.8,179.8 				"/>
			</g>
		</g>
	</g>
	<g id="Cabinet_1_">
		<g id="XMLID_22_">
			<g id="XMLID_39_">
				<polygon id="XMLID_40_" class="st3" points="98.2,175.4 80.5,165.2 80.5,127.3 98.2,137.5 				"/>
			</g>
			<g id="XMLID_37_">
				<polygon id="XMLID_38_" class="st4" points="98.2,137.5 123.4,122.9 123.4,160.8 98.2,175.4 				"/>
			</g>
			<g id="XMLID_35_">
				<polygon id="XMLID_36_" class="st5" points="123.4,122.9 98.2,137.5 80.5,127.3 105.8,112.7 				"/>
			</g>
			<g id="XMLID_30_">
				<g id="XMLID_33_">
					<polygon id="XMLID_34_" class="st6" points="100.7,139 120.9,127.3 121.4,127.6 121.4,141.6 101.2,153.3 100.7,153 					"/>
				</g>
				<g id="XMLID_31_">
					<path id="XMLID_32_" class="st6" d="M109.1,137l3.4-2c0.4-0.3,0.8-0.1,0.8,0.3s-0.4,0.9-0.8,1.2l-3.4,2
						c-0.4,0.3-0.8,0.1-0.8-0.3S108.6,137.3,109.1,137z"/>
				</g>
			</g>
			<g id="XMLID_23_">
				<g id="XMLID_28_">
					<polygon id="XMLID_29_" class="st3" points="100.2,156.7 120.4,145.1 120.4,159.1 120.9,159.4 100.7,171 100.2,170.8 					"/>
				</g>
				<g id="XMLID_26_">
					<polygon id="XMLID_27_" class="st5" points="100.7,157 120.9,145.3 120.9,159.4 100.7,171 					"/>
				</g>
				<g id="XMLID_24_">
					<path id="XMLID_25_" class="st6" d="M108.6,154.8l3.4-2c0.4-0.3,0.8-0.1,0.8,0.3s-0.4,0.9-0.8,1.2l-3.4,2
						c-0.4,0.3-0.8,0.1-0.8-0.3C107.8,155.6,108.2,155.1,108.6,154.8z"/>
				</g>
			</g>
		</g>
		<g id="XMLID_1_">
			<g id="XMLID_19_">
				<polygon id="XMLID_21_" class="st3" points="100.7,139 120.9,127.3 120.9,141.3 100.7,153 				"/>
			</g>
			<g id="XMLID_17_">
				<polygon id="XMLID_18_" class="st6" points="131,134.2 119.9,127.8 119.9,140.2 131,146.6 				"/>
			</g>
			<g id="XMLID_12_">
				<g id="XMLID_15_">
					<polygon id="XMLID_16_" class="st4" points="108.3,155 108.3,137.5 112.6,135 113.3,136.1 125.9,128.8 125.9,144.8 					"/>
				</g>
				<g id="XMLID_13_">
					<polygon id="XMLID_14_" class="st7" points="108.3,155 109.5,139.7 127.2,129.5 125.9,144.8 					"/>
				</g>
			</g>
			<g id="XMLID_10_">
				<polygon id="XMLID_11_" class="st6" points="110.8,145.9 101.2,140.3 101.2,152.7 110.8,158.3 				"/>
			</g>
			<g id="XMLID_8_">
				<polygon id="XMLID_9_" class="st5" points="110.8,144.8 131,133.1 131,147.2 110.8,158.8 				"/>
			</g>
			<g id="XMLID_6_">
				<path id="XMLID_7_" class="st6" d="M118.7,142.6l3.4-2c0.4-0.3,0.8-0.1,0.8,0.3s-0.4,0.9-0.8,1.2l-3.4,2
					c-0.4,0.3-0.8,0.1-0.8-0.3C117.9,143.4,118.3,142.9,118.7,142.6z"/>
			</g>
			<g id="XMLID_4_">
				<polygon id="XMLID_5_" class="st3" points="110.8,144.8 110.1,144.4 110.1,158.4 110.8,158.8 				"/>
			</g>
			<g id="XMLID_2_">
				<polygon id="XMLID_3_" class="st8" points="110.1,144.4 130.3,132.7 131,133.1 110.8,144.8 				"/>
			</g>
		</g>
	</g>
	<g id="Plant_1_">
		<g id="XMLID_15586_">
			<path id="XMLID_15588_" class="st9" d="M240.5,196.4c0.1-2.9,2.4-9,5.6-12.7c3.2-3.6,8.1-5.9,11.5-4.7c3.1,1.2,2.6,5.3-1.3,7.9
				c-3.9,2.6-9.8,5.8-11.6,10.4l-3.7,5.6L240.5,196.4z"/>
			<path id="XMLID_985_" class="st10" d="M240.5,196.4c0.1-2.9,2.4-9,5.6-12.7c3.2-3.6,8.1-5.9,11.5-4.7c3.1,1.2,2.6,5.3-1.3,7.9
				c-3.9,2.6-9.8,5.8-11.6,10.4l-3.7,5.6L240.5,196.4z"/>
			<path id="XMLID_15587_" class="st11" d="M256.3,180.5c-3.8,0.9-14.6,8.5-15.6,19.3"/>
		</g>
		<g id="XMLID_15570_">
			<path id="XMLID_15585_" class="st9" d="M241.5,208c0.2-3,2.8-5.2,6.1-7.2c4-2.4,7.5-3.4,8.7-5.7c1.2-2.3-1-4.9-5.1-3.6
				c-3.5,1.2-10.3,7.2-10.4,11.5L241.5,208z"/>
			<path id="XMLID_15584_" class="st12" d="M253.7,193.4c-5.6,1.3-11.8,6.3-12.6,11.6"/>
		</g>
	</g>
	<g id="Folder_2_" class="st13">
		<g id="XMLID_987_">
			<g id="XMLID_3084_">
				<polygon id="XMLID_3080_" class="st9" points="109.9,179.2 109.9,266.6 199.4,214.9 199.4,135.4 132.9,173.9 130.6,167.2 				
					"/>
			</g>
			<g id="XMLID_3070_" class="st14">
				<polygon id="XMLID_3089_" points="109.9,179.2 109.9,266.6 199.4,214.9 199.4,135.4 132.9,173.9 130.6,167.2 				"/>
			</g>
		</g>
		<g id="Document_1_">
			<g id="XMLID_3067_">
				<path id="XMLID_3068_" class="st4" d="M142.4,236.1c-0.5-0.3-0.9-1.1-0.9-1.7V125.3c0-0.6,0.4-1.4,1-1.7L211,84.1
					c0.6-0.3,1.4-0.3,1.9,0c0.5,0.3,0.9,1.1,0.9,1.7v109.1c0,0.6-0.4,1.4-1,1.7L144.3,236C143.8,236.3,142.9,236.4,142.4,236.1z"/>
			</g>
			<g id="XMLID_3065_">
				<path id="XMLID_3066_" class="st4" d="M143.3,127.4l27.8-18.2l-1.9-1.1l-26.8,15.5c-0.6,0.3-1,1.1-1,1.7v1L143.3,127.4z"/>
			</g>
			<g id="XMLID_3063_">
				<path id="XMLID_3064_" class="st3" d="M152.6,130.6l-10.8-6.3c-0.2,0.3-0.3,0.7-0.3,1v109.1c0,0.6,0.4,1.4,0.9,1.7
					c0.5,0.3,1.4,0.3,1.9,0l8.3-4.8V130.6z"/>
			</g>
			<g id="XMLID_3061_">
				<path id="XMLID_3062_" class="st6" d="M144.3,236l68.5-39.5c0.6-0.3,1-1.1,1-1.7V85.7c0-0.6-0.4-0.9-1-0.6l-68.5,39.5
					c-0.6,0.3-1,1.1-1,1.7v109.1C143.3,236.1,143.8,236.3,144.3,236z"/>
			</g>
			<g id="XMLID_3056_">
				<path id="XMLID_3057_" class="st5" d="M149,151.6l16.4-9.5c1.1-0.6,2-0.2,2,1s-0.9,2.6-2,3.3l-16.4,9.5c-1.1,0.6-2,0.2-2-1
					S147.9,152.2,149,151.6z"/>
			</g>
			<g id="XMLID_3051_">
				<g id="XMLID_3054_">
					<path id="XMLID_3055_" class="st7" d="M147.8,168.9l2.1-1.2c0.4-0.2,0.8-0.1,0.8,0.5v2.5c0,0.5-0.4,1.1-0.8,1.4l-2.1,1.2
						c-0.4,0.2-0.8,0.1-0.8-0.5v-2.5C147.1,169.8,147.4,169.2,147.8,168.9z"/>
				</g>
				<g id="XMLID_3052_">
					<path id="XMLID_3053_" class="st5" d="M153.6,166.7l12.9-7.4c0.6-0.3,1-0.1,1,0.5s-0.4,1.3-1,1.6l-12.9,7.4
						c-0.6,0.3-1,0.1-1-0.5S153.1,167,153.6,166.7z"/>
				</g>
			</g>
			<g id="XMLID_3046_">
				<g id="XMLID_3049_">
					<path id="XMLID_3050_" class="st7" d="M147.8,177.5l2.1-1.2c0.4-0.2,0.8-0.1,0.8,0.5v2.5c0,0.5-0.4,1.1-0.8,1.4l-2.1,1.2
						c-0.4,0.2-0.8,0.1-0.8-0.5v-2.5C147.1,178.4,147.4,177.8,147.8,177.5z"/>
				</g>
				<g id="XMLID_3047_">
					<path id="XMLID_3048_" class="st5" d="M153.6,175.2l12.9-7.4c0.6-0.3,1-0.1,1,0.5s-0.4,1.3-1,1.6l-12.9,7.4
						c-0.6,0.3-1,0.1-1-0.5C152.6,176.3,153.1,175.6,153.6,175.2z"/>
				</g>
			</g>
			<g id="XMLID_3040_">
				<g id="XMLID_3043_">
					<path id="XMLID_3045_" class="st7" d="M147.8,186.1l2.1-1.2c0.4-0.2,0.8-0.1,0.8,0.5v2.5c0,0.5-0.4,1.1-0.8,1.4l-2.1,1.2
						c-0.4,0.2-0.8,0.1-0.8-0.5v-2.5C147.1,186.9,147.4,186.3,147.8,186.1z"/>
				</g>
				<g id="XMLID_3041_">
					<path id="XMLID_3042_" class="st5" d="M153.6,183.8l12.9-7.4c0.6-0.3,1-0.1,1,0.5s-0.4,1.3-1,1.6l-12.9,7.4
						c-0.6,0.3-1,0.1-1-0.5S153.1,184.1,153.6,183.8z"/>
				</g>
			</g>
			<g id="XMLID_3035_">
				<g id="XMLID_3038_">
					<path id="XMLID_3039_" class="st7" d="M147.8,194.6l2.1-1.2c0.4-0.2,0.8-0.1,0.8,0.5v2.5c0,0.5-0.4,1.1-0.8,1.4l-2.1,1.2
						c-0.4,0.2-0.8,0.1-0.8-0.5V196C147.1,195.5,147.4,194.9,147.8,194.6z"/>
				</g>
				<g id="XMLID_3036_">
					<path id="XMLID_3037_" class="st5" d="M153.6,192.4l12.9-7.4c0.6-0.3,1-0.1,1,0.5s-0.4,1.3-1,1.6l-12.9,7.4
						c-0.6,0.3-1,0.1-1-0.5S153.1,192.7,153.6,192.4z"/>
				</g>
			</g>
			<g id="XMLID_3033_">
				<path id="XMLID_3034_" class="st5" d="M148,212.6l9.1-5.3c0.6-0.3,1-0.1,1,0.5s-0.4,1.3-1,1.6l-9.1,5.3c-0.6,0.3-1,0.1-1-0.5
					C147.1,213.6,147.5,212.9,148,212.6z"/>
			</g>
			<g id="XMLID_3030_">
				<path id="XMLID_3032_" class="st8" d="M148,216.8l18.4-10.6c0.6-0.3,1-0.1,1,0.5s-0.4,1.3-1,1.6L148,219c-0.6,0.3-1,0.1-1-0.5
					C147.1,217.9,147.5,217.1,148,216.8z"/>
			</g>
			<g id="XMLID_3026_">
				<path id="XMLID_3028_" class="st7" d="M148,216.8l12.9-7.4c0.6-0.3,1-0.1,1,0.5s-0.4,1.3-1,1.6L148,219c-0.6,0.3-1,0.1-1-0.5
					C147.1,217.9,147.5,217.1,148,216.8z"/>
			</g>
			<g id="XMLID_3023_">
				<path id="XMLID_3024_" class="st5" d="M148,221.1l9.1-5.3c0.6-0.3,1-0.1,1,0.5s-0.4,1.3-1,1.6l-9.1,5.3c-0.6,0.3-1,0.1-1-0.5
					C147.1,222.2,147.5,221.4,148,221.1z"/>
			</g>
			<g id="XMLID_3021_">
				<path id="XMLID_3022_" class="st5" d="M148,204l9.1-5.3c0.6-0.3,1-0.1,1,0.5s-0.4,1.3-1,1.6l-9.1,5.3c-0.6,0.3-1,0.1-1-0.5
					C147.1,205,147.5,204.3,148,204z"/>
			</g>
			<g id="XMLID_3019_">
				<path id="XMLID_3020_" class="st8" d="M148,208.3l18.4-10.6c0.6-0.3,1-0.1,1,0.5s-0.4,1.3-1,1.6L148,210.4c-0.6,0.3-1,0.1-1-0.5
					C147.1,209.3,147.5,208.6,148,208.3z"/>
			</g>
			<g id="XMLID_3017_">
				<path id="XMLID_3018_" class="st7" d="M148,208.3l6.5-3.8c0.6-0.3,1-0.1,1,0.5s-0.4,1.3-1,1.6l-6.5,3.8c-0.6,0.3-1,0.1-1-0.5
					C147.1,209.3,147.5,208.6,148,208.3z"/>
			</g>
			<g id="XMLID_3015_">
				<path id="XMLID_3016_" class="st8" d="M148,225.4l18.4-10.6c0.6-0.3,1-0.1,1,0.5s-0.4,1.3-1,1.6L148,227.5c-0.6,0.3-1,0.1-1-0.5
					C147.1,226.4,147.5,225.7,148,225.4z"/>
			</g>
			<g id="XMLID_3013_">
				<path id="XMLID_3014_" class="st7" d="M148,225.4l16.6-9.6c0.6-0.3,1-0.1,1,0.5s-0.4,1.3-1,1.6l-16.6,9.6c-0.6,0.3-1,0.1-1-0.5
					C147.1,226.4,147.5,225.7,148,225.4z"/>
			</g>
			<g id="XMLID_3011_">
				<path id="XMLID_3012_" class="st5" d="M212.8,85.1l-41.7,24v111.3l41.7-24.1c0.6-0.3,1-1.1,1-1.7V85.7
					C213.8,85.1,213.4,84.8,212.8,85.1z"/>
			</g>
			<g id="XMLID_3009_">
				<polygon id="XMLID_3010_" class="st4" points="171.2,113.5 171.2,122 167.4,126.3 171.2,126.3 171.2,134.9 210.1,112.4 
					210.1,91 				"/>
			</g>
			<g id="XMLID_2993_">
				<path id="XMLID_2994_" class="st7" d="M176.2,113.8l15.8-9.1c0.8-0.4,1.4-0.1,1.4,0.8v0c0,0.9-0.6,2-1.4,2.4l-15.8,9.1
					c-0.8,0.4-1.4,0.1-1.4-0.8v0C174.9,115.3,175.5,114.2,176.2,113.8z"/>
			</g>
			<g id="XMLID_2991_">
				<path id="XMLID_2992_" class="st7" d="M175.4,120.7l30.5-17.6c0.3-0.2,0.5-0.1,0.5,0.2s-0.2,0.7-0.5,0.8l-30.5,17.6
					c-0.3,0.2-0.5,0.1-0.5-0.2C174.9,121.2,175.1,120.8,175.4,120.7z"/>
			</g>
			<g id="XMLID_2989_">
				<path id="XMLID_2990_" class="st7" d="M175.4,123.9l30.5-17.6c0.3-0.2,0.5-0.1,0.5,0.2s-0.2,0.7-0.5,0.8l-30.5,17.6
					c-0.3,0.2-0.5,0.1-0.5-0.2C174.9,124.4,175.1,124,175.4,123.9z"/>
			</g>
			<g id="XMLID_2987_">
				<path id="XMLID_2988_" class="st7" d="M175.4,127.1l30.5-17.6c0.3-0.2,0.5-0.1,0.5,0.2s-0.2,0.7-0.5,0.8l-30.5,17.6
					c-0.3,0.2-0.5,0.1-0.5-0.3C174.9,127.6,175.1,127.2,175.4,127.1z"/>
			</g>
			<g id="XMLID_2951_">
				<g id="XMLID_2981_">
					<g id="XMLID_2985_">
						<path id="XMLID_2986_" class="st15" d="M176.5,136.1l2.1-1.2c0.4-0.2,0.8-0.1,0.8,0.5v2.5c0,0.5-0.4,1.1-0.8,1.4l-2.1,1.2
							c-0.4,0.2-0.8,0.1-0.8-0.5v-2.5C175.7,136.9,176.1,136.3,176.5,136.1z"/>
					</g>
					<g id="XMLID_2982_">
						<path id="XMLID_2984_" class="st3" d="M182.3,133.8l12.9-7.4c0.6-0.3,1-0.1,1,0.5s-0.4,1.3-1,1.6l-12.9,7.4
							c-0.6,0.3-1,0.1-1-0.5C181.3,134.9,181.7,134.1,182.3,133.8z"/>
					</g>
				</g>
				<g id="XMLID_2970_">
					<path id="XMLID_2978_" class="st3" d="M176.2,143.7l32.4-18.7c0.3-0.2,0.5-0.1,0.5,0.2s-0.2,0.7-0.5,0.8l-32.4,18.7
						c-0.3,0.2-0.5,0.1-0.5-0.2S175.9,143.9,176.2,143.7z"/>
				</g>
				<g id="XMLID_2957_">
					<path id="XMLID_2969_" class="st3" d="M176.2,147l32.4-18.7c0.3-0.2,0.5-0.1,0.5,0.2s-0.2,0.7-0.5,0.8L176.2,148
						c-0.3,0.2-0.5,0.1-0.5-0.2C175.7,147.5,175.9,147.1,176.2,147z"/>
				</g>
				<g id="XMLID_2954_">
					<path id="XMLID_2955_" class="st3" d="M176.2,150.2l32.4-18.7c0.3-0.2,0.5-0.1,0.5,0.2s-0.2,0.7-0.5,0.8l-32.4,18.7
						c-0.3,0.2-0.5,0.1-0.5-0.2S175.9,150.3,176.2,150.2z"/>
				</g>
				<g id="XMLID_2952_">
					<path id="XMLID_2953_" class="st3" d="M176.2,153.4l32.4-18.7c0.3-0.2,0.5-0.1,0.5,0.2s-0.2,0.7-0.5,0.8l-32.4,18.7
						c-0.3,0.2-0.5,0.1-0.5-0.2S175.9,153.6,176.2,153.4z"/>
				</g>
			</g>
			<g id="XMLID_2935_">
				<g id="XMLID_2946_">
					<g id="XMLID_2949_">
						<path id="XMLID_2950_" class="st15" d="M176.5,159.6l2.1-1.2c0.4-0.2,0.8-0.1,0.8,0.5v2.5c0,0.5-0.4,1.1-0.8,1.4l-2.1,1.2
							c-0.4,0.2-0.8,0.1-0.8-0.5V161C175.7,160.5,176.1,159.9,176.5,159.6z"/>
					</g>
					<g id="XMLID_2947_">
						<path id="XMLID_2948_" class="st3" d="M182.3,157.4l12.9-7.4c0.6-0.3,1-0.1,1,0.5s-0.4,1.3-1,1.6l-12.9,7.4
							c-0.6,0.3-1,0.1-1-0.5S181.7,157.7,182.3,157.4z"/>
					</g>
				</g>
				<g id="XMLID_2944_">
					<path id="XMLID_2945_" class="st3" d="M176.2,167.3l32.4-18.7c0.3-0.2,0.5-0.1,0.5,0.2s-0.2,0.7-0.5,0.8l-32.4,18.7
						c-0.3,0.2-0.5,0.1-0.5-0.2S175.9,167.5,176.2,167.3z"/>
				</g>
				<g id="XMLID_2942_">
					<path id="XMLID_2943_" class="st3" d="M176.2,170.5l32.4-18.7c0.3-0.2,0.5-0.1,0.5,0.2s-0.2,0.7-0.5,0.8l-32.4,18.7
						c-0.3,0.2-0.5,0.1-0.5-0.2C175.7,171,175.9,170.7,176.2,170.5z"/>
				</g>
				<g id="XMLID_2940_">
					<path id="XMLID_2941_" class="st3" d="M176.2,173.7l32.4-18.7c0.3-0.2,0.5-0.1,0.5,0.2s-0.2,0.7-0.5,0.8l-32.4,18.7
						c-0.3,0.2-0.5,0.1-0.5-0.2S175.9,173.9,176.2,173.7z"/>
				</g>
				<g id="XMLID_2937_">
					<path id="XMLID_2938_" class="st3" d="M176.2,176.9l32.4-18.7c0.3-0.2,0.5-0.1,0.5,0.2s-0.2,0.7-0.5,0.8L176.2,178
						c-0.3,0.2-0.5,0.1-0.5-0.2C175.7,177.5,175.9,177.1,176.2,176.9z"/>
				</g>
			</g>
			<g id="XMLID_2876_">
				<g id="XMLID_2918_">
					<g id="XMLID_2933_">
						<path id="XMLID_2934_" class="st15" d="M179.5,181.6l2.1-1.2c0.4-0.2,0.8-0.1,0.8,0.5v2.5c0,0.5-0.4,1.1-0.8,1.4l-2.1,1.2
							c-0.4,0.2-0.8,0.1-0.8-0.5V183C178.8,182.5,179.1,181.9,179.5,181.6z"/>
					</g>
					<g id="XMLID_2919_">
						<path id="XMLID_2921_" class="st3" d="M176.2,190l8.8-5.1c0.3-0.2,0.5-0.1,0.5,0.2s-0.2,0.7-0.5,0.8l-8.8,5.1
							c-0.3,0.2-0.5,0.1-0.5-0.2C175.7,190.5,175.9,190.1,176.2,190z"/>
					</g>
				</g>
				<g id="XMLID_2905_">
					<g id="XMLID_2911_">
						<path id="XMLID_2916_" class="st15" d="M191.4,174.8l2.1-1.2c0.4-0.2,0.8-0.1,0.8,0.5v2.5c0,0.5-0.4,1.1-0.8,1.4l-2.1,1.2
							c-0.4,0.2-0.8,0.1-0.8-0.5v-2.5C190.6,175.7,190.9,175.1,191.4,174.8z"/>
					</g>
					<g id="XMLID_2907_">
						<path id="XMLID_2910_" class="st3" d="M188,183.2l8.8-5.1c0.3-0.2,0.5-0.1,0.5,0.2s-0.2,0.7-0.5,0.8l-8.8,5.1
							c-0.3,0.2-0.5,0.1-0.5-0.2S187.8,183.3,188,183.2z"/>
					</g>
				</g>
				<g id="XMLID_2878_">
					<g id="XMLID_2902_">
						<path id="XMLID_2904_" class="st15" d="M203.1,168l2.1-1.2c0.4-0.2,0.8-0.1,0.8,0.5v2.5c0,0.5-0.4,1.1-0.8,1.4l-2.1,1.2
							c-0.4,0.2-0.8,0.1-0.8-0.5v-2.5C202.4,168.9,202.7,168.2,203.1,168z"/>
					</g>
					<g id="XMLID_2899_">
						<path id="XMLID_2900_" class="st3" d="M199.8,176.3l8.8-5.1c0.3-0.2,0.5-0.1,0.5,0.2s-0.2,0.7-0.5,0.8l-8.8,5.1
							c-0.3,0.2-0.5,0.1-0.5-0.2C199.3,176.9,199.6,176.5,199.8,176.3z"/>
					</g>
					<g id="XMLID_2897_">
						<path id="XMLID_2898_" class="st3" d="M176.2,192.1l8.8-5.1c0.3-0.2,0.5-0.1,0.5,0.2s-0.2,0.7-0.5,0.8l-8.8,5.1
							c-0.3,0.2-0.5,0.1-0.5-0.2S175.9,192.2,176.2,192.1z"/>
					</g>
					<g id="XMLID_2895_">
						<path id="XMLID_2896_" class="st3" d="M188,185.2l8.8-5.1c0.3-0.2,0.5-0.1,0.5,0.2s-0.2,0.7-0.5,0.8l-8.8,5.1
							c-0.3,0.2-0.5,0.1-0.5-0.2C187.5,185.8,187.8,185.4,188,185.2z"/>
					</g>
					<g id="XMLID_2892_">
						<path id="XMLID_2894_" class="st3" d="M199.8,178.4l8.8-5.1c0.3-0.2,0.5-0.1,0.5,0.2s-0.2,0.7-0.5,0.8l-8.8,5.1
							c-0.3,0.2-0.5,0.1-0.5-0.2C199.3,179,199.6,178.6,199.8,178.4z"/>
					</g>
					<g id="XMLID_2888_">
						<path id="XMLID_2890_" class="st3" d="M176.2,194.2l8.8-5.1c0.3-0.2,0.5-0.1,0.5,0.2s-0.2,0.7-0.5,0.8l-8.8,5.1
							c-0.3,0.2-0.5,0.1-0.5-0.2S175.9,194.3,176.2,194.2z"/>
					</g>
					<g id="XMLID_2884_">
						<path id="XMLID_2886_" class="st3" d="M188,187.4l8.8-5.1c0.3-0.2,0.5-0.1,0.5,0.2s-0.2,0.7-0.5,0.8l-8.8,5.1
							c-0.3,0.2-0.5,0.1-0.5-0.2C187.5,187.9,187.8,187.5,188,187.4z"/>
					</g>
					<g id="XMLID_2880_">
						<path id="XMLID_2882_" class="st3" d="M199.8,180.5l8.8-5.1c0.3-0.2,0.5-0.1,0.5,0.2s-0.2,0.7-0.5,0.8l-8.8,5.1
							c-0.3,0.2-0.5,0.1-0.5-0.2C199.3,181.1,199.6,180.7,199.8,180.5z"/>
					</g>
				</g>
			</g>
			<g id="XMLID_2815_">
				<g id="XMLID_2866_">
					<g id="XMLID_2872_">
						<path id="XMLID_2874_" class="st15" d="M179.5,199.2l2.1-1.2c0.4-0.2,0.8-0.1,0.8,0.5v2.5c0,0.5-0.4,1.1-0.8,1.4l-2.1,1.2
							c-0.4,0.2-0.8,0.1-0.8-0.5v-2.5C178.8,200.1,179.1,199.5,179.5,199.2z"/>
					</g>
					<g id="XMLID_2868_">
						<path id="XMLID_2870_" class="st3" d="M176.2,207.6l8.8-5.1c0.3-0.2,0.5-0.1,0.5,0.2s-0.2,0.7-0.5,0.8l-8.8,5.1
							c-0.3,0.2-0.5,0.1-0.5-0.2C175.7,208.1,175.9,207.7,176.2,207.6z"/>
					</g>
				</g>
				<g id="XMLID_2852_">
					<g id="XMLID_2858_">
						<path id="XMLID_2865_" class="st15" d="M191.4,192.4l2.1-1.2c0.4-0.2,0.8-0.1,0.8,0.5v2.5c0,0.5-0.4,1.1-0.8,1.4l-2.1,1.2
							c-0.4,0.2-0.8,0.1-0.8-0.5v-2.5C190.6,193.3,190.9,192.7,191.4,192.4z"/>
					</g>
					<g id="XMLID_2854_">
						<path id="XMLID_2856_" class="st3" d="M188,200.8l8.8-5.1c0.3-0.2,0.5-0.1,0.5,0.2s-0.2,0.7-0.5,0.8l-8.8,5.1
							c-0.3,0.2-0.5,0.1-0.5-0.2S187.8,200.9,188,200.8z"/>
					</g>
				</g>
				<g id="XMLID_2816_">
					<g id="XMLID_2849_">
						<path id="XMLID_2851_" class="st15" d="M203.1,185.6l2.1-1.2c0.4-0.2,0.8-0.1,0.8,0.5v2.5c0,0.5-0.4,1.1-0.8,1.4l-2.1,1.2
							c-0.4,0.2-0.8,0.1-0.8-0.5v-2.5C202.4,186.4,202.7,185.8,203.1,185.6z"/>
					</g>
					<g id="XMLID_2846_">
						<path id="XMLID_2847_" class="st3" d="M199.8,193.9l8.8-5.1c0.3-0.2,0.5-0.1,0.5,0.2s-0.2,0.7-0.5,0.8l-8.8,5.1
							c-0.3,0.2-0.5,0.1-0.5-0.2C199.3,194.4,199.6,194.1,199.8,193.9z"/>
					</g>
					<g id="XMLID_2842_">
						<path id="XMLID_2844_" class="st3" d="M176.2,209.7l8.8-5.1c0.3-0.2,0.5-0.1,0.5,0.2s-0.2,0.7-0.5,0.8l-8.8,5.1
							c-0.3,0.2-0.5,0.1-0.5-0.2C175.7,210.2,175.9,209.8,176.2,209.7z"/>
					</g>
					<g id="XMLID_2838_">
						<path id="XMLID_2840_" class="st3" d="M188,202.8l8.8-5.1c0.3-0.2,0.5-0.1,0.5,0.2s-0.2,0.7-0.5,0.8l-8.8,5.1
							c-0.3,0.2-0.5,0.1-0.5-0.2S187.8,203,188,202.8z"/>
					</g>
					<g id="XMLID_2836_">
						<path id="XMLID_2837_" class="st3" d="M199.8,196l8.8-5.1c0.3-0.2,0.5-0.1,0.5,0.2s-0.2,0.7-0.5,0.8l-8.8,5.1
							c-0.3,0.2-0.5,0.1-0.5-0.2C199.3,196.5,199.6,196.2,199.8,196z"/>
					</g>
					<g id="XMLID_2834_">
						<path id="XMLID_2835_" class="st3" d="M176.2,211.8l8.8-5.1c0.3-0.2,0.5-0.1,0.5,0.2s-0.2,0.7-0.5,0.8l-8.8,5.1
							c-0.3,0.2-0.5,0.1-0.5-0.2C175.7,212.3,175.9,211.9,176.2,211.8z"/>
					</g>
					<g id="XMLID_2819_">
						<path id="XMLID_2833_" class="st3" d="M188,204.9l8.8-5.1c0.3-0.2,0.5-0.1,0.5,0.2s-0.2,0.7-0.5,0.8L188,206
							c-0.3,0.2-0.5,0.1-0.5-0.2S187.8,205.1,188,204.9z"/>
					</g>
					<g id="XMLID_2817_">
						<path id="XMLID_2818_" class="st3" d="M199.8,198.1l8.8-5.1c0.3-0.2,0.5-0.1,0.5,0.2s-0.2,0.7-0.5,0.8l-8.8,5.1
							c-0.3,0.2-0.5,0.1-0.5-0.2C199.3,198.6,199.6,198.3,199.8,198.1z"/>
					</g>
				</g>
			</g>
			<g id="XMLID_2811_">
				<path id="XMLID_2814_" class="st7" d="M156.3,122c5.1-3,9.3-0.6,9.3,5.4c0,5.9-4.2,13.1-9.3,16.1c-5.1,3-9.3,0.6-9.3-5.4
					S151.2,125,156.3,122z"/>
				<path id="XMLID_2813_" class="st3" d="M156.3,126.7c1.7-1,3-0.2,3,1.7c0,1.9-1.4,4.3-3,5.2s-3,0.2-3-1.7
					C153.3,130,154.7,127.7,156.3,126.7z"/>
				<path id="XMLID_2812_" class="st3" d="M162.2,137c0-3.2-2.2-4.4-4.9-2.9l-1.7,1c-2.7,1.6-4.9,5.4-4.9,8.6v0.9
					c1.6,0.5,3.6,0.2,5.7-1c2.2-1.3,4.3-3.4,5.9-5.8L162.2,137L162.2,137z"/>
			</g>
			<g id="XMLID_2808_">
				<path id="XMLID_2810_" class="st5" d="M150.8,158.8l12.9-7.4c0.6-0.3,1-0.1,1,0.5s-0.4,1.3-1,1.6l-12.9,7.4
					c-0.6,0.3-1,0.1-1-0.5S150.3,159.1,150.8,158.8z"/>
			</g>
		</g>
		<g id="XMLID_986_">
			<g id="XMLID_3069_">
				<g id="XMLID_3071_">
					<polygon id="XMLID_3076_" class="st9" points="109.9,266.6 126.3,195.8 215.8,144.1 199.4,214.9 					"/>
				</g>
			</g>
			<polygon id="XMLID_20_" class="st10" points="154.9,240.6 154.9,179.3 215.5,144.4 199.4,214.9 			"/>
		</g>
	</g>
	<polygon id="Shadow_17_" class="st16" points="170.3,249.5 154.9,240.6 183.6,224.2 	"/>
	<g id="Document">
		<g id="XMLID_2780_">
			<path id="XMLID_3031_" class="st4" d="M170.3,249.5c-0.5-0.3-0.9-1.1-0.9-1.7V138.8c0-0.6,0.4-1.4,1-1.7l68.5-39.5
				c0.6-0.3,1.4-0.3,1.9,0c0.5,0.3,0.9,1.1,0.9,1.7v109.1c0,0.6-0.4,1.4-1,1.7l-68.5,39.5C171.7,249.8,170.8,249.8,170.3,249.5z"/>
		</g>
		<g id="XMLID_2779_">
			<path id="XMLID_3029_" class="st17" d="M171.2,140.9l27.8-18.2l-1.9-1.1l-26.8,15.5c-0.6,0.3-1,1.1-1,1.7v1L171.2,140.9z"/>
		</g>
		<g id="XMLID_2778_">
			<path id="XMLID_3027_" class="st18" d="M180.5,144.1l-10.8-6.3c-0.2,0.3-0.3,0.7-0.3,1v109.1c0,0.6,0.4,1.4,0.9,1.7
				c0.5,0.3,1.4,0.3,1.9,0l8.3-4.8V144.1z"/>
		</g>
		<g id="XMLID_2777_">
			<path id="XMLID_3025_" class="st19" d="M172.2,249.5l68.5-39.5c0.6-0.3,1-1.1,1-1.7V99.2c0-0.6-0.4-0.9-1-0.6l-68.5,39.5
				c-0.6,0.3-1,1.1-1,1.7v109.1C171.2,249.6,171.7,249.8,172.2,249.5z"/>
		</g>
		<g id="XMLID_2723_">
			<path id="XMLID_2936_" class="st3" d="M176.9,165.1l16.4-9.5c1.1-0.6,2-0.2,2,1s-0.9,2.6-2,3.3l-16.4,9.5c-1.1,0.6-2,0.2-2-1
				S175.8,165.7,176.9,165.1z"/>
		</g>
		<g id="XMLID_2719_">
			<g id="XMLID_2721_">
				<path id="XMLID_2932_" class="st20" d="M175.7,182.4l2.1-1.2c0.4-0.2,0.8-0.1,0.8,0.5v2.5c0,0.5-0.4,1.1-0.8,1.4l-2.1,1.2
					c-0.4,0.2-0.8,0.1-0.8-0.5v-2.5C174.9,183.3,175.3,182.7,175.7,182.4z"/>
			</g>
			<g id="XMLID_2720_">
				<path id="XMLID_2920_" class="st3" d="M181.5,180.2l12.9-7.4c0.6-0.3,1-0.1,1,0.5s-0.4,1.3-1,1.6l-12.9,7.4
					c-0.6,0.3-1,0.1-1-0.5C180.5,181.2,180.9,180.5,181.5,180.2z"/>
			</g>
		</g>
		<g id="XMLID_2696_">
			<g id="XMLID_2718_">
				<path id="XMLID_2917_" class="st9" d="M175.7,191l2.1-1.2c0.4-0.2,0.8-0.1,0.8,0.5v2.5c0,0.5-0.4,1.1-0.8,1.4l-2.1,1.2
					c-0.4,0.2-0.8,0.1-0.8-0.5v-2.5C174.9,191.9,175.3,191.2,175.7,191z"/>
			</g>
			<g id="XMLID_2717_">
				<path id="XMLID_2915_" class="st3" d="M181.5,188.7l12.9-7.4c0.6-0.3,1-0.1,1,0.5s-0.4,1.3-1,1.6l-12.9,7.4
					c-0.6,0.3-1,0.1-1-0.5C180.5,189.8,180.9,189,181.5,188.7z"/>
			</g>
		</g>
		<g id="XMLID_2693_">
			<g id="XMLID_2695_">
				<path id="XMLID_2909_" class="st9" d="M175.7,199.6l2.1-1.2c0.4-0.2,0.8-0.1,0.8,0.5v2.5c0,0.5-0.4,1.1-0.8,1.4l-2.1,1.2
					c-0.4,0.2-0.8,0.1-0.8-0.5v-2.5C174.9,200.4,175.3,199.8,175.7,199.6z"/>
			</g>
			<g id="XMLID_2694_">
				<path id="XMLID_2906_" class="st3" d="M181.5,197.3l12.9-7.4c0.6-0.3,1-0.1,1,0.5s-0.4,1.3-1,1.6l-12.9,7.4
					c-0.6,0.3-1,0.1-1-0.5C180.5,198.3,180.9,197.6,181.5,197.3z"/>
			</g>
		</g>
		<g id="XMLID_2690_">
			<g id="XMLID_2692_">
				<path id="XMLID_2903_" class="st9" d="M175.7,208.1l2.1-1.2c0.4-0.2,0.8-0.1,0.8,0.5v2.5c0,0.5-0.4,1.1-0.8,1.4l-2.1,1.2
					c-0.4,0.2-0.8,0.1-0.8-0.5v-2.5C174.9,209,175.3,208.4,175.7,208.1z"/>
			</g>
			<g id="XMLID_2691_">
				<path id="XMLID_2901_" class="st3" d="M181.5,205.9l12.9-7.4c0.6-0.3,1-0.1,1,0.5s-0.4,1.3-1,1.6l-12.9,7.4
					c-0.6,0.3-1,0.1-1-0.5C180.5,206.9,180.9,206.2,181.5,205.9z"/>
			</g>
		</g>
		<g id="XMLID_2686_">
			<path id="XMLID_2893_" class="st3" d="M175.9,226.1l9.1-5.3c0.6-0.3,1-0.1,1,0.5s-0.4,1.3-1,1.6l-9.1,5.3c-0.6,0.3-1,0.1-1-0.5
				S175.4,226.4,175.9,226.1z"/>
		</g>
		<g id="XMLID_2685_">
			<path id="XMLID_2891_" class="st7" d="M175.9,230.3l18.4-10.6c0.6-0.3,1-0.1,1,0.5s-0.4,1.3-1,1.6l-18.4,10.6
				c-0.6,0.3-1,0.1-1-0.5S175.4,230.6,175.9,230.3z"/>
		</g>
		<g id="XMLID_2684_">
			<path id="XMLID_2889_" class="st9" d="M175.9,230.3l12.9-7.4c0.6-0.3,1-0.1,1,0.5s-0.4,1.3-1,1.6l-12.9,7.4c-0.6,0.3-1,0.1-1-0.5
				S175.4,230.6,175.9,230.3z"/>
		</g>
		<g id="XMLID_2683_">
			<path id="XMLID_2887_" class="st3" d="M175.9,234.6l9.1-5.3c0.6-0.3,1-0.1,1,0.5s-0.4,1.3-1,1.6l-9.1,5.3c-0.6,0.3-1,0.1-1-0.5
				S175.4,234.9,175.9,234.6z"/>
		</g>
		<g id="XMLID_2736_">
			<path id="XMLID_2737_" class="st3" d="M175.9,217.5l9.1-5.3c0.6-0.3,1-0.1,1,0.5s-0.4,1.3-1,1.6l-9.1,5.3c-0.6,0.3-1,0.1-1-0.5
				S175.4,217.8,175.9,217.5z"/>
		</g>
		<g id="XMLID_2734_">
			<path id="XMLID_2735_" class="st7" d="M175.9,221.8l18.4-10.6c0.6-0.3,1-0.1,1,0.5s-0.4,1.3-1,1.6l-18.4,10.6
				c-0.6,0.3-1,0.1-1-0.5S175.4,222.1,175.9,221.8z"/>
		</g>
		<g id="XMLID_2731_">
			<path id="XMLID_2733_" class="st9" d="M175.9,221.8l6.5-3.8c0.6-0.3,1-0.1,1,0.5s-0.4,1.3-1,1.6l-6.5,3.8c-0.6,0.3-1,0.1-1-0.5
				S175.4,222.1,175.9,221.8z"/>
		</g>
		<g id="XMLID_2655_">
			<path id="XMLID_2885_" class="st7" d="M175.9,238.9l18.4-10.6c0.6-0.3,1-0.1,1,0.5s-0.4,1.3-1,1.6L175.9,241
				c-0.6,0.3-1,0.1-1-0.5S175.4,239.2,175.9,238.9z"/>
		</g>
		<g id="XMLID_2653_">
			<path id="XMLID_2883_" class="st9" d="M175.9,238.9l16.6-9.6c0.6-0.3,1-0.1,1,0.5s-0.4,1.3-1,1.6l-16.6,9.6c-0.6,0.3-1,0.1-1-0.5
				C174.9,239.9,175.4,239.2,175.9,238.9z"/>
		</g>
		<g id="XMLID_2630_">
			<path id="XMLID_2881_" class="st7" d="M240.7,98.6L199,122.7V234l41.7-24.1c0.6-0.3,1-1.1,1-1.7V99.2
				C241.7,98.5,241.2,98.3,240.7,98.6z"/>
		</g>
		<g id="XMLID_2629_">
			<polygon id="XMLID_2879_" class="st21" points="199,126.9 199,135.5 195.3,139.8 199,139.8 199,148.4 238,125.9 238,104.5 			"/>
		</g>
		<g id="XMLID_2596_">
			<path id="XMLID_2877_" class="st7" d="M204.1,127.2l15.8-9.1c0.8-0.4,1.4-0.1,1.4,0.8v0c0,0.9-0.6,2-1.4,2.4l-15.8,9.1
				c-0.8,0.4-1.4,0.1-1.4-0.8v0C202.8,128.8,203.4,127.7,204.1,127.2z"/>
		</g>
		<g id="XMLID_2595_">
			<path id="XMLID_2875_" class="st7" d="M203.2,134.2l30.5-17.6c0.3-0.2,0.5-0.1,0.5,0.2s-0.2,0.7-0.5,0.8l-30.5,17.6
				c-0.3,0.2-0.5,0.1-0.5-0.2C202.8,134.7,203,134.3,203.2,134.2z"/>
		</g>
		<g id="XMLID_2594_">
			<path id="XMLID_2873_" class="st7" d="M203.2,137.4l30.5-17.6c0.3-0.2,0.5-0.1,0.5,0.2s-0.2,0.7-0.5,0.8l-30.5,17.6
				c-0.3,0.2-0.5,0.1-0.5-0.2C202.8,137.9,203,137.5,203.2,137.4z"/>
		</g>
		<g id="XMLID_2593_">
			<path id="XMLID_2871_" class="st7" d="M203.2,140.6l30.5-17.6c0.3-0.2,0.5-0.1,0.5,0.2s-0.2,0.7-0.5,0.8l-30.5,17.6
				c-0.3,0.2-0.5,0.1-0.5-0.2S203,140.7,203.2,140.6z"/>
		</g>
		<g id="XMLID_2517_">
			<g id="XMLID_2573_">
				<g id="XMLID_2592_">
					<path id="XMLID_2869_" class="st21" d="M204.4,149.6l2.1-1.2c0.4-0.2,0.8-0.1,0.8,0.5v2.5c0,0.5-0.4,1.1-0.8,1.4l-2.1,1.2
						c-0.4,0.2-0.8,0.1-0.8-0.5v-2.5C203.6,150.4,204,149.8,204.4,149.6z"/>
				</g>
				<g id="XMLID_2574_">
					<path id="XMLID_2867_" class="st17" d="M210.1,147.3l12.9-7.4c0.6-0.3,1-0.1,1,0.5s-0.4,1.3-1,1.6l-12.9,7.4
						c-0.6,0.3-1,0.1-1-0.5S209.6,147.6,210.1,147.3z"/>
				</g>
			</g>
			<g id="XMLID_2572_">
				<path id="XMLID_2860_" class="st17" d="M204.1,157.2l32.4-18.7c0.3-0.2,0.5-0.1,0.5,0.2s-0.2,0.7-0.5,0.8l-32.4,18.7
					c-0.3,0.2-0.5,0.1-0.5-0.2S203.8,157.4,204.1,157.2z"/>
			</g>
			<g id="XMLID_2571_">
				<path id="XMLID_2857_" class="st17" d="M204.1,160.4l32.4-18.7c0.3-0.2,0.5-0.1,0.5,0.2s-0.2,0.7-0.5,0.8l-32.4,18.7
					c-0.3,0.2-0.5,0.1-0.5-0.2C203.6,161,203.8,160.6,204.1,160.4z"/>
			</g>
			<g id="XMLID_2570_">
				<path id="XMLID_2855_" class="st17" d="M204.1,163.7l32.4-18.7c0.3-0.2,0.5-0.1,0.5,0.2s-0.2,0.7-0.5,0.8l-32.4,18.7
					c-0.3,0.2-0.5,0.1-0.5-0.2S203.8,163.8,204.1,163.7z"/>
			</g>
			<g id="XMLID_2518_">
				<path id="XMLID_2853_" class="st17" d="M204.1,166.9l32.4-18.7c0.3-0.2,0.5-0.1,0.5,0.2s-0.2,0.7-0.5,0.8L204.1,168
					c-0.3,0.2-0.5,0.1-0.5-0.2C203.6,167.4,203.8,167,204.1,166.9z"/>
			</g>
		</g>
		<g id="XMLID_2504_">
			<g id="XMLID_2514_">
				<g id="XMLID_2516_">
					<path id="XMLID_2850_" class="st9" d="M204.4,173.1l2.1-1.2c0.4-0.2,0.8-0.1,0.8,0.5v2.5c0,0.5-0.4,1.1-0.8,1.4l-2.1,1.2
						c-0.4,0.2-0.8,0.1-0.8-0.5v-2.5C203.6,174,204,173.4,204.4,173.1z"/>
				</g>
				<g id="XMLID_2515_">
					<path id="XMLID_2848_" class="st17" d="M210.1,170.9l12.9-7.4c0.6-0.3,1-0.1,1,0.5s-0.4,1.3-1,1.6l-12.9,7.4
						c-0.6,0.3-1,0.1-1-0.5C209.2,171.9,209.6,171.2,210.1,170.9z"/>
				</g>
			</g>
			<g id="XMLID_2513_">
				<path id="XMLID_2845_" class="st17" d="M204.1,180.8l32.4-18.7c0.3-0.2,0.5-0.1,0.5,0.2s-0.2,0.7-0.5,0.8l-32.4,18.7
					c-0.3,0.2-0.5,0.1-0.5-0.2C203.6,181.3,203.8,180.9,204.1,180.8z"/>
			</g>
			<g id="XMLID_2512_">
				<path id="XMLID_2843_" class="st17" d="M204.1,184l32.4-18.7c0.3-0.2,0.5-0.1,0.5,0.2s-0.2,0.7-0.5,0.8l-32.4,18.7
					c-0.3,0.2-0.5,0.1-0.5-0.2C203.6,184.5,203.8,184.2,204.1,184z"/>
			</g>
			<g id="XMLID_2506_">
				<path id="XMLID_2841_" class="st17" d="M204.1,187.2l32.4-18.7c0.3-0.2,0.5-0.1,0.5,0.2s-0.2,0.7-0.5,0.8l-32.4,18.7
					c-0.3,0.2-0.5,0.1-0.5-0.2S203.8,187.4,204.1,187.2z"/>
			</g>
			<g id="XMLID_2505_">
				<path id="XMLID_2839_" class="st17" d="M204.1,190.4l32.4-18.7c0.3-0.2,0.5-0.1,0.5,0.2s-0.2,0.7-0.5,0.8l-32.4,18.7
					c-0.3,0.2-0.5,0.1-0.5-0.2C203.6,191,203.8,190.6,204.1,190.4z"/>
			</g>
		</g>
		<g id="XMLID_2336_">
			<g id="XMLID_2383_">
				<g id="XMLID_2386_">
					<path id="XMLID_2809_" class="st9" d="M207.4,195.1l2.1-1.2c0.4-0.2,0.8-0.1,0.8,0.5v2.5c0,0.5-0.4,1.1-0.8,1.4l-2.1,1.2
						c-0.4,0.2-0.8,0.1-0.8-0.5v-2.5C206.6,196,207,195.4,207.4,195.1z"/>
				</g>
				<g id="XMLID_2384_">
					<path id="XMLID_2807_" class="st17" d="M204.1,203.5l8.8-5.1c0.3-0.2,0.5-0.1,0.5,0.2s-0.2,0.7-0.5,0.8l-8.8,5.1
						c-0.3,0.2-0.5,0.1-0.5-0.2S203.8,203.6,204.1,203.5z"/>
				</g>
			</g>
			<g id="XMLID_2380_">
				<g id="XMLID_2382_">
					<path id="XMLID_2793_" class="st9" d="M219.2,188.3l2.1-1.2c0.4-0.2,0.8-0.1,0.8,0.5v2.5c0,0.5-0.4,1.1-0.8,1.4l-2.1,1.2
						c-0.4,0.2-0.8,0.1-0.8-0.5v-2.5C218.4,189.2,218.8,188.6,219.2,188.3z"/>
				</g>
				<g id="XMLID_2381_">
					<path id="XMLID_2791_" class="st17" d="M215.9,196.6l8.8-5.1c0.3-0.2,0.5-0.1,0.5,0.2s-0.2,0.7-0.5,0.8l-8.8,5.1
						c-0.3,0.2-0.5,0.1-0.5-0.2S215.6,196.8,215.9,196.6z"/>
				</g>
			</g>
			<g id="XMLID_2337_">
				<g id="XMLID_2379_">
					<path id="XMLID_2788_" class="st9" d="M231,181.5l2.1-1.2c0.4-0.2,0.8-0.1,0.8,0.5v2.5c0,0.5-0.4,1.1-0.8,1.4l-2.1,1.2
						c-0.4,0.2-0.8,0.1-0.8-0.5v-2.5C230.2,182.4,230.6,181.7,231,181.5z"/>
				</g>
				<g id="XMLID_2378_">
					<path id="XMLID_2786_" class="st17" d="M227.7,189.8l8.8-5.1c0.3-0.2,0.5-0.1,0.5,0.2s-0.2,0.7-0.5,0.8l-8.8,5.1
						c-0.3,0.2-0.5,0.1-0.5-0.2C227.2,190.4,227.4,190,227.7,189.8z"/>
				</g>
				<g id="XMLID_2500_">
					<path id="XMLID_2501_" class="st17" d="M204.1,205.6l8.8-5.1c0.3-0.2,0.5-0.1,0.5,0.2s-0.2,0.7-0.5,0.8l-8.8,5.1
						c-0.3,0.2-0.5,0.1-0.5-0.2C203.6,206.1,203.8,205.7,204.1,205.6z"/>
				</g>
				<g id="XMLID_2466_">
					<path id="XMLID_2479_" class="st17" d="M215.9,198.7l8.8-5.1c0.3-0.2,0.5-0.1,0.5,0.2s-0.2,0.7-0.5,0.8l-8.8,5.1
						c-0.3,0.2-0.5,0.1-0.5-0.2S215.6,198.9,215.9,198.7z"/>
				</g>
				<g id="XMLID_2426_">
					<path id="XMLID_2427_" class="st17" d="M227.7,191.9l8.8-5.1c0.3-0.2,0.5-0.1,0.5,0.2s-0.2,0.7-0.5,0.8l-8.8,5.1
						c-0.3,0.2-0.5,0.1-0.5-0.2C227.2,192.4,227.4,192.1,227.7,191.9z"/>
				</g>
				<g id="XMLID_2738_">
					<path id="XMLID_2739_" class="st17" d="M204.1,207.7l8.8-5.1c0.3-0.2,0.5-0.1,0.5,0.2s-0.2,0.7-0.5,0.8l-8.8,5.1
						c-0.3,0.2-0.5,0.1-0.5-0.2C203.6,208.2,203.8,207.8,204.1,207.7z"/>
				</g>
				<g id="XMLID_2688_">
					<path id="XMLID_2689_" class="st17" d="M215.9,200.8l8.8-5.1c0.3-0.2,0.5-0.1,0.5,0.2s-0.2,0.7-0.5,0.8l-8.8,5.1
						c-0.3,0.2-0.5,0.1-0.5-0.2C215.4,201.4,215.6,201,215.9,200.8z"/>
				</g>
				<g id="XMLID_2502_">
					<path id="XMLID_2687_" class="st17" d="M227.7,194l8.8-5.1c0.3-0.2,0.5-0.1,0.5,0.2s-0.2,0.7-0.5,0.8l-8.8,5.1
						c-0.3,0.2-0.5,0.1-0.5-0.2C227.2,194.5,227.4,194.2,227.7,194z"/>
				</g>
			</g>
		</g>
		<g id="XMLID_2740_">
			<g id="XMLID_2785_">
				<g id="XMLID_2790_">
					<path id="XMLID_2792_" class="st9" d="M207.4,212.7l2.1-1.2c0.4-0.2,0.8-0.1,0.8,0.5v2.5c0,0.5-0.4,1.1-0.8,1.4l-2.1,1.2
						c-0.4,0.2-0.8,0.1-0.8-0.5v-2.5C206.6,213.6,207,213,207.4,212.7z"/>
				</g>
				<g id="XMLID_2787_">
					<path id="XMLID_2789_" class="st17" d="M204.1,221.1l8.8-5.1c0.3-0.2,0.5-0.1,0.5,0.2s-0.2,0.7-0.5,0.8l-8.8,5.1
						c-0.3,0.2-0.5,0.1-0.5-0.2C203.6,221.6,203.8,221.2,204.1,221.1z"/>
				</g>
			</g>
			<g id="XMLID_2776_">
				<g id="XMLID_2783_">
					<path id="XMLID_2784_" class="st9" d="M219.2,205.9l2.1-1.2c0.4-0.2,0.8-0.1,0.8,0.5v2.5c0,0.5-0.4,1.1-0.8,1.4l-2.1,1.2
						c-0.4,0.2-0.8,0.1-0.8-0.5v-2.5C218.4,206.8,218.8,206.1,219.2,205.9z"/>
				</g>
				<g id="XMLID_2781_">
					<path id="XMLID_2782_" class="st17" d="M215.9,214.2l8.8-5.1c0.3-0.2,0.5-0.1,0.5,0.2s-0.2,0.7-0.5,0.8l-8.8,5.1
						c-0.3,0.2-0.5,0.1-0.5-0.2C215.4,214.8,215.6,214.4,215.9,214.2z"/>
				</g>
			</g>
			<g id="XMLID_2741_">
				<g id="XMLID_2774_">
					<path id="XMLID_2775_" class="st9" d="M231,199.1l2.1-1.2c0.4-0.2,0.8-0.1,0.8,0.5v2.5c0,0.5-0.4,1.1-0.8,1.4l-2.1,1.2
						c-0.4,0.2-0.8,0.1-0.8-0.5v-2.5C230.2,199.9,230.6,199.3,231,199.1z"/>
				</g>
				<g id="XMLID_2772_">
					<path id="XMLID_2773_" class="st17" d="M227.7,207.4l8.8-5.1c0.3-0.2,0.5-0.1,0.5,0.2s-0.2,0.7-0.5,0.8l-8.8,5.1
						c-0.3,0.2-0.5,0.1-0.5-0.2S227.4,207.6,227.7,207.4z"/>
				</g>
				<g id="XMLID_2770_">
					<path id="XMLID_2771_" class="st17" d="M204.1,223.1l8.8-5.1c0.3-0.2,0.5-0.1,0.5,0.2s-0.2,0.7-0.5,0.8l-8.8,5.1
						c-0.3,0.2-0.5,0.1-0.5-0.2C203.6,223.7,203.8,223.3,204.1,223.1z"/>
				</g>
				<g id="XMLID_2768_">
					<path id="XMLID_2769_" class="st17" d="M215.9,216.3l8.8-5.1c0.3-0.2,0.5-0.1,0.5,0.2s-0.2,0.7-0.5,0.8l-8.8,5.1
						c-0.3,0.2-0.5,0.1-0.5-0.2S215.6,216.5,215.9,216.3z"/>
				</g>
				<g id="XMLID_2750_">
					<path id="XMLID_2751_" class="st17" d="M227.7,209.5l8.8-5.1c0.3-0.2,0.5-0.1,0.5,0.2s-0.2,0.7-0.5,0.8l-8.8,5.1
						c-0.3,0.2-0.5,0.1-0.5-0.2S227.4,209.7,227.7,209.5z"/>
				</g>
				<g id="XMLID_2748_">
					<path id="XMLID_2749_" class="st17" d="M204.1,225.2l8.8-5.1c0.3-0.2,0.5-0.1,0.5,0.2s-0.2,0.7-0.5,0.8l-8.8,5.1
						c-0.3,0.2-0.5,0.1-0.5-0.2S203.8,225.4,204.1,225.2z"/>
				</g>
				<g id="XMLID_2746_">
					<path id="XMLID_2747_" class="st17" d="M215.9,218.4l8.8-5.1c0.3-0.2,0.5-0.1,0.5,0.2s-0.2,0.7-0.5,0.8l-8.8,5.1
						c-0.3,0.2-0.5,0.1-0.5-0.2S215.6,218.6,215.9,218.4z"/>
				</g>
				<g id="XMLID_2744_">
					<path id="XMLID_2745_" class="st17" d="M227.7,211.6l8.8-5.1c0.3-0.2,0.5-0.1,0.5,0.2s-0.2,0.7-0.5,0.8l-8.8,5.1
						c-0.3,0.2-0.5,0.1-0.5-0.2C227.2,212.1,227.4,211.8,227.7,211.6z"/>
				</g>
			</g>
		</g>
		<g id="XMLID_2726_">
			<path id="XMLID_2730_" class="st3" d="M184.2,135.5c5.1-3,9.3-0.6,9.3,5.4s-4.2,13.1-9.3,16.1c-5.1,3-9.3,0.6-9.3-5.4
				S179.1,138.5,184.2,135.5z"/>
			<path id="XMLID_2729_" class="st7" d="M184.2,140.2c1.7-1,3-0.2,3,1.7s-1.4,4.3-3,5.2s-3,0.2-3-1.7S182.5,141.2,184.2,140.2z"/>
			<path id="XMLID_2728_" class="st7" d="M190.1,150.5c0-3.2-2.2-4.4-4.9-2.9l-1.7,1c-2.7,1.6-4.9,5.4-4.9,8.6v0.9
				c1.6,0.5,3.6,0.2,5.7-1c2.2-1.3,4.3-3.4,5.9-5.8L190.1,150.5L190.1,150.5z"/>
		</g>
		<g id="XMLID_2722_">
			<path id="XMLID_2805_" class="st3" d="M178.7,172.3l12.9-7.4c0.6-0.3,1-0.1,1,0.5s-0.4,1.3-1,1.6l-12.9,7.4c-0.6,0.3-1,0.1-1-0.5
				C177.7,173.3,178.2,172.6,178.7,172.3z"/>
		</g>
	</g>
	<g>
		<g>
			<path class="st22" d="M247.5,233.7c-4.9,2.9-13,2.9-17.9,0c-4.9-2.9-4.9-7.5,0-10.4s13-2.9,17.9,0
				C252.5,226.2,252.5,230.8,247.5,233.7z"/>
			<path class="st23" d="M253,222.2v-4.1h-0.8c-0.7-1.2-1.8-2.3-3.5-3.2c-5.6-3.2-14.8-3.2-20.4,0c-1.6,0.9-2.8,2.1-3.5,3.2h-0.8v4
				l0,0c0,2.1,1.4,4.3,4.2,5.9c5.6,3.2,14.8,3.2,20.4,0C251.6,226.5,253,224.4,253,222.2z"/>
			<ellipse class="st23" cx="238.6" cy="218.2" rx="14.4" ry="8.3"/>
			<path class="st15" d="M248.7,224.1c-5.6,3.2-14.8,3.2-20.4,0c-2.7-1.6-4.1-3.6-4.2-5.6c-0.1,2.2,1.3,4.5,4.2,6.1
				c5.6,3.2,14.8,3.2,20.4,0c2.9-1.7,4.3-3.9,4.2-6.1C252.8,220.5,251.4,222.5,248.7,224.1z"/>
		</g>
		<g>
			<path class="st15" d="M231.6,220.9c-0.2-0.1-0.4-0.3-0.4-0.5l0-5.4c0-0.4,0.6-0.8,1.3-0.8s1.3,0.3,1.3,0.8l0,4.5l13.1-1.6
				c0.7-0.1,1.4,0.2,1.5,0.6c0.1,0.4-0.3,0.8-1,0.9l-14.6,1.8C232.4,221.2,232,221.1,231.6,220.9C231.7,221,231.6,221,231.6,220.9z"
				/>
		</g>
	</g>
</g>
</svg>
